G75*
%MOIN*%
%OFA0B0*%
%FSLAX25Y25*%
%IPPOS*%
%LPD*%
%AMOC8*
5,1,8,0,0,1.08239X$1,22.5*
%
%ADD10C,0.00300*%
%ADD11C,0.00600*%
D10*
X0054274Y0030975D02*
X0054274Y0033442D01*
X0054171Y0034470D02*
X0054377Y0034470D01*
X0054377Y0034675D01*
X0054171Y0034675D01*
X0054171Y0034470D01*
X0054805Y0035742D02*
X0053572Y0039442D01*
X0055217Y0039442D02*
X0054394Y0036975D01*
X0054805Y0035742D02*
X0055217Y0035742D01*
X0057171Y0036975D02*
X0058199Y0036975D01*
X0058199Y0040675D01*
X0058199Y0039442D02*
X0057171Y0039442D01*
X0057123Y0039440D01*
X0057074Y0039434D01*
X0057027Y0039425D01*
X0056980Y0039412D01*
X0056935Y0039395D01*
X0056891Y0039375D01*
X0056849Y0039351D01*
X0056808Y0039324D01*
X0056770Y0039294D01*
X0056735Y0039261D01*
X0056702Y0039226D01*
X0056672Y0039188D01*
X0056645Y0039147D01*
X0056621Y0039105D01*
X0056601Y0039061D01*
X0056584Y0039016D01*
X0056571Y0038969D01*
X0056562Y0038922D01*
X0056556Y0038873D01*
X0056554Y0038825D01*
X0056554Y0037592D01*
X0056556Y0037544D01*
X0056562Y0037495D01*
X0056571Y0037448D01*
X0056584Y0037401D01*
X0056601Y0037356D01*
X0056621Y0037312D01*
X0056645Y0037270D01*
X0056672Y0037229D01*
X0056702Y0037191D01*
X0056735Y0037156D01*
X0056770Y0037123D01*
X0056808Y0037093D01*
X0056849Y0037066D01*
X0056891Y0037042D01*
X0056935Y0037022D01*
X0056980Y0037005D01*
X0057027Y0036992D01*
X0057074Y0036983D01*
X0057123Y0036977D01*
X0057171Y0036975D01*
X0057310Y0034675D02*
X0057310Y0030975D01*
X0058338Y0030975D01*
X0058386Y0030977D01*
X0058435Y0030983D01*
X0058482Y0030992D01*
X0058529Y0031005D01*
X0058574Y0031022D01*
X0058618Y0031042D01*
X0058660Y0031066D01*
X0058701Y0031093D01*
X0058739Y0031123D01*
X0058774Y0031156D01*
X0058807Y0031191D01*
X0058837Y0031229D01*
X0058864Y0031270D01*
X0058888Y0031312D01*
X0058908Y0031356D01*
X0058925Y0031401D01*
X0058938Y0031448D01*
X0058947Y0031495D01*
X0058953Y0031544D01*
X0058955Y0031592D01*
X0058954Y0031592D02*
X0058954Y0032825D01*
X0058955Y0032825D02*
X0058953Y0032873D01*
X0058947Y0032922D01*
X0058938Y0032969D01*
X0058925Y0033016D01*
X0058908Y0033061D01*
X0058888Y0033105D01*
X0058864Y0033147D01*
X0058837Y0033188D01*
X0058807Y0033226D01*
X0058774Y0033261D01*
X0058739Y0033294D01*
X0058701Y0033324D01*
X0058660Y0033351D01*
X0058618Y0033375D01*
X0058574Y0033395D01*
X0058529Y0033412D01*
X0058482Y0033425D01*
X0058435Y0033434D01*
X0058386Y0033440D01*
X0058338Y0033442D01*
X0057310Y0033442D01*
X0060083Y0033442D02*
X0060083Y0033031D01*
X0060083Y0033442D02*
X0061316Y0033442D01*
X0061316Y0030975D01*
X0063070Y0030975D02*
X0063070Y0032825D01*
X0063070Y0032414D02*
X0063995Y0032414D01*
X0063070Y0032825D02*
X0063072Y0032873D01*
X0063078Y0032922D01*
X0063087Y0032969D01*
X0063100Y0033016D01*
X0063117Y0033061D01*
X0063137Y0033105D01*
X0063161Y0033147D01*
X0063188Y0033188D01*
X0063218Y0033226D01*
X0063251Y0033261D01*
X0063286Y0033294D01*
X0063324Y0033324D01*
X0063365Y0033351D01*
X0063407Y0033375D01*
X0063451Y0033395D01*
X0063496Y0033412D01*
X0063543Y0033425D01*
X0063590Y0033434D01*
X0063639Y0033440D01*
X0063687Y0033442D01*
X0064509Y0033442D01*
X0066121Y0033442D02*
X0066738Y0030975D01*
X0067354Y0032620D01*
X0067971Y0030975D01*
X0068588Y0033442D01*
X0069683Y0033442D02*
X0069683Y0033031D01*
X0069683Y0033442D02*
X0070916Y0033442D01*
X0070916Y0030975D01*
X0072532Y0031797D02*
X0072532Y0032620D01*
X0072534Y0032676D01*
X0072540Y0032732D01*
X0072549Y0032787D01*
X0072562Y0032842D01*
X0072579Y0032895D01*
X0072600Y0032947D01*
X0072624Y0032998D01*
X0072652Y0033047D01*
X0072682Y0033094D01*
X0072716Y0033139D01*
X0072753Y0033181D01*
X0072793Y0033221D01*
X0072835Y0033258D01*
X0072880Y0033292D01*
X0072927Y0033322D01*
X0072976Y0033350D01*
X0073027Y0033374D01*
X0073079Y0033395D01*
X0073132Y0033412D01*
X0073187Y0033425D01*
X0073242Y0033434D01*
X0073298Y0033440D01*
X0073354Y0033442D01*
X0073410Y0033440D01*
X0073466Y0033434D01*
X0073521Y0033425D01*
X0073576Y0033412D01*
X0073629Y0033395D01*
X0073681Y0033374D01*
X0073732Y0033350D01*
X0073781Y0033322D01*
X0073828Y0033292D01*
X0073873Y0033258D01*
X0073915Y0033221D01*
X0073955Y0033181D01*
X0073992Y0033139D01*
X0074026Y0033094D01*
X0074056Y0033047D01*
X0074084Y0032998D01*
X0074108Y0032947D01*
X0074129Y0032895D01*
X0074146Y0032842D01*
X0074159Y0032787D01*
X0074168Y0032732D01*
X0074174Y0032676D01*
X0074176Y0032620D01*
X0074176Y0031797D01*
X0074174Y0031741D01*
X0074168Y0031685D01*
X0074159Y0031630D01*
X0074146Y0031575D01*
X0074129Y0031522D01*
X0074108Y0031470D01*
X0074084Y0031419D01*
X0074056Y0031370D01*
X0074026Y0031323D01*
X0073992Y0031278D01*
X0073955Y0031236D01*
X0073915Y0031196D01*
X0073873Y0031159D01*
X0073828Y0031125D01*
X0073781Y0031095D01*
X0073732Y0031067D01*
X0073681Y0031043D01*
X0073629Y0031022D01*
X0073576Y0031005D01*
X0073521Y0030992D01*
X0073466Y0030983D01*
X0073410Y0030977D01*
X0073354Y0030975D01*
X0073298Y0030977D01*
X0073242Y0030983D01*
X0073187Y0030992D01*
X0073132Y0031005D01*
X0073079Y0031022D01*
X0073027Y0031043D01*
X0072976Y0031067D01*
X0072927Y0031095D01*
X0072880Y0031125D01*
X0072835Y0031159D01*
X0072793Y0031196D01*
X0072753Y0031236D01*
X0072716Y0031278D01*
X0072682Y0031323D01*
X0072652Y0031370D01*
X0072624Y0031419D01*
X0072600Y0031470D01*
X0072579Y0031522D01*
X0072562Y0031575D01*
X0072549Y0031630D01*
X0072540Y0031685D01*
X0072534Y0031741D01*
X0072532Y0031797D01*
X0075195Y0033442D02*
X0076429Y0033442D01*
X0076018Y0034059D02*
X0076018Y0030975D01*
X0077830Y0030975D02*
X0078858Y0030975D01*
X0078906Y0030977D01*
X0078955Y0030983D01*
X0079002Y0030992D01*
X0079049Y0031005D01*
X0079094Y0031022D01*
X0079138Y0031042D01*
X0079180Y0031066D01*
X0079221Y0031093D01*
X0079259Y0031123D01*
X0079294Y0031156D01*
X0079327Y0031191D01*
X0079357Y0031229D01*
X0079384Y0031270D01*
X0079408Y0031312D01*
X0079428Y0031356D01*
X0079445Y0031401D01*
X0079458Y0031448D01*
X0079467Y0031495D01*
X0079473Y0031544D01*
X0079475Y0031592D01*
X0079474Y0031592D02*
X0079474Y0032825D01*
X0079475Y0032825D02*
X0079473Y0032873D01*
X0079467Y0032922D01*
X0079458Y0032969D01*
X0079445Y0033016D01*
X0079428Y0033061D01*
X0079408Y0033105D01*
X0079384Y0033147D01*
X0079357Y0033188D01*
X0079327Y0033226D01*
X0079294Y0033261D01*
X0079259Y0033294D01*
X0079221Y0033324D01*
X0079180Y0033351D01*
X0079138Y0033375D01*
X0079094Y0033395D01*
X0079049Y0033412D01*
X0079002Y0033425D01*
X0078955Y0033434D01*
X0078906Y0033440D01*
X0078858Y0033442D01*
X0077830Y0033442D01*
X0077830Y0030359D01*
X0077832Y0030311D01*
X0077838Y0030262D01*
X0077847Y0030215D01*
X0077860Y0030168D01*
X0077877Y0030123D01*
X0077897Y0030079D01*
X0077921Y0030037D01*
X0077948Y0029996D01*
X0077978Y0029958D01*
X0078011Y0029923D01*
X0078046Y0029890D01*
X0078084Y0029860D01*
X0078125Y0029833D01*
X0078167Y0029809D01*
X0078211Y0029789D01*
X0078256Y0029772D01*
X0078303Y0029759D01*
X0078350Y0029750D01*
X0078399Y0029744D01*
X0078447Y0029742D01*
X0079269Y0029742D01*
X0081052Y0030975D02*
X0081052Y0032825D01*
X0081054Y0032873D01*
X0081060Y0032922D01*
X0081069Y0032969D01*
X0081082Y0033016D01*
X0081099Y0033061D01*
X0081119Y0033105D01*
X0081143Y0033147D01*
X0081170Y0033188D01*
X0081200Y0033226D01*
X0081233Y0033261D01*
X0081268Y0033294D01*
X0081306Y0033324D01*
X0081347Y0033351D01*
X0081389Y0033375D01*
X0081433Y0033395D01*
X0081478Y0033412D01*
X0081525Y0033425D01*
X0081572Y0033434D01*
X0081621Y0033440D01*
X0081669Y0033442D01*
X0082696Y0033442D01*
X0082696Y0030975D01*
X0084274Y0030975D02*
X0084274Y0033442D01*
X0084171Y0034470D02*
X0084377Y0034470D01*
X0084377Y0034675D01*
X0084171Y0034675D01*
X0084171Y0034470D01*
X0086469Y0033442D02*
X0087496Y0033442D01*
X0086469Y0033442D02*
X0086421Y0033440D01*
X0086372Y0033434D01*
X0086325Y0033425D01*
X0086278Y0033412D01*
X0086233Y0033395D01*
X0086189Y0033375D01*
X0086147Y0033351D01*
X0086106Y0033324D01*
X0086068Y0033294D01*
X0086033Y0033261D01*
X0086000Y0033226D01*
X0085970Y0033188D01*
X0085943Y0033147D01*
X0085919Y0033105D01*
X0085899Y0033061D01*
X0085882Y0033016D01*
X0085869Y0032969D01*
X0085860Y0032922D01*
X0085854Y0032873D01*
X0085852Y0032825D01*
X0085852Y0030975D01*
X0087496Y0030975D02*
X0087496Y0034675D01*
X0088966Y0033442D02*
X0090199Y0033442D01*
X0089788Y0034675D02*
X0089788Y0031592D01*
X0089786Y0031544D01*
X0089780Y0031495D01*
X0089771Y0031448D01*
X0089758Y0031401D01*
X0089741Y0031356D01*
X0089721Y0031312D01*
X0089697Y0031270D01*
X0089670Y0031229D01*
X0089640Y0031191D01*
X0089607Y0031156D01*
X0089572Y0031123D01*
X0089534Y0031093D01*
X0089493Y0031066D01*
X0089451Y0031042D01*
X0089407Y0031022D01*
X0089362Y0031005D01*
X0089315Y0030992D01*
X0089268Y0030983D01*
X0089219Y0030977D01*
X0089171Y0030975D01*
X0088966Y0030975D01*
X0091251Y0030975D02*
X0091457Y0030975D01*
X0091457Y0031181D01*
X0091251Y0031181D01*
X0091251Y0030975D01*
X0093377Y0030975D02*
X0093994Y0032620D01*
X0094611Y0030975D01*
X0095227Y0033442D01*
X0096601Y0033442D02*
X0097217Y0030975D01*
X0097834Y0032620D01*
X0098451Y0030975D01*
X0099067Y0033442D01*
X0100441Y0033442D02*
X0101057Y0030975D01*
X0101674Y0032620D01*
X0102291Y0030975D01*
X0102907Y0033442D01*
X0102907Y0036975D02*
X0101674Y0040675D01*
X0100441Y0036975D01*
X0100749Y0037900D02*
X0102599Y0037900D01*
X0099154Y0037592D02*
X0099154Y0038825D01*
X0099155Y0038825D02*
X0099153Y0038873D01*
X0099147Y0038922D01*
X0099138Y0038969D01*
X0099125Y0039016D01*
X0099108Y0039061D01*
X0099088Y0039105D01*
X0099064Y0039147D01*
X0099037Y0039188D01*
X0099007Y0039226D01*
X0098974Y0039261D01*
X0098939Y0039294D01*
X0098901Y0039324D01*
X0098860Y0039351D01*
X0098818Y0039375D01*
X0098774Y0039395D01*
X0098729Y0039412D01*
X0098682Y0039425D01*
X0098635Y0039434D01*
X0098586Y0039440D01*
X0098538Y0039442D01*
X0097510Y0039442D01*
X0097510Y0040675D02*
X0097510Y0036975D01*
X0098538Y0036975D01*
X0098586Y0036977D01*
X0098635Y0036983D01*
X0098682Y0036992D01*
X0098729Y0037005D01*
X0098774Y0037022D01*
X0098818Y0037042D01*
X0098860Y0037066D01*
X0098901Y0037093D01*
X0098939Y0037123D01*
X0098974Y0037156D01*
X0099007Y0037191D01*
X0099037Y0037229D01*
X0099064Y0037270D01*
X0099088Y0037312D01*
X0099108Y0037356D01*
X0099125Y0037401D01*
X0099138Y0037448D01*
X0099147Y0037495D01*
X0099153Y0037544D01*
X0099155Y0037592D01*
X0095709Y0039442D02*
X0094887Y0039442D01*
X0094886Y0039442D02*
X0094838Y0039440D01*
X0094789Y0039434D01*
X0094742Y0039425D01*
X0094695Y0039412D01*
X0094650Y0039395D01*
X0094606Y0039375D01*
X0094564Y0039351D01*
X0094523Y0039324D01*
X0094485Y0039294D01*
X0094450Y0039261D01*
X0094417Y0039226D01*
X0094387Y0039188D01*
X0094360Y0039147D01*
X0094336Y0039105D01*
X0094316Y0039061D01*
X0094299Y0039016D01*
X0094286Y0038969D01*
X0094277Y0038922D01*
X0094271Y0038873D01*
X0094269Y0038825D01*
X0094270Y0038825D02*
X0094270Y0036975D01*
X0095195Y0036975D01*
X0095195Y0036976D02*
X0095247Y0036978D01*
X0095300Y0036984D01*
X0095351Y0036993D01*
X0095402Y0037006D01*
X0095452Y0037023D01*
X0095500Y0037044D01*
X0095547Y0037068D01*
X0095592Y0037095D01*
X0095634Y0037126D01*
X0095675Y0037160D01*
X0095713Y0037196D01*
X0095748Y0037235D01*
X0095780Y0037277D01*
X0095809Y0037320D01*
X0095834Y0037366D01*
X0095857Y0037414D01*
X0095875Y0037463D01*
X0095891Y0037513D01*
X0095902Y0037564D01*
X0095910Y0037616D01*
X0095914Y0037669D01*
X0095914Y0037721D01*
X0095910Y0037774D01*
X0095902Y0037826D01*
X0095891Y0037877D01*
X0095875Y0037927D01*
X0095857Y0037976D01*
X0095834Y0038024D01*
X0095809Y0038070D01*
X0095780Y0038113D01*
X0095748Y0038155D01*
X0095713Y0038194D01*
X0095675Y0038230D01*
X0095634Y0038264D01*
X0095592Y0038295D01*
X0095547Y0038322D01*
X0095500Y0038346D01*
X0095452Y0038367D01*
X0095402Y0038384D01*
X0095351Y0038397D01*
X0095300Y0038406D01*
X0095247Y0038412D01*
X0095195Y0038414D01*
X0094270Y0038414D01*
X0092869Y0039442D02*
X0091635Y0039442D01*
X0092458Y0040059D02*
X0092456Y0040107D01*
X0092450Y0040156D01*
X0092441Y0040203D01*
X0092428Y0040250D01*
X0092411Y0040295D01*
X0092391Y0040339D01*
X0092367Y0040381D01*
X0092340Y0040422D01*
X0092310Y0040460D01*
X0092277Y0040495D01*
X0092242Y0040528D01*
X0092204Y0040558D01*
X0092163Y0040585D01*
X0092121Y0040609D01*
X0092077Y0040629D01*
X0092032Y0040646D01*
X0091985Y0040659D01*
X0091938Y0040668D01*
X0091889Y0040674D01*
X0091841Y0040676D01*
X0091841Y0040675D02*
X0091635Y0040675D01*
X0092458Y0040059D02*
X0092458Y0036975D01*
X0090476Y0036975D02*
X0090476Y0039442D01*
X0089243Y0039442D01*
X0089243Y0039031D01*
X0087976Y0039442D02*
X0087976Y0037592D01*
X0087977Y0037592D02*
X0087975Y0037544D01*
X0087969Y0037495D01*
X0087960Y0037448D01*
X0087947Y0037401D01*
X0087930Y0037356D01*
X0087910Y0037312D01*
X0087886Y0037270D01*
X0087859Y0037229D01*
X0087829Y0037191D01*
X0087796Y0037156D01*
X0087761Y0037123D01*
X0087723Y0037093D01*
X0087682Y0037066D01*
X0087640Y0037042D01*
X0087596Y0037022D01*
X0087551Y0037005D01*
X0087504Y0036992D01*
X0087457Y0036983D01*
X0087408Y0036977D01*
X0087360Y0036975D01*
X0086332Y0036975D01*
X0086332Y0039442D01*
X0084754Y0039442D02*
X0084754Y0036975D01*
X0083188Y0037592D02*
X0083188Y0040675D01*
X0083599Y0039442D02*
X0082366Y0039442D01*
X0084651Y0040470D02*
X0084857Y0040470D01*
X0084857Y0040675D01*
X0084651Y0040675D01*
X0084651Y0040470D01*
X0085440Y0042975D02*
X0085440Y0046675D01*
X0086467Y0046675D02*
X0084412Y0046675D01*
X0087737Y0044620D02*
X0087737Y0043797D01*
X0087738Y0043797D02*
X0087740Y0043741D01*
X0087746Y0043685D01*
X0087755Y0043630D01*
X0087768Y0043575D01*
X0087785Y0043522D01*
X0087806Y0043470D01*
X0087830Y0043419D01*
X0087858Y0043370D01*
X0087888Y0043323D01*
X0087922Y0043278D01*
X0087959Y0043236D01*
X0087999Y0043196D01*
X0088041Y0043159D01*
X0088086Y0043125D01*
X0088133Y0043095D01*
X0088182Y0043067D01*
X0088233Y0043043D01*
X0088285Y0043022D01*
X0088338Y0043005D01*
X0088393Y0042992D01*
X0088448Y0042983D01*
X0088504Y0042977D01*
X0088560Y0042975D01*
X0088616Y0042977D01*
X0088672Y0042983D01*
X0088727Y0042992D01*
X0088782Y0043005D01*
X0088835Y0043022D01*
X0088887Y0043043D01*
X0088938Y0043067D01*
X0088987Y0043095D01*
X0089034Y0043125D01*
X0089079Y0043159D01*
X0089121Y0043196D01*
X0089161Y0043236D01*
X0089198Y0043278D01*
X0089232Y0043323D01*
X0089262Y0043370D01*
X0089290Y0043419D01*
X0089314Y0043470D01*
X0089335Y0043522D01*
X0089352Y0043575D01*
X0089365Y0043630D01*
X0089374Y0043685D01*
X0089380Y0043741D01*
X0089382Y0043797D01*
X0089382Y0044620D01*
X0089380Y0044676D01*
X0089374Y0044732D01*
X0089365Y0044787D01*
X0089352Y0044842D01*
X0089335Y0044895D01*
X0089314Y0044947D01*
X0089290Y0044998D01*
X0089262Y0045047D01*
X0089232Y0045094D01*
X0089198Y0045139D01*
X0089161Y0045181D01*
X0089121Y0045221D01*
X0089079Y0045258D01*
X0089034Y0045292D01*
X0088987Y0045322D01*
X0088938Y0045350D01*
X0088887Y0045374D01*
X0088835Y0045395D01*
X0088782Y0045412D01*
X0088727Y0045425D01*
X0088672Y0045434D01*
X0088616Y0045440D01*
X0088560Y0045442D01*
X0088504Y0045440D01*
X0088448Y0045434D01*
X0088393Y0045425D01*
X0088338Y0045412D01*
X0088285Y0045395D01*
X0088233Y0045374D01*
X0088182Y0045350D01*
X0088133Y0045322D01*
X0088086Y0045292D01*
X0088041Y0045258D01*
X0087999Y0045221D01*
X0087959Y0045181D01*
X0087922Y0045139D01*
X0087888Y0045094D01*
X0087858Y0045047D01*
X0087830Y0044998D01*
X0087806Y0044947D01*
X0087785Y0044895D01*
X0087768Y0044842D01*
X0087755Y0044787D01*
X0087746Y0044732D01*
X0087740Y0044676D01*
X0087738Y0044620D01*
X0090788Y0042975D02*
X0091611Y0042975D01*
X0091200Y0042975D02*
X0091200Y0046675D01*
X0091611Y0046675D02*
X0090788Y0046675D01*
X0093086Y0044414D02*
X0095553Y0044414D01*
X0097988Y0045031D02*
X0097925Y0045029D01*
X0097862Y0045023D01*
X0097799Y0045013D01*
X0097737Y0045000D01*
X0097676Y0044983D01*
X0097617Y0044962D01*
X0097558Y0044937D01*
X0097502Y0044909D01*
X0097447Y0044877D01*
X0097394Y0044842D01*
X0097344Y0044804D01*
X0097295Y0044763D01*
X0097250Y0044719D01*
X0097207Y0044672D01*
X0097168Y0044623D01*
X0097131Y0044571D01*
X0097098Y0044517D01*
X0097068Y0044461D01*
X0097041Y0044404D01*
X0097018Y0044345D01*
X0096999Y0044284D01*
X0096984Y0044223D01*
X0096972Y0044161D01*
X0096964Y0044098D01*
X0096960Y0044035D01*
X0096960Y0043971D01*
X0096964Y0043908D01*
X0096972Y0043845D01*
X0096984Y0043783D01*
X0096999Y0043722D01*
X0097018Y0043661D01*
X0097041Y0043602D01*
X0097068Y0043545D01*
X0097098Y0043489D01*
X0097131Y0043435D01*
X0097168Y0043383D01*
X0097207Y0043334D01*
X0097250Y0043287D01*
X0097295Y0043243D01*
X0097344Y0043202D01*
X0097394Y0043164D01*
X0097447Y0043129D01*
X0097502Y0043097D01*
X0097558Y0043069D01*
X0097617Y0043044D01*
X0097676Y0043023D01*
X0097737Y0043006D01*
X0097799Y0042993D01*
X0097862Y0042983D01*
X0097925Y0042977D01*
X0097988Y0042975D01*
X0099016Y0042975D01*
X0099016Y0046675D01*
X0097988Y0046675D01*
X0097932Y0046673D01*
X0097876Y0046667D01*
X0097821Y0046658D01*
X0097766Y0046645D01*
X0097713Y0046628D01*
X0097661Y0046607D01*
X0097610Y0046583D01*
X0097561Y0046555D01*
X0097514Y0046525D01*
X0097469Y0046491D01*
X0097427Y0046454D01*
X0097387Y0046414D01*
X0097350Y0046372D01*
X0097316Y0046327D01*
X0097286Y0046280D01*
X0097258Y0046231D01*
X0097234Y0046180D01*
X0097213Y0046128D01*
X0097196Y0046075D01*
X0097183Y0046020D01*
X0097174Y0045965D01*
X0097168Y0045909D01*
X0097166Y0045853D01*
X0097168Y0045797D01*
X0097174Y0045741D01*
X0097183Y0045686D01*
X0097196Y0045631D01*
X0097213Y0045578D01*
X0097234Y0045526D01*
X0097258Y0045475D01*
X0097286Y0045426D01*
X0097316Y0045379D01*
X0097350Y0045334D01*
X0097387Y0045292D01*
X0097427Y0045252D01*
X0097469Y0045215D01*
X0097514Y0045181D01*
X0097561Y0045151D01*
X0097610Y0045123D01*
X0097661Y0045099D01*
X0097713Y0045078D01*
X0097766Y0045061D01*
X0097821Y0045048D01*
X0097876Y0045039D01*
X0097932Y0045033D01*
X0097988Y0045031D01*
X0099016Y0045031D01*
X0100852Y0046675D02*
X0100852Y0042975D01*
X0102907Y0046675D01*
X0102907Y0042975D01*
X0092761Y0033442D02*
X0093377Y0030975D01*
X0082571Y0036975D02*
X0082366Y0036975D01*
X0082571Y0036975D02*
X0082619Y0036977D01*
X0082668Y0036983D01*
X0082715Y0036992D01*
X0082762Y0037005D01*
X0082807Y0037022D01*
X0082851Y0037042D01*
X0082893Y0037066D01*
X0082934Y0037093D01*
X0082972Y0037123D01*
X0083007Y0037156D01*
X0083040Y0037191D01*
X0083070Y0037229D01*
X0083097Y0037270D01*
X0083121Y0037312D01*
X0083141Y0037356D01*
X0083158Y0037401D01*
X0083171Y0037448D01*
X0083180Y0037495D01*
X0083186Y0037544D01*
X0083188Y0037592D01*
X0078890Y0036975D02*
X0078890Y0040675D01*
X0077863Y0040675D01*
X0077807Y0040673D01*
X0077751Y0040667D01*
X0077696Y0040658D01*
X0077641Y0040645D01*
X0077588Y0040628D01*
X0077536Y0040607D01*
X0077485Y0040583D01*
X0077436Y0040555D01*
X0077389Y0040525D01*
X0077344Y0040491D01*
X0077302Y0040454D01*
X0077262Y0040414D01*
X0077225Y0040372D01*
X0077191Y0040327D01*
X0077161Y0040280D01*
X0077133Y0040231D01*
X0077109Y0040180D01*
X0077088Y0040128D01*
X0077071Y0040075D01*
X0077058Y0040020D01*
X0077049Y0039965D01*
X0077043Y0039909D01*
X0077041Y0039853D01*
X0077043Y0039797D01*
X0077049Y0039741D01*
X0077058Y0039686D01*
X0077071Y0039631D01*
X0077088Y0039578D01*
X0077109Y0039526D01*
X0077133Y0039475D01*
X0077161Y0039426D01*
X0077191Y0039379D01*
X0077225Y0039334D01*
X0077262Y0039292D01*
X0077302Y0039252D01*
X0077344Y0039215D01*
X0077389Y0039181D01*
X0077436Y0039151D01*
X0077485Y0039123D01*
X0077536Y0039099D01*
X0077588Y0039078D01*
X0077641Y0039061D01*
X0077696Y0039048D01*
X0077751Y0039039D01*
X0077807Y0039033D01*
X0077863Y0039031D01*
X0078890Y0039031D01*
X0075496Y0038620D02*
X0075496Y0037797D01*
X0075494Y0037741D01*
X0075488Y0037685D01*
X0075479Y0037630D01*
X0075466Y0037575D01*
X0075449Y0037522D01*
X0075428Y0037470D01*
X0075404Y0037419D01*
X0075376Y0037370D01*
X0075346Y0037323D01*
X0075312Y0037278D01*
X0075275Y0037236D01*
X0075235Y0037196D01*
X0075193Y0037159D01*
X0075148Y0037125D01*
X0075101Y0037095D01*
X0075052Y0037067D01*
X0075001Y0037043D01*
X0074949Y0037022D01*
X0074896Y0037005D01*
X0074841Y0036992D01*
X0074786Y0036983D01*
X0074730Y0036977D01*
X0074674Y0036975D01*
X0074618Y0036977D01*
X0074562Y0036983D01*
X0074507Y0036992D01*
X0074452Y0037005D01*
X0074399Y0037022D01*
X0074347Y0037043D01*
X0074296Y0037067D01*
X0074247Y0037095D01*
X0074200Y0037125D01*
X0074155Y0037159D01*
X0074113Y0037196D01*
X0074073Y0037236D01*
X0074036Y0037278D01*
X0074002Y0037323D01*
X0073972Y0037370D01*
X0073944Y0037419D01*
X0073920Y0037470D01*
X0073899Y0037522D01*
X0073882Y0037575D01*
X0073869Y0037630D01*
X0073860Y0037685D01*
X0073854Y0037741D01*
X0073852Y0037797D01*
X0073852Y0038620D01*
X0073854Y0038676D01*
X0073860Y0038732D01*
X0073869Y0038787D01*
X0073882Y0038842D01*
X0073899Y0038895D01*
X0073920Y0038947D01*
X0073944Y0038998D01*
X0073972Y0039047D01*
X0074002Y0039094D01*
X0074036Y0039139D01*
X0074073Y0039181D01*
X0074113Y0039221D01*
X0074155Y0039258D01*
X0074200Y0039292D01*
X0074247Y0039322D01*
X0074296Y0039350D01*
X0074347Y0039374D01*
X0074399Y0039395D01*
X0074452Y0039412D01*
X0074507Y0039425D01*
X0074562Y0039434D01*
X0074618Y0039440D01*
X0074674Y0039442D01*
X0074730Y0039440D01*
X0074786Y0039434D01*
X0074841Y0039425D01*
X0074896Y0039412D01*
X0074949Y0039395D01*
X0075001Y0039374D01*
X0075052Y0039350D01*
X0075101Y0039322D01*
X0075148Y0039292D01*
X0075193Y0039258D01*
X0075235Y0039221D01*
X0075275Y0039181D01*
X0075312Y0039139D01*
X0075346Y0039094D01*
X0075376Y0039047D01*
X0075404Y0038998D01*
X0075428Y0038947D01*
X0075449Y0038895D01*
X0075466Y0038842D01*
X0075479Y0038787D01*
X0075488Y0038732D01*
X0075494Y0038676D01*
X0075496Y0038620D01*
X0077863Y0039031D02*
X0077800Y0039029D01*
X0077737Y0039023D01*
X0077674Y0039013D01*
X0077612Y0039000D01*
X0077551Y0038983D01*
X0077492Y0038962D01*
X0077433Y0038937D01*
X0077377Y0038909D01*
X0077322Y0038877D01*
X0077269Y0038842D01*
X0077219Y0038804D01*
X0077170Y0038763D01*
X0077125Y0038719D01*
X0077082Y0038672D01*
X0077043Y0038623D01*
X0077006Y0038571D01*
X0076973Y0038517D01*
X0076943Y0038461D01*
X0076916Y0038404D01*
X0076893Y0038345D01*
X0076874Y0038284D01*
X0076859Y0038223D01*
X0076847Y0038161D01*
X0076839Y0038098D01*
X0076835Y0038035D01*
X0076835Y0037971D01*
X0076839Y0037908D01*
X0076847Y0037845D01*
X0076859Y0037783D01*
X0076874Y0037722D01*
X0076893Y0037661D01*
X0076916Y0037602D01*
X0076943Y0037545D01*
X0076973Y0037489D01*
X0077006Y0037435D01*
X0077043Y0037383D01*
X0077082Y0037334D01*
X0077125Y0037287D01*
X0077170Y0037243D01*
X0077219Y0037202D01*
X0077269Y0037164D01*
X0077322Y0037129D01*
X0077377Y0037097D01*
X0077433Y0037069D01*
X0077492Y0037044D01*
X0077551Y0037023D01*
X0077612Y0037006D01*
X0077674Y0036993D01*
X0077737Y0036983D01*
X0077800Y0036977D01*
X0077863Y0036975D01*
X0078890Y0036975D01*
X0075401Y0034675D02*
X0075195Y0034675D01*
X0075401Y0034676D02*
X0075449Y0034674D01*
X0075498Y0034668D01*
X0075545Y0034659D01*
X0075592Y0034646D01*
X0075637Y0034629D01*
X0075681Y0034609D01*
X0075723Y0034585D01*
X0075764Y0034558D01*
X0075802Y0034528D01*
X0075837Y0034495D01*
X0075870Y0034460D01*
X0075900Y0034422D01*
X0075927Y0034381D01*
X0075951Y0034339D01*
X0075971Y0034295D01*
X0075988Y0034250D01*
X0076001Y0034203D01*
X0076010Y0034156D01*
X0076016Y0034107D01*
X0076018Y0034059D01*
X0071675Y0036975D02*
X0070750Y0036975D01*
X0070750Y0038825D01*
X0070750Y0038414D02*
X0071675Y0038414D01*
X0070750Y0038825D02*
X0070752Y0038873D01*
X0070758Y0038922D01*
X0070767Y0038969D01*
X0070780Y0039016D01*
X0070797Y0039061D01*
X0070817Y0039105D01*
X0070841Y0039147D01*
X0070868Y0039188D01*
X0070898Y0039226D01*
X0070931Y0039261D01*
X0070966Y0039294D01*
X0071004Y0039324D01*
X0071045Y0039351D01*
X0071087Y0039375D01*
X0071131Y0039395D01*
X0071176Y0039412D01*
X0071223Y0039425D01*
X0071270Y0039434D01*
X0071319Y0039440D01*
X0071367Y0039442D01*
X0072189Y0039442D01*
X0068996Y0039442D02*
X0067763Y0039442D01*
X0067763Y0039031D01*
X0066634Y0038825D02*
X0066634Y0037592D01*
X0066635Y0037592D02*
X0066633Y0037544D01*
X0066627Y0037495D01*
X0066618Y0037448D01*
X0066605Y0037401D01*
X0066588Y0037356D01*
X0066568Y0037312D01*
X0066544Y0037270D01*
X0066517Y0037229D01*
X0066487Y0037191D01*
X0066454Y0037156D01*
X0066419Y0037123D01*
X0066381Y0037093D01*
X0066340Y0037066D01*
X0066298Y0037042D01*
X0066254Y0037022D01*
X0066209Y0037005D01*
X0066162Y0036992D01*
X0066115Y0036983D01*
X0066066Y0036977D01*
X0066018Y0036975D01*
X0064990Y0036975D01*
X0064990Y0040675D01*
X0064990Y0039442D02*
X0066018Y0039442D01*
X0066066Y0039440D01*
X0066115Y0039434D01*
X0066162Y0039425D01*
X0066209Y0039412D01*
X0066254Y0039395D01*
X0066298Y0039375D01*
X0066340Y0039351D01*
X0066381Y0039324D01*
X0066419Y0039294D01*
X0066454Y0039261D01*
X0066487Y0039226D01*
X0066517Y0039188D01*
X0066544Y0039147D01*
X0066568Y0039105D01*
X0066588Y0039061D01*
X0066605Y0039016D01*
X0066618Y0038969D01*
X0066627Y0038922D01*
X0066633Y0038873D01*
X0066635Y0038825D01*
X0063068Y0038414D02*
X0062040Y0038003D01*
X0061999Y0037984D01*
X0061960Y0037963D01*
X0061923Y0037938D01*
X0061888Y0037910D01*
X0061855Y0037879D01*
X0061825Y0037845D01*
X0061799Y0037810D01*
X0061775Y0037772D01*
X0061754Y0037732D01*
X0061737Y0037690D01*
X0061724Y0037648D01*
X0061714Y0037604D01*
X0061708Y0037560D01*
X0061705Y0037515D01*
X0061706Y0037470D01*
X0061711Y0037426D01*
X0061720Y0037382D01*
X0061733Y0037339D01*
X0061749Y0037297D01*
X0061768Y0037256D01*
X0061791Y0037218D01*
X0061817Y0037181D01*
X0061846Y0037147D01*
X0061878Y0037115D01*
X0061912Y0037086D01*
X0061948Y0037061D01*
X0061987Y0037038D01*
X0062027Y0037018D01*
X0062069Y0037002D01*
X0062112Y0036990D01*
X0062156Y0036981D01*
X0062201Y0036976D01*
X0062246Y0036975D01*
X0061938Y0039236D02*
X0062026Y0039274D01*
X0062115Y0039307D01*
X0062205Y0039337D01*
X0062297Y0039364D01*
X0062390Y0039386D01*
X0062483Y0039405D01*
X0062577Y0039420D01*
X0062672Y0039431D01*
X0062767Y0039438D01*
X0062863Y0039442D01*
X0062862Y0039442D02*
X0062907Y0039441D01*
X0062952Y0039436D01*
X0062996Y0039427D01*
X0063039Y0039415D01*
X0063081Y0039399D01*
X0063121Y0039379D01*
X0063160Y0039356D01*
X0063196Y0039331D01*
X0063230Y0039302D01*
X0063262Y0039270D01*
X0063291Y0039236D01*
X0063317Y0039199D01*
X0063340Y0039161D01*
X0063359Y0039120D01*
X0063375Y0039078D01*
X0063388Y0039035D01*
X0063397Y0038991D01*
X0063402Y0038947D01*
X0063403Y0038902D01*
X0063400Y0038857D01*
X0063394Y0038813D01*
X0063384Y0038769D01*
X0063371Y0038727D01*
X0063354Y0038685D01*
X0063333Y0038645D01*
X0063309Y0038607D01*
X0063283Y0038572D01*
X0063253Y0038538D01*
X0063220Y0038507D01*
X0063185Y0038479D01*
X0063148Y0038454D01*
X0063109Y0038433D01*
X0063068Y0038414D01*
X0063376Y0037181D02*
X0063267Y0037144D01*
X0063157Y0037110D01*
X0063045Y0037080D01*
X0062933Y0037054D01*
X0062820Y0037031D01*
X0062706Y0037012D01*
X0062591Y0036997D01*
X0062476Y0036986D01*
X0062361Y0036979D01*
X0062246Y0036975D01*
X0068996Y0036975D02*
X0068996Y0039442D01*
X0071675Y0038414D02*
X0071727Y0038412D01*
X0071780Y0038406D01*
X0071831Y0038397D01*
X0071882Y0038384D01*
X0071932Y0038367D01*
X0071980Y0038346D01*
X0072027Y0038322D01*
X0072072Y0038295D01*
X0072114Y0038264D01*
X0072155Y0038230D01*
X0072193Y0038194D01*
X0072228Y0038155D01*
X0072260Y0038113D01*
X0072289Y0038070D01*
X0072314Y0038024D01*
X0072337Y0037976D01*
X0072355Y0037927D01*
X0072371Y0037877D01*
X0072382Y0037826D01*
X0072390Y0037774D01*
X0072394Y0037721D01*
X0072394Y0037669D01*
X0072390Y0037616D01*
X0072382Y0037564D01*
X0072371Y0037513D01*
X0072355Y0037463D01*
X0072337Y0037414D01*
X0072314Y0037366D01*
X0072289Y0037320D01*
X0072260Y0037277D01*
X0072228Y0037235D01*
X0072193Y0037196D01*
X0072155Y0037160D01*
X0072114Y0037126D01*
X0072072Y0037095D01*
X0072027Y0037068D01*
X0071980Y0037044D01*
X0071932Y0037023D01*
X0071882Y0037006D01*
X0071831Y0036993D01*
X0071780Y0036984D01*
X0071727Y0036978D01*
X0071675Y0036976D01*
X0063995Y0032414D02*
X0064047Y0032412D01*
X0064100Y0032406D01*
X0064151Y0032397D01*
X0064202Y0032384D01*
X0064252Y0032367D01*
X0064300Y0032346D01*
X0064347Y0032322D01*
X0064392Y0032295D01*
X0064434Y0032264D01*
X0064475Y0032230D01*
X0064513Y0032194D01*
X0064548Y0032155D01*
X0064580Y0032113D01*
X0064609Y0032070D01*
X0064634Y0032024D01*
X0064657Y0031976D01*
X0064675Y0031927D01*
X0064691Y0031877D01*
X0064702Y0031826D01*
X0064710Y0031774D01*
X0064714Y0031721D01*
X0064714Y0031669D01*
X0064710Y0031616D01*
X0064702Y0031564D01*
X0064691Y0031513D01*
X0064675Y0031463D01*
X0064657Y0031414D01*
X0064634Y0031366D01*
X0064609Y0031320D01*
X0064580Y0031277D01*
X0064548Y0031235D01*
X0064513Y0031196D01*
X0064475Y0031160D01*
X0064434Y0031126D01*
X0064392Y0031095D01*
X0064347Y0031068D01*
X0064300Y0031044D01*
X0064252Y0031023D01*
X0064202Y0031006D01*
X0064151Y0030993D01*
X0064100Y0030984D01*
X0064047Y0030978D01*
X0063995Y0030976D01*
X0063995Y0030975D02*
X0063070Y0030975D01*
X0055817Y0030975D02*
X0055611Y0030975D01*
X0055611Y0031181D01*
X0055817Y0031181D01*
X0055817Y0030975D01*
X0052816Y0031797D02*
X0052816Y0032620D01*
X0052814Y0032676D01*
X0052808Y0032732D01*
X0052799Y0032787D01*
X0052786Y0032842D01*
X0052769Y0032895D01*
X0052748Y0032947D01*
X0052724Y0032998D01*
X0052696Y0033047D01*
X0052666Y0033094D01*
X0052632Y0033139D01*
X0052595Y0033181D01*
X0052555Y0033221D01*
X0052513Y0033258D01*
X0052468Y0033292D01*
X0052421Y0033322D01*
X0052372Y0033350D01*
X0052321Y0033374D01*
X0052269Y0033395D01*
X0052216Y0033412D01*
X0052161Y0033425D01*
X0052106Y0033434D01*
X0052050Y0033440D01*
X0051994Y0033442D01*
X0051938Y0033440D01*
X0051882Y0033434D01*
X0051827Y0033425D01*
X0051772Y0033412D01*
X0051719Y0033395D01*
X0051667Y0033374D01*
X0051616Y0033350D01*
X0051567Y0033322D01*
X0051520Y0033292D01*
X0051475Y0033258D01*
X0051433Y0033221D01*
X0051393Y0033181D01*
X0051356Y0033139D01*
X0051322Y0033094D01*
X0051292Y0033047D01*
X0051264Y0032998D01*
X0051240Y0032947D01*
X0051219Y0032895D01*
X0051202Y0032842D01*
X0051189Y0032787D01*
X0051180Y0032732D01*
X0051174Y0032676D01*
X0051172Y0032620D01*
X0051172Y0031797D01*
X0051174Y0031741D01*
X0051180Y0031685D01*
X0051189Y0031630D01*
X0051202Y0031575D01*
X0051219Y0031522D01*
X0051240Y0031470D01*
X0051264Y0031419D01*
X0051292Y0031370D01*
X0051322Y0031323D01*
X0051356Y0031278D01*
X0051393Y0031236D01*
X0051433Y0031196D01*
X0051475Y0031159D01*
X0051520Y0031125D01*
X0051567Y0031095D01*
X0051616Y0031067D01*
X0051667Y0031043D01*
X0051719Y0031022D01*
X0051772Y0031005D01*
X0051827Y0030992D01*
X0051882Y0030983D01*
X0051938Y0030977D01*
X0051994Y0030975D01*
X0052050Y0030977D01*
X0052106Y0030983D01*
X0052161Y0030992D01*
X0052216Y0031005D01*
X0052269Y0031022D01*
X0052321Y0031043D01*
X0052372Y0031067D01*
X0052421Y0031095D01*
X0052468Y0031125D01*
X0052513Y0031159D01*
X0052555Y0031196D01*
X0052595Y0031236D01*
X0052632Y0031278D01*
X0052666Y0031323D01*
X0052696Y0031370D01*
X0052724Y0031419D01*
X0052748Y0031470D01*
X0052769Y0031522D01*
X0052786Y0031575D01*
X0052799Y0031630D01*
X0052808Y0031685D01*
X0052814Y0031741D01*
X0052816Y0031797D01*
X0057562Y0042975D02*
X0057562Y0045442D01*
X0056328Y0045442D01*
X0056328Y0045031D01*
X0059178Y0044620D02*
X0059178Y0043797D01*
X0059180Y0043741D01*
X0059186Y0043685D01*
X0059195Y0043630D01*
X0059208Y0043575D01*
X0059225Y0043522D01*
X0059246Y0043470D01*
X0059270Y0043419D01*
X0059298Y0043370D01*
X0059328Y0043323D01*
X0059362Y0043278D01*
X0059399Y0043236D01*
X0059439Y0043196D01*
X0059481Y0043159D01*
X0059526Y0043125D01*
X0059573Y0043095D01*
X0059622Y0043067D01*
X0059673Y0043043D01*
X0059725Y0043022D01*
X0059778Y0043005D01*
X0059833Y0042992D01*
X0059888Y0042983D01*
X0059944Y0042977D01*
X0060000Y0042975D01*
X0060056Y0042977D01*
X0060112Y0042983D01*
X0060167Y0042992D01*
X0060222Y0043005D01*
X0060275Y0043022D01*
X0060327Y0043043D01*
X0060378Y0043067D01*
X0060427Y0043095D01*
X0060474Y0043125D01*
X0060519Y0043159D01*
X0060561Y0043196D01*
X0060601Y0043236D01*
X0060638Y0043278D01*
X0060672Y0043323D01*
X0060702Y0043370D01*
X0060730Y0043419D01*
X0060754Y0043470D01*
X0060775Y0043522D01*
X0060792Y0043575D01*
X0060805Y0043630D01*
X0060814Y0043685D01*
X0060820Y0043741D01*
X0060822Y0043797D01*
X0060822Y0044620D01*
X0060820Y0044676D01*
X0060814Y0044732D01*
X0060805Y0044787D01*
X0060792Y0044842D01*
X0060775Y0044895D01*
X0060754Y0044947D01*
X0060730Y0044998D01*
X0060702Y0045047D01*
X0060672Y0045094D01*
X0060638Y0045139D01*
X0060601Y0045181D01*
X0060561Y0045221D01*
X0060519Y0045258D01*
X0060474Y0045292D01*
X0060427Y0045322D01*
X0060378Y0045350D01*
X0060327Y0045374D01*
X0060275Y0045395D01*
X0060222Y0045412D01*
X0060167Y0045425D01*
X0060112Y0045434D01*
X0060056Y0045440D01*
X0060000Y0045442D01*
X0059944Y0045440D01*
X0059888Y0045434D01*
X0059833Y0045425D01*
X0059778Y0045412D01*
X0059725Y0045395D01*
X0059673Y0045374D01*
X0059622Y0045350D01*
X0059573Y0045322D01*
X0059526Y0045292D01*
X0059481Y0045258D01*
X0059439Y0045221D01*
X0059399Y0045181D01*
X0059362Y0045139D01*
X0059328Y0045094D01*
X0059298Y0045047D01*
X0059270Y0044998D01*
X0059246Y0044947D01*
X0059225Y0044895D01*
X0059208Y0044842D01*
X0059195Y0044787D01*
X0059186Y0044732D01*
X0059180Y0044676D01*
X0059178Y0044620D01*
X0061841Y0045442D02*
X0063074Y0045442D01*
X0062663Y0046059D02*
X0062663Y0042975D01*
X0066395Y0042975D02*
X0067423Y0042975D01*
X0067471Y0042977D01*
X0067520Y0042983D01*
X0067567Y0042992D01*
X0067614Y0043005D01*
X0067659Y0043022D01*
X0067703Y0043042D01*
X0067745Y0043066D01*
X0067786Y0043093D01*
X0067824Y0043123D01*
X0067859Y0043156D01*
X0067892Y0043191D01*
X0067922Y0043229D01*
X0067949Y0043270D01*
X0067973Y0043312D01*
X0067993Y0043356D01*
X0068010Y0043401D01*
X0068023Y0043448D01*
X0068032Y0043495D01*
X0068038Y0043544D01*
X0068040Y0043592D01*
X0068040Y0044825D01*
X0068038Y0044873D01*
X0068032Y0044922D01*
X0068023Y0044969D01*
X0068010Y0045016D01*
X0067993Y0045061D01*
X0067973Y0045105D01*
X0067949Y0045147D01*
X0067922Y0045188D01*
X0067892Y0045226D01*
X0067859Y0045261D01*
X0067824Y0045294D01*
X0067786Y0045324D01*
X0067745Y0045351D01*
X0067703Y0045375D01*
X0067659Y0045395D01*
X0067614Y0045412D01*
X0067567Y0045425D01*
X0067520Y0045434D01*
X0067471Y0045440D01*
X0067423Y0045442D01*
X0066395Y0045442D01*
X0066395Y0046675D02*
X0066395Y0042975D01*
X0069276Y0042975D02*
X0069324Y0042977D01*
X0069373Y0042983D01*
X0069420Y0042992D01*
X0069467Y0043005D01*
X0069512Y0043022D01*
X0069556Y0043042D01*
X0069598Y0043066D01*
X0069639Y0043093D01*
X0069677Y0043123D01*
X0069712Y0043156D01*
X0069745Y0043191D01*
X0069775Y0043229D01*
X0069802Y0043270D01*
X0069826Y0043312D01*
X0069846Y0043356D01*
X0069863Y0043401D01*
X0069876Y0043448D01*
X0069885Y0043495D01*
X0069891Y0043544D01*
X0069893Y0043592D01*
X0069893Y0046675D01*
X0071417Y0044620D02*
X0071417Y0044209D01*
X0073062Y0044209D01*
X0073062Y0044620D02*
X0073062Y0043592D01*
X0073060Y0043544D01*
X0073054Y0043495D01*
X0073045Y0043448D01*
X0073032Y0043401D01*
X0073015Y0043356D01*
X0072995Y0043312D01*
X0072971Y0043270D01*
X0072944Y0043229D01*
X0072914Y0043191D01*
X0072881Y0043156D01*
X0072846Y0043123D01*
X0072808Y0043093D01*
X0072767Y0043066D01*
X0072725Y0043042D01*
X0072681Y0043022D01*
X0072636Y0043005D01*
X0072589Y0042992D01*
X0072542Y0042983D01*
X0072493Y0042977D01*
X0072445Y0042975D01*
X0071417Y0042975D01*
X0074520Y0042975D02*
X0074520Y0045442D01*
X0076097Y0044825D02*
X0076097Y0042975D01*
X0077742Y0042975D02*
X0077742Y0046675D01*
X0080794Y0045134D02*
X0080840Y0045163D01*
X0080883Y0045195D01*
X0080925Y0045229D01*
X0080964Y0045267D01*
X0081001Y0045306D01*
X0081035Y0045348D01*
X0081067Y0045393D01*
X0081095Y0045439D01*
X0081120Y0045487D01*
X0081143Y0045536D01*
X0081161Y0045587D01*
X0081177Y0045639D01*
X0081189Y0045691D01*
X0081198Y0045745D01*
X0081203Y0045799D01*
X0081205Y0045853D01*
X0081204Y0045853D02*
X0081202Y0045909D01*
X0081196Y0045965D01*
X0081187Y0046020D01*
X0081174Y0046075D01*
X0081157Y0046128D01*
X0081136Y0046180D01*
X0081112Y0046231D01*
X0081084Y0046280D01*
X0081054Y0046327D01*
X0081020Y0046372D01*
X0080983Y0046414D01*
X0080943Y0046454D01*
X0080901Y0046491D01*
X0080856Y0046525D01*
X0080809Y0046555D01*
X0080760Y0046583D01*
X0080709Y0046607D01*
X0080657Y0046628D01*
X0080604Y0046645D01*
X0080549Y0046658D01*
X0080494Y0046667D01*
X0080438Y0046673D01*
X0080382Y0046675D01*
X0080382Y0046676D02*
X0080306Y0046674D01*
X0080230Y0046668D01*
X0080154Y0046659D01*
X0080079Y0046646D01*
X0080004Y0046629D01*
X0079931Y0046608D01*
X0079858Y0046584D01*
X0079787Y0046557D01*
X0079718Y0046525D01*
X0079649Y0046491D01*
X0079583Y0046453D01*
X0079519Y0046412D01*
X0079457Y0046368D01*
X0081307Y0043489D02*
X0081249Y0043433D01*
X0081189Y0043380D01*
X0081126Y0043329D01*
X0081060Y0043282D01*
X0080993Y0043238D01*
X0080923Y0043197D01*
X0080852Y0043159D01*
X0080779Y0043125D01*
X0080705Y0043094D01*
X0080629Y0043066D01*
X0080552Y0043042D01*
X0080474Y0043022D01*
X0080395Y0043005D01*
X0080315Y0042992D01*
X0080235Y0042982D01*
X0080155Y0042977D01*
X0080074Y0042975D01*
X0080018Y0042977D01*
X0079962Y0042983D01*
X0079907Y0042992D01*
X0079852Y0043005D01*
X0079799Y0043022D01*
X0079747Y0043043D01*
X0079696Y0043067D01*
X0079647Y0043095D01*
X0079600Y0043125D01*
X0079555Y0043159D01*
X0079513Y0043196D01*
X0079473Y0043236D01*
X0079436Y0043278D01*
X0079402Y0043323D01*
X0079372Y0043370D01*
X0079344Y0043419D01*
X0079320Y0043470D01*
X0079299Y0043522D01*
X0079282Y0043575D01*
X0079269Y0043630D01*
X0079260Y0043685D01*
X0079254Y0043741D01*
X0079252Y0043797D01*
X0079663Y0044517D02*
X0080794Y0045134D01*
X0079663Y0044516D02*
X0079617Y0044487D01*
X0079574Y0044455D01*
X0079532Y0044421D01*
X0079493Y0044383D01*
X0079456Y0044344D01*
X0079422Y0044302D01*
X0079390Y0044257D01*
X0079362Y0044211D01*
X0079337Y0044163D01*
X0079314Y0044114D01*
X0079296Y0044063D01*
X0079280Y0044011D01*
X0079268Y0043959D01*
X0079259Y0043905D01*
X0079254Y0043851D01*
X0079252Y0043797D01*
X0077742Y0045442D02*
X0076714Y0045442D01*
X0076666Y0045440D01*
X0076617Y0045434D01*
X0076570Y0045425D01*
X0076523Y0045412D01*
X0076478Y0045395D01*
X0076434Y0045375D01*
X0076392Y0045351D01*
X0076351Y0045324D01*
X0076313Y0045294D01*
X0076278Y0045261D01*
X0076245Y0045226D01*
X0076215Y0045188D01*
X0076188Y0045147D01*
X0076164Y0045105D01*
X0076144Y0045061D01*
X0076127Y0045016D01*
X0076114Y0044969D01*
X0076105Y0044922D01*
X0076099Y0044873D01*
X0076097Y0044825D01*
X0074622Y0046470D02*
X0074417Y0046470D01*
X0074417Y0046675D01*
X0074622Y0046675D01*
X0074622Y0046470D01*
X0073062Y0044620D02*
X0073060Y0044676D01*
X0073054Y0044732D01*
X0073045Y0044787D01*
X0073032Y0044842D01*
X0073015Y0044895D01*
X0072994Y0044947D01*
X0072970Y0044998D01*
X0072942Y0045047D01*
X0072912Y0045094D01*
X0072878Y0045139D01*
X0072841Y0045181D01*
X0072801Y0045221D01*
X0072759Y0045258D01*
X0072714Y0045292D01*
X0072667Y0045322D01*
X0072618Y0045350D01*
X0072567Y0045374D01*
X0072515Y0045395D01*
X0072462Y0045412D01*
X0072407Y0045425D01*
X0072352Y0045434D01*
X0072296Y0045440D01*
X0072240Y0045442D01*
X0072184Y0045440D01*
X0072128Y0045434D01*
X0072073Y0045425D01*
X0072018Y0045412D01*
X0071965Y0045395D01*
X0071913Y0045374D01*
X0071862Y0045350D01*
X0071813Y0045322D01*
X0071766Y0045292D01*
X0071721Y0045258D01*
X0071679Y0045221D01*
X0071639Y0045181D01*
X0071602Y0045139D01*
X0071568Y0045094D01*
X0071538Y0045047D01*
X0071510Y0044998D01*
X0071486Y0044947D01*
X0071465Y0044895D01*
X0071448Y0044842D01*
X0071435Y0044787D01*
X0071426Y0044732D01*
X0071420Y0044676D01*
X0071418Y0044620D01*
X0062664Y0046059D02*
X0062662Y0046107D01*
X0062656Y0046156D01*
X0062647Y0046203D01*
X0062634Y0046250D01*
X0062617Y0046295D01*
X0062597Y0046339D01*
X0062573Y0046381D01*
X0062546Y0046422D01*
X0062516Y0046460D01*
X0062483Y0046495D01*
X0062448Y0046528D01*
X0062410Y0046558D01*
X0062369Y0046585D01*
X0062327Y0046609D01*
X0062283Y0046629D01*
X0062238Y0046646D01*
X0062191Y0046659D01*
X0062144Y0046668D01*
X0062095Y0046674D01*
X0062047Y0046676D01*
X0062047Y0046675D02*
X0061841Y0046675D01*
D11*
X0061977Y0052700D02*
X0060911Y0055544D01*
X0059844Y0052700D01*
X0058777Y0056967D01*
X0056057Y0056967D02*
X0054635Y0056967D01*
X0054571Y0056965D01*
X0054506Y0056959D01*
X0054443Y0056950D01*
X0054380Y0056936D01*
X0054318Y0056919D01*
X0054257Y0056898D01*
X0054197Y0056873D01*
X0054139Y0056845D01*
X0054083Y0056813D01*
X0054029Y0056778D01*
X0053977Y0056740D01*
X0053927Y0056699D01*
X0053881Y0056654D01*
X0053836Y0056608D01*
X0053795Y0056558D01*
X0053757Y0056506D01*
X0053722Y0056452D01*
X0053690Y0056396D01*
X0053662Y0056338D01*
X0053637Y0056278D01*
X0053616Y0056217D01*
X0053599Y0056155D01*
X0053585Y0056092D01*
X0053576Y0056029D01*
X0053570Y0055964D01*
X0053568Y0055900D01*
X0053569Y0055900D02*
X0053569Y0052700D01*
X0055169Y0052700D01*
X0055239Y0052702D01*
X0055308Y0052708D01*
X0055377Y0052718D01*
X0055446Y0052731D01*
X0055513Y0052749D01*
X0055580Y0052770D01*
X0055645Y0052795D01*
X0055709Y0052823D01*
X0055771Y0052855D01*
X0055831Y0052891D01*
X0055889Y0052929D01*
X0055945Y0052971D01*
X0055998Y0053016D01*
X0056049Y0053064D01*
X0056097Y0053115D01*
X0056142Y0053168D01*
X0056184Y0053224D01*
X0056222Y0053282D01*
X0056258Y0053342D01*
X0056290Y0053404D01*
X0056318Y0053468D01*
X0056343Y0053533D01*
X0056364Y0053600D01*
X0056382Y0053667D01*
X0056395Y0053736D01*
X0056405Y0053805D01*
X0056411Y0053874D01*
X0056413Y0053944D01*
X0056411Y0054014D01*
X0056405Y0054083D01*
X0056395Y0054152D01*
X0056382Y0054221D01*
X0056364Y0054288D01*
X0056343Y0054355D01*
X0056318Y0054420D01*
X0056290Y0054484D01*
X0056258Y0054546D01*
X0056222Y0054606D01*
X0056184Y0054664D01*
X0056142Y0054720D01*
X0056097Y0054773D01*
X0056049Y0054824D01*
X0055998Y0054872D01*
X0055945Y0054917D01*
X0055889Y0054959D01*
X0055831Y0054997D01*
X0055771Y0055033D01*
X0055709Y0055065D01*
X0055645Y0055093D01*
X0055580Y0055118D01*
X0055513Y0055139D01*
X0055446Y0055157D01*
X0055377Y0055170D01*
X0055308Y0055180D01*
X0055239Y0055186D01*
X0055169Y0055188D01*
X0055169Y0055189D02*
X0053569Y0055189D01*
X0050607Y0056967D02*
X0048474Y0056967D01*
X0048474Y0056256D01*
X0046567Y0055900D02*
X0046567Y0053767D01*
X0046565Y0053703D01*
X0046559Y0053638D01*
X0046550Y0053575D01*
X0046536Y0053512D01*
X0046519Y0053450D01*
X0046498Y0053389D01*
X0046473Y0053329D01*
X0046445Y0053271D01*
X0046413Y0053215D01*
X0046378Y0053161D01*
X0046340Y0053109D01*
X0046299Y0053059D01*
X0046254Y0053013D01*
X0046208Y0052968D01*
X0046158Y0052927D01*
X0046106Y0052889D01*
X0046052Y0052854D01*
X0045996Y0052822D01*
X0045938Y0052794D01*
X0045878Y0052769D01*
X0045817Y0052748D01*
X0045755Y0052731D01*
X0045692Y0052717D01*
X0045629Y0052708D01*
X0045564Y0052702D01*
X0045500Y0052700D01*
X0043722Y0052700D01*
X0043722Y0059100D01*
X0043722Y0056967D02*
X0045500Y0056967D01*
X0041400Y0057400D02*
X0041402Y0057526D01*
X0041408Y0057651D01*
X0041418Y0057776D01*
X0041432Y0057901D01*
X0041449Y0058026D01*
X0041471Y0058150D01*
X0041496Y0058273D01*
X0041526Y0058395D01*
X0041559Y0058516D01*
X0041596Y0058636D01*
X0041636Y0058755D01*
X0041681Y0058872D01*
X0041729Y0058989D01*
X0041781Y0059103D01*
X0041836Y0059216D01*
X0041895Y0059327D01*
X0041957Y0059436D01*
X0042023Y0059543D01*
X0042092Y0059648D01*
X0042164Y0059751D01*
X0042239Y0059852D01*
X0042318Y0059950D01*
X0042400Y0060045D01*
X0042484Y0060138D01*
X0042572Y0060228D01*
X0042662Y0060316D01*
X0042755Y0060400D01*
X0042850Y0060482D01*
X0042948Y0060561D01*
X0043049Y0060636D01*
X0043152Y0060708D01*
X0043257Y0060777D01*
X0043364Y0060843D01*
X0043473Y0060905D01*
X0043584Y0060964D01*
X0043697Y0061019D01*
X0043811Y0061071D01*
X0043928Y0061119D01*
X0044045Y0061164D01*
X0044164Y0061204D01*
X0044284Y0061241D01*
X0044405Y0061274D01*
X0044527Y0061304D01*
X0044650Y0061329D01*
X0044774Y0061351D01*
X0044899Y0061368D01*
X0045024Y0061382D01*
X0045149Y0061392D01*
X0045274Y0061398D01*
X0045400Y0061400D01*
X0102400Y0061400D01*
X0103100Y0059100D02*
X0099544Y0059100D01*
X0101322Y0059100D02*
X0101322Y0052700D01*
X0100400Y0051400D02*
X0084400Y0051400D01*
X0083135Y0050567D02*
X0081713Y0050567D01*
X0081713Y0050566D02*
X0081649Y0050568D01*
X0081584Y0050574D01*
X0081521Y0050583D01*
X0081458Y0050597D01*
X0081396Y0050614D01*
X0081335Y0050635D01*
X0081275Y0050660D01*
X0081217Y0050688D01*
X0081161Y0050720D01*
X0081107Y0050755D01*
X0081055Y0050793D01*
X0081005Y0050834D01*
X0080959Y0050879D01*
X0080914Y0050925D01*
X0080873Y0050975D01*
X0080835Y0051027D01*
X0080800Y0051081D01*
X0080768Y0051137D01*
X0080740Y0051195D01*
X0080715Y0051255D01*
X0080694Y0051316D01*
X0080677Y0051378D01*
X0080663Y0051441D01*
X0080654Y0051504D01*
X0080648Y0051569D01*
X0080646Y0051633D01*
X0080646Y0056967D01*
X0082424Y0056967D01*
X0082488Y0056965D01*
X0082553Y0056959D01*
X0082616Y0056950D01*
X0082679Y0056936D01*
X0082741Y0056919D01*
X0082802Y0056898D01*
X0082862Y0056873D01*
X0082920Y0056845D01*
X0082976Y0056813D01*
X0083030Y0056778D01*
X0083082Y0056740D01*
X0083132Y0056699D01*
X0083178Y0056654D01*
X0083223Y0056608D01*
X0083264Y0056558D01*
X0083302Y0056506D01*
X0083337Y0056452D01*
X0083369Y0056396D01*
X0083397Y0056338D01*
X0083422Y0056278D01*
X0083443Y0056217D01*
X0083460Y0056155D01*
X0083474Y0056092D01*
X0083483Y0056029D01*
X0083489Y0055964D01*
X0083491Y0055900D01*
X0083491Y0053767D01*
X0083489Y0053703D01*
X0083483Y0053638D01*
X0083474Y0053575D01*
X0083460Y0053512D01*
X0083443Y0053450D01*
X0083422Y0053389D01*
X0083397Y0053329D01*
X0083369Y0053271D01*
X0083337Y0053215D01*
X0083302Y0053161D01*
X0083264Y0053109D01*
X0083223Y0053059D01*
X0083178Y0053013D01*
X0083132Y0052968D01*
X0083082Y0052927D01*
X0083030Y0052889D01*
X0082976Y0052854D01*
X0082920Y0052822D01*
X0082862Y0052794D01*
X0082802Y0052769D01*
X0082741Y0052748D01*
X0082679Y0052731D01*
X0082616Y0052717D01*
X0082553Y0052708D01*
X0082488Y0052702D01*
X0082424Y0052700D01*
X0080646Y0052700D01*
X0077652Y0052700D02*
X0077652Y0059100D01*
X0074807Y0059100D01*
X0074807Y0056256D02*
X0077652Y0056256D01*
X0072590Y0055544D02*
X0072590Y0054122D01*
X0072588Y0054048D01*
X0072582Y0053973D01*
X0072572Y0053900D01*
X0072559Y0053826D01*
X0072542Y0053754D01*
X0072520Y0053683D01*
X0072496Y0053612D01*
X0072467Y0053544D01*
X0072435Y0053476D01*
X0072399Y0053411D01*
X0072361Y0053348D01*
X0072318Y0053286D01*
X0072273Y0053227D01*
X0072225Y0053170D01*
X0072174Y0053116D01*
X0072120Y0053065D01*
X0072063Y0053017D01*
X0072004Y0052972D01*
X0071942Y0052929D01*
X0071879Y0052891D01*
X0071814Y0052855D01*
X0071746Y0052823D01*
X0071678Y0052794D01*
X0071607Y0052770D01*
X0071536Y0052748D01*
X0071464Y0052731D01*
X0071390Y0052718D01*
X0071317Y0052708D01*
X0071242Y0052702D01*
X0071168Y0052700D01*
X0071094Y0052702D01*
X0071019Y0052708D01*
X0070946Y0052718D01*
X0070872Y0052731D01*
X0070800Y0052748D01*
X0070729Y0052770D01*
X0070658Y0052794D01*
X0070590Y0052823D01*
X0070522Y0052855D01*
X0070457Y0052891D01*
X0070394Y0052929D01*
X0070332Y0052972D01*
X0070273Y0053017D01*
X0070216Y0053065D01*
X0070162Y0053116D01*
X0070111Y0053170D01*
X0070063Y0053227D01*
X0070018Y0053286D01*
X0069975Y0053348D01*
X0069937Y0053411D01*
X0069901Y0053476D01*
X0069869Y0053544D01*
X0069840Y0053612D01*
X0069816Y0053683D01*
X0069794Y0053754D01*
X0069777Y0053826D01*
X0069764Y0053900D01*
X0069754Y0053973D01*
X0069748Y0054048D01*
X0069746Y0054122D01*
X0069745Y0054122D02*
X0069745Y0055544D01*
X0069746Y0055544D02*
X0069748Y0055618D01*
X0069754Y0055693D01*
X0069764Y0055766D01*
X0069777Y0055840D01*
X0069794Y0055912D01*
X0069816Y0055983D01*
X0069840Y0056054D01*
X0069869Y0056122D01*
X0069901Y0056190D01*
X0069937Y0056255D01*
X0069975Y0056318D01*
X0070018Y0056380D01*
X0070063Y0056439D01*
X0070111Y0056496D01*
X0070162Y0056550D01*
X0070216Y0056601D01*
X0070273Y0056649D01*
X0070332Y0056694D01*
X0070394Y0056737D01*
X0070457Y0056775D01*
X0070522Y0056811D01*
X0070590Y0056843D01*
X0070658Y0056872D01*
X0070729Y0056896D01*
X0070800Y0056918D01*
X0070872Y0056935D01*
X0070946Y0056948D01*
X0071019Y0056958D01*
X0071094Y0056964D01*
X0071168Y0056966D01*
X0071242Y0056964D01*
X0071317Y0056958D01*
X0071390Y0056948D01*
X0071464Y0056935D01*
X0071536Y0056918D01*
X0071607Y0056896D01*
X0071678Y0056872D01*
X0071746Y0056843D01*
X0071814Y0056811D01*
X0071879Y0056775D01*
X0071942Y0056737D01*
X0072004Y0056694D01*
X0072063Y0056649D01*
X0072120Y0056601D01*
X0072174Y0056550D01*
X0072225Y0056496D01*
X0072273Y0056439D01*
X0072318Y0056380D01*
X0072361Y0056318D01*
X0072399Y0056255D01*
X0072435Y0056190D01*
X0072467Y0056122D01*
X0072496Y0056054D01*
X0072520Y0055983D01*
X0072542Y0055912D01*
X0072559Y0055840D01*
X0072572Y0055766D01*
X0072582Y0055693D01*
X0072588Y0055618D01*
X0072590Y0055544D01*
X0067018Y0056967D02*
X0064884Y0056967D01*
X0064884Y0056256D01*
X0063044Y0056967D02*
X0061977Y0052700D01*
X0067018Y0052700D02*
X0067018Y0056967D01*
X0077400Y0051400D02*
X0043400Y0051400D01*
X0043313Y0051402D01*
X0043226Y0051408D01*
X0043139Y0051417D01*
X0043053Y0051430D01*
X0042967Y0051447D01*
X0042882Y0051468D01*
X0042799Y0051493D01*
X0042716Y0051521D01*
X0042635Y0051552D01*
X0042555Y0051587D01*
X0042477Y0051626D01*
X0042400Y0051668D01*
X0042325Y0051713D01*
X0042253Y0051762D01*
X0042182Y0051813D01*
X0042114Y0051868D01*
X0042049Y0051925D01*
X0041986Y0051986D01*
X0041925Y0052049D01*
X0041868Y0052114D01*
X0041813Y0052182D01*
X0041762Y0052253D01*
X0041713Y0052325D01*
X0041668Y0052400D01*
X0041626Y0052477D01*
X0041587Y0052555D01*
X0041552Y0052635D01*
X0041521Y0052716D01*
X0041493Y0052799D01*
X0041468Y0052882D01*
X0041447Y0052967D01*
X0041430Y0053053D01*
X0041417Y0053139D01*
X0041408Y0053226D01*
X0041402Y0053313D01*
X0041400Y0053400D01*
X0041400Y0057400D01*
X0045500Y0056967D02*
X0045564Y0056965D01*
X0045629Y0056959D01*
X0045692Y0056950D01*
X0045755Y0056936D01*
X0045817Y0056919D01*
X0045878Y0056898D01*
X0045938Y0056873D01*
X0045996Y0056845D01*
X0046052Y0056813D01*
X0046106Y0056778D01*
X0046158Y0056740D01*
X0046208Y0056699D01*
X0046254Y0056654D01*
X0046299Y0056608D01*
X0046340Y0056558D01*
X0046378Y0056506D01*
X0046413Y0056452D01*
X0046445Y0056396D01*
X0046473Y0056338D01*
X0046498Y0056278D01*
X0046519Y0056217D01*
X0046536Y0056155D01*
X0046550Y0056092D01*
X0046559Y0056029D01*
X0046565Y0055964D01*
X0046567Y0055900D01*
X0050607Y0056967D02*
X0050607Y0052700D01*
X0077400Y0051400D02*
X0077487Y0051398D01*
X0077574Y0051392D01*
X0077661Y0051383D01*
X0077747Y0051370D01*
X0077833Y0051353D01*
X0077918Y0051332D01*
X0078001Y0051307D01*
X0078084Y0051279D01*
X0078165Y0051248D01*
X0078245Y0051213D01*
X0078323Y0051174D01*
X0078400Y0051132D01*
X0078475Y0051087D01*
X0078547Y0051038D01*
X0078618Y0050987D01*
X0078686Y0050932D01*
X0078751Y0050875D01*
X0078814Y0050814D01*
X0078875Y0050751D01*
X0078932Y0050686D01*
X0078987Y0050618D01*
X0079038Y0050547D01*
X0079087Y0050475D01*
X0079132Y0050400D01*
X0079174Y0050323D01*
X0079213Y0050245D01*
X0079248Y0050165D01*
X0079279Y0050084D01*
X0079307Y0050001D01*
X0079332Y0049918D01*
X0079353Y0049833D01*
X0079370Y0049747D01*
X0079383Y0049661D01*
X0079392Y0049574D01*
X0079398Y0049487D01*
X0079400Y0049400D01*
X0086156Y0052700D02*
X0086156Y0055900D01*
X0086158Y0055964D01*
X0086164Y0056029D01*
X0086173Y0056092D01*
X0086187Y0056155D01*
X0086204Y0056217D01*
X0086225Y0056278D01*
X0086250Y0056338D01*
X0086278Y0056396D01*
X0086310Y0056452D01*
X0086345Y0056506D01*
X0086383Y0056558D01*
X0086424Y0056608D01*
X0086469Y0056654D01*
X0086515Y0056699D01*
X0086565Y0056740D01*
X0086617Y0056778D01*
X0086671Y0056813D01*
X0086727Y0056845D01*
X0086785Y0056873D01*
X0086845Y0056898D01*
X0086906Y0056919D01*
X0086968Y0056936D01*
X0087031Y0056950D01*
X0087094Y0056959D01*
X0087159Y0056965D01*
X0087223Y0056967D01*
X0089000Y0056967D01*
X0089000Y0052700D01*
X0091681Y0052700D02*
X0091681Y0056967D01*
X0094361Y0055900D02*
X0094361Y0052700D01*
X0097206Y0052700D02*
X0097206Y0059100D01*
X0097206Y0056967D02*
X0095428Y0056967D01*
X0095364Y0056965D01*
X0095299Y0056959D01*
X0095236Y0056950D01*
X0095173Y0056936D01*
X0095111Y0056919D01*
X0095050Y0056898D01*
X0094990Y0056873D01*
X0094932Y0056845D01*
X0094876Y0056813D01*
X0094822Y0056778D01*
X0094770Y0056740D01*
X0094720Y0056699D01*
X0094674Y0056654D01*
X0094629Y0056608D01*
X0094588Y0056558D01*
X0094550Y0056506D01*
X0094515Y0056452D01*
X0094483Y0056396D01*
X0094455Y0056338D01*
X0094430Y0056278D01*
X0094409Y0056217D01*
X0094392Y0056155D01*
X0094378Y0056092D01*
X0094369Y0056029D01*
X0094363Y0055964D01*
X0094361Y0055900D01*
X0091859Y0058744D02*
X0091503Y0058744D01*
X0091503Y0059100D01*
X0091859Y0059100D01*
X0091859Y0058744D01*
X0100400Y0051400D02*
X0100540Y0051402D01*
X0100680Y0051408D01*
X0100820Y0051418D01*
X0100960Y0051431D01*
X0101099Y0051449D01*
X0101238Y0051471D01*
X0101375Y0051496D01*
X0101513Y0051525D01*
X0101649Y0051558D01*
X0101784Y0051595D01*
X0101918Y0051636D01*
X0102051Y0051681D01*
X0102183Y0051729D01*
X0102313Y0051781D01*
X0102442Y0051836D01*
X0102569Y0051895D01*
X0102695Y0051958D01*
X0102819Y0052024D01*
X0102940Y0052093D01*
X0103060Y0052166D01*
X0103178Y0052243D01*
X0103293Y0052322D01*
X0103407Y0052405D01*
X0103517Y0052491D01*
X0103626Y0052580D01*
X0103732Y0052672D01*
X0103835Y0052767D01*
X0103936Y0052864D01*
X0104033Y0052965D01*
X0104128Y0053068D01*
X0104220Y0053174D01*
X0104309Y0053283D01*
X0104395Y0053393D01*
X0104478Y0053507D01*
X0104557Y0053622D01*
X0104634Y0053740D01*
X0104707Y0053860D01*
X0104776Y0053981D01*
X0104842Y0054105D01*
X0104905Y0054231D01*
X0104964Y0054358D01*
X0105019Y0054487D01*
X0105071Y0054617D01*
X0105119Y0054749D01*
X0105164Y0054882D01*
X0105205Y0055016D01*
X0105242Y0055151D01*
X0105275Y0055287D01*
X0105304Y0055425D01*
X0105329Y0055562D01*
X0105351Y0055701D01*
X0105369Y0055840D01*
X0105382Y0055980D01*
X0105392Y0056120D01*
X0105398Y0056260D01*
X0105400Y0056400D01*
X0105400Y0055400D02*
X0105400Y0058400D01*
X0105398Y0058507D01*
X0105392Y0058614D01*
X0105383Y0058721D01*
X0105369Y0058827D01*
X0105352Y0058933D01*
X0105331Y0059038D01*
X0105307Y0059142D01*
X0105278Y0059245D01*
X0105246Y0059347D01*
X0105211Y0059448D01*
X0105172Y0059548D01*
X0105129Y0059646D01*
X0105083Y0059743D01*
X0105033Y0059838D01*
X0104980Y0059931D01*
X0104924Y0060022D01*
X0104864Y0060111D01*
X0104802Y0060198D01*
X0104736Y0060282D01*
X0104667Y0060365D01*
X0104596Y0060444D01*
X0104521Y0060521D01*
X0104444Y0060596D01*
X0104365Y0060667D01*
X0104282Y0060736D01*
X0104198Y0060802D01*
X0104111Y0060864D01*
X0104022Y0060924D01*
X0103931Y0060980D01*
X0103838Y0061033D01*
X0103743Y0061083D01*
X0103646Y0061129D01*
X0103548Y0061172D01*
X0103448Y0061211D01*
X0103347Y0061246D01*
X0103245Y0061278D01*
X0103142Y0061307D01*
X0103038Y0061331D01*
X0102933Y0061352D01*
X0102827Y0061369D01*
X0102721Y0061383D01*
X0102614Y0061392D01*
X0102507Y0061398D01*
X0102400Y0061400D01*
M02*
