%
M48
M72
T01C0.02000
T02C0.03150
T03C0.03937
T04C0.08000
T05C0.10000
%
T01
X126400Y41400
T02
X120400Y44731
X120400Y52605
X120400Y36857
X120400Y28983
X183219Y28983
X183219Y36857
X183219Y44731
X183219Y52605
X51644Y73794
X43770Y73794
X35896Y73794
X28022Y73794
X19258Y52605
X19258Y44731
X19258Y36857
X19258Y28983
T03
X25400Y6400
X35400Y6400
X45400Y6400
X55400Y6400
X65400Y6400
X75400Y6400
X85400Y6400
X95400Y6400
X105400Y6400
X115400Y6400
X125400Y6400
X135400Y6400
X145400Y6400
X155400Y6400
X165400Y6400
X175400Y6400
X175400Y86400
X165400Y86400
X155400Y86400
X145400Y86400
X135400Y86400
X125400Y86400
X115400Y86400
X105400Y86400
X95400Y86400
X85400Y86400
X75400Y86400
X65400Y86400
T04
X188156Y84290
X188156Y9329
T05
X7991Y9329
X7991Y84290
M30
