G75*
%MOIN*%
%OFA0B0*%
%FSLAX25Y25*%
%IPPOS*%
%LPD*%
%AMOC8*
5,1,8,0,0,1.08239X$1,22.5*
%
%ADD10C,0.10800*%
%ADD11C,0.08800*%
%ADD12R,0.06350X0.06350*%
%ADD13C,0.06350*%
%ADD14C,0.07400*%
D10*
X0007991Y0009329D03*
X0007991Y0084290D03*
D11*
X0188156Y0084290D03*
X0188156Y0009329D03*
D12*
X0183219Y0028983D03*
X0120400Y0028983D03*
X0051644Y0073794D03*
X0019258Y0052605D03*
D13*
X0019258Y0044731D03*
X0019258Y0036857D03*
X0019258Y0028983D03*
X0028022Y0073794D03*
X0035896Y0073794D03*
X0043770Y0073794D03*
X0120400Y0052605D03*
X0120400Y0044731D03*
X0120400Y0036857D03*
X0183219Y0036857D03*
X0183219Y0044731D03*
X0183219Y0052605D03*
D14*
X0175400Y0086400D03*
X0165400Y0086400D03*
X0155400Y0086400D03*
X0145400Y0086400D03*
X0135400Y0086400D03*
X0125400Y0086400D03*
X0115400Y0086400D03*
X0105400Y0086400D03*
X0095400Y0086400D03*
X0085400Y0086400D03*
X0075400Y0086400D03*
X0065400Y0086400D03*
X0065400Y0006400D03*
X0055400Y0006400D03*
X0045400Y0006400D03*
X0035400Y0006400D03*
X0025400Y0006400D03*
X0075400Y0006400D03*
X0085400Y0006400D03*
X0095400Y0006400D03*
X0105400Y0006400D03*
X0115400Y0006400D03*
X0125400Y0006400D03*
X0135400Y0006400D03*
X0145400Y0006400D03*
X0155400Y0006400D03*
X0165400Y0006400D03*
X0175400Y0006400D03*
M02*
