G75*
%MOIN*%
%OFA0B0*%
%FSLAX25Y25*%
%IPPOS*%
%LPD*%
%AMOC8*
5,1,8,0,0,1.08239X$1,22.5*
%
%ADD10C,0.00000*%
%ADD11C,0.00800*%
%ADD12R,0.05550X0.05550*%
%ADD13C,0.05550*%
%ADD14C,0.06600*%
%ADD15C,0.04000*%
D10*
X0002991Y0009329D02*
X0002993Y0009470D01*
X0002999Y0009611D01*
X0003009Y0009751D01*
X0003023Y0009891D01*
X0003041Y0010031D01*
X0003062Y0010170D01*
X0003088Y0010309D01*
X0003117Y0010447D01*
X0003151Y0010583D01*
X0003188Y0010719D01*
X0003229Y0010854D01*
X0003274Y0010988D01*
X0003323Y0011120D01*
X0003375Y0011251D01*
X0003431Y0011380D01*
X0003491Y0011507D01*
X0003554Y0011633D01*
X0003620Y0011757D01*
X0003691Y0011880D01*
X0003764Y0012000D01*
X0003841Y0012118D01*
X0003921Y0012234D01*
X0004005Y0012347D01*
X0004091Y0012458D01*
X0004181Y0012567D01*
X0004274Y0012673D01*
X0004369Y0012776D01*
X0004468Y0012877D01*
X0004569Y0012975D01*
X0004673Y0013070D01*
X0004780Y0013162D01*
X0004889Y0013251D01*
X0005001Y0013336D01*
X0005115Y0013419D01*
X0005231Y0013499D01*
X0005350Y0013575D01*
X0005471Y0013647D01*
X0005593Y0013717D01*
X0005718Y0013782D01*
X0005844Y0013845D01*
X0005972Y0013903D01*
X0006102Y0013958D01*
X0006233Y0014010D01*
X0006366Y0014057D01*
X0006500Y0014101D01*
X0006635Y0014142D01*
X0006771Y0014178D01*
X0006908Y0014210D01*
X0007046Y0014239D01*
X0007184Y0014264D01*
X0007324Y0014284D01*
X0007464Y0014301D01*
X0007604Y0014314D01*
X0007745Y0014323D01*
X0007885Y0014328D01*
X0008026Y0014329D01*
X0008167Y0014326D01*
X0008308Y0014319D01*
X0008448Y0014308D01*
X0008588Y0014293D01*
X0008728Y0014274D01*
X0008867Y0014252D01*
X0009005Y0014225D01*
X0009143Y0014195D01*
X0009279Y0014160D01*
X0009415Y0014122D01*
X0009549Y0014080D01*
X0009683Y0014034D01*
X0009815Y0013985D01*
X0009945Y0013931D01*
X0010074Y0013874D01*
X0010201Y0013814D01*
X0010327Y0013750D01*
X0010450Y0013682D01*
X0010572Y0013611D01*
X0010692Y0013537D01*
X0010809Y0013459D01*
X0010924Y0013378D01*
X0011037Y0013294D01*
X0011148Y0013207D01*
X0011256Y0013116D01*
X0011361Y0013023D01*
X0011464Y0012926D01*
X0011564Y0012827D01*
X0011661Y0012725D01*
X0011755Y0012620D01*
X0011846Y0012513D01*
X0011934Y0012403D01*
X0012019Y0012291D01*
X0012101Y0012176D01*
X0012180Y0012059D01*
X0012255Y0011940D01*
X0012327Y0011819D01*
X0012395Y0011696D01*
X0012460Y0011571D01*
X0012522Y0011444D01*
X0012579Y0011315D01*
X0012634Y0011185D01*
X0012684Y0011054D01*
X0012731Y0010921D01*
X0012774Y0010787D01*
X0012813Y0010651D01*
X0012848Y0010515D01*
X0012880Y0010378D01*
X0012907Y0010240D01*
X0012931Y0010101D01*
X0012951Y0009961D01*
X0012967Y0009821D01*
X0012979Y0009681D01*
X0012987Y0009540D01*
X0012991Y0009399D01*
X0012991Y0009259D01*
X0012987Y0009118D01*
X0012979Y0008977D01*
X0012967Y0008837D01*
X0012951Y0008697D01*
X0012931Y0008557D01*
X0012907Y0008418D01*
X0012880Y0008280D01*
X0012848Y0008143D01*
X0012813Y0008007D01*
X0012774Y0007871D01*
X0012731Y0007737D01*
X0012684Y0007604D01*
X0012634Y0007473D01*
X0012579Y0007343D01*
X0012522Y0007214D01*
X0012460Y0007087D01*
X0012395Y0006962D01*
X0012327Y0006839D01*
X0012255Y0006718D01*
X0012180Y0006599D01*
X0012101Y0006482D01*
X0012019Y0006367D01*
X0011934Y0006255D01*
X0011846Y0006145D01*
X0011755Y0006038D01*
X0011661Y0005933D01*
X0011564Y0005831D01*
X0011464Y0005732D01*
X0011361Y0005635D01*
X0011256Y0005542D01*
X0011148Y0005451D01*
X0011037Y0005364D01*
X0010924Y0005280D01*
X0010809Y0005199D01*
X0010692Y0005121D01*
X0010572Y0005047D01*
X0010450Y0004976D01*
X0010327Y0004908D01*
X0010201Y0004844D01*
X0010074Y0004784D01*
X0009945Y0004727D01*
X0009815Y0004673D01*
X0009683Y0004624D01*
X0009549Y0004578D01*
X0009415Y0004536D01*
X0009279Y0004498D01*
X0009143Y0004463D01*
X0009005Y0004433D01*
X0008867Y0004406D01*
X0008728Y0004384D01*
X0008588Y0004365D01*
X0008448Y0004350D01*
X0008308Y0004339D01*
X0008167Y0004332D01*
X0008026Y0004329D01*
X0007885Y0004330D01*
X0007745Y0004335D01*
X0007604Y0004344D01*
X0007464Y0004357D01*
X0007324Y0004374D01*
X0007184Y0004394D01*
X0007046Y0004419D01*
X0006908Y0004448D01*
X0006771Y0004480D01*
X0006635Y0004516D01*
X0006500Y0004557D01*
X0006366Y0004601D01*
X0006233Y0004648D01*
X0006102Y0004700D01*
X0005972Y0004755D01*
X0005844Y0004813D01*
X0005718Y0004876D01*
X0005593Y0004941D01*
X0005471Y0005011D01*
X0005350Y0005083D01*
X0005231Y0005159D01*
X0005115Y0005239D01*
X0005001Y0005322D01*
X0004889Y0005407D01*
X0004780Y0005496D01*
X0004673Y0005588D01*
X0004569Y0005683D01*
X0004468Y0005781D01*
X0004369Y0005882D01*
X0004274Y0005985D01*
X0004181Y0006091D01*
X0004091Y0006200D01*
X0004005Y0006311D01*
X0003921Y0006424D01*
X0003841Y0006540D01*
X0003764Y0006658D01*
X0003691Y0006778D01*
X0003620Y0006901D01*
X0003554Y0007025D01*
X0003491Y0007151D01*
X0003431Y0007278D01*
X0003375Y0007407D01*
X0003323Y0007538D01*
X0003274Y0007670D01*
X0003229Y0007804D01*
X0003188Y0007939D01*
X0003151Y0008075D01*
X0003117Y0008211D01*
X0003088Y0008349D01*
X0003062Y0008488D01*
X0003041Y0008627D01*
X0003023Y0008767D01*
X0003009Y0008907D01*
X0002999Y0009047D01*
X0002993Y0009188D01*
X0002991Y0009329D01*
X0002991Y0084290D02*
X0002993Y0084431D01*
X0002999Y0084572D01*
X0003009Y0084712D01*
X0003023Y0084852D01*
X0003041Y0084992D01*
X0003062Y0085131D01*
X0003088Y0085270D01*
X0003117Y0085408D01*
X0003151Y0085544D01*
X0003188Y0085680D01*
X0003229Y0085815D01*
X0003274Y0085949D01*
X0003323Y0086081D01*
X0003375Y0086212D01*
X0003431Y0086341D01*
X0003491Y0086468D01*
X0003554Y0086594D01*
X0003620Y0086718D01*
X0003691Y0086841D01*
X0003764Y0086961D01*
X0003841Y0087079D01*
X0003921Y0087195D01*
X0004005Y0087308D01*
X0004091Y0087419D01*
X0004181Y0087528D01*
X0004274Y0087634D01*
X0004369Y0087737D01*
X0004468Y0087838D01*
X0004569Y0087936D01*
X0004673Y0088031D01*
X0004780Y0088123D01*
X0004889Y0088212D01*
X0005001Y0088297D01*
X0005115Y0088380D01*
X0005231Y0088460D01*
X0005350Y0088536D01*
X0005471Y0088608D01*
X0005593Y0088678D01*
X0005718Y0088743D01*
X0005844Y0088806D01*
X0005972Y0088864D01*
X0006102Y0088919D01*
X0006233Y0088971D01*
X0006366Y0089018D01*
X0006500Y0089062D01*
X0006635Y0089103D01*
X0006771Y0089139D01*
X0006908Y0089171D01*
X0007046Y0089200D01*
X0007184Y0089225D01*
X0007324Y0089245D01*
X0007464Y0089262D01*
X0007604Y0089275D01*
X0007745Y0089284D01*
X0007885Y0089289D01*
X0008026Y0089290D01*
X0008167Y0089287D01*
X0008308Y0089280D01*
X0008448Y0089269D01*
X0008588Y0089254D01*
X0008728Y0089235D01*
X0008867Y0089213D01*
X0009005Y0089186D01*
X0009143Y0089156D01*
X0009279Y0089121D01*
X0009415Y0089083D01*
X0009549Y0089041D01*
X0009683Y0088995D01*
X0009815Y0088946D01*
X0009945Y0088892D01*
X0010074Y0088835D01*
X0010201Y0088775D01*
X0010327Y0088711D01*
X0010450Y0088643D01*
X0010572Y0088572D01*
X0010692Y0088498D01*
X0010809Y0088420D01*
X0010924Y0088339D01*
X0011037Y0088255D01*
X0011148Y0088168D01*
X0011256Y0088077D01*
X0011361Y0087984D01*
X0011464Y0087887D01*
X0011564Y0087788D01*
X0011661Y0087686D01*
X0011755Y0087581D01*
X0011846Y0087474D01*
X0011934Y0087364D01*
X0012019Y0087252D01*
X0012101Y0087137D01*
X0012180Y0087020D01*
X0012255Y0086901D01*
X0012327Y0086780D01*
X0012395Y0086657D01*
X0012460Y0086532D01*
X0012522Y0086405D01*
X0012579Y0086276D01*
X0012634Y0086146D01*
X0012684Y0086015D01*
X0012731Y0085882D01*
X0012774Y0085748D01*
X0012813Y0085612D01*
X0012848Y0085476D01*
X0012880Y0085339D01*
X0012907Y0085201D01*
X0012931Y0085062D01*
X0012951Y0084922D01*
X0012967Y0084782D01*
X0012979Y0084642D01*
X0012987Y0084501D01*
X0012991Y0084360D01*
X0012991Y0084220D01*
X0012987Y0084079D01*
X0012979Y0083938D01*
X0012967Y0083798D01*
X0012951Y0083658D01*
X0012931Y0083518D01*
X0012907Y0083379D01*
X0012880Y0083241D01*
X0012848Y0083104D01*
X0012813Y0082968D01*
X0012774Y0082832D01*
X0012731Y0082698D01*
X0012684Y0082565D01*
X0012634Y0082434D01*
X0012579Y0082304D01*
X0012522Y0082175D01*
X0012460Y0082048D01*
X0012395Y0081923D01*
X0012327Y0081800D01*
X0012255Y0081679D01*
X0012180Y0081560D01*
X0012101Y0081443D01*
X0012019Y0081328D01*
X0011934Y0081216D01*
X0011846Y0081106D01*
X0011755Y0080999D01*
X0011661Y0080894D01*
X0011564Y0080792D01*
X0011464Y0080693D01*
X0011361Y0080596D01*
X0011256Y0080503D01*
X0011148Y0080412D01*
X0011037Y0080325D01*
X0010924Y0080241D01*
X0010809Y0080160D01*
X0010692Y0080082D01*
X0010572Y0080008D01*
X0010450Y0079937D01*
X0010327Y0079869D01*
X0010201Y0079805D01*
X0010074Y0079745D01*
X0009945Y0079688D01*
X0009815Y0079634D01*
X0009683Y0079585D01*
X0009549Y0079539D01*
X0009415Y0079497D01*
X0009279Y0079459D01*
X0009143Y0079424D01*
X0009005Y0079394D01*
X0008867Y0079367D01*
X0008728Y0079345D01*
X0008588Y0079326D01*
X0008448Y0079311D01*
X0008308Y0079300D01*
X0008167Y0079293D01*
X0008026Y0079290D01*
X0007885Y0079291D01*
X0007745Y0079296D01*
X0007604Y0079305D01*
X0007464Y0079318D01*
X0007324Y0079335D01*
X0007184Y0079355D01*
X0007046Y0079380D01*
X0006908Y0079409D01*
X0006771Y0079441D01*
X0006635Y0079477D01*
X0006500Y0079518D01*
X0006366Y0079562D01*
X0006233Y0079609D01*
X0006102Y0079661D01*
X0005972Y0079716D01*
X0005844Y0079774D01*
X0005718Y0079837D01*
X0005593Y0079902D01*
X0005471Y0079972D01*
X0005350Y0080044D01*
X0005231Y0080120D01*
X0005115Y0080200D01*
X0005001Y0080283D01*
X0004889Y0080368D01*
X0004780Y0080457D01*
X0004673Y0080549D01*
X0004569Y0080644D01*
X0004468Y0080742D01*
X0004369Y0080843D01*
X0004274Y0080946D01*
X0004181Y0081052D01*
X0004091Y0081161D01*
X0004005Y0081272D01*
X0003921Y0081385D01*
X0003841Y0081501D01*
X0003764Y0081619D01*
X0003691Y0081739D01*
X0003620Y0081862D01*
X0003554Y0081986D01*
X0003491Y0082112D01*
X0003431Y0082239D01*
X0003375Y0082368D01*
X0003323Y0082499D01*
X0003274Y0082631D01*
X0003229Y0082765D01*
X0003188Y0082900D01*
X0003151Y0083036D01*
X0003117Y0083172D01*
X0003088Y0083310D01*
X0003062Y0083449D01*
X0003041Y0083588D01*
X0003023Y0083728D01*
X0003009Y0083868D01*
X0002999Y0084008D01*
X0002993Y0084149D01*
X0002991Y0084290D01*
X0184156Y0084290D02*
X0184158Y0084416D01*
X0184164Y0084542D01*
X0184174Y0084668D01*
X0184188Y0084794D01*
X0184206Y0084919D01*
X0184228Y0085043D01*
X0184253Y0085167D01*
X0184283Y0085290D01*
X0184316Y0085411D01*
X0184354Y0085532D01*
X0184395Y0085651D01*
X0184440Y0085770D01*
X0184488Y0085886D01*
X0184540Y0086001D01*
X0184596Y0086114D01*
X0184656Y0086226D01*
X0184719Y0086335D01*
X0184785Y0086443D01*
X0184854Y0086548D01*
X0184927Y0086651D01*
X0185004Y0086752D01*
X0185083Y0086850D01*
X0185165Y0086946D01*
X0185251Y0087039D01*
X0185339Y0087130D01*
X0185430Y0087217D01*
X0185524Y0087302D01*
X0185620Y0087383D01*
X0185719Y0087462D01*
X0185820Y0087537D01*
X0185924Y0087609D01*
X0186030Y0087678D01*
X0186138Y0087744D01*
X0186248Y0087806D01*
X0186360Y0087864D01*
X0186473Y0087919D01*
X0186589Y0087970D01*
X0186706Y0088018D01*
X0186824Y0088062D01*
X0186944Y0088102D01*
X0187065Y0088138D01*
X0187187Y0088171D01*
X0187310Y0088200D01*
X0187434Y0088224D01*
X0187558Y0088245D01*
X0187683Y0088262D01*
X0187809Y0088275D01*
X0187935Y0088284D01*
X0188061Y0088289D01*
X0188188Y0088290D01*
X0188314Y0088287D01*
X0188440Y0088280D01*
X0188566Y0088269D01*
X0188691Y0088254D01*
X0188816Y0088235D01*
X0188940Y0088212D01*
X0189064Y0088186D01*
X0189186Y0088155D01*
X0189308Y0088121D01*
X0189428Y0088082D01*
X0189547Y0088040D01*
X0189665Y0087995D01*
X0189781Y0087945D01*
X0189896Y0087892D01*
X0190008Y0087835D01*
X0190119Y0087775D01*
X0190228Y0087711D01*
X0190335Y0087644D01*
X0190440Y0087574D01*
X0190543Y0087500D01*
X0190643Y0087423D01*
X0190741Y0087343D01*
X0190836Y0087260D01*
X0190928Y0087174D01*
X0191018Y0087085D01*
X0191105Y0086993D01*
X0191188Y0086899D01*
X0191269Y0086802D01*
X0191347Y0086702D01*
X0191422Y0086600D01*
X0191493Y0086496D01*
X0191561Y0086389D01*
X0191625Y0086281D01*
X0191686Y0086170D01*
X0191744Y0086058D01*
X0191798Y0085944D01*
X0191848Y0085828D01*
X0191895Y0085711D01*
X0191938Y0085592D01*
X0191977Y0085472D01*
X0192013Y0085351D01*
X0192044Y0085228D01*
X0192072Y0085105D01*
X0192096Y0084981D01*
X0192116Y0084856D01*
X0192132Y0084731D01*
X0192144Y0084605D01*
X0192152Y0084479D01*
X0192156Y0084353D01*
X0192156Y0084227D01*
X0192152Y0084101D01*
X0192144Y0083975D01*
X0192132Y0083849D01*
X0192116Y0083724D01*
X0192096Y0083599D01*
X0192072Y0083475D01*
X0192044Y0083352D01*
X0192013Y0083229D01*
X0191977Y0083108D01*
X0191938Y0082988D01*
X0191895Y0082869D01*
X0191848Y0082752D01*
X0191798Y0082636D01*
X0191744Y0082522D01*
X0191686Y0082410D01*
X0191625Y0082299D01*
X0191561Y0082191D01*
X0191493Y0082084D01*
X0191422Y0081980D01*
X0191347Y0081878D01*
X0191269Y0081778D01*
X0191188Y0081681D01*
X0191105Y0081587D01*
X0191018Y0081495D01*
X0190928Y0081406D01*
X0190836Y0081320D01*
X0190741Y0081237D01*
X0190643Y0081157D01*
X0190543Y0081080D01*
X0190440Y0081006D01*
X0190335Y0080936D01*
X0190228Y0080869D01*
X0190119Y0080805D01*
X0190008Y0080745D01*
X0189896Y0080688D01*
X0189781Y0080635D01*
X0189665Y0080585D01*
X0189547Y0080540D01*
X0189428Y0080498D01*
X0189308Y0080459D01*
X0189186Y0080425D01*
X0189064Y0080394D01*
X0188940Y0080368D01*
X0188816Y0080345D01*
X0188691Y0080326D01*
X0188566Y0080311D01*
X0188440Y0080300D01*
X0188314Y0080293D01*
X0188188Y0080290D01*
X0188061Y0080291D01*
X0187935Y0080296D01*
X0187809Y0080305D01*
X0187683Y0080318D01*
X0187558Y0080335D01*
X0187434Y0080356D01*
X0187310Y0080380D01*
X0187187Y0080409D01*
X0187065Y0080442D01*
X0186944Y0080478D01*
X0186824Y0080518D01*
X0186706Y0080562D01*
X0186589Y0080610D01*
X0186473Y0080661D01*
X0186360Y0080716D01*
X0186248Y0080774D01*
X0186138Y0080836D01*
X0186030Y0080902D01*
X0185924Y0080971D01*
X0185820Y0081043D01*
X0185719Y0081118D01*
X0185620Y0081197D01*
X0185524Y0081278D01*
X0185430Y0081363D01*
X0185339Y0081450D01*
X0185251Y0081541D01*
X0185165Y0081634D01*
X0185083Y0081730D01*
X0185004Y0081828D01*
X0184927Y0081929D01*
X0184854Y0082032D01*
X0184785Y0082137D01*
X0184719Y0082245D01*
X0184656Y0082354D01*
X0184596Y0082466D01*
X0184540Y0082579D01*
X0184488Y0082694D01*
X0184440Y0082810D01*
X0184395Y0082929D01*
X0184354Y0083048D01*
X0184316Y0083169D01*
X0184283Y0083290D01*
X0184253Y0083413D01*
X0184228Y0083537D01*
X0184206Y0083661D01*
X0184188Y0083786D01*
X0184174Y0083912D01*
X0184164Y0084038D01*
X0184158Y0084164D01*
X0184156Y0084290D01*
X0184156Y0009329D02*
X0184158Y0009455D01*
X0184164Y0009581D01*
X0184174Y0009707D01*
X0184188Y0009833D01*
X0184206Y0009958D01*
X0184228Y0010082D01*
X0184253Y0010206D01*
X0184283Y0010329D01*
X0184316Y0010450D01*
X0184354Y0010571D01*
X0184395Y0010690D01*
X0184440Y0010809D01*
X0184488Y0010925D01*
X0184540Y0011040D01*
X0184596Y0011153D01*
X0184656Y0011265D01*
X0184719Y0011374D01*
X0184785Y0011482D01*
X0184854Y0011587D01*
X0184927Y0011690D01*
X0185004Y0011791D01*
X0185083Y0011889D01*
X0185165Y0011985D01*
X0185251Y0012078D01*
X0185339Y0012169D01*
X0185430Y0012256D01*
X0185524Y0012341D01*
X0185620Y0012422D01*
X0185719Y0012501D01*
X0185820Y0012576D01*
X0185924Y0012648D01*
X0186030Y0012717D01*
X0186138Y0012783D01*
X0186248Y0012845D01*
X0186360Y0012903D01*
X0186473Y0012958D01*
X0186589Y0013009D01*
X0186706Y0013057D01*
X0186824Y0013101D01*
X0186944Y0013141D01*
X0187065Y0013177D01*
X0187187Y0013210D01*
X0187310Y0013239D01*
X0187434Y0013263D01*
X0187558Y0013284D01*
X0187683Y0013301D01*
X0187809Y0013314D01*
X0187935Y0013323D01*
X0188061Y0013328D01*
X0188188Y0013329D01*
X0188314Y0013326D01*
X0188440Y0013319D01*
X0188566Y0013308D01*
X0188691Y0013293D01*
X0188816Y0013274D01*
X0188940Y0013251D01*
X0189064Y0013225D01*
X0189186Y0013194D01*
X0189308Y0013160D01*
X0189428Y0013121D01*
X0189547Y0013079D01*
X0189665Y0013034D01*
X0189781Y0012984D01*
X0189896Y0012931D01*
X0190008Y0012874D01*
X0190119Y0012814D01*
X0190228Y0012750D01*
X0190335Y0012683D01*
X0190440Y0012613D01*
X0190543Y0012539D01*
X0190643Y0012462D01*
X0190741Y0012382D01*
X0190836Y0012299D01*
X0190928Y0012213D01*
X0191018Y0012124D01*
X0191105Y0012032D01*
X0191188Y0011938D01*
X0191269Y0011841D01*
X0191347Y0011741D01*
X0191422Y0011639D01*
X0191493Y0011535D01*
X0191561Y0011428D01*
X0191625Y0011320D01*
X0191686Y0011209D01*
X0191744Y0011097D01*
X0191798Y0010983D01*
X0191848Y0010867D01*
X0191895Y0010750D01*
X0191938Y0010631D01*
X0191977Y0010511D01*
X0192013Y0010390D01*
X0192044Y0010267D01*
X0192072Y0010144D01*
X0192096Y0010020D01*
X0192116Y0009895D01*
X0192132Y0009770D01*
X0192144Y0009644D01*
X0192152Y0009518D01*
X0192156Y0009392D01*
X0192156Y0009266D01*
X0192152Y0009140D01*
X0192144Y0009014D01*
X0192132Y0008888D01*
X0192116Y0008763D01*
X0192096Y0008638D01*
X0192072Y0008514D01*
X0192044Y0008391D01*
X0192013Y0008268D01*
X0191977Y0008147D01*
X0191938Y0008027D01*
X0191895Y0007908D01*
X0191848Y0007791D01*
X0191798Y0007675D01*
X0191744Y0007561D01*
X0191686Y0007449D01*
X0191625Y0007338D01*
X0191561Y0007230D01*
X0191493Y0007123D01*
X0191422Y0007019D01*
X0191347Y0006917D01*
X0191269Y0006817D01*
X0191188Y0006720D01*
X0191105Y0006626D01*
X0191018Y0006534D01*
X0190928Y0006445D01*
X0190836Y0006359D01*
X0190741Y0006276D01*
X0190643Y0006196D01*
X0190543Y0006119D01*
X0190440Y0006045D01*
X0190335Y0005975D01*
X0190228Y0005908D01*
X0190119Y0005844D01*
X0190008Y0005784D01*
X0189896Y0005727D01*
X0189781Y0005674D01*
X0189665Y0005624D01*
X0189547Y0005579D01*
X0189428Y0005537D01*
X0189308Y0005498D01*
X0189186Y0005464D01*
X0189064Y0005433D01*
X0188940Y0005407D01*
X0188816Y0005384D01*
X0188691Y0005365D01*
X0188566Y0005350D01*
X0188440Y0005339D01*
X0188314Y0005332D01*
X0188188Y0005329D01*
X0188061Y0005330D01*
X0187935Y0005335D01*
X0187809Y0005344D01*
X0187683Y0005357D01*
X0187558Y0005374D01*
X0187434Y0005395D01*
X0187310Y0005419D01*
X0187187Y0005448D01*
X0187065Y0005481D01*
X0186944Y0005517D01*
X0186824Y0005557D01*
X0186706Y0005601D01*
X0186589Y0005649D01*
X0186473Y0005700D01*
X0186360Y0005755D01*
X0186248Y0005813D01*
X0186138Y0005875D01*
X0186030Y0005941D01*
X0185924Y0006010D01*
X0185820Y0006082D01*
X0185719Y0006157D01*
X0185620Y0006236D01*
X0185524Y0006317D01*
X0185430Y0006402D01*
X0185339Y0006489D01*
X0185251Y0006580D01*
X0185165Y0006673D01*
X0185083Y0006769D01*
X0185004Y0006867D01*
X0184927Y0006968D01*
X0184854Y0007071D01*
X0184785Y0007176D01*
X0184719Y0007284D01*
X0184656Y0007393D01*
X0184596Y0007505D01*
X0184540Y0007618D01*
X0184488Y0007733D01*
X0184440Y0007849D01*
X0184395Y0007968D01*
X0184354Y0008087D01*
X0184316Y0008208D01*
X0184283Y0008329D01*
X0184253Y0008452D01*
X0184228Y0008576D01*
X0184206Y0008700D01*
X0184188Y0008825D01*
X0184174Y0008951D01*
X0184164Y0009077D01*
X0184158Y0009203D01*
X0184156Y0009329D01*
D11*
X0196400Y0001400D02*
X0006400Y0001400D01*
X0010923Y0003400D02*
X0011729Y0003734D01*
X0013586Y0005591D01*
X0014591Y0008016D01*
X0014591Y0010642D01*
X0013586Y0013068D01*
X0011729Y0014924D01*
X0009303Y0015929D01*
X0006678Y0015929D01*
X0004252Y0014924D01*
X0003400Y0014072D01*
X0003400Y0079547D01*
X0004252Y0078695D01*
X0006678Y0077690D01*
X0009303Y0077690D01*
X0011729Y0078695D01*
X0013586Y0080551D01*
X0014591Y0082977D01*
X0014591Y0085603D01*
X0013586Y0088028D01*
X0012214Y0089400D01*
X0061470Y0089400D01*
X0061246Y0089176D01*
X0060500Y0087375D01*
X0060500Y0085425D01*
X0061246Y0083624D01*
X0061470Y0083400D01*
X0040572Y0083400D01*
X0039400Y0082228D01*
X0035340Y0078168D01*
X0035026Y0078168D01*
X0033418Y0077502D01*
X0032187Y0076272D01*
X0031959Y0075721D01*
X0031731Y0076272D01*
X0030500Y0077502D01*
X0028892Y0078168D01*
X0027152Y0078168D01*
X0025544Y0077502D01*
X0024313Y0076272D01*
X0023647Y0074664D01*
X0023647Y0072923D01*
X0024313Y0071316D01*
X0025544Y0070085D01*
X0027152Y0069419D01*
X0028892Y0069419D01*
X0030500Y0070085D01*
X0031731Y0071316D01*
X0031959Y0071867D01*
X0032187Y0071316D01*
X0033418Y0070085D01*
X0035026Y0069419D01*
X0036766Y0069419D01*
X0038374Y0070085D01*
X0039605Y0071316D01*
X0039833Y0071867D01*
X0040061Y0071316D01*
X0041292Y0070085D01*
X0042900Y0069419D01*
X0044640Y0069419D01*
X0046248Y0070085D01*
X0047469Y0071306D01*
X0047469Y0070835D01*
X0047565Y0070479D01*
X0047749Y0070159D01*
X0048010Y0069899D01*
X0048329Y0069714D01*
X0048685Y0069619D01*
X0051257Y0069619D01*
X0051257Y0073406D01*
X0052031Y0073406D01*
X0052031Y0069619D01*
X0054603Y0069619D01*
X0054959Y0069714D01*
X0055279Y0069899D01*
X0055539Y0070159D01*
X0055723Y0070479D01*
X0055819Y0070835D01*
X0055819Y0073406D01*
X0052032Y0073406D01*
X0052032Y0074181D01*
X0055819Y0074181D01*
X0055819Y0076753D01*
X0055723Y0077109D01*
X0055539Y0077428D01*
X0055279Y0077689D01*
X0054959Y0077873D01*
X0054603Y0077968D01*
X0052031Y0077968D01*
X0052031Y0074181D01*
X0051257Y0074181D01*
X0051257Y0077968D01*
X0048685Y0077968D01*
X0048329Y0077873D01*
X0048010Y0077689D01*
X0047749Y0077428D01*
X0047565Y0077109D01*
X0047469Y0076753D01*
X0047469Y0076281D01*
X0046248Y0077502D01*
X0044640Y0078168D01*
X0042900Y0078168D01*
X0041292Y0077502D01*
X0040061Y0076272D01*
X0039833Y0075721D01*
X0039605Y0076272D01*
X0039353Y0076524D01*
X0042228Y0079400D01*
X0100572Y0079400D01*
X0164400Y0015572D01*
X0155057Y0015572D01*
X0154728Y0015900D02*
X0155900Y0014728D01*
X0155900Y0011300D01*
X0156375Y0011300D01*
X0158176Y0010554D01*
X0159554Y0009176D01*
X0160300Y0007375D01*
X0160300Y0005425D01*
X0159554Y0003624D01*
X0159330Y0003400D01*
X0161470Y0003400D01*
X0161246Y0003624D01*
X0160500Y0005425D01*
X0160500Y0007375D01*
X0161246Y0009176D01*
X0162624Y0010554D01*
X0164400Y0011289D01*
X0164400Y0015572D01*
X0164400Y0014773D02*
X0155855Y0014773D01*
X0155900Y0013975D02*
X0164400Y0013975D01*
X0164400Y0013176D02*
X0155900Y0013176D01*
X0155900Y0012378D02*
X0164400Y0012378D01*
X0164400Y0011579D02*
X0155900Y0011579D01*
X0157628Y0010781D02*
X0163172Y0010781D01*
X0162052Y0009982D02*
X0158747Y0009982D01*
X0159546Y0009184D02*
X0161254Y0009184D01*
X0160919Y0008385D02*
X0159881Y0008385D01*
X0160212Y0007587D02*
X0160588Y0007587D01*
X0160500Y0006788D02*
X0160300Y0006788D01*
X0160300Y0005990D02*
X0160500Y0005990D01*
X0160597Y0005191D02*
X0160203Y0005191D01*
X0159872Y0004393D02*
X0160928Y0004393D01*
X0161276Y0003594D02*
X0159524Y0003594D01*
X0155400Y0006400D02*
X0153900Y0006400D01*
X0153900Y0013900D01*
X0126400Y0041400D01*
X0129749Y0042721D02*
X0137250Y0042721D01*
X0136452Y0043520D02*
X0129372Y0043520D01*
X0129452Y0043439D02*
X0128439Y0044452D01*
X0127116Y0045000D01*
X0125684Y0045000D01*
X0124775Y0044623D01*
X0124775Y0045601D01*
X0124109Y0047209D01*
X0122878Y0048439D01*
X0122327Y0048668D01*
X0122878Y0048896D01*
X0124109Y0050127D01*
X0124775Y0051735D01*
X0124775Y0053475D01*
X0124109Y0055083D01*
X0122878Y0056313D01*
X0121270Y0056980D01*
X0119530Y0056980D01*
X0117922Y0056313D01*
X0116691Y0055083D01*
X0116025Y0053475D01*
X0116025Y0051735D01*
X0116691Y0050127D01*
X0116995Y0049823D01*
X0095572Y0028400D01*
X0094400Y0027228D01*
X0094400Y0011289D01*
X0092624Y0010554D01*
X0091246Y0009176D01*
X0090500Y0007375D01*
X0090500Y0005425D01*
X0091246Y0003624D01*
X0091470Y0003400D01*
X0089330Y0003400D01*
X0089554Y0003624D01*
X0090300Y0005425D01*
X0090300Y0007375D01*
X0089554Y0009176D01*
X0088176Y0010554D01*
X0086375Y0011300D01*
X0084425Y0011300D01*
X0084357Y0011272D01*
X0057228Y0038400D01*
X0023354Y0038400D01*
X0022967Y0039335D01*
X0021736Y0040565D01*
X0021185Y0040794D01*
X0021736Y0041022D01*
X0022967Y0042253D01*
X0023633Y0043860D01*
X0023633Y0045601D01*
X0022967Y0047209D01*
X0021746Y0048430D01*
X0022217Y0048430D01*
X0022573Y0048525D01*
X0022893Y0048710D01*
X0023153Y0048970D01*
X0023338Y0049290D01*
X0023433Y0049646D01*
X0023433Y0052217D01*
X0019646Y0052217D01*
X0019646Y0052992D01*
X0023433Y0052992D01*
X0023433Y0055564D01*
X0023338Y0055920D01*
X0023153Y0056239D01*
X0022893Y0056500D01*
X0022573Y0056684D01*
X0022217Y0056780D01*
X0019646Y0056780D01*
X0019646Y0052992D01*
X0018871Y0052992D01*
X0018871Y0052217D01*
X0015083Y0052217D01*
X0015083Y0049646D01*
X0015179Y0049290D01*
X0015363Y0048970D01*
X0015624Y0048710D01*
X0015943Y0048525D01*
X0016299Y0048430D01*
X0016771Y0048430D01*
X0015549Y0047209D01*
X0014883Y0045601D01*
X0014883Y0043860D01*
X0015549Y0042253D01*
X0016780Y0041022D01*
X0017331Y0040794D01*
X0016780Y0040565D01*
X0015549Y0039335D01*
X0014883Y0037727D01*
X0014883Y0035986D01*
X0015549Y0034379D01*
X0016780Y0033148D01*
X0017331Y0032920D01*
X0016780Y0032691D01*
X0015549Y0031461D01*
X0014883Y0029853D01*
X0014883Y0028112D01*
X0015549Y0026505D01*
X0016780Y0025274D01*
X0018388Y0024608D01*
X0020128Y0024608D01*
X0021736Y0025274D01*
X0022967Y0026505D01*
X0023131Y0026900D01*
X0059400Y0026900D01*
X0059400Y0018072D01*
X0066172Y0011300D01*
X0064425Y0011300D01*
X0062624Y0010554D01*
X0061246Y0009176D01*
X0060500Y0007375D01*
X0060500Y0005425D01*
X0061246Y0003624D01*
X0061470Y0003400D01*
X0059030Y0003400D01*
X0059420Y0003937D01*
X0059756Y0004596D01*
X0059984Y0005299D01*
X0060095Y0006000D01*
X0055800Y0006000D01*
X0055800Y0006800D01*
X0055000Y0006800D01*
X0055000Y0011095D01*
X0054299Y0010984D01*
X0053596Y0010756D01*
X0052937Y0010420D01*
X0052338Y0009985D01*
X0051815Y0009462D01*
X0051380Y0008863D01*
X0051044Y0008204D01*
X0050816Y0007501D01*
X0050705Y0006800D01*
X0055000Y0006800D01*
X0055000Y0006000D01*
X0050705Y0006000D01*
X0050816Y0005299D01*
X0051044Y0004596D01*
X0051380Y0003937D01*
X0051770Y0003400D01*
X0049330Y0003400D01*
X0049554Y0003624D01*
X0050300Y0005425D01*
X0050300Y0007375D01*
X0049554Y0009176D01*
X0048176Y0010554D01*
X0046375Y0011300D01*
X0044425Y0011300D01*
X0042624Y0010554D01*
X0041246Y0009176D01*
X0040500Y0007375D01*
X0040500Y0005425D01*
X0041246Y0003624D01*
X0041470Y0003400D01*
X0039330Y0003400D01*
X0039554Y0003624D01*
X0040300Y0005425D01*
X0040300Y0007375D01*
X0039554Y0009176D01*
X0038176Y0010554D01*
X0036375Y0011300D01*
X0034425Y0011300D01*
X0032624Y0010554D01*
X0031246Y0009176D01*
X0030500Y0007375D01*
X0030500Y0005425D01*
X0031246Y0003624D01*
X0031470Y0003400D01*
X0029330Y0003400D01*
X0029554Y0003624D01*
X0030300Y0005425D01*
X0030300Y0007375D01*
X0029554Y0009176D01*
X0028176Y0010554D01*
X0026375Y0011300D01*
X0024425Y0011300D01*
X0022624Y0010554D01*
X0021246Y0009176D01*
X0020500Y0007375D01*
X0020500Y0005425D01*
X0021246Y0003624D01*
X0021470Y0003400D01*
X0010923Y0003400D01*
X0011391Y0003594D02*
X0021276Y0003594D01*
X0020928Y0004393D02*
X0012388Y0004393D01*
X0013186Y0005191D02*
X0020597Y0005191D01*
X0020500Y0005990D02*
X0013751Y0005990D01*
X0014082Y0006788D02*
X0020500Y0006788D01*
X0020588Y0007587D02*
X0014413Y0007587D01*
X0014591Y0008385D02*
X0020919Y0008385D01*
X0021254Y0009184D02*
X0014591Y0009184D01*
X0014591Y0009982D02*
X0022052Y0009982D01*
X0023172Y0010781D02*
X0014533Y0010781D01*
X0014202Y0011579D02*
X0065892Y0011579D01*
X0065094Y0012378D02*
X0013872Y0012378D01*
X0013477Y0013176D02*
X0064295Y0013176D01*
X0063497Y0013975D02*
X0012679Y0013975D01*
X0011880Y0014773D02*
X0062698Y0014773D01*
X0061900Y0015572D02*
X0010166Y0015572D01*
X0005815Y0015572D02*
X0003400Y0015572D01*
X0003400Y0016370D02*
X0061101Y0016370D01*
X0060303Y0017169D02*
X0003400Y0017169D01*
X0003400Y0017967D02*
X0059504Y0017967D01*
X0059400Y0018766D02*
X0003400Y0018766D01*
X0003400Y0019564D02*
X0059400Y0019564D01*
X0059400Y0020363D02*
X0003400Y0020363D01*
X0003400Y0021161D02*
X0059400Y0021161D01*
X0059400Y0021960D02*
X0003400Y0021960D01*
X0003400Y0022758D02*
X0059400Y0022758D01*
X0059400Y0023557D02*
X0003400Y0023557D01*
X0003400Y0024355D02*
X0059400Y0024355D01*
X0059400Y0025154D02*
X0021447Y0025154D01*
X0022415Y0025952D02*
X0059400Y0025952D01*
X0059400Y0026751D02*
X0023069Y0026751D01*
X0021400Y0028900D02*
X0019258Y0028983D01*
X0021400Y0028900D02*
X0061400Y0028900D01*
X0061400Y0018900D01*
X0073900Y0006400D01*
X0075400Y0006400D01*
X0085400Y0006400D02*
X0086400Y0006400D01*
X0056400Y0036400D01*
X0021400Y0036400D01*
X0019258Y0036857D01*
X0015298Y0038729D02*
X0003400Y0038729D01*
X0003400Y0039527D02*
X0015742Y0039527D01*
X0016540Y0040326D02*
X0003400Y0040326D01*
X0003400Y0041124D02*
X0016678Y0041124D01*
X0015879Y0041923D02*
X0003400Y0041923D01*
X0003400Y0042721D02*
X0015355Y0042721D01*
X0015025Y0043520D02*
X0003400Y0043520D01*
X0003400Y0044318D02*
X0014883Y0044318D01*
X0014883Y0045117D02*
X0003400Y0045117D01*
X0003400Y0045915D02*
X0015014Y0045915D01*
X0015344Y0046714D02*
X0003400Y0046714D01*
X0003400Y0047512D02*
X0015853Y0047512D01*
X0016651Y0048311D02*
X0003400Y0048311D01*
X0003400Y0049109D02*
X0015283Y0049109D01*
X0015083Y0049908D02*
X0003400Y0049908D01*
X0003400Y0050706D02*
X0015083Y0050706D01*
X0015083Y0051505D02*
X0003400Y0051505D01*
X0003400Y0052303D02*
X0018871Y0052303D01*
X0019258Y0052605D02*
X0021400Y0051400D01*
X0016400Y0051400D01*
X0011400Y0046400D01*
X0011400Y0026400D01*
X0026400Y0011400D01*
X0051400Y0011400D01*
X0056400Y0006400D01*
X0055400Y0006400D01*
X0055800Y0006788D02*
X0060500Y0006788D01*
X0060095Y0006800D02*
X0059984Y0007501D01*
X0059756Y0008204D01*
X0059420Y0008863D01*
X0058985Y0009462D01*
X0058462Y0009985D01*
X0057863Y0010420D01*
X0057204Y0010756D01*
X0056501Y0010984D01*
X0055800Y0011095D01*
X0055800Y0006800D01*
X0060095Y0006800D01*
X0059956Y0007587D02*
X0060588Y0007587D01*
X0060919Y0008385D02*
X0059663Y0008385D01*
X0059187Y0009184D02*
X0061254Y0009184D01*
X0062052Y0009982D02*
X0058465Y0009982D01*
X0057127Y0010781D02*
X0063172Y0010781D01*
X0055800Y0010781D02*
X0055000Y0010781D01*
X0055000Y0009982D02*
X0055800Y0009982D01*
X0055800Y0009184D02*
X0055000Y0009184D01*
X0055000Y0008385D02*
X0055800Y0008385D01*
X0055800Y0007587D02*
X0055000Y0007587D01*
X0055000Y0006788D02*
X0050300Y0006788D01*
X0050300Y0005990D02*
X0050706Y0005990D01*
X0050851Y0005191D02*
X0050203Y0005191D01*
X0049872Y0004393D02*
X0051148Y0004393D01*
X0051629Y0003594D02*
X0049524Y0003594D01*
X0041276Y0003594D02*
X0039524Y0003594D01*
X0039872Y0004393D02*
X0040928Y0004393D01*
X0040597Y0005191D02*
X0040203Y0005191D01*
X0040300Y0005990D02*
X0040500Y0005990D01*
X0040500Y0006788D02*
X0040300Y0006788D01*
X0040212Y0007587D02*
X0040588Y0007587D01*
X0040919Y0008385D02*
X0039881Y0008385D01*
X0039546Y0009184D02*
X0041254Y0009184D01*
X0042052Y0009982D02*
X0038747Y0009982D01*
X0037628Y0010781D02*
X0043172Y0010781D01*
X0047628Y0010781D02*
X0053673Y0010781D01*
X0052335Y0009982D02*
X0048747Y0009982D01*
X0049546Y0009184D02*
X0051613Y0009184D01*
X0051137Y0008385D02*
X0049881Y0008385D01*
X0050212Y0007587D02*
X0050844Y0007587D01*
X0059652Y0004393D02*
X0060928Y0004393D01*
X0060597Y0005191D02*
X0059949Y0005191D01*
X0060094Y0005990D02*
X0060500Y0005990D01*
X0061276Y0003594D02*
X0059171Y0003594D01*
X0082452Y0013176D02*
X0094400Y0013176D01*
X0094400Y0012378D02*
X0083251Y0012378D01*
X0084049Y0011579D02*
X0094400Y0011579D01*
X0093172Y0010781D02*
X0087628Y0010781D01*
X0088747Y0009982D02*
X0092052Y0009982D01*
X0091254Y0009184D02*
X0089546Y0009184D01*
X0089881Y0008385D02*
X0090919Y0008385D01*
X0090588Y0007587D02*
X0090212Y0007587D01*
X0090300Y0006788D02*
X0090500Y0006788D01*
X0090500Y0005990D02*
X0090300Y0005990D01*
X0090203Y0005191D02*
X0090597Y0005191D01*
X0090928Y0004393D02*
X0089872Y0004393D01*
X0089524Y0003594D02*
X0091276Y0003594D01*
X0095400Y0006400D02*
X0096400Y0006400D01*
X0096400Y0026400D01*
X0121400Y0051400D01*
X0120400Y0052605D01*
X0124349Y0050706D02*
X0129265Y0050706D01*
X0128467Y0051505D02*
X0124680Y0051505D01*
X0124775Y0052303D02*
X0127668Y0052303D01*
X0126870Y0053102D02*
X0124775Y0053102D01*
X0124599Y0053900D02*
X0126071Y0053900D01*
X0125273Y0054699D02*
X0124268Y0054699D01*
X0124474Y0055497D02*
X0123694Y0055497D01*
X0123676Y0056296D02*
X0122896Y0056296D01*
X0122877Y0057094D02*
X0003400Y0057094D01*
X0003400Y0056296D02*
X0015420Y0056296D01*
X0015363Y0056239D02*
X0015179Y0055920D01*
X0015083Y0055564D01*
X0015083Y0052992D01*
X0018871Y0052992D01*
X0018871Y0056780D01*
X0016299Y0056780D01*
X0015943Y0056684D01*
X0015624Y0056500D01*
X0015363Y0056239D01*
X0015083Y0055497D02*
X0003400Y0055497D01*
X0003400Y0054699D02*
X0015083Y0054699D01*
X0015083Y0053900D02*
X0003400Y0053900D01*
X0003400Y0053102D02*
X0015083Y0053102D01*
X0018871Y0053102D02*
X0019646Y0053102D01*
X0019646Y0053900D02*
X0018871Y0053900D01*
X0018871Y0054699D02*
X0019646Y0054699D01*
X0019646Y0055497D02*
X0018871Y0055497D01*
X0018871Y0056296D02*
X0019646Y0056296D01*
X0023097Y0056296D02*
X0117904Y0056296D01*
X0117106Y0055497D02*
X0023433Y0055497D01*
X0023433Y0054699D02*
X0116532Y0054699D01*
X0116201Y0053900D02*
X0023433Y0053900D01*
X0023433Y0053102D02*
X0116025Y0053102D01*
X0116025Y0052303D02*
X0019646Y0052303D01*
X0021400Y0051400D02*
X0031400Y0051400D01*
X0051400Y0071400D01*
X0051644Y0073794D01*
X0052032Y0073863D02*
X0106109Y0073863D01*
X0106907Y0073065D02*
X0055819Y0073065D01*
X0055819Y0072266D02*
X0107706Y0072266D01*
X0108504Y0071468D02*
X0055819Y0071468D01*
X0055775Y0070669D02*
X0109303Y0070669D01*
X0110101Y0069870D02*
X0055230Y0069870D01*
X0052031Y0069870D02*
X0051257Y0069870D01*
X0051257Y0070669D02*
X0052031Y0070669D01*
X0052031Y0071468D02*
X0051257Y0071468D01*
X0051257Y0072266D02*
X0052031Y0072266D01*
X0052031Y0073065D02*
X0051257Y0073065D01*
X0051257Y0074662D02*
X0052031Y0074662D01*
X0052031Y0075460D02*
X0051257Y0075460D01*
X0051257Y0076259D02*
X0052031Y0076259D01*
X0052031Y0077057D02*
X0051257Y0077057D01*
X0051257Y0077856D02*
X0052031Y0077856D01*
X0054990Y0077856D02*
X0102116Y0077856D01*
X0101317Y0078654D02*
X0041483Y0078654D01*
X0042144Y0077856D02*
X0040684Y0077856D01*
X0040847Y0077057D02*
X0039885Y0077057D01*
X0040056Y0076259D02*
X0039610Y0076259D01*
X0036400Y0076400D02*
X0035896Y0073794D01*
X0032124Y0071468D02*
X0031794Y0071468D01*
X0031084Y0070669D02*
X0032834Y0070669D01*
X0033936Y0069870D02*
X0029982Y0069870D01*
X0026062Y0069870D02*
X0003400Y0069870D01*
X0003400Y0069072D02*
X0110900Y0069072D01*
X0111698Y0068273D02*
X0003400Y0068273D01*
X0003400Y0067475D02*
X0112497Y0067475D01*
X0113295Y0066676D02*
X0003400Y0066676D01*
X0003400Y0065878D02*
X0114094Y0065878D01*
X0114892Y0065079D02*
X0003400Y0065079D01*
X0003400Y0064281D02*
X0115691Y0064281D01*
X0116489Y0063482D02*
X0003400Y0063482D01*
X0003400Y0062684D02*
X0117288Y0062684D01*
X0118086Y0061885D02*
X0003400Y0061885D01*
X0003400Y0061087D02*
X0118885Y0061087D01*
X0119683Y0060288D02*
X0003400Y0060288D01*
X0003400Y0059490D02*
X0120482Y0059490D01*
X0121280Y0058691D02*
X0003400Y0058691D01*
X0003400Y0057893D02*
X0122079Y0057893D01*
X0125340Y0060288D02*
X0179400Y0060288D01*
X0179400Y0059490D02*
X0126139Y0059490D01*
X0126937Y0058691D02*
X0179400Y0058691D01*
X0179400Y0057893D02*
X0127736Y0057893D01*
X0128534Y0057094D02*
X0179400Y0057094D01*
X0179400Y0056296D02*
X0129333Y0056296D01*
X0130131Y0055497D02*
X0179400Y0055497D01*
X0179400Y0054817D02*
X0178844Y0053475D01*
X0178844Y0051735D01*
X0179510Y0050127D01*
X0180741Y0048896D01*
X0181292Y0048668D01*
X0180741Y0048439D01*
X0179510Y0047209D01*
X0178844Y0045601D01*
X0178844Y0043860D01*
X0179510Y0042253D01*
X0180741Y0041022D01*
X0181292Y0040794D01*
X0180741Y0040565D01*
X0179510Y0039335D01*
X0178844Y0037727D01*
X0178844Y0035986D01*
X0179510Y0034379D01*
X0180731Y0033157D01*
X0180260Y0033157D01*
X0179904Y0033062D01*
X0179584Y0032878D01*
X0179324Y0032617D01*
X0179140Y0032298D01*
X0179044Y0031942D01*
X0179044Y0029370D01*
X0182831Y0029370D01*
X0182831Y0028595D01*
X0179044Y0028595D01*
X0179044Y0026024D01*
X0179140Y0025667D01*
X0179324Y0025348D01*
X0179584Y0025088D01*
X0179904Y0024903D01*
X0180260Y0024808D01*
X0182831Y0024808D01*
X0182831Y0028595D01*
X0183606Y0028595D01*
X0183606Y0024808D01*
X0186178Y0024808D01*
X0186534Y0024903D01*
X0186853Y0025088D01*
X0187114Y0025348D01*
X0187298Y0025667D01*
X0187394Y0026024D01*
X0187394Y0028595D01*
X0183606Y0028595D01*
X0183606Y0029370D01*
X0187394Y0029370D01*
X0187394Y0031942D01*
X0187298Y0032298D01*
X0187114Y0032617D01*
X0186853Y0032878D01*
X0186534Y0033062D01*
X0186178Y0033157D01*
X0185707Y0033157D01*
X0186928Y0034379D01*
X0187594Y0035986D01*
X0187594Y0037727D01*
X0186928Y0039335D01*
X0185697Y0040565D01*
X0185146Y0040794D01*
X0185697Y0041022D01*
X0186928Y0042253D01*
X0187594Y0043860D01*
X0187594Y0045601D01*
X0186928Y0047209D01*
X0185697Y0048439D01*
X0185146Y0048668D01*
X0185697Y0048896D01*
X0186928Y0050127D01*
X0187594Y0051735D01*
X0187594Y0053475D01*
X0186928Y0055083D01*
X0185697Y0056313D01*
X0184089Y0056980D01*
X0183400Y0056980D01*
X0183400Y0072228D01*
X0173918Y0081710D01*
X0174425Y0081500D01*
X0176375Y0081500D01*
X0178176Y0082246D01*
X0179554Y0083624D01*
X0180300Y0085425D01*
X0180300Y0087375D01*
X0179554Y0089176D01*
X0179330Y0089400D01*
X0185860Y0089400D01*
X0184984Y0089037D01*
X0183408Y0087462D01*
X0182556Y0085404D01*
X0182556Y0083176D01*
X0183408Y0081118D01*
X0184984Y0079542D01*
X0187042Y0078690D01*
X0189270Y0078690D01*
X0191328Y0079542D01*
X0192903Y0081118D01*
X0193756Y0083176D01*
X0193756Y0085404D01*
X0192903Y0087462D01*
X0191328Y0089037D01*
X0190452Y0089400D01*
X0196400Y0089400D01*
X0196985Y0089342D01*
X0198067Y0088894D01*
X0198894Y0088067D01*
X0199342Y0086985D01*
X0199400Y0086400D01*
X0199400Y0006400D01*
X0199342Y0005815D01*
X0198894Y0004733D01*
X0198067Y0003906D01*
X0196985Y0003458D01*
X0196400Y0003400D01*
X0179030Y0003400D01*
X0179420Y0003937D01*
X0179756Y0004596D01*
X0179984Y0005299D01*
X0180095Y0006000D01*
X0175800Y0006000D01*
X0175800Y0006800D01*
X0175000Y0006800D01*
X0175000Y0011095D01*
X0174299Y0010984D01*
X0173596Y0010756D01*
X0172937Y0010420D01*
X0172338Y0009985D01*
X0171815Y0009462D01*
X0171380Y0008863D01*
X0171044Y0008204D01*
X0170816Y0007501D01*
X0170705Y0006800D01*
X0175000Y0006800D01*
X0175000Y0006000D01*
X0170705Y0006000D01*
X0170816Y0005299D01*
X0171044Y0004596D01*
X0171380Y0003937D01*
X0171770Y0003400D01*
X0169330Y0003400D01*
X0169554Y0003624D01*
X0170300Y0005425D01*
X0170300Y0007375D01*
X0169554Y0009176D01*
X0168400Y0010330D01*
X0168400Y0017228D01*
X0167228Y0018400D01*
X0103918Y0081710D01*
X0104425Y0081500D01*
X0106375Y0081500D01*
X0108176Y0082246D01*
X0109554Y0083624D01*
X0110300Y0085425D01*
X0110300Y0087375D01*
X0109554Y0089176D01*
X0109330Y0089400D01*
X0111470Y0089400D01*
X0111246Y0089176D01*
X0110500Y0087375D01*
X0110500Y0085425D01*
X0111246Y0083624D01*
X0112624Y0082246D01*
X0114425Y0081500D01*
X0116375Y0081500D01*
X0118176Y0082246D01*
X0119554Y0083624D01*
X0120300Y0085425D01*
X0120300Y0087375D01*
X0119554Y0089176D01*
X0119330Y0089400D01*
X0121470Y0089400D01*
X0121246Y0089176D01*
X0120500Y0087375D01*
X0120500Y0085425D01*
X0121246Y0083624D01*
X0122624Y0082246D01*
X0124425Y0081500D01*
X0126375Y0081500D01*
X0128176Y0082246D01*
X0129554Y0083624D01*
X0130300Y0085425D01*
X0130300Y0087375D01*
X0129554Y0089176D01*
X0129330Y0089400D01*
X0131470Y0089400D01*
X0131246Y0089176D01*
X0130500Y0087375D01*
X0130500Y0085425D01*
X0131246Y0083624D01*
X0132624Y0082246D01*
X0134425Y0081500D01*
X0136375Y0081500D01*
X0138176Y0082246D01*
X0139554Y0083624D01*
X0140300Y0085425D01*
X0140300Y0087375D01*
X0139554Y0089176D01*
X0139330Y0089400D01*
X0141470Y0089400D01*
X0141246Y0089176D01*
X0140500Y0087375D01*
X0140500Y0085425D01*
X0141246Y0083624D01*
X0142624Y0082246D01*
X0144425Y0081500D01*
X0146375Y0081500D01*
X0148176Y0082246D01*
X0149554Y0083624D01*
X0150300Y0085425D01*
X0150300Y0087375D01*
X0149554Y0089176D01*
X0149330Y0089400D01*
X0151470Y0089400D01*
X0151246Y0089176D01*
X0150500Y0087375D01*
X0150500Y0085425D01*
X0151246Y0083624D01*
X0152624Y0082246D01*
X0154425Y0081500D01*
X0156375Y0081500D01*
X0158176Y0082246D01*
X0159554Y0083624D01*
X0160300Y0085425D01*
X0160300Y0087375D01*
X0159554Y0089176D01*
X0159330Y0089400D01*
X0161470Y0089400D01*
X0161246Y0089176D01*
X0160500Y0087375D01*
X0160500Y0085425D01*
X0161246Y0083624D01*
X0162624Y0082246D01*
X0164425Y0081500D01*
X0166375Y0081500D01*
X0167857Y0082114D01*
X0179400Y0070572D01*
X0179400Y0054817D01*
X0179351Y0054699D02*
X0130930Y0054699D01*
X0131728Y0053900D02*
X0179020Y0053900D01*
X0178844Y0053102D02*
X0132527Y0053102D01*
X0133325Y0052303D02*
X0178844Y0052303D01*
X0178939Y0051505D02*
X0134124Y0051505D01*
X0134922Y0050706D02*
X0179270Y0050706D01*
X0179729Y0049908D02*
X0135721Y0049908D01*
X0136519Y0049109D02*
X0180528Y0049109D01*
X0180612Y0048311D02*
X0137318Y0048311D01*
X0138116Y0047512D02*
X0179813Y0047512D01*
X0179305Y0046714D02*
X0138915Y0046714D01*
X0139713Y0045915D02*
X0178974Y0045915D01*
X0178844Y0045117D02*
X0140512Y0045117D01*
X0141310Y0044318D02*
X0178844Y0044318D01*
X0178985Y0043520D02*
X0142109Y0043520D01*
X0142907Y0042721D02*
X0179316Y0042721D01*
X0179840Y0041923D02*
X0143706Y0041923D01*
X0144504Y0041124D02*
X0180639Y0041124D01*
X0180501Y0040326D02*
X0145303Y0040326D01*
X0146101Y0039527D02*
X0179702Y0039527D01*
X0179259Y0038729D02*
X0146900Y0038729D01*
X0147698Y0037930D02*
X0178928Y0037930D01*
X0178844Y0037132D02*
X0148497Y0037132D01*
X0149295Y0036333D02*
X0178844Y0036333D01*
X0179031Y0035534D02*
X0150094Y0035534D01*
X0150892Y0034736D02*
X0179362Y0034736D01*
X0179951Y0033937D02*
X0151691Y0033937D01*
X0152489Y0033139D02*
X0180191Y0033139D01*
X0179164Y0032340D02*
X0153288Y0032340D01*
X0154086Y0031542D02*
X0179044Y0031542D01*
X0179044Y0030743D02*
X0154885Y0030743D01*
X0155683Y0029945D02*
X0179044Y0029945D01*
X0179044Y0028348D02*
X0157281Y0028348D01*
X0158079Y0027549D02*
X0179044Y0027549D01*
X0179044Y0026751D02*
X0158878Y0026751D01*
X0159676Y0025952D02*
X0179063Y0025952D01*
X0179518Y0025154D02*
X0160475Y0025154D01*
X0161273Y0024355D02*
X0199400Y0024355D01*
X0199400Y0023557D02*
X0162072Y0023557D01*
X0162870Y0022758D02*
X0199400Y0022758D01*
X0199400Y0021960D02*
X0163669Y0021960D01*
X0164467Y0021161D02*
X0199400Y0021161D01*
X0199400Y0020363D02*
X0165266Y0020363D01*
X0166064Y0019564D02*
X0199400Y0019564D01*
X0199400Y0018766D02*
X0166863Y0018766D01*
X0167661Y0017967D02*
X0199400Y0017967D01*
X0199400Y0017169D02*
X0168400Y0017169D01*
X0168400Y0016370D02*
X0199400Y0016370D01*
X0199400Y0015572D02*
X0168400Y0015572D01*
X0168400Y0014773D02*
X0186666Y0014773D01*
X0187042Y0014929D02*
X0184984Y0014077D01*
X0183408Y0012501D01*
X0182556Y0010443D01*
X0182556Y0008215D01*
X0183408Y0006157D01*
X0184984Y0004582D01*
X0187042Y0003729D01*
X0189270Y0003729D01*
X0191328Y0004582D01*
X0192903Y0006157D01*
X0193756Y0008215D01*
X0193756Y0010443D01*
X0192903Y0012501D01*
X0191328Y0014077D01*
X0189270Y0014929D01*
X0187042Y0014929D01*
X0184882Y0013975D02*
X0168400Y0013975D01*
X0168400Y0013176D02*
X0184083Y0013176D01*
X0183357Y0012378D02*
X0168400Y0012378D01*
X0168400Y0011579D02*
X0183027Y0011579D01*
X0182696Y0010781D02*
X0177127Y0010781D01*
X0177204Y0010756D02*
X0176501Y0010984D01*
X0175800Y0011095D01*
X0175800Y0006800D01*
X0180095Y0006800D01*
X0179984Y0007501D01*
X0179756Y0008204D01*
X0179420Y0008863D01*
X0178985Y0009462D01*
X0178462Y0009985D01*
X0177863Y0010420D01*
X0177204Y0010756D01*
X0175800Y0010781D02*
X0175000Y0010781D01*
X0175000Y0009982D02*
X0175800Y0009982D01*
X0175800Y0009184D02*
X0175000Y0009184D01*
X0175000Y0008385D02*
X0175800Y0008385D01*
X0175800Y0007587D02*
X0175000Y0007587D01*
X0175000Y0006788D02*
X0170300Y0006788D01*
X0170300Y0005990D02*
X0170706Y0005990D01*
X0170851Y0005191D02*
X0170203Y0005191D01*
X0169872Y0004393D02*
X0171148Y0004393D01*
X0171629Y0003594D02*
X0169524Y0003594D01*
X0166400Y0006400D02*
X0165400Y0006400D01*
X0166400Y0006400D02*
X0166400Y0016400D01*
X0101400Y0081400D01*
X0041400Y0081400D01*
X0036400Y0076400D01*
X0034270Y0077856D02*
X0029648Y0077856D01*
X0030946Y0077057D02*
X0032973Y0077057D01*
X0032182Y0076259D02*
X0031736Y0076259D01*
X0035826Y0078654D02*
X0011632Y0078654D01*
X0012487Y0079453D02*
X0036624Y0079453D01*
X0037423Y0080251D02*
X0013286Y0080251D01*
X0013792Y0081050D02*
X0038221Y0081050D01*
X0039020Y0081848D02*
X0014123Y0081848D01*
X0014454Y0082647D02*
X0039818Y0082647D01*
X0045396Y0077856D02*
X0048299Y0077856D01*
X0047551Y0077057D02*
X0046694Y0077057D01*
X0055737Y0077057D02*
X0102914Y0077057D01*
X0103713Y0076259D02*
X0055819Y0076259D01*
X0055819Y0075460D02*
X0104512Y0075460D01*
X0105310Y0074662D02*
X0055819Y0074662D01*
X0047514Y0070669D02*
X0046832Y0070669D01*
X0045731Y0069870D02*
X0048058Y0069870D01*
X0041810Y0069870D02*
X0037856Y0069870D01*
X0038958Y0070669D02*
X0040708Y0070669D01*
X0039998Y0071468D02*
X0039668Y0071468D01*
X0026396Y0077856D02*
X0009704Y0077856D01*
X0006277Y0077856D02*
X0003400Y0077856D01*
X0003400Y0078654D02*
X0004350Y0078654D01*
X0003494Y0079453D02*
X0003400Y0079453D01*
X0003400Y0077057D02*
X0025099Y0077057D01*
X0024308Y0076259D02*
X0003400Y0076259D01*
X0003400Y0075460D02*
X0023977Y0075460D01*
X0023647Y0074662D02*
X0003400Y0074662D01*
X0003400Y0073863D02*
X0023647Y0073863D01*
X0023647Y0073065D02*
X0003400Y0073065D01*
X0003400Y0072266D02*
X0023920Y0072266D01*
X0024250Y0071468D02*
X0003400Y0071468D01*
X0003400Y0070669D02*
X0024960Y0070669D01*
X0014591Y0083445D02*
X0061425Y0083445D01*
X0060989Y0084244D02*
X0014591Y0084244D01*
X0014591Y0085042D02*
X0060659Y0085042D01*
X0060500Y0085841D02*
X0014492Y0085841D01*
X0014161Y0086639D02*
X0060500Y0086639D01*
X0060526Y0087438D02*
X0013830Y0087438D01*
X0013378Y0088236D02*
X0060857Y0088236D01*
X0061188Y0089035D02*
X0012579Y0089035D01*
X0005400Y0091400D02*
X0005274Y0091398D01*
X0005149Y0091392D01*
X0005024Y0091382D01*
X0004899Y0091368D01*
X0004774Y0091351D01*
X0004650Y0091329D01*
X0004527Y0091304D01*
X0004405Y0091274D01*
X0004284Y0091241D01*
X0004164Y0091204D01*
X0004045Y0091164D01*
X0003928Y0091119D01*
X0003811Y0091071D01*
X0003697Y0091019D01*
X0003584Y0090964D01*
X0003473Y0090905D01*
X0003364Y0090843D01*
X0003257Y0090777D01*
X0003152Y0090708D01*
X0003049Y0090636D01*
X0002948Y0090561D01*
X0002850Y0090482D01*
X0002755Y0090400D01*
X0002662Y0090316D01*
X0002572Y0090228D01*
X0002484Y0090138D01*
X0002400Y0090045D01*
X0002318Y0089950D01*
X0002239Y0089852D01*
X0002164Y0089751D01*
X0002092Y0089648D01*
X0002023Y0089543D01*
X0001957Y0089436D01*
X0001895Y0089327D01*
X0001836Y0089216D01*
X0001781Y0089103D01*
X0001729Y0088989D01*
X0001681Y0088872D01*
X0001636Y0088755D01*
X0001596Y0088636D01*
X0001559Y0088516D01*
X0001526Y0088395D01*
X0001496Y0088273D01*
X0001471Y0088150D01*
X0001449Y0088026D01*
X0001432Y0087901D01*
X0001418Y0087776D01*
X0001408Y0087651D01*
X0001402Y0087526D01*
X0001400Y0087400D01*
X0001400Y0006400D01*
X0001402Y0006260D01*
X0001408Y0006120D01*
X0001418Y0005980D01*
X0001431Y0005840D01*
X0001449Y0005701D01*
X0001471Y0005562D01*
X0001496Y0005425D01*
X0001525Y0005287D01*
X0001558Y0005151D01*
X0001595Y0005016D01*
X0001636Y0004882D01*
X0001681Y0004749D01*
X0001729Y0004617D01*
X0001781Y0004487D01*
X0001836Y0004358D01*
X0001895Y0004231D01*
X0001958Y0004105D01*
X0002024Y0003981D01*
X0002093Y0003860D01*
X0002166Y0003740D01*
X0002243Y0003622D01*
X0002322Y0003507D01*
X0002405Y0003393D01*
X0002491Y0003283D01*
X0002580Y0003174D01*
X0002672Y0003068D01*
X0002767Y0002965D01*
X0002864Y0002864D01*
X0002965Y0002767D01*
X0003068Y0002672D01*
X0003174Y0002580D01*
X0003283Y0002491D01*
X0003393Y0002405D01*
X0003507Y0002322D01*
X0003622Y0002243D01*
X0003740Y0002166D01*
X0003860Y0002093D01*
X0003981Y0002024D01*
X0004105Y0001958D01*
X0004231Y0001895D01*
X0004358Y0001836D01*
X0004487Y0001781D01*
X0004617Y0001729D01*
X0004749Y0001681D01*
X0004882Y0001636D01*
X0005016Y0001595D01*
X0005151Y0001558D01*
X0005287Y0001525D01*
X0005425Y0001496D01*
X0005562Y0001471D01*
X0005701Y0001449D01*
X0005840Y0001431D01*
X0005980Y0001418D01*
X0006120Y0001408D01*
X0006260Y0001402D01*
X0006400Y0001400D01*
X0027628Y0010781D02*
X0033172Y0010781D01*
X0032052Y0009982D02*
X0028747Y0009982D01*
X0029546Y0009184D02*
X0031254Y0009184D01*
X0030919Y0008385D02*
X0029881Y0008385D01*
X0030212Y0007587D02*
X0030588Y0007587D01*
X0030500Y0006788D02*
X0030300Y0006788D01*
X0030300Y0005990D02*
X0030500Y0005990D01*
X0030597Y0005191D02*
X0030203Y0005191D01*
X0029872Y0004393D02*
X0030928Y0004393D01*
X0031276Y0003594D02*
X0029524Y0003594D01*
X0004101Y0014773D02*
X0003400Y0014773D01*
X0003400Y0025154D02*
X0017070Y0025154D01*
X0016102Y0025952D02*
X0003400Y0025952D01*
X0003400Y0026751D02*
X0015447Y0026751D01*
X0015117Y0027549D02*
X0003400Y0027549D01*
X0003400Y0028348D02*
X0014883Y0028348D01*
X0014883Y0029146D02*
X0003400Y0029146D01*
X0003400Y0029945D02*
X0014922Y0029945D01*
X0015252Y0030743D02*
X0003400Y0030743D01*
X0003400Y0031542D02*
X0015631Y0031542D01*
X0016429Y0032340D02*
X0003400Y0032340D01*
X0003400Y0033139D02*
X0016802Y0033139D01*
X0015991Y0033937D02*
X0003400Y0033937D01*
X0003400Y0034736D02*
X0015401Y0034736D01*
X0015071Y0035534D02*
X0003400Y0035534D01*
X0003400Y0036333D02*
X0014883Y0036333D01*
X0014883Y0037132D02*
X0003400Y0037132D01*
X0003400Y0037930D02*
X0014968Y0037930D01*
X0021976Y0040326D02*
X0107497Y0040326D01*
X0108296Y0041124D02*
X0021839Y0041124D01*
X0022637Y0041923D02*
X0109094Y0041923D01*
X0109893Y0042721D02*
X0023161Y0042721D01*
X0023492Y0043520D02*
X0110691Y0043520D01*
X0111490Y0044318D02*
X0023633Y0044318D01*
X0023633Y0045117D02*
X0112288Y0045117D01*
X0113087Y0045915D02*
X0023503Y0045915D01*
X0023172Y0046714D02*
X0113885Y0046714D01*
X0114684Y0047512D02*
X0022664Y0047512D01*
X0021865Y0048311D02*
X0115482Y0048311D01*
X0116281Y0049109D02*
X0023234Y0049109D01*
X0023433Y0049908D02*
X0116910Y0049908D01*
X0116451Y0050706D02*
X0023433Y0050706D01*
X0023433Y0051505D02*
X0116120Y0051505D01*
X0123091Y0049109D02*
X0130862Y0049109D01*
X0130064Y0049908D02*
X0123890Y0049908D01*
X0123007Y0048311D02*
X0131661Y0048311D01*
X0132459Y0047512D02*
X0123805Y0047512D01*
X0124314Y0046714D02*
X0133258Y0046714D01*
X0134056Y0045915D02*
X0124645Y0045915D01*
X0124775Y0045117D02*
X0134855Y0045117D01*
X0135653Y0044318D02*
X0128573Y0044318D01*
X0129452Y0043439D02*
X0130000Y0042116D01*
X0130000Y0040684D01*
X0129984Y0040645D01*
X0154728Y0015900D01*
X0154258Y0016370D02*
X0163601Y0016370D01*
X0162803Y0017169D02*
X0153460Y0017169D01*
X0152661Y0017967D02*
X0162004Y0017967D01*
X0161206Y0018766D02*
X0151863Y0018766D01*
X0151064Y0019564D02*
X0160407Y0019564D01*
X0159609Y0020363D02*
X0150266Y0020363D01*
X0149467Y0021161D02*
X0158810Y0021161D01*
X0158012Y0021960D02*
X0148669Y0021960D01*
X0147870Y0022758D02*
X0157213Y0022758D01*
X0156415Y0023557D02*
X0147072Y0023557D01*
X0146273Y0024355D02*
X0155616Y0024355D01*
X0154818Y0025154D02*
X0145475Y0025154D01*
X0144676Y0025952D02*
X0154019Y0025952D01*
X0153221Y0026751D02*
X0143878Y0026751D01*
X0143079Y0027549D02*
X0152422Y0027549D01*
X0151624Y0028348D02*
X0142281Y0028348D01*
X0141482Y0029146D02*
X0150825Y0029146D01*
X0150027Y0029945D02*
X0140683Y0029945D01*
X0139885Y0030743D02*
X0149228Y0030743D01*
X0148430Y0031542D02*
X0139086Y0031542D01*
X0138288Y0032340D02*
X0147631Y0032340D01*
X0146833Y0033139D02*
X0137489Y0033139D01*
X0136691Y0033937D02*
X0146034Y0033937D01*
X0145236Y0034736D02*
X0135892Y0034736D01*
X0135094Y0035534D02*
X0144437Y0035534D01*
X0143639Y0036333D02*
X0134295Y0036333D01*
X0133497Y0037132D02*
X0142840Y0037132D01*
X0142042Y0037930D02*
X0132698Y0037930D01*
X0131900Y0038729D02*
X0141243Y0038729D01*
X0140445Y0039527D02*
X0131101Y0039527D01*
X0130303Y0040326D02*
X0139646Y0040326D01*
X0138847Y0041124D02*
X0130000Y0041124D01*
X0130000Y0041923D02*
X0138049Y0041923D01*
X0127840Y0037132D02*
X0124775Y0037132D01*
X0124775Y0037727D02*
X0124550Y0038270D01*
X0125684Y0037800D01*
X0127116Y0037800D01*
X0127155Y0037816D01*
X0151900Y0013072D01*
X0151900Y0009830D01*
X0151246Y0009176D01*
X0150500Y0007375D01*
X0150500Y0005425D01*
X0151246Y0003624D01*
X0151470Y0003400D01*
X0149330Y0003400D01*
X0149554Y0003624D01*
X0150300Y0005425D01*
X0150300Y0007375D01*
X0149554Y0009176D01*
X0148176Y0010554D01*
X0146375Y0011300D01*
X0144425Y0011300D01*
X0142624Y0010554D01*
X0141246Y0009176D01*
X0140500Y0007375D01*
X0140500Y0005425D01*
X0141246Y0003624D01*
X0141470Y0003400D01*
X0139330Y0003400D01*
X0139554Y0003624D01*
X0140300Y0005425D01*
X0140300Y0007375D01*
X0139554Y0009176D01*
X0138176Y0010554D01*
X0136375Y0011300D01*
X0134425Y0011300D01*
X0132624Y0010554D01*
X0131246Y0009176D01*
X0130500Y0007375D01*
X0130500Y0005425D01*
X0131246Y0003624D01*
X0131470Y0003400D01*
X0129330Y0003400D01*
X0129554Y0003624D01*
X0130300Y0005425D01*
X0130300Y0007375D01*
X0129554Y0009176D01*
X0128176Y0010554D01*
X0126375Y0011300D01*
X0124425Y0011300D01*
X0122624Y0010554D01*
X0121246Y0009176D01*
X0120500Y0007375D01*
X0120500Y0005425D01*
X0121246Y0003624D01*
X0121470Y0003400D01*
X0119330Y0003400D01*
X0119554Y0003624D01*
X0120300Y0005425D01*
X0120300Y0007375D01*
X0119554Y0009176D01*
X0118176Y0010554D01*
X0116375Y0011300D01*
X0114425Y0011300D01*
X0112624Y0010554D01*
X0111246Y0009176D01*
X0110500Y0007375D01*
X0110500Y0005425D01*
X0111246Y0003624D01*
X0111470Y0003400D01*
X0109330Y0003400D01*
X0109554Y0003624D01*
X0110300Y0005425D01*
X0110300Y0007375D01*
X0109554Y0009176D01*
X0108400Y0010330D01*
X0108400Y0030572D01*
X0116357Y0038529D01*
X0116025Y0037727D01*
X0116025Y0035986D01*
X0116691Y0034379D01*
X0117912Y0033157D01*
X0117441Y0033157D01*
X0117085Y0033062D01*
X0116766Y0032878D01*
X0116505Y0032617D01*
X0116321Y0032298D01*
X0116225Y0031942D01*
X0116225Y0029370D01*
X0120013Y0029370D01*
X0120013Y0028595D01*
X0120787Y0028595D01*
X0120787Y0024808D01*
X0123359Y0024808D01*
X0123715Y0024903D01*
X0124034Y0025088D01*
X0124295Y0025348D01*
X0124479Y0025667D01*
X0124575Y0026024D01*
X0124575Y0028595D01*
X0120787Y0028595D01*
X0120787Y0029370D01*
X0124575Y0029370D01*
X0124575Y0031942D01*
X0124479Y0032298D01*
X0124295Y0032617D01*
X0124034Y0032878D01*
X0123715Y0033062D01*
X0123359Y0033157D01*
X0122888Y0033157D01*
X0124109Y0034379D01*
X0124775Y0035986D01*
X0124775Y0037727D01*
X0124691Y0037930D02*
X0125370Y0037930D01*
X0124775Y0036333D02*
X0128639Y0036333D01*
X0129437Y0035534D02*
X0124588Y0035534D01*
X0124257Y0034736D02*
X0130236Y0034736D01*
X0131034Y0033937D02*
X0123668Y0033937D01*
X0123428Y0033139D02*
X0131833Y0033139D01*
X0132631Y0032340D02*
X0124455Y0032340D01*
X0124575Y0031542D02*
X0133430Y0031542D01*
X0134228Y0030743D02*
X0124575Y0030743D01*
X0124575Y0029945D02*
X0135027Y0029945D01*
X0135825Y0029146D02*
X0120787Y0029146D01*
X0120013Y0029146D02*
X0108400Y0029146D01*
X0108400Y0028348D02*
X0116225Y0028348D01*
X0116225Y0028595D02*
X0116225Y0026024D01*
X0116321Y0025667D01*
X0116505Y0025348D01*
X0116766Y0025088D01*
X0117085Y0024903D01*
X0117441Y0024808D01*
X0120013Y0024808D01*
X0120013Y0028595D01*
X0116225Y0028595D01*
X0116225Y0027549D02*
X0108400Y0027549D01*
X0108400Y0026751D02*
X0116225Y0026751D01*
X0116244Y0025952D02*
X0108400Y0025952D01*
X0108400Y0025154D02*
X0116699Y0025154D01*
X0120013Y0025154D02*
X0120787Y0025154D01*
X0120787Y0025952D02*
X0120013Y0025952D01*
X0120013Y0026751D02*
X0120787Y0026751D01*
X0120787Y0027549D02*
X0120013Y0027549D01*
X0120013Y0028348D02*
X0120787Y0028348D01*
X0124575Y0028348D02*
X0136624Y0028348D01*
X0137422Y0027549D02*
X0124575Y0027549D01*
X0124575Y0026751D02*
X0138221Y0026751D01*
X0139019Y0025952D02*
X0124556Y0025952D01*
X0124101Y0025154D02*
X0139818Y0025154D01*
X0140616Y0024355D02*
X0108400Y0024355D01*
X0108400Y0023557D02*
X0141415Y0023557D01*
X0142213Y0022758D02*
X0108400Y0022758D01*
X0108400Y0021960D02*
X0143012Y0021960D01*
X0143810Y0021161D02*
X0108400Y0021161D01*
X0108400Y0020363D02*
X0144609Y0020363D01*
X0145407Y0019564D02*
X0108400Y0019564D01*
X0108400Y0018766D02*
X0146206Y0018766D01*
X0147004Y0017967D02*
X0108400Y0017967D01*
X0108400Y0017169D02*
X0147803Y0017169D01*
X0148601Y0016370D02*
X0108400Y0016370D01*
X0108400Y0015572D02*
X0149400Y0015572D01*
X0150198Y0014773D02*
X0108400Y0014773D01*
X0108400Y0013975D02*
X0150997Y0013975D01*
X0151795Y0013176D02*
X0108400Y0013176D01*
X0108400Y0012378D02*
X0151900Y0012378D01*
X0151900Y0011579D02*
X0108400Y0011579D01*
X0108400Y0010781D02*
X0113172Y0010781D01*
X0112052Y0009982D02*
X0108747Y0009982D01*
X0109546Y0009184D02*
X0111254Y0009184D01*
X0110919Y0008385D02*
X0109881Y0008385D01*
X0110212Y0007587D02*
X0110588Y0007587D01*
X0110500Y0006788D02*
X0110300Y0006788D01*
X0110300Y0005990D02*
X0110500Y0005990D01*
X0110597Y0005191D02*
X0110203Y0005191D01*
X0109872Y0004393D02*
X0110928Y0004393D01*
X0111276Y0003594D02*
X0109524Y0003594D01*
X0106400Y0006400D02*
X0105400Y0006400D01*
X0106400Y0006400D02*
X0106400Y0031400D01*
X0121400Y0046400D01*
X0120400Y0044731D01*
X0106699Y0039527D02*
X0022775Y0039527D01*
X0023218Y0038729D02*
X0105900Y0038729D01*
X0105102Y0037930D02*
X0057698Y0037930D01*
X0058497Y0037132D02*
X0104303Y0037132D01*
X0103505Y0036333D02*
X0059295Y0036333D01*
X0060094Y0035534D02*
X0102706Y0035534D01*
X0101908Y0034736D02*
X0060892Y0034736D01*
X0061691Y0033937D02*
X0101109Y0033937D01*
X0100311Y0033139D02*
X0062489Y0033139D01*
X0063288Y0032340D02*
X0099512Y0032340D01*
X0098714Y0031542D02*
X0064086Y0031542D01*
X0064885Y0030743D02*
X0097915Y0030743D01*
X0097117Y0029945D02*
X0065683Y0029945D01*
X0066482Y0029146D02*
X0096318Y0029146D01*
X0095519Y0028348D02*
X0067281Y0028348D01*
X0068079Y0027549D02*
X0094721Y0027549D01*
X0094400Y0026751D02*
X0068878Y0026751D01*
X0069676Y0025952D02*
X0094400Y0025952D01*
X0094400Y0025154D02*
X0070475Y0025154D01*
X0071273Y0024355D02*
X0094400Y0024355D01*
X0094400Y0023557D02*
X0072072Y0023557D01*
X0072870Y0022758D02*
X0094400Y0022758D01*
X0094400Y0021960D02*
X0073669Y0021960D01*
X0074467Y0021161D02*
X0094400Y0021161D01*
X0094400Y0020363D02*
X0075266Y0020363D01*
X0076064Y0019564D02*
X0094400Y0019564D01*
X0094400Y0018766D02*
X0076863Y0018766D01*
X0077661Y0017967D02*
X0094400Y0017967D01*
X0094400Y0017169D02*
X0078460Y0017169D01*
X0079258Y0016370D02*
X0094400Y0016370D01*
X0094400Y0015572D02*
X0080057Y0015572D01*
X0080855Y0014773D02*
X0094400Y0014773D01*
X0094400Y0013975D02*
X0081654Y0013975D01*
X0108400Y0029945D02*
X0116225Y0029945D01*
X0116225Y0030743D02*
X0108572Y0030743D01*
X0109370Y0031542D02*
X0116225Y0031542D01*
X0116345Y0032340D02*
X0110169Y0032340D01*
X0110967Y0033139D02*
X0117372Y0033139D01*
X0117132Y0033937D02*
X0111766Y0033937D01*
X0112564Y0034736D02*
X0116543Y0034736D01*
X0116212Y0035534D02*
X0113363Y0035534D01*
X0114161Y0036333D02*
X0116025Y0036333D01*
X0116025Y0037132D02*
X0114960Y0037132D01*
X0115758Y0037930D02*
X0116109Y0037930D01*
X0156482Y0029146D02*
X0182831Y0029146D01*
X0183606Y0029146D02*
X0199400Y0029146D01*
X0199400Y0028348D02*
X0187394Y0028348D01*
X0187394Y0027549D02*
X0199400Y0027549D01*
X0199400Y0026751D02*
X0187394Y0026751D01*
X0187375Y0025952D02*
X0199400Y0025952D01*
X0199400Y0025154D02*
X0186920Y0025154D01*
X0183606Y0025154D02*
X0182831Y0025154D01*
X0182831Y0025952D02*
X0183606Y0025952D01*
X0183606Y0026751D02*
X0182831Y0026751D01*
X0182831Y0027549D02*
X0183606Y0027549D01*
X0183606Y0028348D02*
X0182831Y0028348D01*
X0187394Y0029945D02*
X0199400Y0029945D01*
X0199400Y0030743D02*
X0187394Y0030743D01*
X0187394Y0031542D02*
X0199400Y0031542D01*
X0199400Y0032340D02*
X0187274Y0032340D01*
X0186247Y0033139D02*
X0199400Y0033139D01*
X0199400Y0033937D02*
X0186487Y0033937D01*
X0187076Y0034736D02*
X0199400Y0034736D01*
X0199400Y0035534D02*
X0187406Y0035534D01*
X0187594Y0036333D02*
X0199400Y0036333D01*
X0199400Y0037132D02*
X0187594Y0037132D01*
X0187510Y0037930D02*
X0199400Y0037930D01*
X0199400Y0038729D02*
X0187179Y0038729D01*
X0186735Y0039527D02*
X0199400Y0039527D01*
X0199400Y0040326D02*
X0185937Y0040326D01*
X0185799Y0041124D02*
X0199400Y0041124D01*
X0199400Y0041923D02*
X0186598Y0041923D01*
X0187122Y0042721D02*
X0199400Y0042721D01*
X0199400Y0043520D02*
X0187452Y0043520D01*
X0187594Y0044318D02*
X0199400Y0044318D01*
X0199400Y0045117D02*
X0187594Y0045117D01*
X0187464Y0045915D02*
X0199400Y0045915D01*
X0199400Y0046714D02*
X0187133Y0046714D01*
X0186624Y0047512D02*
X0199400Y0047512D01*
X0199400Y0048311D02*
X0185826Y0048311D01*
X0185910Y0049109D02*
X0199400Y0049109D01*
X0199400Y0049908D02*
X0186709Y0049908D01*
X0187168Y0050706D02*
X0199400Y0050706D01*
X0199400Y0051505D02*
X0187498Y0051505D01*
X0187594Y0052303D02*
X0199400Y0052303D01*
X0199400Y0053102D02*
X0187594Y0053102D01*
X0187418Y0053900D02*
X0199400Y0053900D01*
X0199400Y0054699D02*
X0187087Y0054699D01*
X0186513Y0055497D02*
X0199400Y0055497D01*
X0199400Y0056296D02*
X0185715Y0056296D01*
X0183400Y0057094D02*
X0199400Y0057094D01*
X0199400Y0057893D02*
X0183400Y0057893D01*
X0183400Y0058691D02*
X0199400Y0058691D01*
X0199400Y0059490D02*
X0183400Y0059490D01*
X0183400Y0060288D02*
X0199400Y0060288D01*
X0199400Y0061087D02*
X0183400Y0061087D01*
X0183400Y0061885D02*
X0199400Y0061885D01*
X0199400Y0062684D02*
X0183400Y0062684D01*
X0183400Y0063482D02*
X0199400Y0063482D01*
X0199400Y0064281D02*
X0183400Y0064281D01*
X0183400Y0065079D02*
X0199400Y0065079D01*
X0199400Y0065878D02*
X0183400Y0065878D01*
X0183400Y0066676D02*
X0199400Y0066676D01*
X0199400Y0067475D02*
X0183400Y0067475D01*
X0183400Y0068273D02*
X0199400Y0068273D01*
X0199400Y0069072D02*
X0183400Y0069072D01*
X0183400Y0069870D02*
X0199400Y0069870D01*
X0199400Y0070669D02*
X0183400Y0070669D01*
X0183400Y0071468D02*
X0199400Y0071468D01*
X0199400Y0072266D02*
X0183362Y0072266D01*
X0182564Y0073065D02*
X0199400Y0073065D01*
X0199400Y0073863D02*
X0181765Y0073863D01*
X0180967Y0074662D02*
X0199400Y0074662D01*
X0199400Y0075460D02*
X0180168Y0075460D01*
X0179370Y0076259D02*
X0199400Y0076259D01*
X0199400Y0077057D02*
X0178571Y0077057D01*
X0177773Y0077856D02*
X0199400Y0077856D01*
X0199400Y0078654D02*
X0176974Y0078654D01*
X0176176Y0079453D02*
X0185200Y0079453D01*
X0184275Y0080251D02*
X0175377Y0080251D01*
X0174579Y0081050D02*
X0183476Y0081050D01*
X0183106Y0081848D02*
X0177215Y0081848D01*
X0178576Y0082647D02*
X0182775Y0082647D01*
X0182556Y0083445D02*
X0179375Y0083445D01*
X0179811Y0084244D02*
X0182556Y0084244D01*
X0182556Y0085042D02*
X0180141Y0085042D01*
X0180300Y0085841D02*
X0182737Y0085841D01*
X0183068Y0086639D02*
X0180300Y0086639D01*
X0180274Y0087438D02*
X0183398Y0087438D01*
X0184183Y0088236D02*
X0179943Y0088236D01*
X0179612Y0089035D02*
X0184981Y0089035D01*
X0191330Y0089035D02*
X0197728Y0089035D01*
X0198725Y0088236D02*
X0192129Y0088236D01*
X0192913Y0087438D02*
X0199155Y0087438D01*
X0199376Y0086639D02*
X0193244Y0086639D01*
X0193575Y0085841D02*
X0199400Y0085841D01*
X0199400Y0085042D02*
X0193756Y0085042D01*
X0193756Y0084244D02*
X0199400Y0084244D01*
X0199400Y0083445D02*
X0193756Y0083445D01*
X0193537Y0082647D02*
X0199400Y0082647D01*
X0199400Y0081848D02*
X0193206Y0081848D01*
X0192835Y0081050D02*
X0199400Y0081050D01*
X0199400Y0080251D02*
X0192037Y0080251D01*
X0191112Y0079453D02*
X0199400Y0079453D01*
X0201400Y0086400D02*
X0201400Y0006400D01*
X0199400Y0006788D02*
X0193165Y0006788D01*
X0193496Y0007587D02*
X0199400Y0007587D01*
X0199400Y0008385D02*
X0193756Y0008385D01*
X0193756Y0009184D02*
X0199400Y0009184D01*
X0199400Y0009982D02*
X0193756Y0009982D01*
X0193616Y0010781D02*
X0199400Y0010781D01*
X0199400Y0011579D02*
X0193285Y0011579D01*
X0192955Y0012378D02*
X0199400Y0012378D01*
X0199400Y0013176D02*
X0192228Y0013176D01*
X0191430Y0013975D02*
X0199400Y0013975D01*
X0199400Y0014773D02*
X0189646Y0014773D01*
X0182556Y0009982D02*
X0178465Y0009982D01*
X0179187Y0009184D02*
X0182556Y0009184D01*
X0182556Y0008385D02*
X0179663Y0008385D01*
X0179956Y0007587D02*
X0182816Y0007587D01*
X0183147Y0006788D02*
X0175800Y0006788D01*
X0180094Y0005990D02*
X0183576Y0005990D01*
X0184374Y0005191D02*
X0179949Y0005191D01*
X0179652Y0004393D02*
X0185440Y0004393D01*
X0190871Y0004393D02*
X0198554Y0004393D01*
X0199084Y0005191D02*
X0191937Y0005191D01*
X0192736Y0005990D02*
X0199360Y0005990D01*
X0201400Y0006400D02*
X0201398Y0006260D01*
X0201392Y0006120D01*
X0201382Y0005980D01*
X0201369Y0005840D01*
X0201351Y0005701D01*
X0201329Y0005562D01*
X0201304Y0005425D01*
X0201275Y0005287D01*
X0201242Y0005151D01*
X0201205Y0005016D01*
X0201164Y0004882D01*
X0201119Y0004749D01*
X0201071Y0004617D01*
X0201019Y0004487D01*
X0200964Y0004358D01*
X0200905Y0004231D01*
X0200842Y0004105D01*
X0200776Y0003981D01*
X0200707Y0003860D01*
X0200634Y0003740D01*
X0200557Y0003622D01*
X0200478Y0003507D01*
X0200395Y0003393D01*
X0200309Y0003283D01*
X0200220Y0003174D01*
X0200128Y0003068D01*
X0200033Y0002965D01*
X0199936Y0002864D01*
X0199835Y0002767D01*
X0199732Y0002672D01*
X0199626Y0002580D01*
X0199517Y0002491D01*
X0199407Y0002405D01*
X0199293Y0002322D01*
X0199178Y0002243D01*
X0199060Y0002166D01*
X0198940Y0002093D01*
X0198819Y0002024D01*
X0198695Y0001958D01*
X0198569Y0001895D01*
X0198442Y0001836D01*
X0198313Y0001781D01*
X0198183Y0001729D01*
X0198051Y0001681D01*
X0197918Y0001636D01*
X0197784Y0001595D01*
X0197649Y0001558D01*
X0197513Y0001525D01*
X0197375Y0001496D01*
X0197238Y0001471D01*
X0197099Y0001449D01*
X0196960Y0001431D01*
X0196820Y0001418D01*
X0196680Y0001408D01*
X0196540Y0001402D01*
X0196400Y0001400D01*
X0197315Y0003594D02*
X0179171Y0003594D01*
X0170844Y0007587D02*
X0170212Y0007587D01*
X0169881Y0008385D02*
X0171137Y0008385D01*
X0171613Y0009184D02*
X0169546Y0009184D01*
X0168747Y0009982D02*
X0172335Y0009982D01*
X0173673Y0010781D02*
X0168400Y0010781D01*
X0151900Y0010781D02*
X0147628Y0010781D01*
X0148747Y0009982D02*
X0151900Y0009982D01*
X0151254Y0009184D02*
X0149546Y0009184D01*
X0149881Y0008385D02*
X0150919Y0008385D01*
X0150588Y0007587D02*
X0150212Y0007587D01*
X0150300Y0006788D02*
X0150500Y0006788D01*
X0150500Y0005990D02*
X0150300Y0005990D01*
X0150203Y0005191D02*
X0150597Y0005191D01*
X0150928Y0004393D02*
X0149872Y0004393D01*
X0149524Y0003594D02*
X0151276Y0003594D01*
X0141276Y0003594D02*
X0139524Y0003594D01*
X0139872Y0004393D02*
X0140928Y0004393D01*
X0140597Y0005191D02*
X0140203Y0005191D01*
X0140300Y0005990D02*
X0140500Y0005990D01*
X0140500Y0006788D02*
X0140300Y0006788D01*
X0140212Y0007587D02*
X0140588Y0007587D01*
X0140919Y0008385D02*
X0139881Y0008385D01*
X0139546Y0009184D02*
X0141254Y0009184D01*
X0142052Y0009982D02*
X0138747Y0009982D01*
X0137628Y0010781D02*
X0143172Y0010781D01*
X0133172Y0010781D02*
X0127628Y0010781D01*
X0128747Y0009982D02*
X0132052Y0009982D01*
X0131254Y0009184D02*
X0129546Y0009184D01*
X0129881Y0008385D02*
X0130919Y0008385D01*
X0130588Y0007587D02*
X0130212Y0007587D01*
X0130300Y0006788D02*
X0130500Y0006788D01*
X0130500Y0005990D02*
X0130300Y0005990D01*
X0130203Y0005191D02*
X0130597Y0005191D01*
X0130928Y0004393D02*
X0129872Y0004393D01*
X0129524Y0003594D02*
X0131276Y0003594D01*
X0121276Y0003594D02*
X0119524Y0003594D01*
X0119872Y0004393D02*
X0120928Y0004393D01*
X0120597Y0005191D02*
X0120203Y0005191D01*
X0120300Y0005990D02*
X0120500Y0005990D01*
X0120500Y0006788D02*
X0120300Y0006788D01*
X0120212Y0007587D02*
X0120588Y0007587D01*
X0120919Y0008385D02*
X0119881Y0008385D01*
X0119546Y0009184D02*
X0121254Y0009184D01*
X0122052Y0009982D02*
X0118747Y0009982D01*
X0117628Y0010781D02*
X0123172Y0010781D01*
X0181400Y0051400D02*
X0183219Y0052605D01*
X0181400Y0051400D02*
X0181400Y0071400D01*
X0166400Y0086400D01*
X0165400Y0086400D01*
X0160857Y0088236D02*
X0159943Y0088236D01*
X0160274Y0087438D02*
X0160526Y0087438D01*
X0160500Y0086639D02*
X0160300Y0086639D01*
X0160300Y0085841D02*
X0160500Y0085841D01*
X0160659Y0085042D02*
X0160141Y0085042D01*
X0159811Y0084244D02*
X0160989Y0084244D01*
X0161425Y0083445D02*
X0159375Y0083445D01*
X0158576Y0082647D02*
X0162224Y0082647D01*
X0163585Y0081848D02*
X0157215Y0081848D01*
X0153585Y0081848D02*
X0147215Y0081848D01*
X0148576Y0082647D02*
X0152224Y0082647D01*
X0151425Y0083445D02*
X0149375Y0083445D01*
X0149811Y0084244D02*
X0150989Y0084244D01*
X0150659Y0085042D02*
X0150141Y0085042D01*
X0150300Y0085841D02*
X0150500Y0085841D01*
X0150500Y0086639D02*
X0150300Y0086639D01*
X0150274Y0087438D02*
X0150526Y0087438D01*
X0150857Y0088236D02*
X0149943Y0088236D01*
X0149612Y0089035D02*
X0151188Y0089035D01*
X0159612Y0089035D02*
X0161188Y0089035D01*
X0167215Y0081848D02*
X0168123Y0081848D01*
X0168922Y0081050D02*
X0104579Y0081050D01*
X0105377Y0080251D02*
X0169720Y0080251D01*
X0170519Y0079453D02*
X0106176Y0079453D01*
X0106974Y0078654D02*
X0171317Y0078654D01*
X0172116Y0077856D02*
X0107773Y0077856D01*
X0108571Y0077057D02*
X0172914Y0077057D01*
X0173713Y0076259D02*
X0109370Y0076259D01*
X0110168Y0075460D02*
X0174512Y0075460D01*
X0175310Y0074662D02*
X0110967Y0074662D01*
X0111765Y0073863D02*
X0176109Y0073863D01*
X0176907Y0073065D02*
X0112564Y0073065D01*
X0113362Y0072266D02*
X0177706Y0072266D01*
X0178504Y0071468D02*
X0114161Y0071468D01*
X0114959Y0070669D02*
X0179303Y0070669D01*
X0179400Y0069870D02*
X0115758Y0069870D01*
X0116556Y0069072D02*
X0179400Y0069072D01*
X0179400Y0068273D02*
X0117355Y0068273D01*
X0118153Y0067475D02*
X0179400Y0067475D01*
X0179400Y0066676D02*
X0118952Y0066676D01*
X0119750Y0065878D02*
X0179400Y0065878D01*
X0179400Y0065079D02*
X0120549Y0065079D01*
X0121348Y0064281D02*
X0179400Y0064281D01*
X0179400Y0063482D02*
X0122146Y0063482D01*
X0122945Y0062684D02*
X0179400Y0062684D01*
X0179400Y0061885D02*
X0123743Y0061885D01*
X0124542Y0061087D02*
X0179400Y0061087D01*
X0143585Y0081848D02*
X0137215Y0081848D01*
X0138576Y0082647D02*
X0142224Y0082647D01*
X0141425Y0083445D02*
X0139375Y0083445D01*
X0139811Y0084244D02*
X0140989Y0084244D01*
X0140659Y0085042D02*
X0140141Y0085042D01*
X0140300Y0085841D02*
X0140500Y0085841D01*
X0140500Y0086639D02*
X0140300Y0086639D01*
X0140274Y0087438D02*
X0140526Y0087438D01*
X0140857Y0088236D02*
X0139943Y0088236D01*
X0139612Y0089035D02*
X0141188Y0089035D01*
X0131188Y0089035D02*
X0129612Y0089035D01*
X0129943Y0088236D02*
X0130857Y0088236D01*
X0130526Y0087438D02*
X0130274Y0087438D01*
X0130300Y0086639D02*
X0130500Y0086639D01*
X0130500Y0085841D02*
X0130300Y0085841D01*
X0130141Y0085042D02*
X0130659Y0085042D01*
X0130989Y0084244D02*
X0129811Y0084244D01*
X0129375Y0083445D02*
X0131425Y0083445D01*
X0132224Y0082647D02*
X0128576Y0082647D01*
X0127215Y0081848D02*
X0133585Y0081848D01*
X0123585Y0081848D02*
X0117215Y0081848D01*
X0118576Y0082647D02*
X0122224Y0082647D01*
X0121425Y0083445D02*
X0119375Y0083445D01*
X0119811Y0084244D02*
X0120989Y0084244D01*
X0120659Y0085042D02*
X0120141Y0085042D01*
X0120300Y0085841D02*
X0120500Y0085841D01*
X0120500Y0086639D02*
X0120300Y0086639D01*
X0120274Y0087438D02*
X0120526Y0087438D01*
X0120857Y0088236D02*
X0119943Y0088236D01*
X0119612Y0089035D02*
X0121188Y0089035D01*
X0111188Y0089035D02*
X0109612Y0089035D01*
X0109943Y0088236D02*
X0110857Y0088236D01*
X0110526Y0087438D02*
X0110274Y0087438D01*
X0110300Y0086639D02*
X0110500Y0086639D01*
X0110500Y0085841D02*
X0110300Y0085841D01*
X0110141Y0085042D02*
X0110659Y0085042D01*
X0110989Y0084244D02*
X0109811Y0084244D01*
X0109375Y0083445D02*
X0111425Y0083445D01*
X0112224Y0082647D02*
X0108576Y0082647D01*
X0107215Y0081848D02*
X0113585Y0081848D01*
X0196400Y0091400D02*
X0196540Y0091398D01*
X0196680Y0091392D01*
X0196820Y0091382D01*
X0196960Y0091369D01*
X0197099Y0091351D01*
X0197238Y0091329D01*
X0197375Y0091304D01*
X0197513Y0091275D01*
X0197649Y0091242D01*
X0197784Y0091205D01*
X0197918Y0091164D01*
X0198051Y0091119D01*
X0198183Y0091071D01*
X0198313Y0091019D01*
X0198442Y0090964D01*
X0198569Y0090905D01*
X0198695Y0090842D01*
X0198819Y0090776D01*
X0198940Y0090707D01*
X0199060Y0090634D01*
X0199178Y0090557D01*
X0199293Y0090478D01*
X0199407Y0090395D01*
X0199517Y0090309D01*
X0199626Y0090220D01*
X0199732Y0090128D01*
X0199835Y0090033D01*
X0199936Y0089936D01*
X0200033Y0089835D01*
X0200128Y0089732D01*
X0200220Y0089626D01*
X0200309Y0089517D01*
X0200395Y0089407D01*
X0200478Y0089293D01*
X0200557Y0089178D01*
X0200634Y0089060D01*
X0200707Y0088940D01*
X0200776Y0088819D01*
X0200842Y0088695D01*
X0200905Y0088569D01*
X0200964Y0088442D01*
X0201019Y0088313D01*
X0201071Y0088183D01*
X0201119Y0088051D01*
X0201164Y0087918D01*
X0201205Y0087784D01*
X0201242Y0087649D01*
X0201275Y0087513D01*
X0201304Y0087375D01*
X0201329Y0087238D01*
X0201351Y0087099D01*
X0201369Y0086960D01*
X0201382Y0086820D01*
X0201392Y0086680D01*
X0201398Y0086540D01*
X0201400Y0086400D01*
X0196400Y0091400D02*
X0005400Y0091400D01*
D12*
X0051644Y0073794D03*
X0019258Y0052605D03*
X0120400Y0028983D03*
X0183219Y0028983D03*
D13*
X0183219Y0036857D03*
X0183219Y0044731D03*
X0183219Y0052605D03*
X0120400Y0052605D03*
X0120400Y0044731D03*
X0120400Y0036857D03*
X0043770Y0073794D03*
X0035896Y0073794D03*
X0028022Y0073794D03*
X0019258Y0044731D03*
X0019258Y0036857D03*
X0019258Y0028983D03*
D14*
X0025400Y0006400D03*
X0035400Y0006400D03*
X0045400Y0006400D03*
X0055400Y0006400D03*
X0065400Y0006400D03*
X0075400Y0006400D03*
X0085400Y0006400D03*
X0095400Y0006400D03*
X0105400Y0006400D03*
X0115400Y0006400D03*
X0125400Y0006400D03*
X0135400Y0006400D03*
X0145400Y0006400D03*
X0155400Y0006400D03*
X0165400Y0006400D03*
X0175400Y0006400D03*
X0175400Y0086400D03*
X0165400Y0086400D03*
X0155400Y0086400D03*
X0145400Y0086400D03*
X0135400Y0086400D03*
X0125400Y0086400D03*
X0115400Y0086400D03*
X0105400Y0086400D03*
X0095400Y0086400D03*
X0085400Y0086400D03*
X0075400Y0086400D03*
X0065400Y0086400D03*
D15*
X0126400Y0041400D03*
M02*
