G75*
%MOIN*%
%OFA0B0*%
%FSLAX25Y25*%
%IPPOS*%
%LPD*%
%AMOC8*
5,1,8,0,0,1.08239X$1,22.5*
%
%ADD10C,0.00300*%
%ADD11C,0.00600*%
%ADD12C,0.00800*%
%ADD13C,0.00500*%
%ADD14C,0.01000*%
D10*
X0022829Y0010260D02*
X0022829Y0013360D01*
X0023690Y0013360D01*
X0023748Y0013358D01*
X0023805Y0013352D01*
X0023861Y0013343D01*
X0023917Y0013329D01*
X0023972Y0013312D01*
X0024026Y0013292D01*
X0024078Y0013267D01*
X0024129Y0013240D01*
X0024177Y0013209D01*
X0024224Y0013175D01*
X0024268Y0013138D01*
X0024309Y0013098D01*
X0024348Y0013055D01*
X0024383Y0013010D01*
X0024416Y0012962D01*
X0024445Y0012913D01*
X0024471Y0012861D01*
X0024493Y0012808D01*
X0024512Y0012754D01*
X0024528Y0012699D01*
X0024539Y0012642D01*
X0024547Y0012585D01*
X0024551Y0012528D01*
X0024551Y0012470D01*
X0024547Y0012413D01*
X0024539Y0012356D01*
X0024528Y0012299D01*
X0024512Y0012244D01*
X0024493Y0012190D01*
X0024471Y0012137D01*
X0024445Y0012085D01*
X0024416Y0012036D01*
X0024383Y0011988D01*
X0024348Y0011943D01*
X0024309Y0011900D01*
X0024268Y0011860D01*
X0024224Y0011823D01*
X0024177Y0011789D01*
X0024129Y0011758D01*
X0024078Y0011731D01*
X0024026Y0011706D01*
X0023972Y0011686D01*
X0023917Y0011669D01*
X0023861Y0011655D01*
X0023805Y0011646D01*
X0023748Y0011640D01*
X0023690Y0011638D01*
X0022829Y0011638D01*
X0023862Y0011638D02*
X0024551Y0010260D01*
X0027143Y0011552D02*
X0027187Y0011524D01*
X0027229Y0011493D01*
X0027268Y0011459D01*
X0027304Y0011422D01*
X0027338Y0011382D01*
X0027368Y0011340D01*
X0027396Y0011296D01*
X0027420Y0011250D01*
X0027440Y0011203D01*
X0027457Y0011154D01*
X0027471Y0011103D01*
X0027480Y0011052D01*
X0027486Y0011001D01*
X0027488Y0010949D01*
X0027486Y0010898D01*
X0027480Y0010846D01*
X0027471Y0010796D01*
X0027457Y0010746D01*
X0027440Y0010697D01*
X0027420Y0010650D01*
X0027396Y0010605D01*
X0027368Y0010561D01*
X0027338Y0010519D01*
X0027304Y0010480D01*
X0027268Y0010444D01*
X0027229Y0010410D01*
X0027187Y0010380D01*
X0027144Y0010352D01*
X0027098Y0010328D01*
X0027051Y0010308D01*
X0027002Y0010291D01*
X0026952Y0010277D01*
X0026902Y0010268D01*
X0026850Y0010262D01*
X0026799Y0010260D01*
X0027144Y0011552D02*
X0026196Y0012069D01*
X0026541Y0013361D02*
X0026610Y0013359D01*
X0026679Y0013354D01*
X0026748Y0013344D01*
X0026816Y0013331D01*
X0026883Y0013315D01*
X0026950Y0013295D01*
X0027015Y0013271D01*
X0027078Y0013244D01*
X0027141Y0013213D01*
X0027201Y0013180D01*
X0027260Y0013143D01*
X0027316Y0013103D01*
X0026197Y0012068D02*
X0026153Y0012096D01*
X0026111Y0012127D01*
X0026072Y0012161D01*
X0026036Y0012198D01*
X0026002Y0012238D01*
X0025972Y0012280D01*
X0025944Y0012324D01*
X0025920Y0012370D01*
X0025900Y0012417D01*
X0025883Y0012466D01*
X0025869Y0012517D01*
X0025860Y0012568D01*
X0025854Y0012619D01*
X0025852Y0012671D01*
X0025854Y0012722D01*
X0025860Y0012774D01*
X0025869Y0012824D01*
X0025883Y0012874D01*
X0025900Y0012923D01*
X0025920Y0012970D01*
X0025944Y0013016D01*
X0025972Y0013059D01*
X0026002Y0013101D01*
X0026036Y0013140D01*
X0026072Y0013176D01*
X0026111Y0013210D01*
X0026153Y0013240D01*
X0026197Y0013268D01*
X0026242Y0013292D01*
X0026289Y0013312D01*
X0026338Y0013329D01*
X0026388Y0013343D01*
X0026438Y0013352D01*
X0026490Y0013358D01*
X0026541Y0013360D01*
X0028520Y0013360D02*
X0030242Y0013360D01*
X0029381Y0013360D02*
X0029381Y0010260D01*
X0026799Y0010261D02*
X0026727Y0010263D01*
X0026656Y0010268D01*
X0026584Y0010277D01*
X0026514Y0010289D01*
X0026444Y0010305D01*
X0026374Y0010324D01*
X0026306Y0010347D01*
X0026239Y0010373D01*
X0026174Y0010402D01*
X0026110Y0010435D01*
X0026047Y0010470D01*
X0025987Y0010509D01*
X0025928Y0010550D01*
X0025872Y0010595D01*
X0025818Y0010642D01*
X0025766Y0010691D01*
X0034162Y0010260D02*
X0035023Y0010260D01*
X0035081Y0010262D01*
X0035138Y0010268D01*
X0035194Y0010277D01*
X0035250Y0010291D01*
X0035305Y0010308D01*
X0035359Y0010328D01*
X0035411Y0010353D01*
X0035462Y0010380D01*
X0035510Y0010411D01*
X0035557Y0010445D01*
X0035601Y0010482D01*
X0035642Y0010522D01*
X0035681Y0010565D01*
X0035716Y0010610D01*
X0035749Y0010658D01*
X0035778Y0010707D01*
X0035804Y0010759D01*
X0035826Y0010812D01*
X0035845Y0010866D01*
X0035861Y0010921D01*
X0035872Y0010978D01*
X0035880Y0011035D01*
X0035884Y0011092D01*
X0035884Y0011150D01*
X0035880Y0011207D01*
X0035872Y0011264D01*
X0035861Y0011321D01*
X0035845Y0011376D01*
X0035826Y0011430D01*
X0035804Y0011483D01*
X0035778Y0011535D01*
X0035749Y0011584D01*
X0035716Y0011632D01*
X0035681Y0011677D01*
X0035642Y0011720D01*
X0035601Y0011760D01*
X0035557Y0011797D01*
X0035510Y0011831D01*
X0035462Y0011862D01*
X0035411Y0011889D01*
X0035359Y0011914D01*
X0035305Y0011934D01*
X0035250Y0011951D01*
X0035194Y0011965D01*
X0035138Y0011974D01*
X0035081Y0011980D01*
X0035023Y0011982D01*
X0035195Y0011982D02*
X0034506Y0011982D01*
X0035195Y0011982D02*
X0035246Y0011984D01*
X0035298Y0011990D01*
X0035348Y0011999D01*
X0035398Y0012013D01*
X0035447Y0012030D01*
X0035494Y0012050D01*
X0035540Y0012074D01*
X0035583Y0012102D01*
X0035625Y0012132D01*
X0035664Y0012166D01*
X0035700Y0012202D01*
X0035734Y0012241D01*
X0035764Y0012283D01*
X0035792Y0012327D01*
X0035816Y0012372D01*
X0035836Y0012419D01*
X0035853Y0012468D01*
X0035867Y0012518D01*
X0035876Y0012568D01*
X0035882Y0012620D01*
X0035884Y0012671D01*
X0035882Y0012722D01*
X0035876Y0012774D01*
X0035867Y0012824D01*
X0035853Y0012874D01*
X0035836Y0012923D01*
X0035816Y0012970D01*
X0035792Y0013016D01*
X0035764Y0013059D01*
X0035734Y0013101D01*
X0035700Y0013140D01*
X0035664Y0013176D01*
X0035625Y0013210D01*
X0035583Y0013240D01*
X0035539Y0013268D01*
X0035494Y0013292D01*
X0035447Y0013312D01*
X0035398Y0013329D01*
X0035348Y0013343D01*
X0035298Y0013352D01*
X0035246Y0013358D01*
X0035195Y0013360D01*
X0034162Y0013360D01*
X0037049Y0013360D02*
X0038083Y0010260D01*
X0039116Y0013360D01*
X0042743Y0013360D02*
X0043777Y0010260D01*
X0043518Y0011035D02*
X0041968Y0011035D01*
X0041710Y0010260D02*
X0042743Y0013360D01*
X0045065Y0013360D02*
X0045926Y0013360D01*
X0045984Y0013358D01*
X0046041Y0013352D01*
X0046097Y0013343D01*
X0046153Y0013329D01*
X0046208Y0013312D01*
X0046262Y0013292D01*
X0046314Y0013267D01*
X0046365Y0013240D01*
X0046413Y0013209D01*
X0046460Y0013175D01*
X0046504Y0013138D01*
X0046545Y0013098D01*
X0046584Y0013055D01*
X0046619Y0013010D01*
X0046652Y0012962D01*
X0046681Y0012913D01*
X0046707Y0012861D01*
X0046729Y0012808D01*
X0046748Y0012754D01*
X0046764Y0012699D01*
X0046775Y0012642D01*
X0046783Y0012585D01*
X0046787Y0012528D01*
X0046787Y0012470D01*
X0046783Y0012413D01*
X0046775Y0012356D01*
X0046764Y0012299D01*
X0046748Y0012244D01*
X0046729Y0012190D01*
X0046707Y0012137D01*
X0046681Y0012085D01*
X0046652Y0012036D01*
X0046619Y0011988D01*
X0046584Y0011943D01*
X0046545Y0011900D01*
X0046504Y0011860D01*
X0046460Y0011823D01*
X0046413Y0011789D01*
X0046365Y0011758D01*
X0046314Y0011731D01*
X0046262Y0011706D01*
X0046208Y0011686D01*
X0046153Y0011669D01*
X0046097Y0011655D01*
X0046041Y0011646D01*
X0045984Y0011640D01*
X0045926Y0011638D01*
X0045065Y0011638D01*
X0046098Y0011638D02*
X0046787Y0010260D01*
X0048238Y0010260D02*
X0048238Y0012844D01*
X0048240Y0012887D01*
X0048245Y0012929D01*
X0048254Y0012971D01*
X0048266Y0013012D01*
X0048282Y0013052D01*
X0048300Y0013090D01*
X0048322Y0013127D01*
X0048347Y0013162D01*
X0048375Y0013194D01*
X0048405Y0013224D01*
X0048437Y0013252D01*
X0048472Y0013277D01*
X0048509Y0013299D01*
X0048547Y0013317D01*
X0048587Y0013333D01*
X0048628Y0013345D01*
X0048670Y0013354D01*
X0048712Y0013359D01*
X0048755Y0013361D01*
X0048755Y0013360D02*
X0048927Y0013360D01*
X0048927Y0012327D02*
X0047894Y0012327D01*
X0045065Y0013360D02*
X0045065Y0010260D01*
X0052488Y0010949D02*
X0052488Y0012671D01*
X0052490Y0012722D01*
X0052496Y0012774D01*
X0052505Y0012824D01*
X0052519Y0012874D01*
X0052536Y0012923D01*
X0052556Y0012970D01*
X0052580Y0013015D01*
X0052608Y0013059D01*
X0052638Y0013101D01*
X0052672Y0013140D01*
X0052708Y0013176D01*
X0052747Y0013210D01*
X0052789Y0013240D01*
X0052832Y0013268D01*
X0052878Y0013292D01*
X0052925Y0013312D01*
X0052974Y0013329D01*
X0053024Y0013343D01*
X0053074Y0013352D01*
X0053125Y0013358D01*
X0053177Y0013360D01*
X0054210Y0013360D01*
X0055752Y0013360D02*
X0057474Y0010260D01*
X0057474Y0013360D01*
X0059016Y0013360D02*
X0059877Y0013360D01*
X0059933Y0013358D01*
X0059989Y0013353D01*
X0060045Y0013343D01*
X0060100Y0013331D01*
X0060154Y0013314D01*
X0060206Y0013294D01*
X0060258Y0013271D01*
X0060308Y0013245D01*
X0060355Y0013215D01*
X0060401Y0013182D01*
X0060445Y0013146D01*
X0060486Y0013108D01*
X0060524Y0013067D01*
X0060560Y0013023D01*
X0060593Y0012977D01*
X0060623Y0012929D01*
X0060649Y0012880D01*
X0060672Y0012828D01*
X0060692Y0012776D01*
X0060709Y0012722D01*
X0060721Y0012667D01*
X0060731Y0012611D01*
X0060736Y0012555D01*
X0060738Y0012499D01*
X0060738Y0011121D01*
X0060736Y0011065D01*
X0060731Y0011009D01*
X0060721Y0010953D01*
X0060709Y0010898D01*
X0060692Y0010844D01*
X0060672Y0010792D01*
X0060649Y0010740D01*
X0060623Y0010691D01*
X0060593Y0010643D01*
X0060560Y0010597D01*
X0060524Y0010553D01*
X0060486Y0010512D01*
X0060445Y0010474D01*
X0060401Y0010438D01*
X0060355Y0010405D01*
X0060308Y0010375D01*
X0060258Y0010349D01*
X0060206Y0010326D01*
X0060154Y0010306D01*
X0060100Y0010289D01*
X0060045Y0010277D01*
X0059989Y0010267D01*
X0059933Y0010262D01*
X0059877Y0010260D01*
X0059016Y0010260D01*
X0059016Y0013360D01*
X0055752Y0013360D02*
X0055752Y0010260D01*
X0054210Y0010260D02*
X0054210Y0011982D01*
X0053694Y0011982D01*
X0052488Y0010949D02*
X0052490Y0010898D01*
X0052496Y0010846D01*
X0052505Y0010796D01*
X0052519Y0010746D01*
X0052536Y0010697D01*
X0052556Y0010650D01*
X0052580Y0010605D01*
X0052608Y0010561D01*
X0052638Y0010519D01*
X0052672Y0010480D01*
X0052708Y0010444D01*
X0052747Y0010410D01*
X0052789Y0010380D01*
X0052833Y0010352D01*
X0052878Y0010328D01*
X0052925Y0010308D01*
X0052974Y0010291D01*
X0053024Y0010277D01*
X0053074Y0010268D01*
X0053126Y0010262D01*
X0053177Y0010260D01*
X0054210Y0010260D01*
X0063658Y0010260D02*
X0064691Y0013360D01*
X0065724Y0010260D01*
X0065466Y0011035D02*
X0063916Y0011035D01*
X0068355Y0010690D02*
X0068395Y0010778D01*
X0068433Y0010867D01*
X0068467Y0010957D01*
X0068497Y0011049D01*
X0068524Y0011142D01*
X0068548Y0011235D01*
X0068568Y0011330D01*
X0068584Y0011425D01*
X0068597Y0011521D01*
X0068606Y0011617D01*
X0068611Y0011713D01*
X0068613Y0011810D01*
X0066890Y0011810D02*
X0066892Y0011907D01*
X0066897Y0012003D01*
X0066906Y0012099D01*
X0066919Y0012195D01*
X0066935Y0012290D01*
X0066955Y0012385D01*
X0066979Y0012478D01*
X0067006Y0012571D01*
X0067036Y0012663D01*
X0067070Y0012753D01*
X0067108Y0012842D01*
X0067148Y0012930D01*
X0067751Y0013360D02*
X0067800Y0013358D01*
X0067849Y0013352D01*
X0067898Y0013343D01*
X0067945Y0013330D01*
X0067992Y0013313D01*
X0068037Y0013292D01*
X0068080Y0013268D01*
X0068121Y0013241D01*
X0068160Y0013211D01*
X0068197Y0013178D01*
X0068231Y0013142D01*
X0068262Y0013104D01*
X0068290Y0013063D01*
X0068314Y0013020D01*
X0068336Y0012976D01*
X0068354Y0012930D01*
X0068440Y0012671D02*
X0067062Y0010949D01*
X0067751Y0010260D02*
X0067800Y0010262D01*
X0067849Y0010268D01*
X0067898Y0010277D01*
X0067945Y0010290D01*
X0067992Y0010307D01*
X0068037Y0010328D01*
X0068080Y0010352D01*
X0068121Y0010379D01*
X0068160Y0010409D01*
X0068197Y0010442D01*
X0068231Y0010478D01*
X0068262Y0010516D01*
X0068290Y0010557D01*
X0068314Y0010600D01*
X0068336Y0010644D01*
X0068354Y0010690D01*
X0067751Y0010260D02*
X0067702Y0010262D01*
X0067653Y0010268D01*
X0067604Y0010277D01*
X0067557Y0010290D01*
X0067510Y0010307D01*
X0067465Y0010328D01*
X0067422Y0010352D01*
X0067381Y0010379D01*
X0067342Y0010409D01*
X0067305Y0010442D01*
X0067271Y0010478D01*
X0067240Y0010516D01*
X0067212Y0010557D01*
X0067188Y0010600D01*
X0067166Y0010644D01*
X0067148Y0010690D01*
X0068613Y0011810D02*
X0068611Y0011907D01*
X0068606Y0012003D01*
X0068597Y0012099D01*
X0068584Y0012195D01*
X0068567Y0012290D01*
X0068548Y0012385D01*
X0068524Y0012478D01*
X0068497Y0012571D01*
X0068467Y0012663D01*
X0068433Y0012753D01*
X0068395Y0012842D01*
X0068355Y0012930D01*
X0067751Y0013360D02*
X0067702Y0013358D01*
X0067653Y0013352D01*
X0067604Y0013343D01*
X0067557Y0013330D01*
X0067510Y0013313D01*
X0067465Y0013292D01*
X0067422Y0013268D01*
X0067381Y0013241D01*
X0067342Y0013211D01*
X0067305Y0013178D01*
X0067271Y0013142D01*
X0067240Y0013104D01*
X0067212Y0013063D01*
X0067188Y0013020D01*
X0067166Y0012976D01*
X0067148Y0012930D01*
X0066890Y0011810D02*
X0066892Y0011713D01*
X0066897Y0011617D01*
X0066906Y0011521D01*
X0066919Y0011425D01*
X0066935Y0011330D01*
X0066955Y0011235D01*
X0066979Y0011142D01*
X0067006Y0011049D01*
X0067036Y0010957D01*
X0067070Y0010867D01*
X0067108Y0010778D01*
X0067148Y0010690D01*
X0073500Y0010260D02*
X0074534Y0013360D01*
X0075567Y0010260D01*
X0075309Y0011035D02*
X0073759Y0011035D01*
X0076733Y0010260D02*
X0078455Y0010260D01*
X0077594Y0010260D02*
X0077594Y0013360D01*
X0076733Y0012671D01*
X0083343Y0010260D02*
X0084376Y0013360D01*
X0085409Y0010260D01*
X0085151Y0011035D02*
X0083601Y0011035D01*
X0086575Y0010260D02*
X0088297Y0010260D01*
X0086575Y0010260D02*
X0088039Y0011982D01*
X0087522Y0013361D02*
X0087462Y0013359D01*
X0087403Y0013354D01*
X0087344Y0013345D01*
X0087286Y0013333D01*
X0087228Y0013317D01*
X0087172Y0013297D01*
X0087117Y0013275D01*
X0087063Y0013249D01*
X0087011Y0013220D01*
X0086961Y0013188D01*
X0086912Y0013153D01*
X0086866Y0013115D01*
X0086823Y0013074D01*
X0086781Y0013031D01*
X0086743Y0012985D01*
X0086707Y0012938D01*
X0086674Y0012888D01*
X0086645Y0012836D01*
X0086618Y0012783D01*
X0086595Y0012728D01*
X0086574Y0012672D01*
X0088039Y0011983D02*
X0088078Y0012023D01*
X0088115Y0012065D01*
X0088148Y0012110D01*
X0088179Y0012157D01*
X0088206Y0012206D01*
X0088230Y0012257D01*
X0088250Y0012310D01*
X0088267Y0012363D01*
X0088280Y0012418D01*
X0088289Y0012473D01*
X0088295Y0012529D01*
X0088297Y0012585D01*
X0088295Y0012640D01*
X0088289Y0012695D01*
X0088279Y0012750D01*
X0088266Y0012803D01*
X0088248Y0012856D01*
X0088227Y0012907D01*
X0088202Y0012956D01*
X0088174Y0013004D01*
X0088142Y0013049D01*
X0088108Y0013093D01*
X0088070Y0013133D01*
X0088030Y0013171D01*
X0087986Y0013205D01*
X0087941Y0013237D01*
X0087893Y0013265D01*
X0087844Y0013290D01*
X0087793Y0013311D01*
X0087740Y0013329D01*
X0087687Y0013342D01*
X0087632Y0013352D01*
X0087577Y0013358D01*
X0087522Y0013360D01*
X0093444Y0011035D02*
X0094994Y0011035D01*
X0095252Y0010260D02*
X0094219Y0013360D01*
X0093185Y0010260D01*
X0096418Y0010260D02*
X0097279Y0010260D01*
X0097337Y0010262D01*
X0097394Y0010268D01*
X0097450Y0010277D01*
X0097506Y0010291D01*
X0097561Y0010308D01*
X0097615Y0010328D01*
X0097667Y0010353D01*
X0097718Y0010380D01*
X0097766Y0010411D01*
X0097813Y0010445D01*
X0097857Y0010482D01*
X0097898Y0010522D01*
X0097937Y0010565D01*
X0097972Y0010610D01*
X0098005Y0010658D01*
X0098034Y0010707D01*
X0098060Y0010759D01*
X0098082Y0010812D01*
X0098101Y0010866D01*
X0098117Y0010921D01*
X0098128Y0010978D01*
X0098136Y0011035D01*
X0098140Y0011092D01*
X0098140Y0011150D01*
X0098136Y0011207D01*
X0098128Y0011264D01*
X0098117Y0011321D01*
X0098101Y0011376D01*
X0098082Y0011430D01*
X0098060Y0011483D01*
X0098034Y0011535D01*
X0098005Y0011584D01*
X0097972Y0011632D01*
X0097937Y0011677D01*
X0097898Y0011720D01*
X0097857Y0011760D01*
X0097813Y0011797D01*
X0097766Y0011831D01*
X0097718Y0011862D01*
X0097667Y0011889D01*
X0097615Y0011914D01*
X0097561Y0011934D01*
X0097506Y0011951D01*
X0097450Y0011965D01*
X0097394Y0011974D01*
X0097337Y0011980D01*
X0097279Y0011982D01*
X0097451Y0011982D02*
X0096762Y0011982D01*
X0097451Y0011982D02*
X0097502Y0011984D01*
X0097554Y0011990D01*
X0097604Y0011999D01*
X0097654Y0012013D01*
X0097703Y0012030D01*
X0097750Y0012050D01*
X0097796Y0012074D01*
X0097839Y0012102D01*
X0097881Y0012132D01*
X0097920Y0012166D01*
X0097956Y0012202D01*
X0097990Y0012241D01*
X0098020Y0012283D01*
X0098048Y0012327D01*
X0098072Y0012372D01*
X0098092Y0012419D01*
X0098109Y0012468D01*
X0098123Y0012518D01*
X0098132Y0012568D01*
X0098138Y0012620D01*
X0098140Y0012671D01*
X0098138Y0012722D01*
X0098132Y0012774D01*
X0098123Y0012824D01*
X0098109Y0012874D01*
X0098092Y0012923D01*
X0098072Y0012970D01*
X0098048Y0013016D01*
X0098020Y0013059D01*
X0097990Y0013101D01*
X0097956Y0013140D01*
X0097920Y0013176D01*
X0097881Y0013210D01*
X0097839Y0013240D01*
X0097796Y0013268D01*
X0097750Y0013292D01*
X0097703Y0013312D01*
X0097654Y0013329D01*
X0097604Y0013343D01*
X0097554Y0013352D01*
X0097502Y0013358D01*
X0097451Y0013360D01*
X0096418Y0013360D01*
X0103286Y0011035D02*
X0104836Y0011035D01*
X0105095Y0010260D02*
X0104061Y0013360D01*
X0103028Y0010260D01*
X0106260Y0010949D02*
X0107982Y0010949D01*
X0107466Y0011638D02*
X0107466Y0010260D01*
X0106260Y0010949D02*
X0106949Y0013360D01*
X0113129Y0011035D02*
X0114679Y0011035D01*
X0114937Y0010260D02*
X0113904Y0013360D01*
X0112870Y0010260D01*
X0116103Y0010260D02*
X0117136Y0010260D01*
X0117187Y0010262D01*
X0117239Y0010268D01*
X0117289Y0010277D01*
X0117339Y0010291D01*
X0117388Y0010308D01*
X0117435Y0010328D01*
X0117481Y0010352D01*
X0117524Y0010380D01*
X0117566Y0010410D01*
X0117605Y0010444D01*
X0117641Y0010480D01*
X0117675Y0010519D01*
X0117705Y0010561D01*
X0117733Y0010605D01*
X0117757Y0010650D01*
X0117777Y0010697D01*
X0117794Y0010746D01*
X0117808Y0010796D01*
X0117817Y0010846D01*
X0117823Y0010898D01*
X0117825Y0010949D01*
X0117825Y0011294D01*
X0117823Y0011345D01*
X0117817Y0011397D01*
X0117808Y0011447D01*
X0117794Y0011497D01*
X0117777Y0011546D01*
X0117757Y0011593D01*
X0117733Y0011639D01*
X0117705Y0011682D01*
X0117675Y0011724D01*
X0117641Y0011763D01*
X0117605Y0011799D01*
X0117566Y0011833D01*
X0117524Y0011863D01*
X0117481Y0011891D01*
X0117435Y0011915D01*
X0117388Y0011935D01*
X0117339Y0011952D01*
X0117289Y0011966D01*
X0117239Y0011975D01*
X0117187Y0011981D01*
X0117136Y0011983D01*
X0117136Y0011982D02*
X0116103Y0011982D01*
X0116103Y0013360D01*
X0117825Y0013360D01*
X0122687Y0012069D02*
X0123634Y0011552D01*
X0123289Y0010261D02*
X0123217Y0010263D01*
X0123146Y0010268D01*
X0123074Y0010277D01*
X0123004Y0010289D01*
X0122934Y0010305D01*
X0122864Y0010324D01*
X0122796Y0010347D01*
X0122729Y0010373D01*
X0122664Y0010402D01*
X0122600Y0010435D01*
X0122537Y0010470D01*
X0122477Y0010509D01*
X0122418Y0010550D01*
X0122362Y0010595D01*
X0122308Y0010642D01*
X0122256Y0010691D01*
X0123634Y0011552D02*
X0123678Y0011524D01*
X0123720Y0011493D01*
X0123759Y0011459D01*
X0123795Y0011422D01*
X0123829Y0011382D01*
X0123859Y0011340D01*
X0123887Y0011296D01*
X0123911Y0011250D01*
X0123931Y0011203D01*
X0123948Y0011154D01*
X0123962Y0011103D01*
X0123971Y0011052D01*
X0123977Y0011001D01*
X0123979Y0010949D01*
X0123978Y0010949D02*
X0123976Y0010898D01*
X0123970Y0010846D01*
X0123961Y0010796D01*
X0123947Y0010746D01*
X0123930Y0010697D01*
X0123910Y0010650D01*
X0123886Y0010605D01*
X0123858Y0010561D01*
X0123828Y0010519D01*
X0123794Y0010480D01*
X0123758Y0010444D01*
X0123719Y0010410D01*
X0123677Y0010380D01*
X0123634Y0010352D01*
X0123588Y0010328D01*
X0123541Y0010308D01*
X0123492Y0010291D01*
X0123442Y0010277D01*
X0123392Y0010268D01*
X0123340Y0010262D01*
X0123289Y0010260D01*
X0125205Y0010949D02*
X0125205Y0012671D01*
X0125204Y0012671D02*
X0125206Y0012722D01*
X0125212Y0012774D01*
X0125221Y0012824D01*
X0125235Y0012874D01*
X0125252Y0012923D01*
X0125272Y0012970D01*
X0125296Y0013015D01*
X0125324Y0013059D01*
X0125354Y0013101D01*
X0125388Y0013140D01*
X0125424Y0013176D01*
X0125463Y0013210D01*
X0125505Y0013240D01*
X0125548Y0013268D01*
X0125594Y0013292D01*
X0125641Y0013312D01*
X0125690Y0013329D01*
X0125740Y0013343D01*
X0125790Y0013352D01*
X0125841Y0013358D01*
X0125893Y0013360D01*
X0126582Y0013360D01*
X0127914Y0013360D02*
X0127914Y0010260D01*
X0127914Y0011466D02*
X0129636Y0013360D01*
X0128602Y0012155D02*
X0129636Y0010260D01*
X0126582Y0010260D02*
X0125893Y0010260D01*
X0125842Y0010262D01*
X0125790Y0010268D01*
X0125740Y0010277D01*
X0125690Y0010291D01*
X0125641Y0010308D01*
X0125594Y0010328D01*
X0125549Y0010352D01*
X0125505Y0010380D01*
X0125463Y0010410D01*
X0125424Y0010444D01*
X0125388Y0010480D01*
X0125354Y0010519D01*
X0125324Y0010561D01*
X0125296Y0010605D01*
X0125272Y0010650D01*
X0125252Y0010697D01*
X0125235Y0010746D01*
X0125221Y0010796D01*
X0125212Y0010846D01*
X0125206Y0010898D01*
X0125204Y0010949D01*
X0123806Y0013103D02*
X0123750Y0013143D01*
X0123691Y0013180D01*
X0123631Y0013213D01*
X0123568Y0013244D01*
X0123505Y0013271D01*
X0123440Y0013295D01*
X0123373Y0013315D01*
X0123306Y0013331D01*
X0123238Y0013344D01*
X0123169Y0013354D01*
X0123100Y0013359D01*
X0123031Y0013361D01*
X0123031Y0013360D02*
X0122980Y0013358D01*
X0122928Y0013352D01*
X0122878Y0013343D01*
X0122828Y0013329D01*
X0122779Y0013312D01*
X0122732Y0013292D01*
X0122687Y0013268D01*
X0122643Y0013240D01*
X0122601Y0013210D01*
X0122562Y0013176D01*
X0122526Y0013140D01*
X0122492Y0013101D01*
X0122462Y0013059D01*
X0122434Y0013016D01*
X0122410Y0012970D01*
X0122390Y0012923D01*
X0122373Y0012874D01*
X0122359Y0012824D01*
X0122350Y0012774D01*
X0122344Y0012722D01*
X0122342Y0012671D01*
X0122344Y0012619D01*
X0122350Y0012568D01*
X0122359Y0012517D01*
X0122373Y0012466D01*
X0122390Y0012417D01*
X0122410Y0012370D01*
X0122434Y0012324D01*
X0122462Y0012280D01*
X0122492Y0012238D01*
X0122526Y0012198D01*
X0122562Y0012161D01*
X0122601Y0012127D01*
X0122643Y0012096D01*
X0122687Y0012068D01*
X0134218Y0013360D02*
X0134218Y0010260D01*
X0135251Y0011638D02*
X0136285Y0013360D01*
X0136285Y0010260D01*
X0137756Y0011121D02*
X0137756Y0012499D01*
X0137758Y0012557D01*
X0137764Y0012614D01*
X0137773Y0012670D01*
X0137787Y0012726D01*
X0137804Y0012781D01*
X0137824Y0012835D01*
X0137849Y0012887D01*
X0137876Y0012938D01*
X0137907Y0012986D01*
X0137941Y0013033D01*
X0137978Y0013077D01*
X0138018Y0013118D01*
X0138061Y0013157D01*
X0138106Y0013192D01*
X0138154Y0013225D01*
X0138203Y0013254D01*
X0138255Y0013280D01*
X0138308Y0013302D01*
X0138362Y0013321D01*
X0138417Y0013337D01*
X0138474Y0013348D01*
X0138531Y0013356D01*
X0138588Y0013360D01*
X0138646Y0013360D01*
X0138703Y0013356D01*
X0138760Y0013348D01*
X0138817Y0013337D01*
X0138872Y0013321D01*
X0138926Y0013302D01*
X0138979Y0013280D01*
X0139031Y0013254D01*
X0139080Y0013225D01*
X0139128Y0013192D01*
X0139173Y0013157D01*
X0139216Y0013118D01*
X0139256Y0013077D01*
X0139293Y0013033D01*
X0139327Y0012986D01*
X0139358Y0012938D01*
X0139385Y0012887D01*
X0139410Y0012835D01*
X0139430Y0012781D01*
X0139447Y0012726D01*
X0139461Y0012670D01*
X0139470Y0012614D01*
X0139476Y0012557D01*
X0139478Y0012499D01*
X0139478Y0011121D01*
X0139476Y0011063D01*
X0139470Y0011006D01*
X0139461Y0010950D01*
X0139447Y0010894D01*
X0139430Y0010839D01*
X0139410Y0010785D01*
X0139385Y0010733D01*
X0139358Y0010682D01*
X0139327Y0010634D01*
X0139293Y0010587D01*
X0139256Y0010543D01*
X0139216Y0010502D01*
X0139173Y0010463D01*
X0139128Y0010428D01*
X0139080Y0010395D01*
X0139031Y0010366D01*
X0138979Y0010340D01*
X0138926Y0010318D01*
X0138872Y0010299D01*
X0138817Y0010283D01*
X0138760Y0010272D01*
X0138703Y0010264D01*
X0138646Y0010260D01*
X0138588Y0010260D01*
X0138531Y0010264D01*
X0138474Y0010272D01*
X0138417Y0010283D01*
X0138362Y0010299D01*
X0138308Y0010318D01*
X0138255Y0010340D01*
X0138203Y0010366D01*
X0138154Y0010395D01*
X0138106Y0010428D01*
X0138061Y0010463D01*
X0138018Y0010502D01*
X0137978Y0010543D01*
X0137941Y0010587D01*
X0137907Y0010634D01*
X0137876Y0010682D01*
X0137849Y0010733D01*
X0137824Y0010785D01*
X0137804Y0010839D01*
X0137787Y0010894D01*
X0137773Y0010950D01*
X0137764Y0011006D01*
X0137758Y0011063D01*
X0137756Y0011121D01*
X0135251Y0011638D02*
X0134218Y0013360D01*
X0144221Y0013360D02*
X0144221Y0010260D01*
X0145254Y0011638D02*
X0146287Y0013360D01*
X0146287Y0010260D01*
X0147663Y0010260D02*
X0148352Y0010260D01*
X0148008Y0010260D02*
X0148008Y0013360D01*
X0148352Y0013360D02*
X0147663Y0013360D01*
X0145254Y0011638D02*
X0144221Y0013360D01*
X0154230Y0013360D02*
X0154230Y0010260D01*
X0154230Y0011638D02*
X0155091Y0011638D01*
X0155263Y0011638D02*
X0155952Y0010260D01*
X0157097Y0010260D02*
X0159163Y0013360D01*
X0157097Y0013360D02*
X0159163Y0010260D01*
X0163148Y0010260D02*
X0163148Y0013360D01*
X0162287Y0013360D02*
X0164009Y0013360D01*
X0164971Y0013360D02*
X0167037Y0010260D01*
X0164971Y0010260D02*
X0167037Y0013360D01*
X0172598Y0012671D02*
X0172598Y0010949D01*
X0172600Y0010898D01*
X0172606Y0010846D01*
X0172615Y0010796D01*
X0172629Y0010746D01*
X0172646Y0010697D01*
X0172666Y0010650D01*
X0172690Y0010605D01*
X0172718Y0010561D01*
X0172748Y0010519D01*
X0172782Y0010480D01*
X0172818Y0010444D01*
X0172857Y0010410D01*
X0172899Y0010380D01*
X0172943Y0010352D01*
X0172988Y0010328D01*
X0173035Y0010308D01*
X0173084Y0010291D01*
X0173134Y0010277D01*
X0173184Y0010268D01*
X0173236Y0010262D01*
X0173287Y0010260D01*
X0174320Y0010260D01*
X0174320Y0011982D01*
X0173804Y0011982D01*
X0172598Y0012671D02*
X0172600Y0012722D01*
X0172606Y0012774D01*
X0172615Y0012824D01*
X0172629Y0012874D01*
X0172646Y0012923D01*
X0172666Y0012970D01*
X0172690Y0013015D01*
X0172718Y0013059D01*
X0172748Y0013101D01*
X0172782Y0013140D01*
X0172818Y0013176D01*
X0172857Y0013210D01*
X0172899Y0013240D01*
X0172942Y0013268D01*
X0172988Y0013292D01*
X0173035Y0013312D01*
X0173084Y0013329D01*
X0173134Y0013343D01*
X0173184Y0013352D01*
X0173235Y0013358D01*
X0173287Y0013360D01*
X0174320Y0013360D01*
X0175862Y0013360D02*
X0177584Y0010260D01*
X0177584Y0013360D01*
X0179126Y0013360D02*
X0179987Y0013360D01*
X0179126Y0013360D02*
X0179126Y0010260D01*
X0179987Y0010260D01*
X0180043Y0010262D01*
X0180099Y0010267D01*
X0180155Y0010277D01*
X0180210Y0010289D01*
X0180264Y0010306D01*
X0180316Y0010326D01*
X0180368Y0010349D01*
X0180418Y0010375D01*
X0180465Y0010405D01*
X0180511Y0010438D01*
X0180555Y0010474D01*
X0180596Y0010512D01*
X0180634Y0010553D01*
X0180670Y0010597D01*
X0180703Y0010643D01*
X0180733Y0010691D01*
X0180759Y0010740D01*
X0180782Y0010792D01*
X0180802Y0010844D01*
X0180819Y0010898D01*
X0180831Y0010953D01*
X0180841Y0011009D01*
X0180846Y0011065D01*
X0180848Y0011121D01*
X0180848Y0012499D01*
X0180846Y0012555D01*
X0180841Y0012611D01*
X0180831Y0012667D01*
X0180819Y0012722D01*
X0180802Y0012776D01*
X0180782Y0012828D01*
X0180759Y0012880D01*
X0180733Y0012929D01*
X0180703Y0012977D01*
X0180670Y0013023D01*
X0180634Y0013067D01*
X0180596Y0013108D01*
X0180555Y0013146D01*
X0180511Y0013182D01*
X0180465Y0013215D01*
X0180418Y0013245D01*
X0180368Y0013271D01*
X0180316Y0013294D01*
X0180264Y0013314D01*
X0180210Y0013331D01*
X0180155Y0013343D01*
X0180099Y0013353D01*
X0180043Y0013358D01*
X0179987Y0013360D01*
X0175862Y0013360D02*
X0175862Y0010260D01*
X0155091Y0011638D02*
X0155149Y0011640D01*
X0155206Y0011646D01*
X0155262Y0011655D01*
X0155318Y0011669D01*
X0155373Y0011686D01*
X0155427Y0011706D01*
X0155479Y0011731D01*
X0155530Y0011758D01*
X0155578Y0011789D01*
X0155625Y0011823D01*
X0155669Y0011860D01*
X0155710Y0011900D01*
X0155749Y0011943D01*
X0155784Y0011988D01*
X0155817Y0012036D01*
X0155846Y0012085D01*
X0155872Y0012137D01*
X0155894Y0012190D01*
X0155913Y0012244D01*
X0155929Y0012299D01*
X0155940Y0012356D01*
X0155948Y0012413D01*
X0155952Y0012470D01*
X0155952Y0012528D01*
X0155948Y0012585D01*
X0155940Y0012642D01*
X0155929Y0012699D01*
X0155913Y0012754D01*
X0155894Y0012808D01*
X0155872Y0012861D01*
X0155846Y0012913D01*
X0155817Y0012962D01*
X0155784Y0013010D01*
X0155749Y0013055D01*
X0155710Y0013098D01*
X0155669Y0013138D01*
X0155625Y0013175D01*
X0155578Y0013209D01*
X0155530Y0013240D01*
X0155479Y0013267D01*
X0155427Y0013292D01*
X0155373Y0013312D01*
X0155318Y0013329D01*
X0155262Y0013343D01*
X0155206Y0013352D01*
X0155149Y0013358D01*
X0155091Y0013360D01*
X0154230Y0013360D01*
X0161664Y0026369D02*
X0162897Y0026369D01*
X0162897Y0028424D01*
X0162280Y0028424D01*
X0160842Y0029247D02*
X0160844Y0029303D01*
X0160850Y0029359D01*
X0160859Y0029414D01*
X0160872Y0029469D01*
X0160889Y0029522D01*
X0160910Y0029574D01*
X0160934Y0029625D01*
X0160962Y0029674D01*
X0160992Y0029721D01*
X0161026Y0029766D01*
X0161063Y0029808D01*
X0161103Y0029848D01*
X0161145Y0029885D01*
X0161190Y0029919D01*
X0161237Y0029949D01*
X0161286Y0029977D01*
X0161337Y0030001D01*
X0161389Y0030022D01*
X0161442Y0030039D01*
X0161497Y0030052D01*
X0161552Y0030061D01*
X0161608Y0030067D01*
X0161664Y0030069D01*
X0162897Y0030069D01*
X0164681Y0030069D02*
X0166737Y0026369D01*
X0166737Y0030069D01*
X0168521Y0030069D02*
X0169549Y0030069D01*
X0168521Y0030069D02*
X0168521Y0026369D01*
X0169549Y0026369D01*
X0169611Y0026371D01*
X0169673Y0026376D01*
X0169734Y0026386D01*
X0169795Y0026399D01*
X0169855Y0026416D01*
X0169914Y0026436D01*
X0169971Y0026460D01*
X0170027Y0026487D01*
X0170081Y0026517D01*
X0170133Y0026551D01*
X0170183Y0026588D01*
X0170231Y0026628D01*
X0170276Y0026670D01*
X0170318Y0026715D01*
X0170358Y0026763D01*
X0170395Y0026813D01*
X0170429Y0026865D01*
X0170459Y0026919D01*
X0170486Y0026975D01*
X0170510Y0027032D01*
X0170530Y0027091D01*
X0170547Y0027151D01*
X0170560Y0027212D01*
X0170570Y0027273D01*
X0170575Y0027335D01*
X0170577Y0027397D01*
X0170577Y0029041D01*
X0170575Y0029103D01*
X0170570Y0029165D01*
X0170560Y0029226D01*
X0170547Y0029287D01*
X0170530Y0029347D01*
X0170510Y0029406D01*
X0170486Y0029463D01*
X0170459Y0029519D01*
X0170429Y0029573D01*
X0170395Y0029625D01*
X0170358Y0029675D01*
X0170318Y0029723D01*
X0170276Y0029768D01*
X0170231Y0029810D01*
X0170183Y0029850D01*
X0170133Y0029887D01*
X0170081Y0029921D01*
X0170027Y0029951D01*
X0169971Y0029978D01*
X0169914Y0030002D01*
X0169855Y0030022D01*
X0169795Y0030039D01*
X0169734Y0030052D01*
X0169673Y0030062D01*
X0169611Y0030067D01*
X0169549Y0030069D01*
X0164681Y0030069D02*
X0164681Y0026369D01*
X0161664Y0026369D02*
X0161608Y0026371D01*
X0161552Y0026377D01*
X0161497Y0026386D01*
X0161442Y0026399D01*
X0161389Y0026416D01*
X0161337Y0026437D01*
X0161286Y0026461D01*
X0161237Y0026489D01*
X0161190Y0026519D01*
X0161145Y0026553D01*
X0161103Y0026590D01*
X0161063Y0026630D01*
X0161026Y0026672D01*
X0160992Y0026717D01*
X0160962Y0026764D01*
X0160934Y0026813D01*
X0160910Y0026864D01*
X0160889Y0026916D01*
X0160872Y0026969D01*
X0160859Y0027024D01*
X0160850Y0027079D01*
X0160844Y0027135D01*
X0160842Y0027191D01*
X0160841Y0027191D02*
X0160841Y0029247D01*
X0166841Y0034369D02*
X0167869Y0034369D01*
X0167932Y0034371D01*
X0167995Y0034377D01*
X0168058Y0034387D01*
X0168120Y0034400D01*
X0168181Y0034417D01*
X0168240Y0034438D01*
X0168299Y0034463D01*
X0168355Y0034491D01*
X0168410Y0034523D01*
X0168463Y0034558D01*
X0168513Y0034596D01*
X0168562Y0034637D01*
X0168607Y0034681D01*
X0168650Y0034728D01*
X0168689Y0034777D01*
X0168726Y0034829D01*
X0168759Y0034883D01*
X0168789Y0034939D01*
X0168816Y0034996D01*
X0168839Y0035055D01*
X0168858Y0035116D01*
X0168873Y0035177D01*
X0168885Y0035239D01*
X0168893Y0035302D01*
X0168897Y0035365D01*
X0168897Y0035429D01*
X0168893Y0035492D01*
X0168885Y0035555D01*
X0168873Y0035617D01*
X0168858Y0035678D01*
X0168839Y0035739D01*
X0168816Y0035798D01*
X0168789Y0035855D01*
X0168759Y0035911D01*
X0168726Y0035965D01*
X0168689Y0036017D01*
X0168650Y0036066D01*
X0168607Y0036113D01*
X0168562Y0036157D01*
X0168513Y0036198D01*
X0168463Y0036236D01*
X0168410Y0036271D01*
X0168355Y0036303D01*
X0168299Y0036331D01*
X0168240Y0036356D01*
X0168181Y0036377D01*
X0168120Y0036394D01*
X0168058Y0036407D01*
X0167995Y0036417D01*
X0167932Y0036423D01*
X0167869Y0036425D01*
X0168075Y0036424D02*
X0167252Y0036424D01*
X0168075Y0036425D02*
X0168131Y0036427D01*
X0168187Y0036433D01*
X0168242Y0036442D01*
X0168297Y0036455D01*
X0168350Y0036472D01*
X0168402Y0036493D01*
X0168453Y0036517D01*
X0168502Y0036545D01*
X0168549Y0036575D01*
X0168594Y0036609D01*
X0168636Y0036646D01*
X0168676Y0036686D01*
X0168713Y0036728D01*
X0168747Y0036773D01*
X0168777Y0036820D01*
X0168805Y0036869D01*
X0168829Y0036920D01*
X0168850Y0036972D01*
X0168867Y0037025D01*
X0168880Y0037080D01*
X0168889Y0037135D01*
X0168895Y0037191D01*
X0168897Y0037247D01*
X0168895Y0037303D01*
X0168889Y0037359D01*
X0168880Y0037414D01*
X0168867Y0037469D01*
X0168850Y0037522D01*
X0168829Y0037574D01*
X0168805Y0037625D01*
X0168777Y0037674D01*
X0168747Y0037721D01*
X0168713Y0037766D01*
X0168676Y0037808D01*
X0168636Y0037848D01*
X0168594Y0037885D01*
X0168549Y0037919D01*
X0168502Y0037949D01*
X0168453Y0037977D01*
X0168402Y0038001D01*
X0168350Y0038022D01*
X0168297Y0038039D01*
X0168242Y0038052D01*
X0168187Y0038061D01*
X0168131Y0038067D01*
X0168075Y0038069D01*
X0166841Y0038069D01*
X0170236Y0038069D02*
X0171469Y0034369D01*
X0172702Y0038069D01*
X0172422Y0042369D02*
X0171189Y0046069D01*
X0169956Y0042369D01*
X0170264Y0043294D02*
X0172114Y0043294D01*
X0168497Y0043397D02*
X0168497Y0045041D01*
X0168495Y0045103D01*
X0168490Y0045165D01*
X0168480Y0045226D01*
X0168467Y0045287D01*
X0168450Y0045347D01*
X0168430Y0045406D01*
X0168406Y0045463D01*
X0168379Y0045519D01*
X0168349Y0045573D01*
X0168315Y0045625D01*
X0168278Y0045675D01*
X0168238Y0045723D01*
X0168196Y0045768D01*
X0168151Y0045810D01*
X0168103Y0045850D01*
X0168053Y0045887D01*
X0168001Y0045921D01*
X0167947Y0045951D01*
X0167891Y0045978D01*
X0167834Y0046002D01*
X0167775Y0046022D01*
X0167715Y0046039D01*
X0167654Y0046052D01*
X0167593Y0046062D01*
X0167531Y0046067D01*
X0167469Y0046069D01*
X0166441Y0046069D01*
X0166441Y0042369D01*
X0167469Y0042369D01*
X0167531Y0042371D01*
X0167593Y0042376D01*
X0167654Y0042386D01*
X0167715Y0042399D01*
X0167775Y0042416D01*
X0167834Y0042436D01*
X0167891Y0042460D01*
X0167947Y0042487D01*
X0168001Y0042517D01*
X0168053Y0042551D01*
X0168103Y0042588D01*
X0168151Y0042628D01*
X0168196Y0042670D01*
X0168238Y0042715D01*
X0168278Y0042763D01*
X0168315Y0042813D01*
X0168349Y0042865D01*
X0168379Y0042919D01*
X0168406Y0042975D01*
X0168430Y0043032D01*
X0168450Y0043091D01*
X0168467Y0043151D01*
X0168480Y0043212D01*
X0168490Y0043273D01*
X0168495Y0043335D01*
X0168497Y0043397D01*
X0164486Y0043911D02*
X0163355Y0044527D01*
X0163766Y0046069D02*
X0163842Y0046067D01*
X0163918Y0046061D01*
X0163994Y0046052D01*
X0164069Y0046039D01*
X0164144Y0046022D01*
X0164217Y0046001D01*
X0164290Y0045977D01*
X0164361Y0045950D01*
X0164430Y0045918D01*
X0164499Y0045884D01*
X0164565Y0045846D01*
X0164629Y0045805D01*
X0164691Y0045761D01*
X0163355Y0044528D02*
X0163309Y0044557D01*
X0163266Y0044589D01*
X0163224Y0044623D01*
X0163185Y0044661D01*
X0163148Y0044700D01*
X0163114Y0044742D01*
X0163082Y0044787D01*
X0163054Y0044833D01*
X0163029Y0044881D01*
X0163006Y0044930D01*
X0162988Y0044981D01*
X0162972Y0045033D01*
X0162960Y0045085D01*
X0162951Y0045139D01*
X0162946Y0045193D01*
X0162944Y0045247D01*
X0162946Y0045303D01*
X0162952Y0045359D01*
X0162961Y0045414D01*
X0162974Y0045469D01*
X0162991Y0045522D01*
X0163012Y0045574D01*
X0163036Y0045625D01*
X0163064Y0045674D01*
X0163094Y0045721D01*
X0163128Y0045766D01*
X0163165Y0045808D01*
X0163205Y0045848D01*
X0163247Y0045885D01*
X0163292Y0045919D01*
X0163339Y0045949D01*
X0163388Y0045977D01*
X0163439Y0046001D01*
X0163491Y0046022D01*
X0163544Y0046039D01*
X0163599Y0046052D01*
X0163654Y0046061D01*
X0163710Y0046067D01*
X0163766Y0046069D01*
X0162842Y0042883D02*
X0162900Y0042827D01*
X0162960Y0042774D01*
X0163023Y0042723D01*
X0163089Y0042676D01*
X0163156Y0042632D01*
X0163226Y0042591D01*
X0163297Y0042553D01*
X0163370Y0042519D01*
X0163444Y0042488D01*
X0163520Y0042460D01*
X0163597Y0042436D01*
X0163675Y0042416D01*
X0163754Y0042399D01*
X0163834Y0042386D01*
X0163914Y0042376D01*
X0163994Y0042371D01*
X0164075Y0042369D01*
X0164131Y0042371D01*
X0164187Y0042377D01*
X0164242Y0042386D01*
X0164297Y0042399D01*
X0164350Y0042416D01*
X0164402Y0042437D01*
X0164453Y0042461D01*
X0164502Y0042489D01*
X0164549Y0042519D01*
X0164594Y0042553D01*
X0164636Y0042590D01*
X0164676Y0042630D01*
X0164713Y0042672D01*
X0164747Y0042717D01*
X0164777Y0042764D01*
X0164805Y0042813D01*
X0164829Y0042864D01*
X0164850Y0042916D01*
X0164867Y0042969D01*
X0164880Y0043024D01*
X0164889Y0043079D01*
X0164895Y0043135D01*
X0164897Y0043191D01*
X0164895Y0043245D01*
X0164890Y0043299D01*
X0164881Y0043353D01*
X0164869Y0043405D01*
X0164853Y0043457D01*
X0164835Y0043508D01*
X0164812Y0043557D01*
X0164787Y0043605D01*
X0164759Y0043651D01*
X0164727Y0043696D01*
X0164693Y0043738D01*
X0164656Y0043777D01*
X0164617Y0043815D01*
X0164575Y0043849D01*
X0164532Y0043881D01*
X0164486Y0043910D01*
X0167133Y0051369D02*
X0167956Y0051369D01*
X0167133Y0051369D02*
X0167077Y0051371D01*
X0167021Y0051377D01*
X0166966Y0051386D01*
X0166911Y0051399D01*
X0166858Y0051416D01*
X0166806Y0051437D01*
X0166755Y0051461D01*
X0166706Y0051489D01*
X0166659Y0051519D01*
X0166614Y0051553D01*
X0166572Y0051590D01*
X0166532Y0051630D01*
X0166495Y0051672D01*
X0166461Y0051717D01*
X0166431Y0051764D01*
X0166403Y0051813D01*
X0166379Y0051864D01*
X0166358Y0051916D01*
X0166341Y0051969D01*
X0166328Y0052024D01*
X0166319Y0052079D01*
X0166313Y0052135D01*
X0166311Y0052191D01*
X0166311Y0054247D01*
X0166313Y0054303D01*
X0166319Y0054359D01*
X0166328Y0054414D01*
X0166341Y0054469D01*
X0166358Y0054522D01*
X0166379Y0054574D01*
X0166403Y0054625D01*
X0166431Y0054674D01*
X0166461Y0054721D01*
X0166495Y0054766D01*
X0166532Y0054808D01*
X0166572Y0054848D01*
X0166614Y0054885D01*
X0166659Y0054919D01*
X0166706Y0054949D01*
X0166755Y0054977D01*
X0166806Y0055001D01*
X0166858Y0055022D01*
X0166911Y0055039D01*
X0166966Y0055052D01*
X0167021Y0055061D01*
X0167077Y0055067D01*
X0167133Y0055069D01*
X0167956Y0055069D01*
X0169448Y0055069D02*
X0169448Y0051369D01*
X0171093Y0051369D01*
X0164486Y0052911D02*
X0163355Y0053527D01*
X0163766Y0055069D02*
X0163842Y0055067D01*
X0163918Y0055061D01*
X0163994Y0055052D01*
X0164069Y0055039D01*
X0164144Y0055022D01*
X0164217Y0055001D01*
X0164290Y0054977D01*
X0164361Y0054950D01*
X0164430Y0054918D01*
X0164499Y0054884D01*
X0164565Y0054846D01*
X0164629Y0054805D01*
X0164691Y0054761D01*
X0163355Y0053528D02*
X0163309Y0053557D01*
X0163266Y0053589D01*
X0163224Y0053623D01*
X0163185Y0053661D01*
X0163148Y0053700D01*
X0163114Y0053742D01*
X0163082Y0053787D01*
X0163054Y0053833D01*
X0163029Y0053881D01*
X0163006Y0053930D01*
X0162988Y0053981D01*
X0162972Y0054033D01*
X0162960Y0054085D01*
X0162951Y0054139D01*
X0162946Y0054193D01*
X0162944Y0054247D01*
X0162946Y0054303D01*
X0162952Y0054359D01*
X0162961Y0054414D01*
X0162974Y0054469D01*
X0162991Y0054522D01*
X0163012Y0054574D01*
X0163036Y0054625D01*
X0163064Y0054674D01*
X0163094Y0054721D01*
X0163128Y0054766D01*
X0163165Y0054808D01*
X0163205Y0054848D01*
X0163247Y0054885D01*
X0163292Y0054919D01*
X0163339Y0054949D01*
X0163388Y0054977D01*
X0163439Y0055001D01*
X0163491Y0055022D01*
X0163544Y0055039D01*
X0163599Y0055052D01*
X0163654Y0055061D01*
X0163710Y0055067D01*
X0163766Y0055069D01*
X0162842Y0051883D02*
X0162900Y0051827D01*
X0162960Y0051774D01*
X0163023Y0051723D01*
X0163089Y0051676D01*
X0163156Y0051632D01*
X0163226Y0051591D01*
X0163297Y0051553D01*
X0163370Y0051519D01*
X0163444Y0051488D01*
X0163520Y0051460D01*
X0163597Y0051436D01*
X0163675Y0051416D01*
X0163754Y0051399D01*
X0163834Y0051386D01*
X0163914Y0051376D01*
X0163994Y0051371D01*
X0164075Y0051369D01*
X0164131Y0051371D01*
X0164187Y0051377D01*
X0164242Y0051386D01*
X0164297Y0051399D01*
X0164350Y0051416D01*
X0164402Y0051437D01*
X0164453Y0051461D01*
X0164502Y0051489D01*
X0164549Y0051519D01*
X0164594Y0051553D01*
X0164636Y0051590D01*
X0164676Y0051630D01*
X0164713Y0051672D01*
X0164747Y0051717D01*
X0164777Y0051764D01*
X0164805Y0051813D01*
X0164829Y0051864D01*
X0164850Y0051916D01*
X0164867Y0051969D01*
X0164880Y0052024D01*
X0164889Y0052079D01*
X0164895Y0052135D01*
X0164897Y0052191D01*
X0164895Y0052245D01*
X0164890Y0052299D01*
X0164881Y0052353D01*
X0164869Y0052405D01*
X0164853Y0052457D01*
X0164835Y0052508D01*
X0164812Y0052557D01*
X0164787Y0052605D01*
X0164759Y0052651D01*
X0164727Y0052696D01*
X0164693Y0052738D01*
X0164656Y0052777D01*
X0164617Y0052815D01*
X0164575Y0052849D01*
X0164532Y0052881D01*
X0164486Y0052910D01*
X0157496Y0055550D02*
X0156468Y0055550D01*
X0156420Y0055552D01*
X0156371Y0055558D01*
X0156324Y0055567D01*
X0156277Y0055580D01*
X0156232Y0055597D01*
X0156188Y0055617D01*
X0156146Y0055641D01*
X0156105Y0055668D01*
X0156067Y0055698D01*
X0156032Y0055731D01*
X0155999Y0055766D01*
X0155969Y0055804D01*
X0155942Y0055845D01*
X0155918Y0055887D01*
X0155898Y0055931D01*
X0155881Y0055976D01*
X0155868Y0056023D01*
X0155859Y0056070D01*
X0155853Y0056119D01*
X0155851Y0056167D01*
X0155852Y0056167D02*
X0155852Y0057400D01*
X0155851Y0057400D02*
X0155853Y0057448D01*
X0155859Y0057497D01*
X0155868Y0057544D01*
X0155881Y0057591D01*
X0155898Y0057636D01*
X0155918Y0057680D01*
X0155942Y0057722D01*
X0155969Y0057763D01*
X0155999Y0057801D01*
X0156032Y0057836D01*
X0156067Y0057869D01*
X0156105Y0057899D01*
X0156146Y0057926D01*
X0156188Y0057950D01*
X0156232Y0057970D01*
X0156277Y0057987D01*
X0156324Y0058000D01*
X0156371Y0058009D01*
X0156420Y0058015D01*
X0156468Y0058017D01*
X0157496Y0058017D01*
X0157496Y0059250D02*
X0157496Y0055550D01*
X0154616Y0055550D02*
X0154568Y0055552D01*
X0154519Y0055558D01*
X0154472Y0055567D01*
X0154425Y0055580D01*
X0154380Y0055597D01*
X0154336Y0055617D01*
X0154294Y0055641D01*
X0154253Y0055668D01*
X0154215Y0055698D01*
X0154180Y0055731D01*
X0154147Y0055766D01*
X0154117Y0055804D01*
X0154090Y0055845D01*
X0154066Y0055887D01*
X0154046Y0055931D01*
X0154029Y0055976D01*
X0154016Y0056023D01*
X0154007Y0056070D01*
X0154001Y0056119D01*
X0153999Y0056167D01*
X0153999Y0059250D01*
X0152474Y0057194D02*
X0152474Y0056783D01*
X0150830Y0056783D01*
X0150830Y0057194D02*
X0150830Y0056167D01*
X0150832Y0056119D01*
X0150838Y0056070D01*
X0150847Y0056023D01*
X0150860Y0055976D01*
X0150877Y0055931D01*
X0150897Y0055887D01*
X0150921Y0055845D01*
X0150948Y0055804D01*
X0150978Y0055766D01*
X0151011Y0055731D01*
X0151046Y0055698D01*
X0151084Y0055668D01*
X0151125Y0055641D01*
X0151167Y0055617D01*
X0151211Y0055597D01*
X0151256Y0055580D01*
X0151303Y0055567D01*
X0151350Y0055558D01*
X0151399Y0055552D01*
X0151447Y0055550D01*
X0152474Y0055550D01*
X0152474Y0057194D02*
X0152472Y0057250D01*
X0152466Y0057306D01*
X0152457Y0057361D01*
X0152444Y0057416D01*
X0152427Y0057469D01*
X0152406Y0057521D01*
X0152382Y0057572D01*
X0152354Y0057621D01*
X0152324Y0057668D01*
X0152290Y0057713D01*
X0152253Y0057755D01*
X0152213Y0057795D01*
X0152171Y0057832D01*
X0152126Y0057866D01*
X0152079Y0057896D01*
X0152030Y0057924D01*
X0151979Y0057948D01*
X0151927Y0057969D01*
X0151874Y0057986D01*
X0151819Y0057999D01*
X0151764Y0058008D01*
X0151708Y0058014D01*
X0151652Y0058016D01*
X0151596Y0058014D01*
X0151540Y0058008D01*
X0151485Y0057999D01*
X0151430Y0057986D01*
X0151377Y0057969D01*
X0151325Y0057948D01*
X0151274Y0057924D01*
X0151225Y0057896D01*
X0151178Y0057866D01*
X0151133Y0057832D01*
X0151091Y0057795D01*
X0151051Y0057755D01*
X0151014Y0057713D01*
X0150980Y0057668D01*
X0150950Y0057621D01*
X0150922Y0057572D01*
X0150898Y0057521D01*
X0150877Y0057469D01*
X0150860Y0057416D01*
X0150847Y0057361D01*
X0150838Y0057306D01*
X0150832Y0057250D01*
X0150830Y0057194D01*
X0149372Y0058017D02*
X0149372Y0055550D01*
X0147794Y0055550D02*
X0147794Y0057400D01*
X0147795Y0057400D02*
X0147793Y0057448D01*
X0147787Y0057497D01*
X0147778Y0057544D01*
X0147765Y0057591D01*
X0147748Y0057636D01*
X0147728Y0057680D01*
X0147704Y0057722D01*
X0147677Y0057763D01*
X0147647Y0057801D01*
X0147614Y0057836D01*
X0147579Y0057869D01*
X0147541Y0057899D01*
X0147500Y0057926D01*
X0147458Y0057950D01*
X0147414Y0057970D01*
X0147369Y0057987D01*
X0147322Y0058000D01*
X0147275Y0058009D01*
X0147226Y0058015D01*
X0147178Y0058017D01*
X0146150Y0058017D01*
X0146150Y0059250D02*
X0146150Y0055550D01*
X0144229Y0057092D02*
X0143098Y0057708D01*
X0143509Y0059250D02*
X0143585Y0059248D01*
X0143661Y0059242D01*
X0143737Y0059233D01*
X0143812Y0059220D01*
X0143887Y0059203D01*
X0143960Y0059182D01*
X0144033Y0059158D01*
X0144104Y0059131D01*
X0144173Y0059099D01*
X0144242Y0059065D01*
X0144308Y0059027D01*
X0144372Y0058986D01*
X0144434Y0058942D01*
X0143098Y0057709D02*
X0143052Y0057738D01*
X0143009Y0057770D01*
X0142967Y0057804D01*
X0142928Y0057842D01*
X0142891Y0057881D01*
X0142857Y0057923D01*
X0142825Y0057968D01*
X0142797Y0058014D01*
X0142772Y0058062D01*
X0142749Y0058111D01*
X0142731Y0058162D01*
X0142715Y0058214D01*
X0142703Y0058266D01*
X0142694Y0058320D01*
X0142689Y0058374D01*
X0142687Y0058428D01*
X0142689Y0058484D01*
X0142695Y0058540D01*
X0142704Y0058595D01*
X0142717Y0058650D01*
X0142734Y0058703D01*
X0142755Y0058755D01*
X0142779Y0058806D01*
X0142807Y0058855D01*
X0142837Y0058902D01*
X0142871Y0058947D01*
X0142908Y0058989D01*
X0142948Y0059029D01*
X0142990Y0059066D01*
X0143035Y0059100D01*
X0143082Y0059130D01*
X0143131Y0059158D01*
X0143182Y0059182D01*
X0143234Y0059203D01*
X0143287Y0059220D01*
X0143342Y0059233D01*
X0143397Y0059242D01*
X0143453Y0059248D01*
X0143509Y0059250D01*
X0142585Y0056064D02*
X0142643Y0056008D01*
X0142703Y0055955D01*
X0142766Y0055904D01*
X0142832Y0055857D01*
X0142899Y0055813D01*
X0142969Y0055772D01*
X0143040Y0055734D01*
X0143113Y0055700D01*
X0143187Y0055669D01*
X0143263Y0055641D01*
X0143340Y0055617D01*
X0143418Y0055597D01*
X0143497Y0055580D01*
X0143577Y0055567D01*
X0143657Y0055557D01*
X0143737Y0055552D01*
X0143818Y0055550D01*
X0143874Y0055552D01*
X0143930Y0055558D01*
X0143985Y0055567D01*
X0144040Y0055580D01*
X0144093Y0055597D01*
X0144145Y0055618D01*
X0144196Y0055642D01*
X0144245Y0055670D01*
X0144292Y0055700D01*
X0144337Y0055734D01*
X0144379Y0055771D01*
X0144419Y0055811D01*
X0144456Y0055853D01*
X0144490Y0055898D01*
X0144520Y0055945D01*
X0144548Y0055994D01*
X0144572Y0056045D01*
X0144593Y0056097D01*
X0144610Y0056150D01*
X0144623Y0056205D01*
X0144632Y0056260D01*
X0144638Y0056316D01*
X0144640Y0056372D01*
X0144638Y0056426D01*
X0144633Y0056480D01*
X0144624Y0056534D01*
X0144612Y0056586D01*
X0144596Y0056638D01*
X0144578Y0056689D01*
X0144555Y0056738D01*
X0144530Y0056786D01*
X0144502Y0056832D01*
X0144470Y0056877D01*
X0144436Y0056919D01*
X0144399Y0056958D01*
X0144360Y0056996D01*
X0144318Y0057030D01*
X0144275Y0057062D01*
X0144229Y0057091D01*
X0149269Y0059044D02*
X0149475Y0059044D01*
X0149475Y0059250D01*
X0149269Y0059250D01*
X0149269Y0059044D01*
X0149183Y0061550D02*
X0148361Y0061550D01*
X0148772Y0061550D02*
X0148772Y0065250D01*
X0148361Y0065250D02*
X0149183Y0065250D01*
X0150590Y0063194D02*
X0150590Y0062372D01*
X0150592Y0062316D01*
X0150598Y0062260D01*
X0150607Y0062205D01*
X0150620Y0062150D01*
X0150637Y0062097D01*
X0150658Y0062045D01*
X0150682Y0061994D01*
X0150710Y0061945D01*
X0150740Y0061898D01*
X0150774Y0061853D01*
X0150811Y0061811D01*
X0150851Y0061771D01*
X0150893Y0061734D01*
X0150938Y0061700D01*
X0150985Y0061670D01*
X0151034Y0061642D01*
X0151085Y0061618D01*
X0151137Y0061597D01*
X0151190Y0061580D01*
X0151245Y0061567D01*
X0151300Y0061558D01*
X0151356Y0061552D01*
X0151412Y0061550D01*
X0151468Y0061552D01*
X0151524Y0061558D01*
X0151579Y0061567D01*
X0151634Y0061580D01*
X0151687Y0061597D01*
X0151739Y0061618D01*
X0151790Y0061642D01*
X0151839Y0061670D01*
X0151886Y0061700D01*
X0151931Y0061734D01*
X0151973Y0061771D01*
X0152013Y0061811D01*
X0152050Y0061853D01*
X0152084Y0061898D01*
X0152114Y0061945D01*
X0152142Y0061994D01*
X0152166Y0062045D01*
X0152187Y0062097D01*
X0152204Y0062150D01*
X0152217Y0062205D01*
X0152226Y0062260D01*
X0152232Y0062316D01*
X0152234Y0062372D01*
X0152234Y0063194D01*
X0152232Y0063250D01*
X0152226Y0063306D01*
X0152217Y0063361D01*
X0152204Y0063416D01*
X0152187Y0063469D01*
X0152166Y0063521D01*
X0152142Y0063572D01*
X0152114Y0063621D01*
X0152084Y0063668D01*
X0152050Y0063713D01*
X0152013Y0063755D01*
X0151973Y0063795D01*
X0151931Y0063832D01*
X0151886Y0063866D01*
X0151839Y0063896D01*
X0151790Y0063924D01*
X0151739Y0063948D01*
X0151687Y0063969D01*
X0151634Y0063986D01*
X0151579Y0063999D01*
X0151524Y0064008D01*
X0151468Y0064014D01*
X0151412Y0064016D01*
X0151356Y0064014D01*
X0151300Y0064008D01*
X0151245Y0063999D01*
X0151190Y0063986D01*
X0151137Y0063969D01*
X0151085Y0063948D01*
X0151034Y0063924D01*
X0150985Y0063896D01*
X0150938Y0063866D01*
X0150893Y0063832D01*
X0150851Y0063795D01*
X0150811Y0063755D01*
X0150774Y0063713D01*
X0150740Y0063668D01*
X0150710Y0063621D01*
X0150682Y0063572D01*
X0150658Y0063521D01*
X0150637Y0063469D01*
X0150620Y0063416D01*
X0150607Y0063361D01*
X0150598Y0063306D01*
X0150592Y0063250D01*
X0150590Y0063194D01*
X0153504Y0065250D02*
X0155560Y0065250D01*
X0154532Y0065250D02*
X0154532Y0061550D01*
X0146885Y0062989D02*
X0144419Y0062989D01*
X0141984Y0063606D02*
X0142047Y0063604D01*
X0142110Y0063598D01*
X0142173Y0063588D01*
X0142235Y0063575D01*
X0142296Y0063558D01*
X0142355Y0063537D01*
X0142414Y0063512D01*
X0142470Y0063484D01*
X0142525Y0063452D01*
X0142578Y0063417D01*
X0142628Y0063379D01*
X0142677Y0063338D01*
X0142722Y0063294D01*
X0142765Y0063247D01*
X0142804Y0063198D01*
X0142841Y0063146D01*
X0142874Y0063092D01*
X0142904Y0063036D01*
X0142931Y0062979D01*
X0142954Y0062920D01*
X0142973Y0062859D01*
X0142988Y0062798D01*
X0143000Y0062736D01*
X0143008Y0062673D01*
X0143012Y0062610D01*
X0143012Y0062546D01*
X0143008Y0062483D01*
X0143000Y0062420D01*
X0142988Y0062358D01*
X0142973Y0062297D01*
X0142954Y0062236D01*
X0142931Y0062177D01*
X0142904Y0062120D01*
X0142874Y0062064D01*
X0142841Y0062010D01*
X0142804Y0061958D01*
X0142765Y0061909D01*
X0142722Y0061862D01*
X0142677Y0061818D01*
X0142628Y0061777D01*
X0142578Y0061739D01*
X0142525Y0061704D01*
X0142470Y0061672D01*
X0142414Y0061644D01*
X0142355Y0061619D01*
X0142296Y0061598D01*
X0142235Y0061581D01*
X0142173Y0061568D01*
X0142110Y0061558D01*
X0142047Y0061552D01*
X0141984Y0061550D01*
X0140956Y0061550D01*
X0140956Y0065250D01*
X0141984Y0065250D01*
X0142040Y0065248D01*
X0142096Y0065242D01*
X0142151Y0065233D01*
X0142206Y0065220D01*
X0142259Y0065203D01*
X0142311Y0065182D01*
X0142362Y0065158D01*
X0142411Y0065130D01*
X0142458Y0065100D01*
X0142503Y0065066D01*
X0142545Y0065029D01*
X0142585Y0064989D01*
X0142622Y0064947D01*
X0142656Y0064902D01*
X0142686Y0064855D01*
X0142714Y0064806D01*
X0142738Y0064755D01*
X0142759Y0064703D01*
X0142776Y0064650D01*
X0142789Y0064595D01*
X0142798Y0064540D01*
X0142804Y0064484D01*
X0142806Y0064428D01*
X0142804Y0064372D01*
X0142798Y0064316D01*
X0142789Y0064261D01*
X0142776Y0064206D01*
X0142759Y0064153D01*
X0142738Y0064101D01*
X0142714Y0064050D01*
X0142686Y0064001D01*
X0142656Y0063954D01*
X0142622Y0063909D01*
X0142585Y0063867D01*
X0142545Y0063827D01*
X0142503Y0063790D01*
X0142458Y0063756D01*
X0142411Y0063726D01*
X0142362Y0063698D01*
X0142311Y0063674D01*
X0142259Y0063653D01*
X0142206Y0063636D01*
X0142151Y0063623D01*
X0142096Y0063614D01*
X0142040Y0063608D01*
X0141984Y0063606D01*
X0140956Y0063606D01*
X0139120Y0065250D02*
X0139120Y0061550D01*
X0137064Y0065250D01*
X0137064Y0061550D01*
X0135715Y0068010D02*
X0134892Y0068010D01*
X0135715Y0068009D02*
X0135763Y0068011D01*
X0135812Y0068017D01*
X0135859Y0068026D01*
X0135906Y0068039D01*
X0135951Y0068056D01*
X0135995Y0068076D01*
X0136037Y0068100D01*
X0136078Y0068127D01*
X0136116Y0068157D01*
X0136151Y0068190D01*
X0136184Y0068225D01*
X0136214Y0068263D01*
X0136241Y0068304D01*
X0136265Y0068346D01*
X0136285Y0068390D01*
X0136302Y0068435D01*
X0136315Y0068482D01*
X0136324Y0068529D01*
X0136330Y0068578D01*
X0136332Y0068626D01*
X0136331Y0068626D02*
X0136331Y0071710D01*
X0135303Y0071710D01*
X0135255Y0071708D01*
X0135206Y0071702D01*
X0135159Y0071693D01*
X0135112Y0071680D01*
X0135067Y0071663D01*
X0135023Y0071643D01*
X0134981Y0071619D01*
X0134940Y0071592D01*
X0134902Y0071562D01*
X0134867Y0071529D01*
X0134834Y0071494D01*
X0134804Y0071456D01*
X0134777Y0071415D01*
X0134753Y0071373D01*
X0134733Y0071329D01*
X0134716Y0071284D01*
X0134703Y0071237D01*
X0134694Y0071190D01*
X0134688Y0071141D01*
X0134686Y0071093D01*
X0134687Y0071093D02*
X0134687Y0069860D01*
X0134686Y0069860D02*
X0134688Y0069812D01*
X0134694Y0069763D01*
X0134703Y0069716D01*
X0134716Y0069669D01*
X0134733Y0069624D01*
X0134753Y0069580D01*
X0134777Y0069538D01*
X0134804Y0069497D01*
X0134834Y0069459D01*
X0134867Y0069424D01*
X0134902Y0069391D01*
X0134940Y0069361D01*
X0134981Y0069334D01*
X0135023Y0069310D01*
X0135067Y0069290D01*
X0135112Y0069273D01*
X0135159Y0069260D01*
X0135206Y0069251D01*
X0135255Y0069245D01*
X0135303Y0069243D01*
X0136331Y0069243D01*
X0138106Y0069243D02*
X0138106Y0072943D01*
X0139751Y0072943D01*
X0139751Y0071298D02*
X0138106Y0071298D01*
X0141065Y0070887D02*
X0141065Y0070065D01*
X0141067Y0070009D01*
X0141073Y0069953D01*
X0141082Y0069898D01*
X0141095Y0069843D01*
X0141112Y0069790D01*
X0141133Y0069738D01*
X0141157Y0069687D01*
X0141185Y0069638D01*
X0141215Y0069591D01*
X0141249Y0069546D01*
X0141286Y0069504D01*
X0141326Y0069464D01*
X0141368Y0069427D01*
X0141413Y0069393D01*
X0141460Y0069363D01*
X0141509Y0069335D01*
X0141560Y0069311D01*
X0141612Y0069290D01*
X0141665Y0069273D01*
X0141720Y0069260D01*
X0141775Y0069251D01*
X0141831Y0069245D01*
X0141887Y0069243D01*
X0141943Y0069245D01*
X0141999Y0069251D01*
X0142054Y0069260D01*
X0142109Y0069273D01*
X0142162Y0069290D01*
X0142214Y0069311D01*
X0142265Y0069335D01*
X0142314Y0069363D01*
X0142361Y0069393D01*
X0142406Y0069427D01*
X0142448Y0069464D01*
X0142488Y0069504D01*
X0142525Y0069546D01*
X0142559Y0069591D01*
X0142589Y0069638D01*
X0142617Y0069687D01*
X0142641Y0069738D01*
X0142662Y0069790D01*
X0142679Y0069843D01*
X0142692Y0069898D01*
X0142701Y0069953D01*
X0142707Y0070009D01*
X0142709Y0070065D01*
X0142709Y0070887D01*
X0142707Y0070943D01*
X0142701Y0070999D01*
X0142692Y0071054D01*
X0142679Y0071109D01*
X0142662Y0071162D01*
X0142641Y0071214D01*
X0142617Y0071265D01*
X0142589Y0071314D01*
X0142559Y0071361D01*
X0142525Y0071406D01*
X0142488Y0071448D01*
X0142448Y0071488D01*
X0142406Y0071525D01*
X0142361Y0071559D01*
X0142314Y0071589D01*
X0142265Y0071617D01*
X0142214Y0071641D01*
X0142162Y0071662D01*
X0142109Y0071679D01*
X0142054Y0071692D01*
X0141999Y0071701D01*
X0141943Y0071707D01*
X0141887Y0071709D01*
X0141831Y0071707D01*
X0141775Y0071701D01*
X0141720Y0071692D01*
X0141665Y0071679D01*
X0141612Y0071662D01*
X0141560Y0071641D01*
X0141509Y0071617D01*
X0141460Y0071589D01*
X0141413Y0071559D01*
X0141368Y0071525D01*
X0141326Y0071488D01*
X0141286Y0071448D01*
X0141249Y0071406D01*
X0141215Y0071361D01*
X0141185Y0071314D01*
X0141157Y0071265D01*
X0141133Y0071214D01*
X0141112Y0071162D01*
X0141095Y0071109D01*
X0141082Y0071054D01*
X0141073Y0070999D01*
X0141067Y0070943D01*
X0141065Y0070887D01*
X0144325Y0071710D02*
X0144325Y0069243D01*
X0147270Y0069243D02*
X0147887Y0070887D01*
X0148504Y0069243D01*
X0149120Y0071710D01*
X0150732Y0071710D02*
X0151555Y0071710D01*
X0151603Y0071708D01*
X0151652Y0071702D01*
X0151699Y0071693D01*
X0151746Y0071680D01*
X0151791Y0071663D01*
X0151835Y0071643D01*
X0151877Y0071619D01*
X0151918Y0071592D01*
X0151956Y0071562D01*
X0151991Y0071529D01*
X0152024Y0071494D01*
X0152054Y0071456D01*
X0152081Y0071415D01*
X0152105Y0071373D01*
X0152125Y0071329D01*
X0152142Y0071284D01*
X0152155Y0071237D01*
X0152164Y0071190D01*
X0152170Y0071141D01*
X0152172Y0071093D01*
X0152171Y0071093D02*
X0152171Y0069243D01*
X0151246Y0069243D01*
X0151194Y0069245D01*
X0151141Y0069251D01*
X0151090Y0069260D01*
X0151039Y0069273D01*
X0150989Y0069290D01*
X0150941Y0069311D01*
X0150894Y0069335D01*
X0150849Y0069362D01*
X0150807Y0069393D01*
X0150766Y0069427D01*
X0150728Y0069463D01*
X0150693Y0069502D01*
X0150661Y0069544D01*
X0150632Y0069587D01*
X0150607Y0069633D01*
X0150584Y0069681D01*
X0150566Y0069730D01*
X0150550Y0069780D01*
X0150539Y0069831D01*
X0150531Y0069883D01*
X0150527Y0069936D01*
X0150527Y0069988D01*
X0150531Y0070041D01*
X0150539Y0070093D01*
X0150550Y0070144D01*
X0150566Y0070194D01*
X0150584Y0070243D01*
X0150607Y0070291D01*
X0150632Y0070337D01*
X0150661Y0070380D01*
X0150693Y0070422D01*
X0150728Y0070461D01*
X0150766Y0070497D01*
X0150807Y0070531D01*
X0150849Y0070562D01*
X0150894Y0070589D01*
X0150941Y0070613D01*
X0150989Y0070634D01*
X0151039Y0070651D01*
X0151090Y0070664D01*
X0151141Y0070673D01*
X0151194Y0070679D01*
X0151246Y0070681D01*
X0151246Y0070682D02*
X0152171Y0070682D01*
X0153925Y0071710D02*
X0155158Y0071710D01*
X0155158Y0071298D01*
X0156287Y0071093D02*
X0156287Y0069860D01*
X0156286Y0069860D02*
X0156288Y0069812D01*
X0156294Y0069763D01*
X0156303Y0069716D01*
X0156316Y0069669D01*
X0156333Y0069624D01*
X0156353Y0069580D01*
X0156377Y0069538D01*
X0156404Y0069497D01*
X0156434Y0069459D01*
X0156467Y0069424D01*
X0156502Y0069391D01*
X0156540Y0069361D01*
X0156581Y0069334D01*
X0156623Y0069310D01*
X0156667Y0069290D01*
X0156712Y0069273D01*
X0156759Y0069260D01*
X0156806Y0069251D01*
X0156855Y0069245D01*
X0156903Y0069243D01*
X0157931Y0069243D01*
X0157931Y0072943D01*
X0157931Y0071710D02*
X0156903Y0071710D01*
X0156855Y0071708D01*
X0156806Y0071702D01*
X0156759Y0071693D01*
X0156712Y0071680D01*
X0156667Y0071663D01*
X0156623Y0071643D01*
X0156581Y0071619D01*
X0156540Y0071592D01*
X0156502Y0071562D01*
X0156467Y0071529D01*
X0156434Y0071494D01*
X0156404Y0071456D01*
X0156377Y0071415D01*
X0156353Y0071373D01*
X0156333Y0071329D01*
X0156316Y0071284D01*
X0156303Y0071237D01*
X0156294Y0071190D01*
X0156288Y0071141D01*
X0156286Y0071093D01*
X0153925Y0071710D02*
X0153925Y0069243D01*
X0147270Y0069243D02*
X0146654Y0071710D01*
X0145558Y0071710D02*
X0145558Y0071298D01*
X0145558Y0071710D02*
X0144325Y0071710D01*
X0133109Y0071093D02*
X0133109Y0069243D01*
X0131465Y0069243D02*
X0131465Y0071710D01*
X0132493Y0071710D01*
X0132541Y0071708D01*
X0132590Y0071702D01*
X0132637Y0071693D01*
X0132684Y0071680D01*
X0132729Y0071663D01*
X0132773Y0071643D01*
X0132815Y0071619D01*
X0132856Y0071592D01*
X0132894Y0071562D01*
X0132929Y0071529D01*
X0132962Y0071494D01*
X0132992Y0071456D01*
X0133019Y0071415D01*
X0133043Y0071373D01*
X0133063Y0071329D01*
X0133080Y0071284D01*
X0133093Y0071237D01*
X0133102Y0071190D01*
X0133108Y0071141D01*
X0133110Y0071093D01*
X0129887Y0071710D02*
X0129887Y0069243D01*
X0128309Y0069243D02*
X0128309Y0071093D01*
X0128310Y0071093D02*
X0128308Y0071141D01*
X0128302Y0071190D01*
X0128293Y0071237D01*
X0128280Y0071284D01*
X0128263Y0071329D01*
X0128243Y0071373D01*
X0128219Y0071415D01*
X0128192Y0071456D01*
X0128162Y0071494D01*
X0128129Y0071529D01*
X0128094Y0071562D01*
X0128056Y0071592D01*
X0128015Y0071619D01*
X0127973Y0071643D01*
X0127929Y0071663D01*
X0127884Y0071680D01*
X0127837Y0071693D01*
X0127790Y0071702D01*
X0127741Y0071708D01*
X0127693Y0071710D01*
X0126665Y0071710D01*
X0126665Y0072943D02*
X0126665Y0069243D01*
X0124247Y0069243D02*
X0124247Y0072943D01*
X0123219Y0072943D02*
X0125275Y0072943D01*
X0129784Y0072943D02*
X0129990Y0072943D01*
X0129990Y0072737D01*
X0129784Y0072737D01*
X0129784Y0072943D01*
X0124607Y0079252D02*
X0122885Y0079252D01*
X0123746Y0079252D02*
X0123746Y0082352D01*
X0122885Y0081663D01*
X0127668Y0080802D02*
X0127666Y0080705D01*
X0127661Y0080609D01*
X0127652Y0080513D01*
X0127639Y0080417D01*
X0127623Y0080322D01*
X0127603Y0080227D01*
X0127579Y0080134D01*
X0127552Y0080041D01*
X0127522Y0079949D01*
X0127488Y0079859D01*
X0127450Y0079770D01*
X0127410Y0079682D01*
X0127409Y0079683D02*
X0127391Y0079637D01*
X0127369Y0079593D01*
X0127345Y0079550D01*
X0127317Y0079509D01*
X0127286Y0079471D01*
X0127252Y0079435D01*
X0127215Y0079402D01*
X0127176Y0079372D01*
X0127135Y0079345D01*
X0127092Y0079321D01*
X0127047Y0079300D01*
X0127000Y0079283D01*
X0126953Y0079270D01*
X0126904Y0079261D01*
X0126855Y0079255D01*
X0126806Y0079253D01*
X0126757Y0079255D01*
X0126708Y0079261D01*
X0126659Y0079270D01*
X0126612Y0079283D01*
X0126565Y0079300D01*
X0126520Y0079321D01*
X0126477Y0079345D01*
X0126436Y0079372D01*
X0126397Y0079402D01*
X0126360Y0079435D01*
X0126326Y0079471D01*
X0126295Y0079509D01*
X0126267Y0079550D01*
X0126243Y0079593D01*
X0126221Y0079637D01*
X0126203Y0079683D01*
X0126117Y0079941D02*
X0127495Y0081663D01*
X0127409Y0081922D02*
X0127391Y0081968D01*
X0127369Y0082012D01*
X0127345Y0082055D01*
X0127317Y0082096D01*
X0127286Y0082134D01*
X0127252Y0082170D01*
X0127215Y0082203D01*
X0127176Y0082233D01*
X0127135Y0082260D01*
X0127092Y0082284D01*
X0127047Y0082305D01*
X0127000Y0082322D01*
X0126953Y0082335D01*
X0126904Y0082344D01*
X0126855Y0082350D01*
X0126806Y0082352D01*
X0126757Y0082350D01*
X0126708Y0082344D01*
X0126659Y0082335D01*
X0126612Y0082322D01*
X0126565Y0082305D01*
X0126520Y0082284D01*
X0126477Y0082260D01*
X0126436Y0082233D01*
X0126397Y0082203D01*
X0126360Y0082170D01*
X0126326Y0082134D01*
X0126295Y0082096D01*
X0126267Y0082055D01*
X0126243Y0082012D01*
X0126221Y0081968D01*
X0126203Y0081922D01*
X0127410Y0081922D02*
X0127450Y0081834D01*
X0127488Y0081745D01*
X0127522Y0081655D01*
X0127552Y0081563D01*
X0127579Y0081470D01*
X0127603Y0081377D01*
X0127622Y0081282D01*
X0127639Y0081187D01*
X0127652Y0081091D01*
X0127661Y0080995D01*
X0127666Y0080899D01*
X0127668Y0080802D01*
X0125945Y0080802D02*
X0125947Y0080899D01*
X0125952Y0080995D01*
X0125961Y0081091D01*
X0125974Y0081187D01*
X0125990Y0081282D01*
X0126010Y0081377D01*
X0126034Y0081470D01*
X0126061Y0081563D01*
X0126091Y0081655D01*
X0126125Y0081745D01*
X0126163Y0081834D01*
X0126203Y0081922D01*
X0125945Y0080802D02*
X0125947Y0080705D01*
X0125952Y0080609D01*
X0125961Y0080513D01*
X0125974Y0080417D01*
X0125990Y0080322D01*
X0126010Y0080227D01*
X0126034Y0080134D01*
X0126061Y0080041D01*
X0126091Y0079949D01*
X0126125Y0079859D01*
X0126163Y0079770D01*
X0126203Y0079682D01*
X0117825Y0079252D02*
X0116103Y0079252D01*
X0116964Y0079252D02*
X0116964Y0082352D01*
X0116103Y0081663D01*
X0113904Y0082352D02*
X0113904Y0079252D01*
X0113043Y0079252D02*
X0114765Y0079252D01*
X0113043Y0081663D02*
X0113904Y0082352D01*
X0107724Y0080975D02*
X0106260Y0079252D01*
X0107982Y0079252D01*
X0106259Y0081664D02*
X0106280Y0081720D01*
X0106303Y0081775D01*
X0106330Y0081828D01*
X0106359Y0081880D01*
X0106392Y0081930D01*
X0106428Y0081977D01*
X0106466Y0082023D01*
X0106508Y0082066D01*
X0106551Y0082107D01*
X0106597Y0082145D01*
X0106646Y0082180D01*
X0106696Y0082212D01*
X0106748Y0082241D01*
X0106802Y0082267D01*
X0106857Y0082289D01*
X0106913Y0082309D01*
X0106971Y0082325D01*
X0107029Y0082337D01*
X0107088Y0082346D01*
X0107147Y0082351D01*
X0107207Y0082353D01*
X0107207Y0082352D02*
X0107262Y0082350D01*
X0107317Y0082344D01*
X0107372Y0082334D01*
X0107425Y0082321D01*
X0107478Y0082303D01*
X0107529Y0082282D01*
X0107578Y0082257D01*
X0107626Y0082229D01*
X0107671Y0082197D01*
X0107715Y0082163D01*
X0107755Y0082125D01*
X0107793Y0082085D01*
X0107827Y0082041D01*
X0107859Y0081996D01*
X0107887Y0081948D01*
X0107912Y0081899D01*
X0107933Y0081848D01*
X0107951Y0081795D01*
X0107964Y0081742D01*
X0107974Y0081687D01*
X0107980Y0081632D01*
X0107982Y0081577D01*
X0107980Y0081521D01*
X0107974Y0081465D01*
X0107965Y0081410D01*
X0107952Y0081355D01*
X0107935Y0081302D01*
X0107915Y0081249D01*
X0107891Y0081198D01*
X0107864Y0081149D01*
X0107833Y0081102D01*
X0107800Y0081057D01*
X0107763Y0081015D01*
X0107724Y0080975D01*
X0104922Y0079252D02*
X0103200Y0079252D01*
X0104061Y0079252D02*
X0104061Y0082352D01*
X0103200Y0081663D01*
X0097451Y0080974D02*
X0097502Y0080976D01*
X0097554Y0080982D01*
X0097604Y0080991D01*
X0097654Y0081005D01*
X0097703Y0081022D01*
X0097750Y0081042D01*
X0097796Y0081066D01*
X0097839Y0081094D01*
X0097881Y0081124D01*
X0097920Y0081158D01*
X0097956Y0081194D01*
X0097990Y0081233D01*
X0098020Y0081275D01*
X0098048Y0081319D01*
X0098072Y0081364D01*
X0098092Y0081411D01*
X0098109Y0081460D01*
X0098123Y0081510D01*
X0098132Y0081560D01*
X0098138Y0081612D01*
X0098140Y0081663D01*
X0098138Y0081714D01*
X0098132Y0081766D01*
X0098123Y0081816D01*
X0098109Y0081866D01*
X0098092Y0081915D01*
X0098072Y0081962D01*
X0098048Y0082008D01*
X0098020Y0082051D01*
X0097990Y0082093D01*
X0097956Y0082132D01*
X0097920Y0082168D01*
X0097881Y0082202D01*
X0097839Y0082232D01*
X0097796Y0082260D01*
X0097750Y0082284D01*
X0097703Y0082304D01*
X0097654Y0082321D01*
X0097604Y0082335D01*
X0097554Y0082344D01*
X0097502Y0082350D01*
X0097451Y0082352D01*
X0096418Y0082352D01*
X0096762Y0080975D02*
X0097451Y0080975D01*
X0097279Y0080974D02*
X0097337Y0080972D01*
X0097394Y0080966D01*
X0097450Y0080957D01*
X0097506Y0080943D01*
X0097561Y0080926D01*
X0097615Y0080906D01*
X0097667Y0080881D01*
X0097718Y0080854D01*
X0097766Y0080823D01*
X0097813Y0080789D01*
X0097857Y0080752D01*
X0097898Y0080712D01*
X0097937Y0080669D01*
X0097972Y0080624D01*
X0098005Y0080576D01*
X0098034Y0080527D01*
X0098060Y0080475D01*
X0098082Y0080422D01*
X0098101Y0080368D01*
X0098117Y0080313D01*
X0098128Y0080256D01*
X0098136Y0080199D01*
X0098140Y0080142D01*
X0098140Y0080084D01*
X0098136Y0080027D01*
X0098128Y0079970D01*
X0098117Y0079913D01*
X0098101Y0079858D01*
X0098082Y0079804D01*
X0098060Y0079751D01*
X0098034Y0079699D01*
X0098005Y0079650D01*
X0097972Y0079602D01*
X0097937Y0079557D01*
X0097898Y0079514D01*
X0097857Y0079474D01*
X0097813Y0079437D01*
X0097766Y0079403D01*
X0097718Y0079372D01*
X0097667Y0079345D01*
X0097615Y0079320D01*
X0097561Y0079300D01*
X0097506Y0079283D01*
X0097450Y0079269D01*
X0097394Y0079260D01*
X0097337Y0079254D01*
X0097279Y0079252D01*
X0096418Y0079252D01*
X0095080Y0079252D02*
X0093358Y0079252D01*
X0094219Y0079252D02*
X0094219Y0082352D01*
X0093358Y0081663D01*
X0089405Y0080974D02*
X0089456Y0080976D01*
X0089508Y0080982D01*
X0089558Y0080991D01*
X0089608Y0081005D01*
X0089657Y0081022D01*
X0089704Y0081042D01*
X0089750Y0081066D01*
X0089793Y0081094D01*
X0089835Y0081124D01*
X0089874Y0081158D01*
X0089910Y0081194D01*
X0089944Y0081233D01*
X0089974Y0081275D01*
X0090002Y0081319D01*
X0090026Y0081364D01*
X0090046Y0081411D01*
X0090063Y0081460D01*
X0090077Y0081510D01*
X0090086Y0081560D01*
X0090092Y0081612D01*
X0090094Y0081663D01*
X0090092Y0081714D01*
X0090086Y0081766D01*
X0090077Y0081816D01*
X0090063Y0081866D01*
X0090046Y0081915D01*
X0090026Y0081962D01*
X0090002Y0082008D01*
X0089974Y0082051D01*
X0089944Y0082093D01*
X0089910Y0082132D01*
X0089874Y0082168D01*
X0089835Y0082202D01*
X0089793Y0082232D01*
X0089750Y0082260D01*
X0089704Y0082284D01*
X0089657Y0082304D01*
X0089608Y0082321D01*
X0089558Y0082335D01*
X0089508Y0082344D01*
X0089456Y0082350D01*
X0089405Y0082352D01*
X0088544Y0082352D01*
X0088544Y0079252D01*
X0089405Y0079252D01*
X0089463Y0079254D01*
X0089520Y0079260D01*
X0089576Y0079269D01*
X0089632Y0079283D01*
X0089687Y0079300D01*
X0089741Y0079320D01*
X0089793Y0079345D01*
X0089844Y0079372D01*
X0089892Y0079403D01*
X0089939Y0079437D01*
X0089983Y0079474D01*
X0090024Y0079514D01*
X0090063Y0079557D01*
X0090098Y0079602D01*
X0090131Y0079650D01*
X0090160Y0079699D01*
X0090186Y0079751D01*
X0090208Y0079804D01*
X0090227Y0079858D01*
X0090243Y0079913D01*
X0090254Y0079970D01*
X0090262Y0080027D01*
X0090266Y0080084D01*
X0090266Y0080142D01*
X0090262Y0080199D01*
X0090254Y0080256D01*
X0090243Y0080313D01*
X0090227Y0080368D01*
X0090208Y0080422D01*
X0090186Y0080475D01*
X0090160Y0080527D01*
X0090131Y0080576D01*
X0090098Y0080624D01*
X0090063Y0080669D01*
X0090024Y0080712D01*
X0089983Y0080752D01*
X0089939Y0080789D01*
X0089892Y0080823D01*
X0089844Y0080854D01*
X0089793Y0080881D01*
X0089741Y0080906D01*
X0089687Y0080926D01*
X0089632Y0080943D01*
X0089576Y0080957D01*
X0089520Y0080966D01*
X0089463Y0080972D01*
X0089405Y0080974D01*
X0089405Y0080975D02*
X0088544Y0080975D01*
X0086814Y0080544D02*
X0085866Y0081061D01*
X0086211Y0082353D02*
X0086280Y0082351D01*
X0086349Y0082346D01*
X0086418Y0082336D01*
X0086486Y0082323D01*
X0086553Y0082307D01*
X0086620Y0082287D01*
X0086685Y0082263D01*
X0086748Y0082236D01*
X0086811Y0082205D01*
X0086871Y0082172D01*
X0086930Y0082135D01*
X0086986Y0082095D01*
X0085867Y0081060D02*
X0085823Y0081088D01*
X0085781Y0081119D01*
X0085742Y0081153D01*
X0085706Y0081190D01*
X0085672Y0081230D01*
X0085642Y0081272D01*
X0085614Y0081316D01*
X0085590Y0081362D01*
X0085570Y0081409D01*
X0085553Y0081458D01*
X0085539Y0081509D01*
X0085530Y0081560D01*
X0085524Y0081611D01*
X0085522Y0081663D01*
X0085524Y0081714D01*
X0085530Y0081766D01*
X0085539Y0081816D01*
X0085553Y0081866D01*
X0085570Y0081915D01*
X0085590Y0081962D01*
X0085614Y0082008D01*
X0085642Y0082051D01*
X0085672Y0082093D01*
X0085706Y0082132D01*
X0085742Y0082168D01*
X0085781Y0082202D01*
X0085823Y0082232D01*
X0085867Y0082260D01*
X0085912Y0082284D01*
X0085959Y0082304D01*
X0086008Y0082321D01*
X0086058Y0082335D01*
X0086108Y0082344D01*
X0086160Y0082350D01*
X0086211Y0082352D01*
X0084098Y0082352D02*
X0084098Y0080113D01*
X0084096Y0080055D01*
X0084090Y0079998D01*
X0084081Y0079942D01*
X0084067Y0079886D01*
X0084050Y0079831D01*
X0084030Y0079777D01*
X0084005Y0079725D01*
X0083978Y0079674D01*
X0083947Y0079626D01*
X0083913Y0079579D01*
X0083876Y0079535D01*
X0083836Y0079494D01*
X0083793Y0079455D01*
X0083748Y0079420D01*
X0083700Y0079387D01*
X0083651Y0079358D01*
X0083599Y0079332D01*
X0083546Y0079310D01*
X0083492Y0079291D01*
X0083437Y0079275D01*
X0083380Y0079264D01*
X0083323Y0079256D01*
X0083266Y0079252D01*
X0083208Y0079252D01*
X0083151Y0079256D01*
X0083094Y0079264D01*
X0083037Y0079275D01*
X0082982Y0079291D01*
X0082928Y0079310D01*
X0082875Y0079332D01*
X0082823Y0079358D01*
X0082774Y0079387D01*
X0082726Y0079420D01*
X0082681Y0079455D01*
X0082638Y0079494D01*
X0082598Y0079535D01*
X0082561Y0079579D01*
X0082527Y0079626D01*
X0082496Y0079674D01*
X0082469Y0079725D01*
X0082444Y0079777D01*
X0082424Y0079831D01*
X0082407Y0079886D01*
X0082393Y0079942D01*
X0082384Y0079998D01*
X0082378Y0080055D01*
X0082376Y0080113D01*
X0082376Y0082352D01*
X0078455Y0082352D02*
X0078455Y0079252D01*
X0076733Y0082352D01*
X0076733Y0079252D01*
X0075465Y0079252D02*
X0074087Y0079252D01*
X0074087Y0082352D01*
X0075465Y0082352D01*
X0075120Y0080975D02*
X0074087Y0080975D01*
X0068612Y0082352D02*
X0066890Y0082352D01*
X0067751Y0082352D02*
X0067751Y0079252D01*
X0065928Y0079252D02*
X0064895Y0082352D01*
X0063862Y0079252D01*
X0064120Y0080027D02*
X0065670Y0080027D01*
X0061985Y0079252D02*
X0062043Y0079254D01*
X0062100Y0079260D01*
X0062156Y0079269D01*
X0062212Y0079283D01*
X0062267Y0079300D01*
X0062321Y0079320D01*
X0062373Y0079345D01*
X0062424Y0079372D01*
X0062472Y0079403D01*
X0062519Y0079437D01*
X0062563Y0079474D01*
X0062604Y0079514D01*
X0062643Y0079557D01*
X0062678Y0079602D01*
X0062711Y0079650D01*
X0062740Y0079699D01*
X0062766Y0079751D01*
X0062788Y0079804D01*
X0062807Y0079858D01*
X0062823Y0079913D01*
X0062834Y0079970D01*
X0062842Y0080027D01*
X0062846Y0080084D01*
X0062846Y0080142D01*
X0062842Y0080199D01*
X0062834Y0080256D01*
X0062823Y0080313D01*
X0062807Y0080368D01*
X0062788Y0080422D01*
X0062766Y0080475D01*
X0062740Y0080527D01*
X0062711Y0080576D01*
X0062678Y0080624D01*
X0062643Y0080669D01*
X0062604Y0080712D01*
X0062563Y0080752D01*
X0062519Y0080789D01*
X0062472Y0080823D01*
X0062424Y0080854D01*
X0062373Y0080881D01*
X0062321Y0080906D01*
X0062267Y0080926D01*
X0062212Y0080943D01*
X0062156Y0080957D01*
X0062100Y0080966D01*
X0062043Y0080972D01*
X0061985Y0080974D01*
X0061985Y0080975D02*
X0061124Y0080975D01*
X0061985Y0080974D02*
X0062036Y0080976D01*
X0062088Y0080982D01*
X0062138Y0080991D01*
X0062188Y0081005D01*
X0062237Y0081022D01*
X0062284Y0081042D01*
X0062330Y0081066D01*
X0062373Y0081094D01*
X0062415Y0081124D01*
X0062454Y0081158D01*
X0062490Y0081194D01*
X0062524Y0081233D01*
X0062554Y0081275D01*
X0062582Y0081319D01*
X0062606Y0081364D01*
X0062626Y0081411D01*
X0062643Y0081460D01*
X0062657Y0081510D01*
X0062666Y0081560D01*
X0062672Y0081612D01*
X0062674Y0081663D01*
X0062672Y0081714D01*
X0062666Y0081766D01*
X0062657Y0081816D01*
X0062643Y0081866D01*
X0062626Y0081915D01*
X0062606Y0081962D01*
X0062582Y0082008D01*
X0062554Y0082051D01*
X0062524Y0082093D01*
X0062490Y0082132D01*
X0062454Y0082168D01*
X0062415Y0082202D01*
X0062373Y0082232D01*
X0062329Y0082260D01*
X0062284Y0082284D01*
X0062237Y0082304D01*
X0062188Y0082321D01*
X0062138Y0082335D01*
X0062088Y0082344D01*
X0062036Y0082350D01*
X0061985Y0082352D01*
X0061124Y0082352D01*
X0061124Y0079252D01*
X0061985Y0079252D01*
X0062867Y0069069D02*
X0062867Y0066397D01*
X0062869Y0066334D01*
X0062875Y0066271D01*
X0062885Y0066208D01*
X0062898Y0066146D01*
X0062915Y0066085D01*
X0062936Y0066026D01*
X0062961Y0065967D01*
X0062989Y0065911D01*
X0063021Y0065856D01*
X0063056Y0065803D01*
X0063094Y0065753D01*
X0063135Y0065704D01*
X0063179Y0065659D01*
X0063226Y0065616D01*
X0063275Y0065577D01*
X0063327Y0065540D01*
X0063381Y0065507D01*
X0063437Y0065477D01*
X0063494Y0065450D01*
X0063553Y0065427D01*
X0063614Y0065408D01*
X0063675Y0065393D01*
X0063737Y0065381D01*
X0063800Y0065373D01*
X0063863Y0065369D01*
X0063927Y0065369D01*
X0063990Y0065373D01*
X0064053Y0065381D01*
X0064115Y0065393D01*
X0064176Y0065408D01*
X0064237Y0065427D01*
X0064296Y0065450D01*
X0064353Y0065477D01*
X0064409Y0065507D01*
X0064463Y0065540D01*
X0064515Y0065577D01*
X0064564Y0065616D01*
X0064611Y0065659D01*
X0064655Y0065704D01*
X0064696Y0065753D01*
X0064734Y0065803D01*
X0064769Y0065856D01*
X0064801Y0065911D01*
X0064829Y0065967D01*
X0064854Y0066026D01*
X0064875Y0066085D01*
X0064892Y0066146D01*
X0064905Y0066208D01*
X0064915Y0066271D01*
X0064921Y0066334D01*
X0064923Y0066397D01*
X0064922Y0066397D02*
X0064922Y0069069D01*
X0067615Y0069069D02*
X0068848Y0065369D01*
X0068540Y0066294D02*
X0066690Y0066294D01*
X0066381Y0065369D02*
X0067615Y0069069D01*
X0070329Y0069069D02*
X0071357Y0069069D01*
X0070329Y0069069D02*
X0070329Y0065369D01*
X0071563Y0067013D02*
X0072385Y0065369D01*
X0074695Y0065369D02*
X0074695Y0069069D01*
X0075722Y0069069D02*
X0073667Y0069069D01*
X0071357Y0069069D02*
X0071420Y0069067D01*
X0071483Y0069061D01*
X0071546Y0069051D01*
X0071608Y0069038D01*
X0071669Y0069021D01*
X0071728Y0069000D01*
X0071787Y0068975D01*
X0071843Y0068947D01*
X0071898Y0068915D01*
X0071951Y0068880D01*
X0072001Y0068842D01*
X0072050Y0068801D01*
X0072095Y0068757D01*
X0072138Y0068710D01*
X0072177Y0068661D01*
X0072214Y0068609D01*
X0072247Y0068555D01*
X0072277Y0068499D01*
X0072304Y0068442D01*
X0072327Y0068383D01*
X0072346Y0068322D01*
X0072361Y0068261D01*
X0072373Y0068199D01*
X0072381Y0068136D01*
X0072385Y0068073D01*
X0072385Y0068009D01*
X0072381Y0067946D01*
X0072373Y0067883D01*
X0072361Y0067821D01*
X0072346Y0067760D01*
X0072327Y0067699D01*
X0072304Y0067640D01*
X0072277Y0067583D01*
X0072247Y0067527D01*
X0072214Y0067473D01*
X0072177Y0067421D01*
X0072138Y0067372D01*
X0072095Y0067325D01*
X0072050Y0067281D01*
X0072001Y0067240D01*
X0071951Y0067202D01*
X0071898Y0067167D01*
X0071843Y0067135D01*
X0071787Y0067107D01*
X0071728Y0067082D01*
X0071669Y0067061D01*
X0071608Y0067044D01*
X0071546Y0067031D01*
X0071483Y0067021D01*
X0071420Y0067015D01*
X0071357Y0067013D01*
X0070329Y0067013D01*
X0056577Y0066397D02*
X0056577Y0068041D01*
X0056575Y0068103D01*
X0056570Y0068165D01*
X0056560Y0068226D01*
X0056547Y0068287D01*
X0056530Y0068347D01*
X0056510Y0068406D01*
X0056486Y0068463D01*
X0056459Y0068519D01*
X0056429Y0068573D01*
X0056395Y0068625D01*
X0056358Y0068675D01*
X0056318Y0068723D01*
X0056276Y0068768D01*
X0056231Y0068810D01*
X0056183Y0068850D01*
X0056133Y0068887D01*
X0056081Y0068921D01*
X0056027Y0068951D01*
X0055971Y0068978D01*
X0055914Y0069002D01*
X0055855Y0069022D01*
X0055795Y0069039D01*
X0055734Y0069052D01*
X0055673Y0069062D01*
X0055611Y0069067D01*
X0055549Y0069069D01*
X0054521Y0069069D01*
X0054521Y0065369D01*
X0055549Y0065369D01*
X0055611Y0065371D01*
X0055673Y0065376D01*
X0055734Y0065386D01*
X0055795Y0065399D01*
X0055855Y0065416D01*
X0055914Y0065436D01*
X0055971Y0065460D01*
X0056027Y0065487D01*
X0056081Y0065517D01*
X0056133Y0065551D01*
X0056183Y0065588D01*
X0056231Y0065628D01*
X0056276Y0065670D01*
X0056318Y0065715D01*
X0056358Y0065763D01*
X0056395Y0065813D01*
X0056429Y0065865D01*
X0056459Y0065919D01*
X0056486Y0065975D01*
X0056510Y0066032D01*
X0056530Y0066091D01*
X0056547Y0066151D01*
X0056560Y0066212D01*
X0056570Y0066273D01*
X0056575Y0066335D01*
X0056577Y0066397D01*
X0052737Y0065369D02*
X0052737Y0069069D01*
X0050681Y0069069D02*
X0052737Y0065369D01*
X0050681Y0065369D02*
X0050681Y0069069D01*
X0048897Y0069069D02*
X0047664Y0069069D01*
X0047608Y0069067D01*
X0047552Y0069061D01*
X0047497Y0069052D01*
X0047442Y0069039D01*
X0047389Y0069022D01*
X0047337Y0069001D01*
X0047286Y0068977D01*
X0047237Y0068949D01*
X0047190Y0068919D01*
X0047145Y0068885D01*
X0047103Y0068848D01*
X0047063Y0068808D01*
X0047026Y0068766D01*
X0046992Y0068721D01*
X0046962Y0068674D01*
X0046934Y0068625D01*
X0046910Y0068574D01*
X0046889Y0068522D01*
X0046872Y0068469D01*
X0046859Y0068414D01*
X0046850Y0068359D01*
X0046844Y0068303D01*
X0046842Y0068247D01*
X0046841Y0068247D02*
X0046841Y0066191D01*
X0046842Y0066191D02*
X0046844Y0066135D01*
X0046850Y0066079D01*
X0046859Y0066024D01*
X0046872Y0065969D01*
X0046889Y0065916D01*
X0046910Y0065864D01*
X0046934Y0065813D01*
X0046962Y0065764D01*
X0046992Y0065717D01*
X0047026Y0065672D01*
X0047063Y0065630D01*
X0047103Y0065590D01*
X0047145Y0065553D01*
X0047190Y0065519D01*
X0047237Y0065489D01*
X0047286Y0065461D01*
X0047337Y0065437D01*
X0047389Y0065416D01*
X0047442Y0065399D01*
X0047497Y0065386D01*
X0047552Y0065377D01*
X0047608Y0065371D01*
X0047664Y0065369D01*
X0048897Y0065369D01*
X0048897Y0067424D01*
X0048280Y0067424D01*
X0046702Y0069069D02*
X0045469Y0065369D01*
X0044236Y0069069D01*
X0042075Y0069069D02*
X0040841Y0069069D01*
X0042075Y0069069D02*
X0042131Y0069067D01*
X0042187Y0069061D01*
X0042242Y0069052D01*
X0042297Y0069039D01*
X0042350Y0069022D01*
X0042402Y0069001D01*
X0042453Y0068977D01*
X0042502Y0068949D01*
X0042549Y0068919D01*
X0042594Y0068885D01*
X0042636Y0068848D01*
X0042676Y0068808D01*
X0042713Y0068766D01*
X0042747Y0068721D01*
X0042777Y0068674D01*
X0042805Y0068625D01*
X0042829Y0068574D01*
X0042850Y0068522D01*
X0042867Y0068469D01*
X0042880Y0068414D01*
X0042889Y0068359D01*
X0042895Y0068303D01*
X0042897Y0068247D01*
X0042895Y0068191D01*
X0042889Y0068135D01*
X0042880Y0068080D01*
X0042867Y0068025D01*
X0042850Y0067972D01*
X0042829Y0067920D01*
X0042805Y0067869D01*
X0042777Y0067820D01*
X0042747Y0067773D01*
X0042713Y0067728D01*
X0042676Y0067686D01*
X0042636Y0067646D01*
X0042594Y0067609D01*
X0042549Y0067575D01*
X0042502Y0067545D01*
X0042453Y0067517D01*
X0042402Y0067493D01*
X0042350Y0067472D01*
X0042297Y0067455D01*
X0042242Y0067442D01*
X0042187Y0067433D01*
X0042131Y0067427D01*
X0042075Y0067425D01*
X0042075Y0067424D02*
X0041252Y0067424D01*
X0041869Y0067425D02*
X0041932Y0067423D01*
X0041995Y0067417D01*
X0042058Y0067407D01*
X0042120Y0067394D01*
X0042181Y0067377D01*
X0042240Y0067356D01*
X0042299Y0067331D01*
X0042355Y0067303D01*
X0042410Y0067271D01*
X0042463Y0067236D01*
X0042513Y0067198D01*
X0042562Y0067157D01*
X0042607Y0067113D01*
X0042650Y0067066D01*
X0042689Y0067017D01*
X0042726Y0066965D01*
X0042759Y0066911D01*
X0042789Y0066855D01*
X0042816Y0066798D01*
X0042839Y0066739D01*
X0042858Y0066678D01*
X0042873Y0066617D01*
X0042885Y0066555D01*
X0042893Y0066492D01*
X0042897Y0066429D01*
X0042897Y0066365D01*
X0042893Y0066302D01*
X0042885Y0066239D01*
X0042873Y0066177D01*
X0042858Y0066116D01*
X0042839Y0066055D01*
X0042816Y0065996D01*
X0042789Y0065939D01*
X0042759Y0065883D01*
X0042726Y0065829D01*
X0042689Y0065777D01*
X0042650Y0065728D01*
X0042607Y0065681D01*
X0042562Y0065637D01*
X0042513Y0065596D01*
X0042463Y0065558D01*
X0042410Y0065523D01*
X0042355Y0065491D01*
X0042299Y0065463D01*
X0042240Y0065438D01*
X0042181Y0065417D01*
X0042120Y0065400D01*
X0042058Y0065387D01*
X0041995Y0065377D01*
X0041932Y0065371D01*
X0041869Y0065369D01*
X0040841Y0065369D01*
X0038462Y0065369D02*
X0035996Y0069069D01*
X0034897Y0069069D02*
X0032841Y0069069D01*
X0033869Y0069069D02*
X0033869Y0065369D01*
X0035996Y0065369D02*
X0038462Y0069069D01*
X0029680Y0069069D02*
X0027213Y0065369D01*
X0025897Y0065369D02*
X0025075Y0067013D01*
X0024869Y0067013D02*
X0023841Y0067013D01*
X0024869Y0067013D02*
X0024932Y0067015D01*
X0024995Y0067021D01*
X0025058Y0067031D01*
X0025120Y0067044D01*
X0025181Y0067061D01*
X0025240Y0067082D01*
X0025299Y0067107D01*
X0025355Y0067135D01*
X0025410Y0067167D01*
X0025463Y0067202D01*
X0025513Y0067240D01*
X0025562Y0067281D01*
X0025607Y0067325D01*
X0025650Y0067372D01*
X0025689Y0067421D01*
X0025726Y0067473D01*
X0025759Y0067527D01*
X0025789Y0067583D01*
X0025816Y0067640D01*
X0025839Y0067699D01*
X0025858Y0067760D01*
X0025873Y0067821D01*
X0025885Y0067883D01*
X0025893Y0067946D01*
X0025897Y0068009D01*
X0025897Y0068073D01*
X0025893Y0068136D01*
X0025885Y0068199D01*
X0025873Y0068261D01*
X0025858Y0068322D01*
X0025839Y0068383D01*
X0025816Y0068442D01*
X0025789Y0068499D01*
X0025759Y0068555D01*
X0025726Y0068609D01*
X0025689Y0068661D01*
X0025650Y0068710D01*
X0025607Y0068757D01*
X0025562Y0068801D01*
X0025513Y0068842D01*
X0025463Y0068880D01*
X0025410Y0068915D01*
X0025355Y0068947D01*
X0025299Y0068975D01*
X0025240Y0069000D01*
X0025181Y0069021D01*
X0025120Y0069038D01*
X0025058Y0069051D01*
X0024995Y0069061D01*
X0024932Y0069067D01*
X0024869Y0069069D01*
X0023841Y0069069D01*
X0023841Y0065369D01*
X0027213Y0069069D02*
X0029680Y0065369D01*
X0033866Y0061480D02*
X0032221Y0056958D01*
X0031037Y0057369D02*
X0029803Y0061069D01*
X0028570Y0057369D01*
X0028878Y0058294D02*
X0030728Y0058294D01*
X0035376Y0057369D02*
X0036403Y0057369D01*
X0035376Y0057369D02*
X0035376Y0061069D01*
X0036403Y0061069D01*
X0036465Y0061067D01*
X0036527Y0061062D01*
X0036588Y0061052D01*
X0036649Y0061039D01*
X0036709Y0061022D01*
X0036768Y0061002D01*
X0036825Y0060978D01*
X0036881Y0060951D01*
X0036935Y0060921D01*
X0036987Y0060887D01*
X0037037Y0060850D01*
X0037085Y0060810D01*
X0037130Y0060768D01*
X0037172Y0060723D01*
X0037212Y0060675D01*
X0037249Y0060625D01*
X0037283Y0060573D01*
X0037313Y0060519D01*
X0037340Y0060463D01*
X0037364Y0060406D01*
X0037384Y0060347D01*
X0037401Y0060287D01*
X0037414Y0060226D01*
X0037424Y0060165D01*
X0037429Y0060103D01*
X0037431Y0060041D01*
X0037431Y0058397D01*
X0037429Y0058335D01*
X0037424Y0058273D01*
X0037414Y0058212D01*
X0037401Y0058151D01*
X0037384Y0058091D01*
X0037364Y0058032D01*
X0037340Y0057975D01*
X0037313Y0057919D01*
X0037283Y0057865D01*
X0037249Y0057813D01*
X0037212Y0057763D01*
X0037172Y0057715D01*
X0037130Y0057670D01*
X0037085Y0057628D01*
X0037037Y0057588D01*
X0036987Y0057551D01*
X0036935Y0057517D01*
X0036881Y0057487D01*
X0036825Y0057460D01*
X0036768Y0057436D01*
X0036709Y0057416D01*
X0036649Y0057399D01*
X0036588Y0057386D01*
X0036527Y0057376D01*
X0036465Y0057371D01*
X0036403Y0057369D01*
X0036521Y0055069D02*
X0037549Y0055069D01*
X0036521Y0055069D02*
X0036521Y0051369D01*
X0037549Y0051369D01*
X0037611Y0051371D01*
X0037673Y0051376D01*
X0037734Y0051386D01*
X0037795Y0051399D01*
X0037855Y0051416D01*
X0037914Y0051436D01*
X0037971Y0051460D01*
X0038027Y0051487D01*
X0038081Y0051517D01*
X0038133Y0051551D01*
X0038183Y0051588D01*
X0038231Y0051628D01*
X0038276Y0051670D01*
X0038318Y0051715D01*
X0038358Y0051763D01*
X0038395Y0051813D01*
X0038429Y0051865D01*
X0038459Y0051919D01*
X0038486Y0051975D01*
X0038510Y0052032D01*
X0038530Y0052091D01*
X0038547Y0052151D01*
X0038560Y0052212D01*
X0038570Y0052273D01*
X0038575Y0052335D01*
X0038577Y0052397D01*
X0038577Y0054041D01*
X0038575Y0054103D01*
X0038570Y0054165D01*
X0038560Y0054226D01*
X0038547Y0054287D01*
X0038530Y0054347D01*
X0038510Y0054406D01*
X0038486Y0054463D01*
X0038459Y0054519D01*
X0038429Y0054573D01*
X0038395Y0054625D01*
X0038358Y0054675D01*
X0038318Y0054723D01*
X0038276Y0054768D01*
X0038231Y0054810D01*
X0038183Y0054850D01*
X0038133Y0054887D01*
X0038081Y0054921D01*
X0038027Y0054951D01*
X0037971Y0054978D01*
X0037914Y0055002D01*
X0037855Y0055022D01*
X0037795Y0055039D01*
X0037734Y0055052D01*
X0037673Y0055062D01*
X0037611Y0055067D01*
X0037549Y0055069D01*
X0034737Y0055069D02*
X0034737Y0051369D01*
X0032681Y0055069D01*
X0032681Y0051369D01*
X0030897Y0051369D02*
X0029664Y0051369D01*
X0029608Y0051371D01*
X0029552Y0051377D01*
X0029497Y0051386D01*
X0029442Y0051399D01*
X0029389Y0051416D01*
X0029337Y0051437D01*
X0029286Y0051461D01*
X0029237Y0051489D01*
X0029190Y0051519D01*
X0029145Y0051553D01*
X0029103Y0051590D01*
X0029063Y0051630D01*
X0029026Y0051672D01*
X0028992Y0051717D01*
X0028962Y0051764D01*
X0028934Y0051813D01*
X0028910Y0051864D01*
X0028889Y0051916D01*
X0028872Y0051969D01*
X0028859Y0052024D01*
X0028850Y0052079D01*
X0028844Y0052135D01*
X0028842Y0052191D01*
X0028841Y0052191D02*
X0028841Y0054247D01*
X0028842Y0054247D02*
X0028844Y0054303D01*
X0028850Y0054359D01*
X0028859Y0054414D01*
X0028872Y0054469D01*
X0028889Y0054522D01*
X0028910Y0054574D01*
X0028934Y0054625D01*
X0028962Y0054674D01*
X0028992Y0054721D01*
X0029026Y0054766D01*
X0029063Y0054808D01*
X0029103Y0054848D01*
X0029145Y0054885D01*
X0029190Y0054919D01*
X0029237Y0054949D01*
X0029286Y0054977D01*
X0029337Y0055001D01*
X0029389Y0055022D01*
X0029442Y0055039D01*
X0029497Y0055052D01*
X0029552Y0055061D01*
X0029608Y0055067D01*
X0029664Y0055069D01*
X0030897Y0055069D01*
X0030897Y0053424D02*
X0030280Y0053424D01*
X0030897Y0053424D02*
X0030897Y0051369D01*
X0030075Y0046069D02*
X0028841Y0046069D01*
X0030075Y0046069D02*
X0030131Y0046067D01*
X0030187Y0046061D01*
X0030242Y0046052D01*
X0030297Y0046039D01*
X0030350Y0046022D01*
X0030402Y0046001D01*
X0030453Y0045977D01*
X0030502Y0045949D01*
X0030549Y0045919D01*
X0030594Y0045885D01*
X0030636Y0045848D01*
X0030676Y0045808D01*
X0030713Y0045766D01*
X0030747Y0045721D01*
X0030777Y0045674D01*
X0030805Y0045625D01*
X0030829Y0045574D01*
X0030850Y0045522D01*
X0030867Y0045469D01*
X0030880Y0045414D01*
X0030889Y0045359D01*
X0030895Y0045303D01*
X0030897Y0045247D01*
X0030895Y0045191D01*
X0030889Y0045135D01*
X0030880Y0045080D01*
X0030867Y0045025D01*
X0030850Y0044972D01*
X0030829Y0044920D01*
X0030805Y0044869D01*
X0030777Y0044820D01*
X0030747Y0044773D01*
X0030713Y0044728D01*
X0030676Y0044686D01*
X0030636Y0044646D01*
X0030594Y0044609D01*
X0030549Y0044575D01*
X0030502Y0044545D01*
X0030453Y0044517D01*
X0030402Y0044493D01*
X0030350Y0044472D01*
X0030297Y0044455D01*
X0030242Y0044442D01*
X0030187Y0044433D01*
X0030131Y0044427D01*
X0030075Y0044425D01*
X0030075Y0044424D02*
X0029252Y0044424D01*
X0029869Y0044425D02*
X0029932Y0044423D01*
X0029995Y0044417D01*
X0030058Y0044407D01*
X0030120Y0044394D01*
X0030181Y0044377D01*
X0030240Y0044356D01*
X0030299Y0044331D01*
X0030355Y0044303D01*
X0030410Y0044271D01*
X0030463Y0044236D01*
X0030513Y0044198D01*
X0030562Y0044157D01*
X0030607Y0044113D01*
X0030650Y0044066D01*
X0030689Y0044017D01*
X0030726Y0043965D01*
X0030759Y0043911D01*
X0030789Y0043855D01*
X0030816Y0043798D01*
X0030839Y0043739D01*
X0030858Y0043678D01*
X0030873Y0043617D01*
X0030885Y0043555D01*
X0030893Y0043492D01*
X0030897Y0043429D01*
X0030897Y0043365D01*
X0030893Y0043302D01*
X0030885Y0043239D01*
X0030873Y0043177D01*
X0030858Y0043116D01*
X0030839Y0043055D01*
X0030816Y0042996D01*
X0030789Y0042939D01*
X0030759Y0042883D01*
X0030726Y0042829D01*
X0030689Y0042777D01*
X0030650Y0042728D01*
X0030607Y0042681D01*
X0030562Y0042637D01*
X0030513Y0042596D01*
X0030463Y0042558D01*
X0030410Y0042523D01*
X0030355Y0042491D01*
X0030299Y0042463D01*
X0030240Y0042438D01*
X0030181Y0042417D01*
X0030120Y0042400D01*
X0030058Y0042387D01*
X0029995Y0042377D01*
X0029932Y0042371D01*
X0029869Y0042369D01*
X0028841Y0042369D01*
X0033469Y0042369D02*
X0034702Y0046069D01*
X0032236Y0046069D02*
X0033469Y0042369D01*
X0030075Y0039069D02*
X0031308Y0035369D01*
X0031000Y0036294D02*
X0029150Y0036294D01*
X0028841Y0035369D02*
X0030075Y0039069D01*
X0034395Y0037424D02*
X0034438Y0037468D01*
X0034479Y0037515D01*
X0034516Y0037564D01*
X0034551Y0037615D01*
X0034582Y0037669D01*
X0034610Y0037724D01*
X0034634Y0037781D01*
X0034655Y0037839D01*
X0034672Y0037899D01*
X0034686Y0037959D01*
X0034695Y0038020D01*
X0034701Y0038082D01*
X0034703Y0038144D01*
X0034394Y0037424D02*
X0032647Y0035369D01*
X0034702Y0035369D01*
X0032647Y0038247D02*
X0032670Y0038311D01*
X0032696Y0038374D01*
X0032726Y0038435D01*
X0032759Y0038494D01*
X0032796Y0038551D01*
X0032836Y0038606D01*
X0032879Y0038658D01*
X0032925Y0038708D01*
X0032973Y0038756D01*
X0033025Y0038800D01*
X0033078Y0038842D01*
X0033134Y0038880D01*
X0033192Y0038915D01*
X0033252Y0038947D01*
X0033314Y0038975D01*
X0033377Y0039000D01*
X0033442Y0039021D01*
X0033508Y0039038D01*
X0033574Y0039052D01*
X0033641Y0039061D01*
X0033709Y0039067D01*
X0033777Y0039069D01*
X0033835Y0039067D01*
X0033893Y0039062D01*
X0033950Y0039053D01*
X0034007Y0039040D01*
X0034063Y0039024D01*
X0034118Y0039004D01*
X0034171Y0038981D01*
X0034223Y0038955D01*
X0034273Y0038925D01*
X0034321Y0038892D01*
X0034367Y0038857D01*
X0034410Y0038818D01*
X0034451Y0038777D01*
X0034490Y0038734D01*
X0034525Y0038688D01*
X0034558Y0038640D01*
X0034588Y0038590D01*
X0034614Y0038538D01*
X0034637Y0038485D01*
X0034657Y0038430D01*
X0034673Y0038374D01*
X0034686Y0038317D01*
X0034695Y0038260D01*
X0034700Y0038202D01*
X0034702Y0038144D01*
X0033675Y0031069D02*
X0033675Y0027369D01*
X0034702Y0027369D02*
X0032647Y0027369D01*
X0031308Y0027369D02*
X0030075Y0031069D01*
X0028841Y0027369D01*
X0029150Y0028294D02*
X0031000Y0028294D01*
X0032647Y0030247D02*
X0033675Y0031069D01*
X0098841Y0029247D02*
X0098841Y0027191D01*
X0098842Y0027191D02*
X0098844Y0027135D01*
X0098850Y0027079D01*
X0098859Y0027024D01*
X0098872Y0026969D01*
X0098889Y0026916D01*
X0098910Y0026864D01*
X0098934Y0026813D01*
X0098962Y0026764D01*
X0098992Y0026717D01*
X0099026Y0026672D01*
X0099063Y0026630D01*
X0099103Y0026590D01*
X0099145Y0026553D01*
X0099190Y0026519D01*
X0099237Y0026489D01*
X0099286Y0026461D01*
X0099337Y0026437D01*
X0099389Y0026416D01*
X0099442Y0026399D01*
X0099497Y0026386D01*
X0099552Y0026377D01*
X0099608Y0026371D01*
X0099664Y0026369D01*
X0100897Y0026369D01*
X0100897Y0028424D01*
X0100280Y0028424D01*
X0098842Y0029247D02*
X0098844Y0029303D01*
X0098850Y0029359D01*
X0098859Y0029414D01*
X0098872Y0029469D01*
X0098889Y0029522D01*
X0098910Y0029574D01*
X0098934Y0029625D01*
X0098962Y0029674D01*
X0098992Y0029721D01*
X0099026Y0029766D01*
X0099063Y0029808D01*
X0099103Y0029848D01*
X0099145Y0029885D01*
X0099190Y0029919D01*
X0099237Y0029949D01*
X0099286Y0029977D01*
X0099337Y0030001D01*
X0099389Y0030022D01*
X0099442Y0030039D01*
X0099497Y0030052D01*
X0099552Y0030061D01*
X0099608Y0030067D01*
X0099664Y0030069D01*
X0100897Y0030069D01*
X0102681Y0030069D02*
X0104737Y0026369D01*
X0104737Y0030069D01*
X0106521Y0030069D02*
X0107549Y0030069D01*
X0106521Y0030069D02*
X0106521Y0026369D01*
X0107549Y0026369D01*
X0107611Y0026371D01*
X0107673Y0026376D01*
X0107734Y0026386D01*
X0107795Y0026399D01*
X0107855Y0026416D01*
X0107914Y0026436D01*
X0107971Y0026460D01*
X0108027Y0026487D01*
X0108081Y0026517D01*
X0108133Y0026551D01*
X0108183Y0026588D01*
X0108231Y0026628D01*
X0108276Y0026670D01*
X0108318Y0026715D01*
X0108358Y0026763D01*
X0108395Y0026813D01*
X0108429Y0026865D01*
X0108459Y0026919D01*
X0108486Y0026975D01*
X0108510Y0027032D01*
X0108530Y0027091D01*
X0108547Y0027151D01*
X0108560Y0027212D01*
X0108570Y0027273D01*
X0108575Y0027335D01*
X0108577Y0027397D01*
X0108577Y0029041D01*
X0108575Y0029103D01*
X0108570Y0029165D01*
X0108560Y0029226D01*
X0108547Y0029287D01*
X0108530Y0029347D01*
X0108510Y0029406D01*
X0108486Y0029463D01*
X0108459Y0029519D01*
X0108429Y0029573D01*
X0108395Y0029625D01*
X0108358Y0029675D01*
X0108318Y0029723D01*
X0108276Y0029768D01*
X0108231Y0029810D01*
X0108183Y0029850D01*
X0108133Y0029887D01*
X0108081Y0029921D01*
X0108027Y0029951D01*
X0107971Y0029978D01*
X0107914Y0030002D01*
X0107855Y0030022D01*
X0107795Y0030039D01*
X0107734Y0030052D01*
X0107673Y0030062D01*
X0107611Y0030067D01*
X0107549Y0030069D01*
X0102681Y0030069D02*
X0102681Y0026369D01*
X0104841Y0034369D02*
X0105869Y0034369D01*
X0105932Y0034371D01*
X0105995Y0034377D01*
X0106058Y0034387D01*
X0106120Y0034400D01*
X0106181Y0034417D01*
X0106240Y0034438D01*
X0106299Y0034463D01*
X0106355Y0034491D01*
X0106410Y0034523D01*
X0106463Y0034558D01*
X0106513Y0034596D01*
X0106562Y0034637D01*
X0106607Y0034681D01*
X0106650Y0034728D01*
X0106689Y0034777D01*
X0106726Y0034829D01*
X0106759Y0034883D01*
X0106789Y0034939D01*
X0106816Y0034996D01*
X0106839Y0035055D01*
X0106858Y0035116D01*
X0106873Y0035177D01*
X0106885Y0035239D01*
X0106893Y0035302D01*
X0106897Y0035365D01*
X0106897Y0035429D01*
X0106893Y0035492D01*
X0106885Y0035555D01*
X0106873Y0035617D01*
X0106858Y0035678D01*
X0106839Y0035739D01*
X0106816Y0035798D01*
X0106789Y0035855D01*
X0106759Y0035911D01*
X0106726Y0035965D01*
X0106689Y0036017D01*
X0106650Y0036066D01*
X0106607Y0036113D01*
X0106562Y0036157D01*
X0106513Y0036198D01*
X0106463Y0036236D01*
X0106410Y0036271D01*
X0106355Y0036303D01*
X0106299Y0036331D01*
X0106240Y0036356D01*
X0106181Y0036377D01*
X0106120Y0036394D01*
X0106058Y0036407D01*
X0105995Y0036417D01*
X0105932Y0036423D01*
X0105869Y0036425D01*
X0106075Y0036424D02*
X0105252Y0036424D01*
X0106075Y0036425D02*
X0106131Y0036427D01*
X0106187Y0036433D01*
X0106242Y0036442D01*
X0106297Y0036455D01*
X0106350Y0036472D01*
X0106402Y0036493D01*
X0106453Y0036517D01*
X0106502Y0036545D01*
X0106549Y0036575D01*
X0106594Y0036609D01*
X0106636Y0036646D01*
X0106676Y0036686D01*
X0106713Y0036728D01*
X0106747Y0036773D01*
X0106777Y0036820D01*
X0106805Y0036869D01*
X0106829Y0036920D01*
X0106850Y0036972D01*
X0106867Y0037025D01*
X0106880Y0037080D01*
X0106889Y0037135D01*
X0106895Y0037191D01*
X0106897Y0037247D01*
X0106895Y0037303D01*
X0106889Y0037359D01*
X0106880Y0037414D01*
X0106867Y0037469D01*
X0106850Y0037522D01*
X0106829Y0037574D01*
X0106805Y0037625D01*
X0106777Y0037674D01*
X0106747Y0037721D01*
X0106713Y0037766D01*
X0106676Y0037808D01*
X0106636Y0037848D01*
X0106594Y0037885D01*
X0106549Y0037919D01*
X0106502Y0037949D01*
X0106453Y0037977D01*
X0106402Y0038001D01*
X0106350Y0038022D01*
X0106297Y0038039D01*
X0106242Y0038052D01*
X0106187Y0038061D01*
X0106131Y0038067D01*
X0106075Y0038069D01*
X0104841Y0038069D01*
X0108236Y0038069D02*
X0109469Y0034369D01*
X0110702Y0038069D01*
X0110086Y0043369D02*
X0110086Y0045013D01*
X0110702Y0044191D02*
X0108647Y0044191D01*
X0109469Y0047069D01*
X0106075Y0047069D02*
X0107308Y0043369D01*
X0107000Y0044294D02*
X0105150Y0044294D01*
X0104841Y0043369D02*
X0106075Y0047069D01*
X0107308Y0051369D02*
X0106075Y0055069D01*
X0104841Y0051369D01*
X0105150Y0052294D02*
X0107000Y0052294D01*
X0108647Y0051369D02*
X0109675Y0051369D01*
X0109738Y0051371D01*
X0109801Y0051377D01*
X0109864Y0051387D01*
X0109926Y0051400D01*
X0109987Y0051417D01*
X0110046Y0051438D01*
X0110105Y0051463D01*
X0110161Y0051491D01*
X0110216Y0051523D01*
X0110269Y0051558D01*
X0110319Y0051596D01*
X0110368Y0051637D01*
X0110413Y0051681D01*
X0110456Y0051728D01*
X0110495Y0051777D01*
X0110532Y0051829D01*
X0110565Y0051883D01*
X0110595Y0051939D01*
X0110622Y0051996D01*
X0110645Y0052055D01*
X0110664Y0052116D01*
X0110679Y0052177D01*
X0110691Y0052239D01*
X0110699Y0052302D01*
X0110703Y0052365D01*
X0110703Y0052429D01*
X0110699Y0052492D01*
X0110691Y0052555D01*
X0110679Y0052617D01*
X0110664Y0052678D01*
X0110645Y0052739D01*
X0110622Y0052798D01*
X0110595Y0052855D01*
X0110565Y0052911D01*
X0110532Y0052965D01*
X0110495Y0053017D01*
X0110456Y0053066D01*
X0110413Y0053113D01*
X0110368Y0053157D01*
X0110319Y0053198D01*
X0110269Y0053236D01*
X0110216Y0053271D01*
X0110161Y0053303D01*
X0110105Y0053331D01*
X0110046Y0053356D01*
X0109987Y0053377D01*
X0109926Y0053394D01*
X0109864Y0053407D01*
X0109801Y0053417D01*
X0109738Y0053423D01*
X0109675Y0053425D01*
X0109880Y0053424D02*
X0109058Y0053424D01*
X0109880Y0053425D02*
X0109936Y0053427D01*
X0109992Y0053433D01*
X0110047Y0053442D01*
X0110102Y0053455D01*
X0110155Y0053472D01*
X0110207Y0053493D01*
X0110258Y0053517D01*
X0110307Y0053545D01*
X0110354Y0053575D01*
X0110399Y0053609D01*
X0110441Y0053646D01*
X0110481Y0053686D01*
X0110518Y0053728D01*
X0110552Y0053773D01*
X0110582Y0053820D01*
X0110610Y0053869D01*
X0110634Y0053920D01*
X0110655Y0053972D01*
X0110672Y0054025D01*
X0110685Y0054080D01*
X0110694Y0054135D01*
X0110700Y0054191D01*
X0110702Y0054247D01*
X0110700Y0054303D01*
X0110694Y0054359D01*
X0110685Y0054414D01*
X0110672Y0054469D01*
X0110655Y0054522D01*
X0110634Y0054574D01*
X0110610Y0054625D01*
X0110582Y0054674D01*
X0110552Y0054721D01*
X0110518Y0054766D01*
X0110481Y0054808D01*
X0110441Y0054848D01*
X0110399Y0054885D01*
X0110354Y0054919D01*
X0110307Y0054949D01*
X0110258Y0054977D01*
X0110207Y0055001D01*
X0110155Y0055022D01*
X0110102Y0055039D01*
X0110047Y0055052D01*
X0109992Y0055061D01*
X0109936Y0055067D01*
X0109880Y0055069D01*
X0108647Y0055069D01*
X0108376Y0058369D02*
X0110431Y0058369D01*
X0108376Y0058369D02*
X0110123Y0060424D01*
X0109506Y0062069D02*
X0109438Y0062067D01*
X0109370Y0062061D01*
X0109303Y0062052D01*
X0109237Y0062038D01*
X0109171Y0062021D01*
X0109106Y0062000D01*
X0109043Y0061975D01*
X0108981Y0061947D01*
X0108921Y0061915D01*
X0108863Y0061880D01*
X0108807Y0061842D01*
X0108754Y0061800D01*
X0108702Y0061756D01*
X0108654Y0061708D01*
X0108608Y0061658D01*
X0108565Y0061606D01*
X0108525Y0061551D01*
X0108488Y0061494D01*
X0108455Y0061435D01*
X0108425Y0061374D01*
X0108399Y0061311D01*
X0108376Y0061247D01*
X0110124Y0060424D02*
X0110167Y0060468D01*
X0110208Y0060515D01*
X0110245Y0060564D01*
X0110280Y0060615D01*
X0110311Y0060669D01*
X0110339Y0060724D01*
X0110363Y0060781D01*
X0110384Y0060839D01*
X0110401Y0060899D01*
X0110415Y0060959D01*
X0110424Y0061020D01*
X0110430Y0061082D01*
X0110432Y0061144D01*
X0110431Y0061144D02*
X0110429Y0061202D01*
X0110424Y0061260D01*
X0110415Y0061317D01*
X0110402Y0061374D01*
X0110386Y0061430D01*
X0110366Y0061485D01*
X0110343Y0061538D01*
X0110317Y0061590D01*
X0110287Y0061640D01*
X0110254Y0061688D01*
X0110219Y0061734D01*
X0110180Y0061777D01*
X0110139Y0061818D01*
X0110096Y0061857D01*
X0110050Y0061892D01*
X0110002Y0061925D01*
X0109952Y0061955D01*
X0109900Y0061981D01*
X0109847Y0062004D01*
X0109792Y0062024D01*
X0109736Y0062040D01*
X0109679Y0062053D01*
X0109622Y0062062D01*
X0109564Y0062067D01*
X0109506Y0062069D01*
X0106711Y0061041D02*
X0106711Y0059397D01*
X0106709Y0059335D01*
X0106704Y0059273D01*
X0106694Y0059212D01*
X0106681Y0059151D01*
X0106664Y0059091D01*
X0106644Y0059032D01*
X0106620Y0058975D01*
X0106593Y0058919D01*
X0106563Y0058865D01*
X0106529Y0058813D01*
X0106492Y0058763D01*
X0106452Y0058715D01*
X0106410Y0058670D01*
X0106365Y0058628D01*
X0106317Y0058588D01*
X0106267Y0058551D01*
X0106215Y0058517D01*
X0106161Y0058487D01*
X0106105Y0058460D01*
X0106048Y0058436D01*
X0105989Y0058416D01*
X0105929Y0058399D01*
X0105868Y0058386D01*
X0105807Y0058376D01*
X0105745Y0058371D01*
X0105683Y0058369D01*
X0104656Y0058369D01*
X0104656Y0062069D01*
X0105683Y0062069D01*
X0105745Y0062067D01*
X0105807Y0062062D01*
X0105868Y0062052D01*
X0105929Y0062039D01*
X0105989Y0062022D01*
X0106048Y0062002D01*
X0106105Y0061978D01*
X0106161Y0061951D01*
X0106215Y0061921D01*
X0106267Y0061887D01*
X0106317Y0061850D01*
X0106365Y0061810D01*
X0106410Y0061768D01*
X0106452Y0061723D01*
X0106492Y0061675D01*
X0106529Y0061625D01*
X0106563Y0061573D01*
X0106593Y0061519D01*
X0106620Y0061463D01*
X0106644Y0061406D01*
X0106664Y0061347D01*
X0106681Y0061287D01*
X0106694Y0061226D01*
X0106704Y0061165D01*
X0106709Y0061103D01*
X0106711Y0061041D01*
X0103146Y0062480D02*
X0101501Y0057958D01*
X0100317Y0058369D02*
X0099083Y0062069D01*
X0097850Y0058369D01*
X0098158Y0059294D02*
X0100008Y0059294D01*
X0086469Y0079252D02*
X0086520Y0079254D01*
X0086572Y0079260D01*
X0086622Y0079269D01*
X0086672Y0079283D01*
X0086721Y0079300D01*
X0086768Y0079320D01*
X0086814Y0079344D01*
X0086857Y0079372D01*
X0086899Y0079402D01*
X0086938Y0079436D01*
X0086974Y0079472D01*
X0087008Y0079511D01*
X0087038Y0079553D01*
X0087066Y0079597D01*
X0087090Y0079642D01*
X0087110Y0079689D01*
X0087127Y0079738D01*
X0087141Y0079788D01*
X0087150Y0079838D01*
X0087156Y0079890D01*
X0087158Y0079941D01*
X0087156Y0079993D01*
X0087150Y0080044D01*
X0087141Y0080095D01*
X0087127Y0080146D01*
X0087110Y0080195D01*
X0087090Y0080242D01*
X0087066Y0080288D01*
X0087038Y0080332D01*
X0087008Y0080374D01*
X0086974Y0080414D01*
X0086938Y0080451D01*
X0086899Y0080485D01*
X0086857Y0080516D01*
X0086813Y0080544D01*
X0086469Y0079253D02*
X0086397Y0079255D01*
X0086326Y0079260D01*
X0086254Y0079269D01*
X0086184Y0079281D01*
X0086114Y0079297D01*
X0086044Y0079316D01*
X0085976Y0079339D01*
X0085909Y0079365D01*
X0085844Y0079394D01*
X0085780Y0079427D01*
X0085717Y0079462D01*
X0085657Y0079501D01*
X0085598Y0079542D01*
X0085542Y0079587D01*
X0085488Y0079634D01*
X0085436Y0079683D01*
X0134819Y0081319D02*
X0134819Y0081491D01*
X0134819Y0081319D02*
X0134821Y0081268D01*
X0134827Y0081216D01*
X0134836Y0081166D01*
X0134850Y0081116D01*
X0134867Y0081067D01*
X0134887Y0081020D01*
X0134911Y0080975D01*
X0134939Y0080931D01*
X0134969Y0080889D01*
X0135003Y0080850D01*
X0135039Y0080814D01*
X0135078Y0080780D01*
X0135120Y0080750D01*
X0135163Y0080722D01*
X0135209Y0080698D01*
X0135256Y0080678D01*
X0135305Y0080661D01*
X0135355Y0080647D01*
X0135405Y0080638D01*
X0135457Y0080632D01*
X0135508Y0080630D01*
X0136541Y0080630D01*
X0136541Y0081491D01*
X0136539Y0081549D01*
X0136533Y0081606D01*
X0136524Y0081662D01*
X0136510Y0081718D01*
X0136493Y0081773D01*
X0136473Y0081827D01*
X0136448Y0081879D01*
X0136421Y0081930D01*
X0136390Y0081978D01*
X0136356Y0082025D01*
X0136319Y0082069D01*
X0136279Y0082110D01*
X0136236Y0082149D01*
X0136191Y0082184D01*
X0136143Y0082217D01*
X0136094Y0082246D01*
X0136042Y0082272D01*
X0135989Y0082294D01*
X0135935Y0082313D01*
X0135880Y0082329D01*
X0135823Y0082340D01*
X0135766Y0082348D01*
X0135709Y0082352D01*
X0135651Y0082352D01*
X0135594Y0082348D01*
X0135537Y0082340D01*
X0135480Y0082329D01*
X0135425Y0082313D01*
X0135371Y0082294D01*
X0135318Y0082272D01*
X0135266Y0082246D01*
X0135217Y0082217D01*
X0135169Y0082184D01*
X0135124Y0082149D01*
X0135081Y0082110D01*
X0135041Y0082069D01*
X0135004Y0082025D01*
X0134970Y0081978D01*
X0134939Y0081930D01*
X0134912Y0081879D01*
X0134887Y0081827D01*
X0134867Y0081773D01*
X0134850Y0081718D01*
X0134836Y0081662D01*
X0134827Y0081606D01*
X0134821Y0081549D01*
X0134819Y0081491D01*
X0136542Y0080630D02*
X0136540Y0080558D01*
X0136534Y0080486D01*
X0136525Y0080414D01*
X0136512Y0080343D01*
X0136495Y0080273D01*
X0136475Y0080204D01*
X0136450Y0080136D01*
X0136423Y0080070D01*
X0136392Y0080004D01*
X0136357Y0079941D01*
X0136320Y0079879D01*
X0136279Y0079820D01*
X0136235Y0079763D01*
X0136188Y0079708D01*
X0136138Y0079656D01*
X0136086Y0079606D01*
X0136031Y0079559D01*
X0135974Y0079515D01*
X0135915Y0079474D01*
X0135853Y0079437D01*
X0135790Y0079402D01*
X0135724Y0079371D01*
X0135658Y0079344D01*
X0135590Y0079319D01*
X0135521Y0079299D01*
X0135450Y0079282D01*
X0135380Y0079269D01*
X0135308Y0079260D01*
X0135236Y0079254D01*
X0135164Y0079252D01*
X0144662Y0080113D02*
X0144662Y0080975D01*
X0145695Y0080975D01*
X0144661Y0080975D02*
X0144663Y0081047D01*
X0144669Y0081119D01*
X0144678Y0081191D01*
X0144691Y0081262D01*
X0144708Y0081332D01*
X0144728Y0081401D01*
X0144753Y0081469D01*
X0144780Y0081535D01*
X0144811Y0081601D01*
X0144846Y0081664D01*
X0144883Y0081726D01*
X0144924Y0081785D01*
X0144968Y0081842D01*
X0145015Y0081897D01*
X0145065Y0081949D01*
X0145117Y0081999D01*
X0145172Y0082046D01*
X0145229Y0082090D01*
X0145288Y0082131D01*
X0145350Y0082168D01*
X0145413Y0082203D01*
X0145479Y0082234D01*
X0145545Y0082261D01*
X0145613Y0082286D01*
X0145682Y0082306D01*
X0145752Y0082323D01*
X0145823Y0082336D01*
X0145895Y0082345D01*
X0145967Y0082351D01*
X0146039Y0082353D01*
X0145695Y0080975D02*
X0145746Y0080973D01*
X0145798Y0080967D01*
X0145848Y0080958D01*
X0145898Y0080944D01*
X0145947Y0080927D01*
X0145994Y0080907D01*
X0146040Y0080883D01*
X0146083Y0080855D01*
X0146125Y0080825D01*
X0146164Y0080791D01*
X0146200Y0080755D01*
X0146234Y0080716D01*
X0146264Y0080674D01*
X0146292Y0080631D01*
X0146316Y0080585D01*
X0146336Y0080538D01*
X0146353Y0080489D01*
X0146367Y0080439D01*
X0146376Y0080389D01*
X0146382Y0080337D01*
X0146384Y0080286D01*
X0146384Y0080113D01*
X0146382Y0080055D01*
X0146376Y0079998D01*
X0146367Y0079942D01*
X0146353Y0079886D01*
X0146336Y0079831D01*
X0146316Y0079777D01*
X0146291Y0079725D01*
X0146264Y0079674D01*
X0146233Y0079626D01*
X0146199Y0079579D01*
X0146162Y0079535D01*
X0146122Y0079494D01*
X0146079Y0079455D01*
X0146034Y0079420D01*
X0145986Y0079387D01*
X0145937Y0079358D01*
X0145885Y0079332D01*
X0145832Y0079310D01*
X0145778Y0079291D01*
X0145723Y0079275D01*
X0145666Y0079264D01*
X0145609Y0079256D01*
X0145552Y0079252D01*
X0145494Y0079252D01*
X0145437Y0079256D01*
X0145380Y0079264D01*
X0145323Y0079275D01*
X0145268Y0079291D01*
X0145214Y0079310D01*
X0145161Y0079332D01*
X0145109Y0079358D01*
X0145060Y0079387D01*
X0145012Y0079420D01*
X0144967Y0079455D01*
X0144924Y0079494D01*
X0144884Y0079535D01*
X0144847Y0079579D01*
X0144813Y0079626D01*
X0144782Y0079674D01*
X0144755Y0079725D01*
X0144730Y0079777D01*
X0144710Y0079831D01*
X0144693Y0079886D01*
X0144679Y0079942D01*
X0144670Y0079998D01*
X0144664Y0080055D01*
X0144662Y0080113D01*
X0154504Y0079252D02*
X0155537Y0079252D01*
X0155588Y0079254D01*
X0155640Y0079260D01*
X0155690Y0079269D01*
X0155740Y0079283D01*
X0155789Y0079300D01*
X0155836Y0079320D01*
X0155882Y0079344D01*
X0155925Y0079372D01*
X0155967Y0079402D01*
X0156006Y0079436D01*
X0156042Y0079472D01*
X0156076Y0079511D01*
X0156106Y0079553D01*
X0156134Y0079597D01*
X0156158Y0079642D01*
X0156178Y0079689D01*
X0156195Y0079738D01*
X0156209Y0079788D01*
X0156218Y0079838D01*
X0156224Y0079890D01*
X0156226Y0079941D01*
X0156226Y0080286D01*
X0156224Y0080337D01*
X0156218Y0080389D01*
X0156209Y0080439D01*
X0156195Y0080489D01*
X0156178Y0080538D01*
X0156158Y0080585D01*
X0156134Y0080631D01*
X0156106Y0080674D01*
X0156076Y0080716D01*
X0156042Y0080755D01*
X0156006Y0080791D01*
X0155967Y0080825D01*
X0155925Y0080855D01*
X0155882Y0080883D01*
X0155836Y0080907D01*
X0155789Y0080927D01*
X0155740Y0080944D01*
X0155690Y0080958D01*
X0155640Y0080967D01*
X0155588Y0080973D01*
X0155537Y0080975D01*
X0154504Y0080975D01*
X0154504Y0082352D01*
X0156226Y0082352D01*
X0163442Y0081061D02*
X0164390Y0080544D01*
X0164045Y0079253D02*
X0163973Y0079255D01*
X0163902Y0079260D01*
X0163830Y0079269D01*
X0163760Y0079281D01*
X0163690Y0079297D01*
X0163620Y0079316D01*
X0163552Y0079339D01*
X0163485Y0079365D01*
X0163420Y0079394D01*
X0163356Y0079427D01*
X0163293Y0079462D01*
X0163233Y0079501D01*
X0163174Y0079542D01*
X0163118Y0079587D01*
X0163064Y0079634D01*
X0163012Y0079683D01*
X0164389Y0080544D02*
X0164433Y0080516D01*
X0164475Y0080485D01*
X0164514Y0080451D01*
X0164550Y0080414D01*
X0164584Y0080374D01*
X0164614Y0080332D01*
X0164642Y0080288D01*
X0164666Y0080242D01*
X0164686Y0080195D01*
X0164703Y0080146D01*
X0164717Y0080095D01*
X0164726Y0080044D01*
X0164732Y0079993D01*
X0164734Y0079941D01*
X0164732Y0079890D01*
X0164726Y0079838D01*
X0164717Y0079788D01*
X0164703Y0079738D01*
X0164686Y0079689D01*
X0164666Y0079642D01*
X0164642Y0079597D01*
X0164614Y0079553D01*
X0164584Y0079511D01*
X0164550Y0079472D01*
X0164514Y0079436D01*
X0164475Y0079402D01*
X0164433Y0079372D01*
X0164390Y0079344D01*
X0164344Y0079320D01*
X0164297Y0079300D01*
X0164248Y0079283D01*
X0164198Y0079269D01*
X0164148Y0079260D01*
X0164096Y0079254D01*
X0164045Y0079252D01*
X0165960Y0079941D02*
X0165960Y0081663D01*
X0165962Y0081714D01*
X0165968Y0081766D01*
X0165977Y0081816D01*
X0165991Y0081866D01*
X0166008Y0081915D01*
X0166028Y0081962D01*
X0166052Y0082007D01*
X0166080Y0082051D01*
X0166110Y0082093D01*
X0166144Y0082132D01*
X0166180Y0082168D01*
X0166219Y0082202D01*
X0166261Y0082232D01*
X0166304Y0082260D01*
X0166350Y0082284D01*
X0166397Y0082304D01*
X0166446Y0082321D01*
X0166496Y0082335D01*
X0166546Y0082344D01*
X0166597Y0082350D01*
X0166649Y0082352D01*
X0167338Y0082352D01*
X0168628Y0082352D02*
X0168628Y0079252D01*
X0170006Y0079252D01*
X0167338Y0079252D02*
X0166649Y0079252D01*
X0166598Y0079254D01*
X0166546Y0079260D01*
X0166496Y0079269D01*
X0166446Y0079283D01*
X0166397Y0079300D01*
X0166350Y0079320D01*
X0166305Y0079344D01*
X0166261Y0079372D01*
X0166219Y0079402D01*
X0166180Y0079436D01*
X0166144Y0079472D01*
X0166110Y0079511D01*
X0166080Y0079553D01*
X0166052Y0079597D01*
X0166028Y0079642D01*
X0166008Y0079689D01*
X0165991Y0079738D01*
X0165977Y0079788D01*
X0165968Y0079838D01*
X0165962Y0079890D01*
X0165960Y0079941D01*
X0164562Y0082095D02*
X0164506Y0082135D01*
X0164447Y0082172D01*
X0164387Y0082205D01*
X0164324Y0082236D01*
X0164261Y0082263D01*
X0164196Y0082287D01*
X0164129Y0082307D01*
X0164062Y0082323D01*
X0163994Y0082336D01*
X0163925Y0082346D01*
X0163856Y0082351D01*
X0163787Y0082353D01*
X0163787Y0082352D02*
X0163736Y0082350D01*
X0163684Y0082344D01*
X0163634Y0082335D01*
X0163584Y0082321D01*
X0163535Y0082304D01*
X0163488Y0082284D01*
X0163443Y0082260D01*
X0163399Y0082232D01*
X0163357Y0082202D01*
X0163318Y0082168D01*
X0163282Y0082132D01*
X0163248Y0082093D01*
X0163218Y0082051D01*
X0163190Y0082008D01*
X0163166Y0081962D01*
X0163146Y0081915D01*
X0163129Y0081866D01*
X0163115Y0081816D01*
X0163106Y0081766D01*
X0163100Y0081714D01*
X0163098Y0081663D01*
X0163100Y0081611D01*
X0163106Y0081560D01*
X0163115Y0081509D01*
X0163129Y0081458D01*
X0163146Y0081409D01*
X0163166Y0081362D01*
X0163190Y0081316D01*
X0163218Y0081272D01*
X0163248Y0081230D01*
X0163282Y0081190D01*
X0163318Y0081153D01*
X0163357Y0081119D01*
X0163399Y0081088D01*
X0163443Y0081060D01*
X0173131Y0081061D02*
X0174078Y0080544D01*
X0173734Y0079253D02*
X0173662Y0079255D01*
X0173591Y0079260D01*
X0173519Y0079269D01*
X0173449Y0079281D01*
X0173379Y0079297D01*
X0173309Y0079316D01*
X0173241Y0079339D01*
X0173174Y0079365D01*
X0173109Y0079394D01*
X0173045Y0079427D01*
X0172982Y0079462D01*
X0172922Y0079501D01*
X0172863Y0079542D01*
X0172807Y0079587D01*
X0172753Y0079634D01*
X0172701Y0079683D01*
X0174078Y0080544D02*
X0174122Y0080516D01*
X0174164Y0080485D01*
X0174203Y0080451D01*
X0174239Y0080414D01*
X0174273Y0080374D01*
X0174303Y0080332D01*
X0174331Y0080288D01*
X0174355Y0080242D01*
X0174375Y0080195D01*
X0174392Y0080146D01*
X0174406Y0080095D01*
X0174415Y0080044D01*
X0174421Y0079993D01*
X0174423Y0079941D01*
X0174421Y0079890D01*
X0174415Y0079838D01*
X0174406Y0079788D01*
X0174392Y0079738D01*
X0174375Y0079689D01*
X0174355Y0079642D01*
X0174331Y0079597D01*
X0174303Y0079553D01*
X0174273Y0079511D01*
X0174239Y0079472D01*
X0174203Y0079436D01*
X0174164Y0079402D01*
X0174122Y0079372D01*
X0174079Y0079344D01*
X0174033Y0079320D01*
X0173986Y0079300D01*
X0173937Y0079283D01*
X0173887Y0079269D01*
X0173837Y0079260D01*
X0173785Y0079254D01*
X0173734Y0079252D01*
X0175761Y0079252D02*
X0176622Y0079252D01*
X0176678Y0079254D01*
X0176734Y0079259D01*
X0176790Y0079269D01*
X0176845Y0079281D01*
X0176899Y0079298D01*
X0176951Y0079318D01*
X0177003Y0079341D01*
X0177053Y0079367D01*
X0177100Y0079397D01*
X0177146Y0079430D01*
X0177190Y0079466D01*
X0177231Y0079504D01*
X0177269Y0079545D01*
X0177305Y0079589D01*
X0177338Y0079635D01*
X0177368Y0079683D01*
X0177394Y0079732D01*
X0177417Y0079784D01*
X0177437Y0079836D01*
X0177454Y0079890D01*
X0177466Y0079945D01*
X0177476Y0080001D01*
X0177481Y0080057D01*
X0177483Y0080113D01*
X0177483Y0081491D01*
X0177481Y0081547D01*
X0177476Y0081603D01*
X0177466Y0081659D01*
X0177454Y0081714D01*
X0177437Y0081768D01*
X0177417Y0081820D01*
X0177394Y0081872D01*
X0177368Y0081921D01*
X0177338Y0081969D01*
X0177305Y0082015D01*
X0177269Y0082059D01*
X0177231Y0082100D01*
X0177190Y0082138D01*
X0177146Y0082174D01*
X0177100Y0082207D01*
X0177053Y0082237D01*
X0177003Y0082263D01*
X0176951Y0082286D01*
X0176899Y0082306D01*
X0176845Y0082323D01*
X0176790Y0082335D01*
X0176734Y0082345D01*
X0176678Y0082350D01*
X0176622Y0082352D01*
X0175761Y0082352D01*
X0175761Y0079252D01*
X0174251Y0082095D02*
X0174195Y0082135D01*
X0174136Y0082172D01*
X0174076Y0082205D01*
X0174013Y0082236D01*
X0173950Y0082263D01*
X0173885Y0082287D01*
X0173818Y0082307D01*
X0173751Y0082323D01*
X0173683Y0082336D01*
X0173614Y0082346D01*
X0173545Y0082351D01*
X0173476Y0082353D01*
X0173476Y0082352D02*
X0173425Y0082350D01*
X0173373Y0082344D01*
X0173323Y0082335D01*
X0173273Y0082321D01*
X0173224Y0082304D01*
X0173177Y0082284D01*
X0173132Y0082260D01*
X0173088Y0082232D01*
X0173046Y0082202D01*
X0173007Y0082168D01*
X0172971Y0082132D01*
X0172937Y0082093D01*
X0172907Y0082051D01*
X0172879Y0082008D01*
X0172855Y0081962D01*
X0172835Y0081915D01*
X0172818Y0081866D01*
X0172804Y0081816D01*
X0172795Y0081766D01*
X0172789Y0081714D01*
X0172787Y0081663D01*
X0172786Y0081663D02*
X0172788Y0081611D01*
X0172794Y0081560D01*
X0172803Y0081509D01*
X0172817Y0081458D01*
X0172834Y0081409D01*
X0172854Y0081362D01*
X0172878Y0081316D01*
X0172906Y0081272D01*
X0172936Y0081230D01*
X0172970Y0081190D01*
X0173006Y0081153D01*
X0173045Y0081119D01*
X0173087Y0081088D01*
X0173131Y0081060D01*
X0178750Y0079252D02*
X0179784Y0082352D01*
X0180817Y0079252D01*
X0180559Y0080027D02*
X0179009Y0080027D01*
X0172520Y0062069D02*
X0171698Y0062069D01*
X0171642Y0062067D01*
X0171586Y0062061D01*
X0171531Y0062052D01*
X0171476Y0062039D01*
X0171423Y0062022D01*
X0171371Y0062001D01*
X0171320Y0061977D01*
X0171271Y0061949D01*
X0171224Y0061919D01*
X0171179Y0061885D01*
X0171137Y0061848D01*
X0171097Y0061808D01*
X0171060Y0061766D01*
X0171026Y0061721D01*
X0170996Y0061674D01*
X0170968Y0061625D01*
X0170944Y0061574D01*
X0170923Y0061522D01*
X0170906Y0061469D01*
X0170893Y0061414D01*
X0170884Y0061359D01*
X0170878Y0061303D01*
X0170876Y0061247D01*
X0170876Y0059191D01*
X0170878Y0059135D01*
X0170884Y0059079D01*
X0170893Y0059024D01*
X0170906Y0058969D01*
X0170923Y0058916D01*
X0170944Y0058864D01*
X0170968Y0058813D01*
X0170996Y0058764D01*
X0171026Y0058717D01*
X0171060Y0058672D01*
X0171097Y0058630D01*
X0171137Y0058590D01*
X0171179Y0058553D01*
X0171224Y0058519D01*
X0171271Y0058489D01*
X0171320Y0058461D01*
X0171371Y0058437D01*
X0171423Y0058416D01*
X0171476Y0058399D01*
X0171531Y0058386D01*
X0171586Y0058377D01*
X0171642Y0058371D01*
X0171698Y0058369D01*
X0172520Y0058369D01*
X0169341Y0058369D02*
X0167286Y0058369D01*
X0169033Y0060424D01*
X0168416Y0062069D02*
X0168348Y0062067D01*
X0168280Y0062061D01*
X0168213Y0062052D01*
X0168147Y0062038D01*
X0168081Y0062021D01*
X0168016Y0062000D01*
X0167953Y0061975D01*
X0167891Y0061947D01*
X0167831Y0061915D01*
X0167773Y0061880D01*
X0167717Y0061842D01*
X0167664Y0061800D01*
X0167612Y0061756D01*
X0167564Y0061708D01*
X0167518Y0061658D01*
X0167475Y0061606D01*
X0167435Y0061551D01*
X0167398Y0061494D01*
X0167365Y0061435D01*
X0167335Y0061374D01*
X0167309Y0061311D01*
X0167286Y0061247D01*
X0169034Y0060424D02*
X0169077Y0060468D01*
X0169118Y0060515D01*
X0169155Y0060564D01*
X0169190Y0060615D01*
X0169221Y0060669D01*
X0169249Y0060724D01*
X0169273Y0060781D01*
X0169294Y0060839D01*
X0169311Y0060899D01*
X0169325Y0060959D01*
X0169334Y0061020D01*
X0169340Y0061082D01*
X0169342Y0061144D01*
X0169341Y0061144D02*
X0169339Y0061202D01*
X0169334Y0061260D01*
X0169325Y0061317D01*
X0169312Y0061374D01*
X0169296Y0061430D01*
X0169276Y0061485D01*
X0169253Y0061538D01*
X0169227Y0061590D01*
X0169197Y0061640D01*
X0169164Y0061688D01*
X0169129Y0061734D01*
X0169090Y0061777D01*
X0169049Y0061818D01*
X0169006Y0061857D01*
X0168960Y0061892D01*
X0168912Y0061925D01*
X0168862Y0061955D01*
X0168810Y0061981D01*
X0168757Y0062004D01*
X0168702Y0062024D01*
X0168646Y0062040D01*
X0168589Y0062053D01*
X0168532Y0062062D01*
X0168474Y0062067D01*
X0168416Y0062069D01*
X0165845Y0062069D02*
X0165022Y0062069D01*
X0165434Y0062069D02*
X0165434Y0058369D01*
X0165845Y0058369D02*
X0165022Y0058369D01*
D11*
X0156400Y0054400D02*
X0139400Y0054400D01*
X0139340Y0054402D01*
X0139279Y0054407D01*
X0139220Y0054416D01*
X0139161Y0054429D01*
X0139102Y0054445D01*
X0139045Y0054465D01*
X0138990Y0054488D01*
X0138935Y0054515D01*
X0138883Y0054544D01*
X0138832Y0054577D01*
X0138783Y0054613D01*
X0138737Y0054651D01*
X0138693Y0054693D01*
X0138651Y0054737D01*
X0138613Y0054783D01*
X0138577Y0054832D01*
X0138544Y0054883D01*
X0138515Y0054935D01*
X0138488Y0054990D01*
X0138465Y0055045D01*
X0138445Y0055102D01*
X0138429Y0055161D01*
X0138416Y0055220D01*
X0138407Y0055279D01*
X0138402Y0055340D01*
X0138400Y0055400D01*
X0138400Y0058400D01*
X0138398Y0058460D01*
X0138393Y0058521D01*
X0138384Y0058580D01*
X0138371Y0058639D01*
X0138355Y0058698D01*
X0138335Y0058755D01*
X0138312Y0058810D01*
X0138285Y0058865D01*
X0138256Y0058917D01*
X0138223Y0058968D01*
X0138187Y0059017D01*
X0138149Y0059063D01*
X0138107Y0059107D01*
X0138063Y0059149D01*
X0138017Y0059187D01*
X0137968Y0059223D01*
X0137917Y0059256D01*
X0137865Y0059285D01*
X0137810Y0059312D01*
X0137755Y0059335D01*
X0137698Y0059355D01*
X0137639Y0059371D01*
X0137580Y0059384D01*
X0137521Y0059393D01*
X0137460Y0059398D01*
X0137400Y0059400D01*
X0137293Y0059402D01*
X0137186Y0059408D01*
X0137079Y0059417D01*
X0136973Y0059431D01*
X0136867Y0059448D01*
X0136762Y0059469D01*
X0136658Y0059493D01*
X0136555Y0059522D01*
X0136453Y0059554D01*
X0136352Y0059589D01*
X0136252Y0059628D01*
X0136154Y0059671D01*
X0136057Y0059717D01*
X0135962Y0059767D01*
X0135869Y0059820D01*
X0135778Y0059876D01*
X0135689Y0059936D01*
X0135602Y0059998D01*
X0135518Y0060064D01*
X0135435Y0060133D01*
X0135356Y0060204D01*
X0135279Y0060279D01*
X0135204Y0060356D01*
X0135133Y0060435D01*
X0135064Y0060518D01*
X0134998Y0060602D01*
X0134936Y0060689D01*
X0134876Y0060778D01*
X0134820Y0060869D01*
X0134767Y0060962D01*
X0134717Y0061057D01*
X0134671Y0061154D01*
X0134628Y0061252D01*
X0134589Y0061352D01*
X0134554Y0061453D01*
X0134522Y0061555D01*
X0134493Y0061658D01*
X0134469Y0061762D01*
X0134448Y0061867D01*
X0134431Y0061973D01*
X0134417Y0062079D01*
X0134408Y0062186D01*
X0134402Y0062293D01*
X0134400Y0062400D01*
X0134400Y0066400D01*
X0134398Y0066487D01*
X0134392Y0066574D01*
X0134383Y0066661D01*
X0134370Y0066747D01*
X0134353Y0066833D01*
X0134332Y0066918D01*
X0134307Y0067001D01*
X0134279Y0067084D01*
X0134248Y0067165D01*
X0134213Y0067245D01*
X0134174Y0067323D01*
X0134132Y0067400D01*
X0134087Y0067475D01*
X0134038Y0067547D01*
X0133987Y0067618D01*
X0133932Y0067686D01*
X0133875Y0067751D01*
X0133814Y0067814D01*
X0133751Y0067875D01*
X0133686Y0067932D01*
X0133618Y0067987D01*
X0133547Y0068038D01*
X0133475Y0068087D01*
X0133400Y0068132D01*
X0133323Y0068174D01*
X0133245Y0068213D01*
X0133165Y0068248D01*
X0133084Y0068279D01*
X0133001Y0068307D01*
X0132918Y0068332D01*
X0132833Y0068353D01*
X0132747Y0068370D01*
X0132661Y0068383D01*
X0132574Y0068392D01*
X0132487Y0068398D01*
X0132400Y0068400D01*
X0124400Y0068400D01*
X0124313Y0068402D01*
X0124226Y0068408D01*
X0124139Y0068417D01*
X0124053Y0068430D01*
X0123967Y0068447D01*
X0123882Y0068468D01*
X0123799Y0068493D01*
X0123716Y0068521D01*
X0123635Y0068552D01*
X0123555Y0068587D01*
X0123477Y0068626D01*
X0123400Y0068668D01*
X0123325Y0068713D01*
X0123253Y0068762D01*
X0123182Y0068813D01*
X0123114Y0068868D01*
X0123049Y0068925D01*
X0122986Y0068986D01*
X0122925Y0069049D01*
X0122868Y0069114D01*
X0122813Y0069182D01*
X0122762Y0069253D01*
X0122713Y0069325D01*
X0122668Y0069400D01*
X0122626Y0069477D01*
X0122587Y0069555D01*
X0122552Y0069635D01*
X0122521Y0069716D01*
X0122493Y0069799D01*
X0122468Y0069882D01*
X0122447Y0069967D01*
X0122430Y0070053D01*
X0122417Y0070139D01*
X0122408Y0070226D01*
X0122402Y0070313D01*
X0122400Y0070400D01*
X0122400Y0074400D01*
X0156400Y0074400D01*
X0156487Y0074398D01*
X0156574Y0074392D01*
X0156661Y0074383D01*
X0156747Y0074370D01*
X0156833Y0074353D01*
X0156918Y0074332D01*
X0157001Y0074307D01*
X0157084Y0074279D01*
X0157165Y0074248D01*
X0157245Y0074213D01*
X0157323Y0074174D01*
X0157400Y0074132D01*
X0157475Y0074087D01*
X0157547Y0074038D01*
X0157618Y0073987D01*
X0157686Y0073932D01*
X0157751Y0073875D01*
X0157814Y0073814D01*
X0157875Y0073751D01*
X0157932Y0073686D01*
X0157987Y0073618D01*
X0158038Y0073547D01*
X0158087Y0073475D01*
X0158132Y0073400D01*
X0158174Y0073323D01*
X0158213Y0073245D01*
X0158248Y0073165D01*
X0158279Y0073084D01*
X0158307Y0073001D01*
X0158332Y0072918D01*
X0158353Y0072833D01*
X0158370Y0072747D01*
X0158383Y0072661D01*
X0158392Y0072574D01*
X0158398Y0072487D01*
X0158400Y0072400D01*
X0158400Y0068400D01*
X0138400Y0068400D01*
X0138340Y0068398D01*
X0138279Y0068393D01*
X0138220Y0068384D01*
X0138161Y0068371D01*
X0138102Y0068355D01*
X0138045Y0068335D01*
X0137990Y0068312D01*
X0137935Y0068285D01*
X0137883Y0068256D01*
X0137832Y0068223D01*
X0137783Y0068187D01*
X0137737Y0068149D01*
X0137693Y0068107D01*
X0137651Y0068063D01*
X0137613Y0068017D01*
X0137577Y0067968D01*
X0137544Y0067917D01*
X0137515Y0067865D01*
X0137488Y0067810D01*
X0137465Y0067755D01*
X0137445Y0067698D01*
X0137429Y0067639D01*
X0137416Y0067580D01*
X0137407Y0067521D01*
X0137402Y0067460D01*
X0137400Y0067400D01*
X0160400Y0067400D02*
X0160469Y0067398D01*
X0160538Y0067392D01*
X0160607Y0067383D01*
X0160675Y0067369D01*
X0160742Y0067352D01*
X0160808Y0067332D01*
X0160872Y0067307D01*
X0160936Y0067279D01*
X0160997Y0067248D01*
X0161057Y0067213D01*
X0161115Y0067175D01*
X0161171Y0067134D01*
X0161224Y0067090D01*
X0161275Y0067043D01*
X0161323Y0066993D01*
X0161368Y0066941D01*
X0161410Y0066886D01*
X0161449Y0066829D01*
X0161485Y0066770D01*
X0161518Y0066709D01*
X0161547Y0066646D01*
X0161573Y0066582D01*
X0161595Y0066517D01*
X0161614Y0066450D01*
X0161628Y0066382D01*
X0161639Y0066314D01*
X0161646Y0066245D01*
X0161650Y0066176D01*
X0161649Y0066107D01*
X0161645Y0066038D01*
X0161637Y0065969D01*
X0161625Y0065901D01*
X0161609Y0065833D01*
X0161590Y0065767D01*
X0161567Y0065702D01*
X0161540Y0065638D01*
X0161510Y0065576D01*
X0161477Y0065515D01*
X0161440Y0065456D01*
X0161400Y0065400D01*
D12*
X0163400Y0066400D02*
X0163440Y0066456D01*
X0163477Y0066515D01*
X0163510Y0066576D01*
X0163540Y0066638D01*
X0163567Y0066702D01*
X0163590Y0066767D01*
X0163609Y0066833D01*
X0163625Y0066901D01*
X0163637Y0066969D01*
X0163645Y0067038D01*
X0163649Y0067107D01*
X0163650Y0067176D01*
X0163646Y0067245D01*
X0163639Y0067314D01*
X0163628Y0067382D01*
X0163614Y0067450D01*
X0163595Y0067517D01*
X0163573Y0067582D01*
X0163547Y0067646D01*
X0163518Y0067709D01*
X0163485Y0067770D01*
X0163449Y0067829D01*
X0163410Y0067886D01*
X0163368Y0067941D01*
X0163323Y0067993D01*
X0163275Y0068043D01*
X0163224Y0068090D01*
X0163171Y0068134D01*
X0163115Y0068175D01*
X0163057Y0068213D01*
X0162997Y0068248D01*
X0162936Y0068279D01*
X0162872Y0068307D01*
X0162808Y0068332D01*
X0162742Y0068352D01*
X0162675Y0068369D01*
X0162607Y0068383D01*
X0162538Y0068392D01*
X0162469Y0068398D01*
X0162400Y0068400D01*
X0154400Y0067400D02*
X0154400Y0062400D01*
X0154487Y0062398D01*
X0154574Y0062392D01*
X0154661Y0062383D01*
X0154747Y0062370D01*
X0154833Y0062353D01*
X0154918Y0062332D01*
X0155001Y0062307D01*
X0155084Y0062279D01*
X0155165Y0062248D01*
X0155245Y0062213D01*
X0155323Y0062174D01*
X0155400Y0062132D01*
X0155475Y0062087D01*
X0155547Y0062038D01*
X0155618Y0061987D01*
X0155686Y0061932D01*
X0155751Y0061875D01*
X0155814Y0061814D01*
X0155875Y0061751D01*
X0155932Y0061686D01*
X0155987Y0061618D01*
X0156038Y0061547D01*
X0156087Y0061475D01*
X0156132Y0061400D01*
X0156174Y0061323D01*
X0156213Y0061245D01*
X0156248Y0061165D01*
X0156279Y0061084D01*
X0156307Y0061001D01*
X0156332Y0060918D01*
X0156353Y0060833D01*
X0156370Y0060747D01*
X0156383Y0060661D01*
X0156392Y0060574D01*
X0156398Y0060487D01*
X0156400Y0060400D01*
X0156400Y0054400D01*
D13*
X0159400Y0064400D02*
X0159440Y0064456D01*
X0159477Y0064515D01*
X0159510Y0064576D01*
X0159540Y0064638D01*
X0159567Y0064702D01*
X0159590Y0064767D01*
X0159609Y0064833D01*
X0159625Y0064901D01*
X0159637Y0064969D01*
X0159645Y0065038D01*
X0159649Y0065107D01*
X0159650Y0065176D01*
X0159646Y0065245D01*
X0159639Y0065314D01*
X0159628Y0065382D01*
X0159614Y0065450D01*
X0159595Y0065517D01*
X0159573Y0065582D01*
X0159547Y0065646D01*
X0159518Y0065709D01*
X0159485Y0065770D01*
X0159449Y0065829D01*
X0159410Y0065886D01*
X0159368Y0065941D01*
X0159323Y0065993D01*
X0159275Y0066043D01*
X0159224Y0066090D01*
X0159171Y0066134D01*
X0159115Y0066175D01*
X0159057Y0066213D01*
X0158997Y0066248D01*
X0158936Y0066279D01*
X0158872Y0066307D01*
X0158808Y0066332D01*
X0158742Y0066352D01*
X0158675Y0066369D01*
X0158607Y0066383D01*
X0158538Y0066392D01*
X0158469Y0066398D01*
X0158400Y0066400D01*
X0179282Y0021109D02*
X0187156Y0021109D01*
X0124337Y0021109D02*
X0116463Y0021109D01*
X0023195Y0060479D02*
X0015321Y0060479D01*
X0059518Y0069857D02*
X0059518Y0077731D01*
D14*
X0059518Y0082455D02*
X0052431Y0082455D01*
X0027235Y0082455D01*
X0027235Y0084817D01*
X0020148Y0084817D01*
X0020148Y0082455D01*
X0020148Y0065132D01*
X0059518Y0065132D01*
X0059518Y0082455D01*
X0059518Y0084817D01*
X0052431Y0084817D01*
X0052431Y0082455D01*
X0027235Y0082455D02*
X0020148Y0082455D01*
X0020148Y0079699D02*
X0020148Y0067888D01*
X0027920Y0060479D02*
X0010597Y0060479D01*
X0008235Y0060479D01*
X0008235Y0053392D01*
X0010597Y0053392D01*
X0010597Y0028195D01*
X0008235Y0028195D01*
X0008235Y0021109D01*
X0010597Y0021109D01*
X0027920Y0021109D01*
X0027920Y0060479D01*
X0010597Y0060479D02*
X0010597Y0053392D01*
X0010597Y0028195D02*
X0010597Y0021109D01*
X0013353Y0021109D02*
X0025164Y0021109D01*
X0111739Y0021109D02*
X0111739Y0060479D01*
X0129061Y0060479D01*
X0131424Y0060479D01*
X0131424Y0053392D01*
X0129061Y0053392D01*
X0129061Y0028195D01*
X0131424Y0028195D01*
X0131424Y0021109D01*
X0129061Y0021109D01*
X0129061Y0028195D01*
X0129061Y0021109D02*
X0111739Y0021109D01*
X0174557Y0021109D02*
X0174557Y0060479D01*
X0191880Y0060479D01*
X0194243Y0060479D01*
X0194243Y0053392D01*
X0191880Y0053392D01*
X0191880Y0028195D01*
X0194243Y0028195D01*
X0194243Y0021109D01*
X0191880Y0021109D01*
X0191880Y0028195D01*
X0191880Y0021109D02*
X0174557Y0021109D01*
X0191880Y0053392D02*
X0191880Y0060479D01*
X0189124Y0060479D02*
X0177313Y0060479D01*
X0129061Y0060479D02*
X0129061Y0053392D01*
X0126306Y0060479D02*
X0114494Y0060479D01*
M02*
