G75*
%MOIN*%
%OFA0B0*%
%FSLAX25Y25*%
%IPPOS*%
%LPD*%
%AMOC8*
5,1,8,0,0,1.08239X$1,22.5*
%
%ADD10C,0.00300*%
%ADD11C,0.00600*%
D10*
X0059554Y0031975D02*
X0059554Y0034442D01*
X0059451Y0035470D02*
X0059657Y0035470D01*
X0059657Y0035675D01*
X0059451Y0035675D01*
X0059451Y0035470D01*
X0062590Y0035675D02*
X0062590Y0031975D01*
X0063618Y0031975D01*
X0063666Y0031977D01*
X0063715Y0031983D01*
X0063762Y0031992D01*
X0063809Y0032005D01*
X0063854Y0032022D01*
X0063898Y0032042D01*
X0063940Y0032066D01*
X0063981Y0032093D01*
X0064019Y0032123D01*
X0064054Y0032156D01*
X0064087Y0032191D01*
X0064117Y0032229D01*
X0064144Y0032270D01*
X0064168Y0032312D01*
X0064188Y0032356D01*
X0064205Y0032401D01*
X0064218Y0032448D01*
X0064227Y0032495D01*
X0064233Y0032544D01*
X0064235Y0032592D01*
X0064234Y0032592D02*
X0064234Y0033825D01*
X0064235Y0033825D02*
X0064233Y0033873D01*
X0064227Y0033922D01*
X0064218Y0033969D01*
X0064205Y0034016D01*
X0064188Y0034061D01*
X0064168Y0034105D01*
X0064144Y0034147D01*
X0064117Y0034188D01*
X0064087Y0034226D01*
X0064054Y0034261D01*
X0064019Y0034294D01*
X0063981Y0034324D01*
X0063940Y0034351D01*
X0063898Y0034375D01*
X0063854Y0034395D01*
X0063809Y0034412D01*
X0063762Y0034425D01*
X0063715Y0034434D01*
X0063666Y0034440D01*
X0063618Y0034442D01*
X0062590Y0034442D01*
X0065363Y0034442D02*
X0065363Y0034031D01*
X0065363Y0034442D02*
X0066596Y0034442D01*
X0066596Y0031975D01*
X0068350Y0031975D02*
X0068350Y0033825D01*
X0068350Y0033414D02*
X0069275Y0033414D01*
X0068349Y0033825D02*
X0068351Y0033873D01*
X0068357Y0033922D01*
X0068366Y0033969D01*
X0068379Y0034016D01*
X0068396Y0034061D01*
X0068416Y0034105D01*
X0068440Y0034147D01*
X0068467Y0034188D01*
X0068497Y0034226D01*
X0068530Y0034261D01*
X0068565Y0034294D01*
X0068603Y0034324D01*
X0068644Y0034351D01*
X0068686Y0034375D01*
X0068730Y0034395D01*
X0068775Y0034412D01*
X0068822Y0034425D01*
X0068869Y0034434D01*
X0068918Y0034440D01*
X0068966Y0034442D01*
X0069789Y0034442D01*
X0071401Y0034442D02*
X0072017Y0031975D01*
X0072634Y0033620D01*
X0073251Y0031975D01*
X0073867Y0034442D01*
X0074963Y0034442D02*
X0074963Y0034031D01*
X0074963Y0034442D02*
X0076196Y0034442D01*
X0076196Y0031975D01*
X0077812Y0032797D02*
X0077812Y0033620D01*
X0077814Y0033676D01*
X0077820Y0033732D01*
X0077829Y0033787D01*
X0077842Y0033842D01*
X0077859Y0033895D01*
X0077880Y0033947D01*
X0077904Y0033998D01*
X0077932Y0034047D01*
X0077962Y0034094D01*
X0077996Y0034139D01*
X0078033Y0034181D01*
X0078073Y0034221D01*
X0078115Y0034258D01*
X0078160Y0034292D01*
X0078207Y0034322D01*
X0078256Y0034350D01*
X0078307Y0034374D01*
X0078359Y0034395D01*
X0078412Y0034412D01*
X0078467Y0034425D01*
X0078522Y0034434D01*
X0078578Y0034440D01*
X0078634Y0034442D01*
X0078690Y0034440D01*
X0078746Y0034434D01*
X0078801Y0034425D01*
X0078856Y0034412D01*
X0078909Y0034395D01*
X0078961Y0034374D01*
X0079012Y0034350D01*
X0079061Y0034322D01*
X0079108Y0034292D01*
X0079153Y0034258D01*
X0079195Y0034221D01*
X0079235Y0034181D01*
X0079272Y0034139D01*
X0079306Y0034094D01*
X0079336Y0034047D01*
X0079364Y0033998D01*
X0079388Y0033947D01*
X0079409Y0033895D01*
X0079426Y0033842D01*
X0079439Y0033787D01*
X0079448Y0033732D01*
X0079454Y0033676D01*
X0079456Y0033620D01*
X0079456Y0032797D01*
X0079454Y0032741D01*
X0079448Y0032685D01*
X0079439Y0032630D01*
X0079426Y0032575D01*
X0079409Y0032522D01*
X0079388Y0032470D01*
X0079364Y0032419D01*
X0079336Y0032370D01*
X0079306Y0032323D01*
X0079272Y0032278D01*
X0079235Y0032236D01*
X0079195Y0032196D01*
X0079153Y0032159D01*
X0079108Y0032125D01*
X0079061Y0032095D01*
X0079012Y0032067D01*
X0078961Y0032043D01*
X0078909Y0032022D01*
X0078856Y0032005D01*
X0078801Y0031992D01*
X0078746Y0031983D01*
X0078690Y0031977D01*
X0078634Y0031975D01*
X0078578Y0031977D01*
X0078522Y0031983D01*
X0078467Y0031992D01*
X0078412Y0032005D01*
X0078359Y0032022D01*
X0078307Y0032043D01*
X0078256Y0032067D01*
X0078207Y0032095D01*
X0078160Y0032125D01*
X0078115Y0032159D01*
X0078073Y0032196D01*
X0078033Y0032236D01*
X0077996Y0032278D01*
X0077962Y0032323D01*
X0077932Y0032370D01*
X0077904Y0032419D01*
X0077880Y0032470D01*
X0077859Y0032522D01*
X0077842Y0032575D01*
X0077829Y0032630D01*
X0077820Y0032685D01*
X0077814Y0032741D01*
X0077812Y0032797D01*
X0080475Y0034442D02*
X0081709Y0034442D01*
X0081297Y0035059D02*
X0081297Y0031975D01*
X0083110Y0031975D02*
X0084137Y0031975D01*
X0084185Y0031977D01*
X0084234Y0031983D01*
X0084281Y0031992D01*
X0084328Y0032005D01*
X0084373Y0032022D01*
X0084417Y0032042D01*
X0084459Y0032066D01*
X0084500Y0032093D01*
X0084538Y0032123D01*
X0084573Y0032156D01*
X0084606Y0032191D01*
X0084636Y0032229D01*
X0084663Y0032270D01*
X0084687Y0032312D01*
X0084707Y0032356D01*
X0084724Y0032401D01*
X0084737Y0032448D01*
X0084746Y0032495D01*
X0084752Y0032544D01*
X0084754Y0032592D01*
X0084754Y0033825D01*
X0084752Y0033873D01*
X0084746Y0033922D01*
X0084737Y0033969D01*
X0084724Y0034016D01*
X0084707Y0034061D01*
X0084687Y0034105D01*
X0084663Y0034147D01*
X0084636Y0034188D01*
X0084606Y0034226D01*
X0084573Y0034261D01*
X0084538Y0034294D01*
X0084500Y0034324D01*
X0084459Y0034351D01*
X0084417Y0034375D01*
X0084373Y0034395D01*
X0084328Y0034412D01*
X0084281Y0034425D01*
X0084234Y0034434D01*
X0084185Y0034440D01*
X0084137Y0034442D01*
X0083110Y0034442D01*
X0083110Y0031359D01*
X0083109Y0031359D02*
X0083111Y0031311D01*
X0083117Y0031262D01*
X0083126Y0031215D01*
X0083139Y0031168D01*
X0083156Y0031123D01*
X0083176Y0031079D01*
X0083200Y0031037D01*
X0083227Y0030996D01*
X0083257Y0030958D01*
X0083290Y0030923D01*
X0083325Y0030890D01*
X0083363Y0030860D01*
X0083404Y0030833D01*
X0083446Y0030809D01*
X0083490Y0030789D01*
X0083535Y0030772D01*
X0083582Y0030759D01*
X0083629Y0030750D01*
X0083678Y0030744D01*
X0083726Y0030742D01*
X0084549Y0030742D01*
X0086332Y0031975D02*
X0086332Y0033825D01*
X0086331Y0033825D02*
X0086333Y0033873D01*
X0086339Y0033922D01*
X0086348Y0033969D01*
X0086361Y0034016D01*
X0086378Y0034061D01*
X0086398Y0034105D01*
X0086422Y0034147D01*
X0086449Y0034188D01*
X0086479Y0034226D01*
X0086512Y0034261D01*
X0086547Y0034294D01*
X0086585Y0034324D01*
X0086626Y0034351D01*
X0086668Y0034375D01*
X0086712Y0034395D01*
X0086757Y0034412D01*
X0086804Y0034425D01*
X0086851Y0034434D01*
X0086900Y0034440D01*
X0086948Y0034442D01*
X0087976Y0034442D01*
X0087976Y0031975D01*
X0089554Y0031975D02*
X0089554Y0034442D01*
X0089451Y0035470D02*
X0089657Y0035470D01*
X0089657Y0035675D01*
X0089451Y0035675D01*
X0089451Y0035470D01*
X0091748Y0034442D02*
X0092776Y0034442D01*
X0091748Y0034442D02*
X0091700Y0034440D01*
X0091651Y0034434D01*
X0091604Y0034425D01*
X0091557Y0034412D01*
X0091512Y0034395D01*
X0091468Y0034375D01*
X0091426Y0034351D01*
X0091385Y0034324D01*
X0091347Y0034294D01*
X0091312Y0034261D01*
X0091279Y0034226D01*
X0091249Y0034188D01*
X0091222Y0034147D01*
X0091198Y0034105D01*
X0091178Y0034061D01*
X0091161Y0034016D01*
X0091148Y0033969D01*
X0091139Y0033922D01*
X0091133Y0033873D01*
X0091131Y0033825D01*
X0091132Y0033825D02*
X0091132Y0031975D01*
X0092776Y0031975D02*
X0092776Y0035675D01*
X0094245Y0034442D02*
X0095479Y0034442D01*
X0095068Y0035675D02*
X0095068Y0032592D01*
X0095066Y0032544D01*
X0095060Y0032495D01*
X0095051Y0032448D01*
X0095038Y0032401D01*
X0095021Y0032356D01*
X0095001Y0032312D01*
X0094977Y0032270D01*
X0094950Y0032229D01*
X0094920Y0032191D01*
X0094887Y0032156D01*
X0094852Y0032123D01*
X0094814Y0032093D01*
X0094773Y0032066D01*
X0094731Y0032042D01*
X0094687Y0032022D01*
X0094642Y0032005D01*
X0094595Y0031992D01*
X0094548Y0031983D01*
X0094499Y0031977D01*
X0094451Y0031975D01*
X0094245Y0031975D01*
X0096531Y0031975D02*
X0096737Y0031975D01*
X0096737Y0032181D01*
X0096531Y0032181D01*
X0096531Y0031975D01*
X0098657Y0031975D02*
X0098041Y0034442D01*
X0099274Y0033620D02*
X0098657Y0031975D01*
X0099891Y0031975D02*
X0099274Y0033620D01*
X0100507Y0034442D02*
X0099891Y0031975D01*
X0102497Y0031975D02*
X0101880Y0034442D01*
X0103114Y0033620D02*
X0102497Y0031975D01*
X0103730Y0031975D02*
X0103114Y0033620D01*
X0104347Y0034442D02*
X0103730Y0031975D01*
X0106337Y0031975D02*
X0105720Y0034442D01*
X0106954Y0033620D02*
X0106337Y0031975D01*
X0107570Y0031975D02*
X0106954Y0033620D01*
X0108187Y0034442D02*
X0107570Y0031975D01*
X0108187Y0037975D02*
X0106954Y0041675D01*
X0105720Y0037975D01*
X0106029Y0038900D02*
X0107879Y0038900D01*
X0104434Y0038592D02*
X0104434Y0039825D01*
X0104432Y0039873D01*
X0104426Y0039922D01*
X0104417Y0039969D01*
X0104404Y0040016D01*
X0104387Y0040061D01*
X0104367Y0040105D01*
X0104343Y0040147D01*
X0104316Y0040188D01*
X0104286Y0040226D01*
X0104253Y0040261D01*
X0104218Y0040294D01*
X0104180Y0040324D01*
X0104139Y0040351D01*
X0104097Y0040375D01*
X0104053Y0040395D01*
X0104008Y0040412D01*
X0103961Y0040425D01*
X0103914Y0040434D01*
X0103865Y0040440D01*
X0103817Y0040442D01*
X0102790Y0040442D01*
X0102790Y0041675D02*
X0102790Y0037975D01*
X0103817Y0037975D01*
X0103865Y0037977D01*
X0103914Y0037983D01*
X0103961Y0037992D01*
X0104008Y0038005D01*
X0104053Y0038022D01*
X0104097Y0038042D01*
X0104139Y0038066D01*
X0104180Y0038093D01*
X0104218Y0038123D01*
X0104253Y0038156D01*
X0104286Y0038191D01*
X0104316Y0038229D01*
X0104343Y0038270D01*
X0104367Y0038312D01*
X0104387Y0038356D01*
X0104404Y0038401D01*
X0104417Y0038448D01*
X0104426Y0038495D01*
X0104432Y0038544D01*
X0104434Y0038592D01*
X0100989Y0040442D02*
X0100166Y0040442D01*
X0100118Y0040440D01*
X0100069Y0040434D01*
X0100022Y0040425D01*
X0099975Y0040412D01*
X0099930Y0040395D01*
X0099886Y0040375D01*
X0099844Y0040351D01*
X0099803Y0040324D01*
X0099765Y0040294D01*
X0099730Y0040261D01*
X0099697Y0040226D01*
X0099667Y0040188D01*
X0099640Y0040147D01*
X0099616Y0040105D01*
X0099596Y0040061D01*
X0099579Y0040016D01*
X0099566Y0039969D01*
X0099557Y0039922D01*
X0099551Y0039873D01*
X0099549Y0039825D01*
X0099550Y0039825D02*
X0099550Y0037975D01*
X0100475Y0037975D01*
X0100475Y0037976D02*
X0100527Y0037978D01*
X0100580Y0037984D01*
X0100631Y0037993D01*
X0100682Y0038006D01*
X0100732Y0038023D01*
X0100780Y0038044D01*
X0100827Y0038068D01*
X0100872Y0038095D01*
X0100914Y0038126D01*
X0100955Y0038160D01*
X0100993Y0038196D01*
X0101028Y0038235D01*
X0101060Y0038277D01*
X0101089Y0038320D01*
X0101114Y0038366D01*
X0101137Y0038414D01*
X0101155Y0038463D01*
X0101171Y0038513D01*
X0101182Y0038564D01*
X0101190Y0038616D01*
X0101194Y0038669D01*
X0101194Y0038721D01*
X0101190Y0038774D01*
X0101182Y0038826D01*
X0101171Y0038877D01*
X0101155Y0038927D01*
X0101137Y0038976D01*
X0101114Y0039024D01*
X0101089Y0039070D01*
X0101060Y0039113D01*
X0101028Y0039155D01*
X0100993Y0039194D01*
X0100955Y0039230D01*
X0100914Y0039264D01*
X0100872Y0039295D01*
X0100827Y0039322D01*
X0100780Y0039346D01*
X0100732Y0039367D01*
X0100682Y0039384D01*
X0100631Y0039397D01*
X0100580Y0039406D01*
X0100527Y0039412D01*
X0100475Y0039414D01*
X0099550Y0039414D01*
X0098149Y0040442D02*
X0096915Y0040442D01*
X0097738Y0041059D02*
X0097736Y0041107D01*
X0097730Y0041156D01*
X0097721Y0041203D01*
X0097708Y0041250D01*
X0097691Y0041295D01*
X0097671Y0041339D01*
X0097647Y0041381D01*
X0097620Y0041422D01*
X0097590Y0041460D01*
X0097557Y0041495D01*
X0097522Y0041528D01*
X0097484Y0041558D01*
X0097443Y0041585D01*
X0097401Y0041609D01*
X0097357Y0041629D01*
X0097312Y0041646D01*
X0097265Y0041659D01*
X0097218Y0041668D01*
X0097169Y0041674D01*
X0097121Y0041676D01*
X0097121Y0041675D02*
X0096915Y0041675D01*
X0097737Y0041059D02*
X0097737Y0037975D01*
X0095756Y0037975D02*
X0095756Y0040442D01*
X0094523Y0040442D01*
X0094523Y0040031D01*
X0093256Y0040442D02*
X0093256Y0038592D01*
X0093254Y0038544D01*
X0093248Y0038495D01*
X0093239Y0038448D01*
X0093226Y0038401D01*
X0093209Y0038356D01*
X0093189Y0038312D01*
X0093165Y0038270D01*
X0093138Y0038229D01*
X0093108Y0038191D01*
X0093075Y0038156D01*
X0093040Y0038123D01*
X0093002Y0038093D01*
X0092961Y0038066D01*
X0092919Y0038042D01*
X0092875Y0038022D01*
X0092830Y0038005D01*
X0092783Y0037992D01*
X0092736Y0037983D01*
X0092687Y0037977D01*
X0092639Y0037975D01*
X0091612Y0037975D01*
X0091612Y0040442D01*
X0090034Y0040442D02*
X0090034Y0037975D01*
X0088468Y0038592D02*
X0088468Y0041675D01*
X0088879Y0040442D02*
X0087645Y0040442D01*
X0089931Y0041470D02*
X0090137Y0041470D01*
X0090137Y0041675D01*
X0089931Y0041675D01*
X0089931Y0041470D01*
X0090719Y0043975D02*
X0090719Y0047675D01*
X0089692Y0047675D02*
X0091747Y0047675D01*
X0093017Y0045620D02*
X0093017Y0044797D01*
X0093019Y0044741D01*
X0093025Y0044685D01*
X0093034Y0044630D01*
X0093047Y0044575D01*
X0093064Y0044522D01*
X0093085Y0044470D01*
X0093109Y0044419D01*
X0093137Y0044370D01*
X0093167Y0044323D01*
X0093201Y0044278D01*
X0093238Y0044236D01*
X0093278Y0044196D01*
X0093320Y0044159D01*
X0093365Y0044125D01*
X0093412Y0044095D01*
X0093461Y0044067D01*
X0093512Y0044043D01*
X0093564Y0044022D01*
X0093617Y0044005D01*
X0093672Y0043992D01*
X0093727Y0043983D01*
X0093783Y0043977D01*
X0093839Y0043975D01*
X0093895Y0043977D01*
X0093951Y0043983D01*
X0094006Y0043992D01*
X0094061Y0044005D01*
X0094114Y0044022D01*
X0094166Y0044043D01*
X0094217Y0044067D01*
X0094266Y0044095D01*
X0094313Y0044125D01*
X0094358Y0044159D01*
X0094400Y0044196D01*
X0094440Y0044236D01*
X0094477Y0044278D01*
X0094511Y0044323D01*
X0094541Y0044370D01*
X0094569Y0044419D01*
X0094593Y0044470D01*
X0094614Y0044522D01*
X0094631Y0044575D01*
X0094644Y0044630D01*
X0094653Y0044685D01*
X0094659Y0044741D01*
X0094661Y0044797D01*
X0094662Y0044797D02*
X0094662Y0045620D01*
X0094661Y0045620D02*
X0094659Y0045676D01*
X0094653Y0045732D01*
X0094644Y0045787D01*
X0094631Y0045842D01*
X0094614Y0045895D01*
X0094593Y0045947D01*
X0094569Y0045998D01*
X0094541Y0046047D01*
X0094511Y0046094D01*
X0094477Y0046139D01*
X0094440Y0046181D01*
X0094400Y0046221D01*
X0094358Y0046258D01*
X0094313Y0046292D01*
X0094266Y0046322D01*
X0094217Y0046350D01*
X0094166Y0046374D01*
X0094114Y0046395D01*
X0094061Y0046412D01*
X0094006Y0046425D01*
X0093951Y0046434D01*
X0093895Y0046440D01*
X0093839Y0046442D01*
X0093783Y0046440D01*
X0093727Y0046434D01*
X0093672Y0046425D01*
X0093617Y0046412D01*
X0093564Y0046395D01*
X0093512Y0046374D01*
X0093461Y0046350D01*
X0093412Y0046322D01*
X0093365Y0046292D01*
X0093320Y0046258D01*
X0093278Y0046221D01*
X0093238Y0046181D01*
X0093201Y0046139D01*
X0093167Y0046094D01*
X0093137Y0046047D01*
X0093109Y0045998D01*
X0093085Y0045947D01*
X0093064Y0045895D01*
X0093047Y0045842D01*
X0093034Y0045787D01*
X0093025Y0045732D01*
X0093019Y0045676D01*
X0093017Y0045620D01*
X0096068Y0043975D02*
X0096891Y0043975D01*
X0096479Y0043975D02*
X0096479Y0047675D01*
X0096068Y0047675D02*
X0096891Y0047675D01*
X0098366Y0045414D02*
X0100833Y0045414D01*
X0103268Y0046031D02*
X0103205Y0046029D01*
X0103142Y0046023D01*
X0103079Y0046013D01*
X0103017Y0046000D01*
X0102956Y0045983D01*
X0102897Y0045962D01*
X0102838Y0045937D01*
X0102782Y0045909D01*
X0102727Y0045877D01*
X0102674Y0045842D01*
X0102624Y0045804D01*
X0102575Y0045763D01*
X0102530Y0045719D01*
X0102487Y0045672D01*
X0102448Y0045623D01*
X0102411Y0045571D01*
X0102378Y0045517D01*
X0102348Y0045461D01*
X0102321Y0045404D01*
X0102298Y0045345D01*
X0102279Y0045284D01*
X0102264Y0045223D01*
X0102252Y0045161D01*
X0102244Y0045098D01*
X0102240Y0045035D01*
X0102240Y0044971D01*
X0102244Y0044908D01*
X0102252Y0044845D01*
X0102264Y0044783D01*
X0102279Y0044722D01*
X0102298Y0044661D01*
X0102321Y0044602D01*
X0102348Y0044545D01*
X0102378Y0044489D01*
X0102411Y0044435D01*
X0102448Y0044383D01*
X0102487Y0044334D01*
X0102530Y0044287D01*
X0102575Y0044243D01*
X0102624Y0044202D01*
X0102674Y0044164D01*
X0102727Y0044129D01*
X0102782Y0044097D01*
X0102838Y0044069D01*
X0102897Y0044044D01*
X0102956Y0044023D01*
X0103017Y0044006D01*
X0103079Y0043993D01*
X0103142Y0043983D01*
X0103205Y0043977D01*
X0103268Y0043975D01*
X0104295Y0043975D01*
X0104295Y0047675D01*
X0103268Y0047675D01*
X0103212Y0047673D01*
X0103156Y0047667D01*
X0103101Y0047658D01*
X0103046Y0047645D01*
X0102993Y0047628D01*
X0102941Y0047607D01*
X0102890Y0047583D01*
X0102841Y0047555D01*
X0102794Y0047525D01*
X0102749Y0047491D01*
X0102707Y0047454D01*
X0102667Y0047414D01*
X0102630Y0047372D01*
X0102596Y0047327D01*
X0102566Y0047280D01*
X0102538Y0047231D01*
X0102514Y0047180D01*
X0102493Y0047128D01*
X0102476Y0047075D01*
X0102463Y0047020D01*
X0102454Y0046965D01*
X0102448Y0046909D01*
X0102446Y0046853D01*
X0102448Y0046797D01*
X0102454Y0046741D01*
X0102463Y0046686D01*
X0102476Y0046631D01*
X0102493Y0046578D01*
X0102514Y0046526D01*
X0102538Y0046475D01*
X0102566Y0046426D01*
X0102596Y0046379D01*
X0102630Y0046334D01*
X0102667Y0046292D01*
X0102707Y0046252D01*
X0102749Y0046215D01*
X0102794Y0046181D01*
X0102841Y0046151D01*
X0102890Y0046123D01*
X0102941Y0046099D01*
X0102993Y0046078D01*
X0103046Y0046061D01*
X0103101Y0046048D01*
X0103156Y0046039D01*
X0103212Y0046033D01*
X0103268Y0046031D01*
X0104295Y0046031D01*
X0106132Y0047675D02*
X0106132Y0043975D01*
X0108187Y0047675D01*
X0108187Y0043975D01*
X0088468Y0038592D02*
X0088466Y0038544D01*
X0088460Y0038495D01*
X0088451Y0038448D01*
X0088438Y0038401D01*
X0088421Y0038356D01*
X0088401Y0038312D01*
X0088377Y0038270D01*
X0088350Y0038229D01*
X0088320Y0038191D01*
X0088287Y0038156D01*
X0088252Y0038123D01*
X0088214Y0038093D01*
X0088173Y0038066D01*
X0088131Y0038042D01*
X0088087Y0038022D01*
X0088042Y0038005D01*
X0087995Y0037992D01*
X0087948Y0037983D01*
X0087899Y0037977D01*
X0087851Y0037975D01*
X0087645Y0037975D01*
X0084215Y0037975D02*
X0084215Y0041675D01*
X0082570Y0041675D01*
X0082570Y0040031D02*
X0084215Y0040031D01*
X0081256Y0039620D02*
X0081256Y0038592D01*
X0081257Y0038592D02*
X0081255Y0038544D01*
X0081249Y0038495D01*
X0081240Y0038448D01*
X0081227Y0038401D01*
X0081210Y0038356D01*
X0081190Y0038312D01*
X0081166Y0038270D01*
X0081139Y0038229D01*
X0081109Y0038191D01*
X0081076Y0038156D01*
X0081041Y0038123D01*
X0081003Y0038093D01*
X0080962Y0038066D01*
X0080920Y0038042D01*
X0080876Y0038022D01*
X0080831Y0038005D01*
X0080784Y0037992D01*
X0080737Y0037983D01*
X0080688Y0037977D01*
X0080640Y0037975D01*
X0079612Y0037975D01*
X0077435Y0037975D02*
X0076510Y0037975D01*
X0076510Y0039825D01*
X0076510Y0039414D02*
X0077435Y0039414D01*
X0076509Y0039825D02*
X0076511Y0039873D01*
X0076517Y0039922D01*
X0076526Y0039969D01*
X0076539Y0040016D01*
X0076556Y0040061D01*
X0076576Y0040105D01*
X0076600Y0040147D01*
X0076627Y0040188D01*
X0076657Y0040226D01*
X0076690Y0040261D01*
X0076725Y0040294D01*
X0076763Y0040324D01*
X0076804Y0040351D01*
X0076846Y0040375D01*
X0076890Y0040395D01*
X0076935Y0040412D01*
X0076982Y0040425D01*
X0077029Y0040434D01*
X0077078Y0040440D01*
X0077126Y0040442D01*
X0077949Y0040442D01*
X0079612Y0039620D02*
X0079612Y0039209D01*
X0081256Y0039209D01*
X0081256Y0039620D02*
X0081254Y0039676D01*
X0081248Y0039732D01*
X0081239Y0039787D01*
X0081226Y0039842D01*
X0081209Y0039895D01*
X0081188Y0039947D01*
X0081164Y0039998D01*
X0081136Y0040047D01*
X0081106Y0040094D01*
X0081072Y0040139D01*
X0081035Y0040181D01*
X0080995Y0040221D01*
X0080953Y0040258D01*
X0080908Y0040292D01*
X0080861Y0040322D01*
X0080812Y0040350D01*
X0080761Y0040374D01*
X0080709Y0040395D01*
X0080656Y0040412D01*
X0080601Y0040425D01*
X0080546Y0040434D01*
X0080490Y0040440D01*
X0080434Y0040442D01*
X0080378Y0040440D01*
X0080322Y0040434D01*
X0080267Y0040425D01*
X0080212Y0040412D01*
X0080159Y0040395D01*
X0080107Y0040374D01*
X0080056Y0040350D01*
X0080007Y0040322D01*
X0079960Y0040292D01*
X0079915Y0040258D01*
X0079873Y0040221D01*
X0079833Y0040181D01*
X0079796Y0040139D01*
X0079762Y0040094D01*
X0079732Y0040047D01*
X0079704Y0039998D01*
X0079680Y0039947D01*
X0079659Y0039895D01*
X0079642Y0039842D01*
X0079629Y0039787D01*
X0079620Y0039732D01*
X0079614Y0039676D01*
X0079612Y0039620D01*
X0077435Y0039414D02*
X0077487Y0039412D01*
X0077540Y0039406D01*
X0077591Y0039397D01*
X0077642Y0039384D01*
X0077692Y0039367D01*
X0077740Y0039346D01*
X0077787Y0039322D01*
X0077832Y0039295D01*
X0077874Y0039264D01*
X0077915Y0039230D01*
X0077953Y0039194D01*
X0077988Y0039155D01*
X0078020Y0039113D01*
X0078049Y0039070D01*
X0078074Y0039024D01*
X0078097Y0038976D01*
X0078115Y0038927D01*
X0078131Y0038877D01*
X0078142Y0038826D01*
X0078150Y0038774D01*
X0078154Y0038721D01*
X0078154Y0038669D01*
X0078150Y0038616D01*
X0078142Y0038564D01*
X0078131Y0038513D01*
X0078115Y0038463D01*
X0078097Y0038414D01*
X0078074Y0038366D01*
X0078049Y0038320D01*
X0078020Y0038277D01*
X0077988Y0038235D01*
X0077953Y0038196D01*
X0077915Y0038160D01*
X0077874Y0038126D01*
X0077832Y0038095D01*
X0077787Y0038068D01*
X0077740Y0038044D01*
X0077692Y0038023D01*
X0077642Y0038006D01*
X0077591Y0037993D01*
X0077540Y0037984D01*
X0077487Y0037978D01*
X0077435Y0037976D01*
X0074788Y0038592D02*
X0074788Y0041675D01*
X0075199Y0040442D02*
X0073966Y0040442D01*
X0072496Y0040442D02*
X0071468Y0040442D01*
X0071420Y0040440D01*
X0071371Y0040434D01*
X0071324Y0040425D01*
X0071277Y0040412D01*
X0071232Y0040395D01*
X0071188Y0040375D01*
X0071146Y0040351D01*
X0071105Y0040324D01*
X0071067Y0040294D01*
X0071032Y0040261D01*
X0070999Y0040226D01*
X0070969Y0040188D01*
X0070942Y0040147D01*
X0070918Y0040105D01*
X0070898Y0040061D01*
X0070881Y0040016D01*
X0070868Y0039969D01*
X0070859Y0039922D01*
X0070853Y0039873D01*
X0070851Y0039825D01*
X0070852Y0039825D02*
X0070852Y0037975D01*
X0072496Y0037975D02*
X0072496Y0041675D01*
X0069256Y0039620D02*
X0069256Y0038592D01*
X0069257Y0038592D02*
X0069255Y0038544D01*
X0069249Y0038495D01*
X0069240Y0038448D01*
X0069227Y0038401D01*
X0069210Y0038356D01*
X0069190Y0038312D01*
X0069166Y0038270D01*
X0069139Y0038229D01*
X0069109Y0038191D01*
X0069076Y0038156D01*
X0069041Y0038123D01*
X0069003Y0038093D01*
X0068962Y0038066D01*
X0068920Y0038042D01*
X0068876Y0038022D01*
X0068831Y0038005D01*
X0068784Y0037992D01*
X0068737Y0037983D01*
X0068688Y0037977D01*
X0068640Y0037975D01*
X0067612Y0037975D01*
X0065996Y0037975D02*
X0065996Y0040442D01*
X0064763Y0040442D01*
X0064763Y0040031D01*
X0061490Y0040031D02*
X0060462Y0040031D01*
X0060406Y0040033D01*
X0060350Y0040039D01*
X0060295Y0040048D01*
X0060240Y0040061D01*
X0060187Y0040078D01*
X0060135Y0040099D01*
X0060084Y0040123D01*
X0060035Y0040151D01*
X0059988Y0040181D01*
X0059943Y0040215D01*
X0059901Y0040252D01*
X0059861Y0040292D01*
X0059824Y0040334D01*
X0059790Y0040379D01*
X0059760Y0040426D01*
X0059732Y0040475D01*
X0059708Y0040526D01*
X0059687Y0040578D01*
X0059670Y0040631D01*
X0059657Y0040686D01*
X0059648Y0040741D01*
X0059642Y0040797D01*
X0059640Y0040853D01*
X0059642Y0040909D01*
X0059648Y0040965D01*
X0059657Y0041020D01*
X0059670Y0041075D01*
X0059687Y0041128D01*
X0059708Y0041180D01*
X0059732Y0041231D01*
X0059760Y0041280D01*
X0059790Y0041327D01*
X0059824Y0041372D01*
X0059861Y0041414D01*
X0059901Y0041454D01*
X0059943Y0041491D01*
X0059988Y0041525D01*
X0060035Y0041555D01*
X0060084Y0041583D01*
X0060135Y0041607D01*
X0060187Y0041628D01*
X0060240Y0041645D01*
X0060295Y0041658D01*
X0060350Y0041667D01*
X0060406Y0041673D01*
X0060462Y0041675D01*
X0061490Y0041675D01*
X0061490Y0037975D01*
X0060462Y0037975D01*
X0058096Y0038797D02*
X0058096Y0039620D01*
X0058094Y0039676D01*
X0058088Y0039732D01*
X0058079Y0039787D01*
X0058066Y0039842D01*
X0058049Y0039895D01*
X0058028Y0039947D01*
X0058004Y0039998D01*
X0057976Y0040047D01*
X0057946Y0040094D01*
X0057912Y0040139D01*
X0057875Y0040181D01*
X0057835Y0040221D01*
X0057793Y0040258D01*
X0057748Y0040292D01*
X0057701Y0040322D01*
X0057652Y0040350D01*
X0057601Y0040374D01*
X0057549Y0040395D01*
X0057496Y0040412D01*
X0057441Y0040425D01*
X0057386Y0040434D01*
X0057330Y0040440D01*
X0057274Y0040442D01*
X0057218Y0040440D01*
X0057162Y0040434D01*
X0057107Y0040425D01*
X0057052Y0040412D01*
X0056999Y0040395D01*
X0056947Y0040374D01*
X0056896Y0040350D01*
X0056847Y0040322D01*
X0056800Y0040292D01*
X0056755Y0040258D01*
X0056713Y0040221D01*
X0056673Y0040181D01*
X0056636Y0040139D01*
X0056602Y0040094D01*
X0056572Y0040047D01*
X0056544Y0039998D01*
X0056520Y0039947D01*
X0056499Y0039895D01*
X0056482Y0039842D01*
X0056469Y0039787D01*
X0056460Y0039732D01*
X0056454Y0039676D01*
X0056452Y0039620D01*
X0056452Y0038797D01*
X0056454Y0038741D01*
X0056460Y0038685D01*
X0056469Y0038630D01*
X0056482Y0038575D01*
X0056499Y0038522D01*
X0056520Y0038470D01*
X0056544Y0038419D01*
X0056572Y0038370D01*
X0056602Y0038323D01*
X0056636Y0038278D01*
X0056673Y0038236D01*
X0056713Y0038196D01*
X0056755Y0038159D01*
X0056800Y0038125D01*
X0056847Y0038095D01*
X0056896Y0038067D01*
X0056947Y0038043D01*
X0056999Y0038022D01*
X0057052Y0038005D01*
X0057107Y0037992D01*
X0057162Y0037983D01*
X0057218Y0037977D01*
X0057274Y0037975D01*
X0057330Y0037977D01*
X0057386Y0037983D01*
X0057441Y0037992D01*
X0057496Y0038005D01*
X0057549Y0038022D01*
X0057601Y0038043D01*
X0057652Y0038067D01*
X0057701Y0038095D01*
X0057748Y0038125D01*
X0057793Y0038159D01*
X0057835Y0038196D01*
X0057875Y0038236D01*
X0057912Y0038278D01*
X0057946Y0038323D01*
X0057976Y0038370D01*
X0058004Y0038419D01*
X0058028Y0038470D01*
X0058049Y0038522D01*
X0058066Y0038575D01*
X0058079Y0038630D01*
X0058088Y0038685D01*
X0058094Y0038741D01*
X0058096Y0038797D01*
X0060462Y0037975D02*
X0060399Y0037977D01*
X0060336Y0037983D01*
X0060273Y0037993D01*
X0060211Y0038006D01*
X0060150Y0038023D01*
X0060091Y0038044D01*
X0060032Y0038069D01*
X0059976Y0038097D01*
X0059921Y0038129D01*
X0059868Y0038164D01*
X0059818Y0038202D01*
X0059769Y0038243D01*
X0059724Y0038287D01*
X0059681Y0038334D01*
X0059642Y0038383D01*
X0059605Y0038435D01*
X0059572Y0038489D01*
X0059542Y0038545D01*
X0059515Y0038602D01*
X0059492Y0038661D01*
X0059473Y0038722D01*
X0059458Y0038783D01*
X0059446Y0038845D01*
X0059438Y0038908D01*
X0059434Y0038971D01*
X0059434Y0039035D01*
X0059438Y0039098D01*
X0059446Y0039161D01*
X0059458Y0039223D01*
X0059473Y0039284D01*
X0059492Y0039345D01*
X0059515Y0039404D01*
X0059542Y0039461D01*
X0059572Y0039517D01*
X0059605Y0039571D01*
X0059642Y0039623D01*
X0059681Y0039672D01*
X0059724Y0039719D01*
X0059769Y0039763D01*
X0059818Y0039804D01*
X0059868Y0039842D01*
X0059921Y0039877D01*
X0059976Y0039909D01*
X0060032Y0039937D01*
X0060091Y0039962D01*
X0060150Y0039983D01*
X0060211Y0040000D01*
X0060273Y0040013D01*
X0060336Y0040023D01*
X0060399Y0040029D01*
X0060462Y0040031D01*
X0054789Y0040442D02*
X0053967Y0040442D01*
X0053919Y0040440D01*
X0053870Y0040434D01*
X0053823Y0040425D01*
X0053776Y0040412D01*
X0053731Y0040395D01*
X0053687Y0040375D01*
X0053645Y0040351D01*
X0053604Y0040324D01*
X0053566Y0040294D01*
X0053531Y0040261D01*
X0053498Y0040226D01*
X0053468Y0040188D01*
X0053441Y0040147D01*
X0053417Y0040105D01*
X0053397Y0040061D01*
X0053380Y0040016D01*
X0053367Y0039969D01*
X0053358Y0039922D01*
X0053352Y0039873D01*
X0053350Y0039825D01*
X0053350Y0037975D01*
X0054275Y0037975D01*
X0054275Y0037976D02*
X0054327Y0037978D01*
X0054380Y0037984D01*
X0054431Y0037993D01*
X0054482Y0038006D01*
X0054532Y0038023D01*
X0054580Y0038044D01*
X0054627Y0038068D01*
X0054672Y0038095D01*
X0054714Y0038126D01*
X0054755Y0038160D01*
X0054793Y0038196D01*
X0054828Y0038235D01*
X0054860Y0038277D01*
X0054889Y0038320D01*
X0054914Y0038366D01*
X0054937Y0038414D01*
X0054955Y0038463D01*
X0054971Y0038513D01*
X0054982Y0038564D01*
X0054990Y0038616D01*
X0054994Y0038669D01*
X0054994Y0038721D01*
X0054990Y0038774D01*
X0054982Y0038826D01*
X0054971Y0038877D01*
X0054955Y0038927D01*
X0054937Y0038976D01*
X0054914Y0039024D01*
X0054889Y0039070D01*
X0054860Y0039113D01*
X0054828Y0039155D01*
X0054793Y0039194D01*
X0054755Y0039230D01*
X0054714Y0039264D01*
X0054672Y0039295D01*
X0054627Y0039322D01*
X0054580Y0039346D01*
X0054532Y0039367D01*
X0054482Y0039384D01*
X0054431Y0039397D01*
X0054380Y0039406D01*
X0054327Y0039412D01*
X0054275Y0039414D01*
X0053350Y0039414D01*
X0051596Y0040442D02*
X0050363Y0040442D01*
X0050363Y0040031D01*
X0049234Y0039825D02*
X0049234Y0038592D01*
X0049235Y0038592D02*
X0049233Y0038544D01*
X0049227Y0038495D01*
X0049218Y0038448D01*
X0049205Y0038401D01*
X0049188Y0038356D01*
X0049168Y0038312D01*
X0049144Y0038270D01*
X0049117Y0038229D01*
X0049087Y0038191D01*
X0049054Y0038156D01*
X0049019Y0038123D01*
X0048981Y0038093D01*
X0048940Y0038066D01*
X0048898Y0038042D01*
X0048854Y0038022D01*
X0048809Y0038005D01*
X0048762Y0037992D01*
X0048715Y0037983D01*
X0048666Y0037977D01*
X0048618Y0037975D01*
X0047590Y0037975D01*
X0047590Y0041675D01*
X0047590Y0040442D02*
X0048618Y0040442D01*
X0048666Y0040440D01*
X0048715Y0040434D01*
X0048762Y0040425D01*
X0048809Y0040412D01*
X0048854Y0040395D01*
X0048898Y0040375D01*
X0048940Y0040351D01*
X0048981Y0040324D01*
X0049019Y0040294D01*
X0049054Y0040261D01*
X0049087Y0040226D01*
X0049117Y0040188D01*
X0049144Y0040147D01*
X0049168Y0040105D01*
X0049188Y0040061D01*
X0049205Y0040016D01*
X0049218Y0039969D01*
X0049227Y0039922D01*
X0049233Y0039873D01*
X0049235Y0039825D01*
X0051596Y0040442D02*
X0051596Y0037975D01*
X0045668Y0039414D02*
X0044640Y0039003D01*
X0044599Y0038984D01*
X0044560Y0038963D01*
X0044523Y0038938D01*
X0044488Y0038910D01*
X0044455Y0038879D01*
X0044425Y0038845D01*
X0044399Y0038810D01*
X0044375Y0038772D01*
X0044354Y0038732D01*
X0044337Y0038690D01*
X0044324Y0038648D01*
X0044314Y0038604D01*
X0044308Y0038560D01*
X0044305Y0038515D01*
X0044306Y0038470D01*
X0044311Y0038426D01*
X0044320Y0038382D01*
X0044333Y0038339D01*
X0044349Y0038297D01*
X0044368Y0038256D01*
X0044391Y0038218D01*
X0044417Y0038181D01*
X0044446Y0038147D01*
X0044478Y0038115D01*
X0044512Y0038086D01*
X0044548Y0038061D01*
X0044587Y0038038D01*
X0044627Y0038018D01*
X0044669Y0038002D01*
X0044712Y0037990D01*
X0044756Y0037981D01*
X0044801Y0037976D01*
X0044846Y0037975D01*
X0044538Y0040236D02*
X0044626Y0040274D01*
X0044715Y0040307D01*
X0044805Y0040337D01*
X0044897Y0040364D01*
X0044990Y0040386D01*
X0045083Y0040405D01*
X0045177Y0040420D01*
X0045272Y0040431D01*
X0045367Y0040438D01*
X0045463Y0040442D01*
X0045462Y0040442D02*
X0045507Y0040441D01*
X0045552Y0040436D01*
X0045596Y0040427D01*
X0045639Y0040415D01*
X0045681Y0040399D01*
X0045721Y0040379D01*
X0045760Y0040356D01*
X0045796Y0040331D01*
X0045830Y0040302D01*
X0045862Y0040270D01*
X0045891Y0040236D01*
X0045917Y0040199D01*
X0045940Y0040161D01*
X0045959Y0040120D01*
X0045975Y0040078D01*
X0045988Y0040035D01*
X0045997Y0039991D01*
X0046002Y0039947D01*
X0046003Y0039902D01*
X0046000Y0039857D01*
X0045994Y0039813D01*
X0045984Y0039769D01*
X0045971Y0039727D01*
X0045954Y0039685D01*
X0045933Y0039645D01*
X0045909Y0039607D01*
X0045883Y0039572D01*
X0045853Y0039538D01*
X0045820Y0039507D01*
X0045785Y0039479D01*
X0045748Y0039454D01*
X0045709Y0039433D01*
X0045668Y0039414D01*
X0045976Y0038181D02*
X0045867Y0038144D01*
X0045757Y0038110D01*
X0045645Y0038080D01*
X0045533Y0038054D01*
X0045420Y0038031D01*
X0045306Y0038012D01*
X0045191Y0037997D01*
X0045076Y0037986D01*
X0044961Y0037979D01*
X0044846Y0037975D01*
X0040798Y0037975D02*
X0039771Y0037975D01*
X0039723Y0037977D01*
X0039674Y0037983D01*
X0039627Y0037992D01*
X0039580Y0038005D01*
X0039535Y0038022D01*
X0039491Y0038042D01*
X0039449Y0038066D01*
X0039408Y0038093D01*
X0039370Y0038123D01*
X0039335Y0038156D01*
X0039302Y0038191D01*
X0039272Y0038229D01*
X0039245Y0038270D01*
X0039221Y0038312D01*
X0039201Y0038356D01*
X0039184Y0038401D01*
X0039171Y0038448D01*
X0039162Y0038495D01*
X0039156Y0038544D01*
X0039154Y0038592D01*
X0039154Y0039825D01*
X0039156Y0039873D01*
X0039162Y0039922D01*
X0039171Y0039969D01*
X0039184Y0040016D01*
X0039201Y0040061D01*
X0039221Y0040105D01*
X0039245Y0040147D01*
X0039272Y0040188D01*
X0039302Y0040226D01*
X0039335Y0040261D01*
X0039370Y0040294D01*
X0039408Y0040324D01*
X0039449Y0040351D01*
X0039491Y0040375D01*
X0039535Y0040395D01*
X0039580Y0040412D01*
X0039627Y0040425D01*
X0039674Y0040434D01*
X0039723Y0040440D01*
X0039771Y0040442D01*
X0040798Y0040442D01*
X0040798Y0041675D02*
X0040798Y0037975D01*
X0037816Y0036742D02*
X0037405Y0036742D01*
X0036172Y0040442D01*
X0037816Y0040442D02*
X0036994Y0037975D01*
X0056452Y0033620D02*
X0056452Y0032797D01*
X0056454Y0032741D01*
X0056460Y0032685D01*
X0056469Y0032630D01*
X0056482Y0032575D01*
X0056499Y0032522D01*
X0056520Y0032470D01*
X0056544Y0032419D01*
X0056572Y0032370D01*
X0056602Y0032323D01*
X0056636Y0032278D01*
X0056673Y0032236D01*
X0056713Y0032196D01*
X0056755Y0032159D01*
X0056800Y0032125D01*
X0056847Y0032095D01*
X0056896Y0032067D01*
X0056947Y0032043D01*
X0056999Y0032022D01*
X0057052Y0032005D01*
X0057107Y0031992D01*
X0057162Y0031983D01*
X0057218Y0031977D01*
X0057274Y0031975D01*
X0057330Y0031977D01*
X0057386Y0031983D01*
X0057441Y0031992D01*
X0057496Y0032005D01*
X0057549Y0032022D01*
X0057601Y0032043D01*
X0057652Y0032067D01*
X0057701Y0032095D01*
X0057748Y0032125D01*
X0057793Y0032159D01*
X0057835Y0032196D01*
X0057875Y0032236D01*
X0057912Y0032278D01*
X0057946Y0032323D01*
X0057976Y0032370D01*
X0058004Y0032419D01*
X0058028Y0032470D01*
X0058049Y0032522D01*
X0058066Y0032575D01*
X0058079Y0032630D01*
X0058088Y0032685D01*
X0058094Y0032741D01*
X0058096Y0032797D01*
X0058096Y0033620D01*
X0058094Y0033676D01*
X0058088Y0033732D01*
X0058079Y0033787D01*
X0058066Y0033842D01*
X0058049Y0033895D01*
X0058028Y0033947D01*
X0058004Y0033998D01*
X0057976Y0034047D01*
X0057946Y0034094D01*
X0057912Y0034139D01*
X0057875Y0034181D01*
X0057835Y0034221D01*
X0057793Y0034258D01*
X0057748Y0034292D01*
X0057701Y0034322D01*
X0057652Y0034350D01*
X0057601Y0034374D01*
X0057549Y0034395D01*
X0057496Y0034412D01*
X0057441Y0034425D01*
X0057386Y0034434D01*
X0057330Y0034440D01*
X0057274Y0034442D01*
X0057218Y0034440D01*
X0057162Y0034434D01*
X0057107Y0034425D01*
X0057052Y0034412D01*
X0056999Y0034395D01*
X0056947Y0034374D01*
X0056896Y0034350D01*
X0056847Y0034322D01*
X0056800Y0034292D01*
X0056755Y0034258D01*
X0056713Y0034221D01*
X0056673Y0034181D01*
X0056636Y0034139D01*
X0056602Y0034094D01*
X0056572Y0034047D01*
X0056544Y0033998D01*
X0056520Y0033947D01*
X0056499Y0033895D01*
X0056482Y0033842D01*
X0056469Y0033787D01*
X0056460Y0033732D01*
X0056454Y0033676D01*
X0056452Y0033620D01*
X0060891Y0032181D02*
X0060891Y0031975D01*
X0061097Y0031975D01*
X0061097Y0032181D01*
X0060891Y0032181D01*
X0068350Y0031975D02*
X0069275Y0031975D01*
X0069275Y0031976D02*
X0069327Y0031978D01*
X0069380Y0031984D01*
X0069431Y0031993D01*
X0069482Y0032006D01*
X0069532Y0032023D01*
X0069580Y0032044D01*
X0069627Y0032068D01*
X0069672Y0032095D01*
X0069714Y0032126D01*
X0069755Y0032160D01*
X0069793Y0032196D01*
X0069828Y0032235D01*
X0069860Y0032277D01*
X0069889Y0032320D01*
X0069914Y0032366D01*
X0069937Y0032414D01*
X0069955Y0032463D01*
X0069971Y0032513D01*
X0069982Y0032564D01*
X0069990Y0032616D01*
X0069994Y0032669D01*
X0069994Y0032721D01*
X0069990Y0032774D01*
X0069982Y0032826D01*
X0069971Y0032877D01*
X0069955Y0032927D01*
X0069937Y0032976D01*
X0069914Y0033024D01*
X0069889Y0033070D01*
X0069860Y0033113D01*
X0069828Y0033155D01*
X0069793Y0033194D01*
X0069755Y0033230D01*
X0069714Y0033264D01*
X0069672Y0033295D01*
X0069627Y0033322D01*
X0069580Y0033346D01*
X0069532Y0033367D01*
X0069482Y0033384D01*
X0069431Y0033397D01*
X0069380Y0033406D01*
X0069327Y0033412D01*
X0069275Y0033414D01*
X0073966Y0037975D02*
X0074171Y0037975D01*
X0074219Y0037977D01*
X0074268Y0037983D01*
X0074315Y0037992D01*
X0074362Y0038005D01*
X0074407Y0038022D01*
X0074451Y0038042D01*
X0074493Y0038066D01*
X0074534Y0038093D01*
X0074572Y0038123D01*
X0074607Y0038156D01*
X0074640Y0038191D01*
X0074670Y0038229D01*
X0074697Y0038270D01*
X0074721Y0038312D01*
X0074741Y0038356D01*
X0074758Y0038401D01*
X0074771Y0038448D01*
X0074780Y0038495D01*
X0074786Y0038544D01*
X0074788Y0038592D01*
X0069256Y0039209D02*
X0067612Y0039209D01*
X0067612Y0039620D01*
X0067614Y0039676D01*
X0067620Y0039732D01*
X0067629Y0039787D01*
X0067642Y0039842D01*
X0067659Y0039895D01*
X0067680Y0039947D01*
X0067704Y0039998D01*
X0067732Y0040047D01*
X0067762Y0040094D01*
X0067796Y0040139D01*
X0067833Y0040181D01*
X0067873Y0040221D01*
X0067915Y0040258D01*
X0067960Y0040292D01*
X0068007Y0040322D01*
X0068056Y0040350D01*
X0068107Y0040374D01*
X0068159Y0040395D01*
X0068212Y0040412D01*
X0068267Y0040425D01*
X0068322Y0040434D01*
X0068378Y0040440D01*
X0068434Y0040442D01*
X0068490Y0040440D01*
X0068546Y0040434D01*
X0068601Y0040425D01*
X0068656Y0040412D01*
X0068709Y0040395D01*
X0068761Y0040374D01*
X0068812Y0040350D01*
X0068861Y0040322D01*
X0068908Y0040292D01*
X0068953Y0040258D01*
X0068995Y0040221D01*
X0069035Y0040181D01*
X0069072Y0040139D01*
X0069106Y0040094D01*
X0069136Y0040047D01*
X0069164Y0039998D01*
X0069188Y0039947D01*
X0069209Y0039895D01*
X0069226Y0039842D01*
X0069239Y0039787D01*
X0069248Y0039732D01*
X0069254Y0039676D01*
X0069256Y0039620D01*
X0067943Y0043975D02*
X0067943Y0047059D01*
X0067941Y0047107D01*
X0067935Y0047156D01*
X0067926Y0047203D01*
X0067913Y0047250D01*
X0067896Y0047295D01*
X0067876Y0047339D01*
X0067852Y0047381D01*
X0067825Y0047422D01*
X0067795Y0047460D01*
X0067762Y0047495D01*
X0067727Y0047528D01*
X0067689Y0047558D01*
X0067648Y0047585D01*
X0067606Y0047609D01*
X0067562Y0047629D01*
X0067517Y0047646D01*
X0067470Y0047659D01*
X0067423Y0047668D01*
X0067374Y0047674D01*
X0067326Y0047676D01*
X0067326Y0047675D02*
X0067121Y0047675D01*
X0067121Y0046442D02*
X0068354Y0046442D01*
X0066102Y0045620D02*
X0066102Y0044797D01*
X0066100Y0044741D01*
X0066094Y0044685D01*
X0066085Y0044630D01*
X0066072Y0044575D01*
X0066055Y0044522D01*
X0066034Y0044470D01*
X0066010Y0044419D01*
X0065982Y0044370D01*
X0065952Y0044323D01*
X0065918Y0044278D01*
X0065881Y0044236D01*
X0065841Y0044196D01*
X0065799Y0044159D01*
X0065754Y0044125D01*
X0065707Y0044095D01*
X0065658Y0044067D01*
X0065607Y0044043D01*
X0065555Y0044022D01*
X0065502Y0044005D01*
X0065447Y0043992D01*
X0065392Y0043983D01*
X0065336Y0043977D01*
X0065280Y0043975D01*
X0065224Y0043977D01*
X0065168Y0043983D01*
X0065113Y0043992D01*
X0065058Y0044005D01*
X0065005Y0044022D01*
X0064953Y0044043D01*
X0064902Y0044067D01*
X0064853Y0044095D01*
X0064806Y0044125D01*
X0064761Y0044159D01*
X0064719Y0044196D01*
X0064679Y0044236D01*
X0064642Y0044278D01*
X0064608Y0044323D01*
X0064578Y0044370D01*
X0064550Y0044419D01*
X0064526Y0044470D01*
X0064505Y0044522D01*
X0064488Y0044575D01*
X0064475Y0044630D01*
X0064466Y0044685D01*
X0064460Y0044741D01*
X0064458Y0044797D01*
X0064457Y0044797D02*
X0064457Y0045620D01*
X0064458Y0045620D02*
X0064460Y0045676D01*
X0064466Y0045732D01*
X0064475Y0045787D01*
X0064488Y0045842D01*
X0064505Y0045895D01*
X0064526Y0045947D01*
X0064550Y0045998D01*
X0064578Y0046047D01*
X0064608Y0046094D01*
X0064642Y0046139D01*
X0064679Y0046181D01*
X0064719Y0046221D01*
X0064761Y0046258D01*
X0064806Y0046292D01*
X0064853Y0046322D01*
X0064902Y0046350D01*
X0064953Y0046374D01*
X0065005Y0046395D01*
X0065058Y0046412D01*
X0065113Y0046425D01*
X0065168Y0046434D01*
X0065224Y0046440D01*
X0065280Y0046442D01*
X0065336Y0046440D01*
X0065392Y0046434D01*
X0065447Y0046425D01*
X0065502Y0046412D01*
X0065555Y0046395D01*
X0065607Y0046374D01*
X0065658Y0046350D01*
X0065707Y0046322D01*
X0065754Y0046292D01*
X0065799Y0046258D01*
X0065841Y0046221D01*
X0065881Y0046181D01*
X0065918Y0046139D01*
X0065952Y0046094D01*
X0065982Y0046047D01*
X0066010Y0045998D01*
X0066034Y0045947D01*
X0066055Y0045895D01*
X0066072Y0045842D01*
X0066085Y0045787D01*
X0066094Y0045732D01*
X0066100Y0045676D01*
X0066102Y0045620D01*
X0062842Y0046442D02*
X0062842Y0043975D01*
X0061608Y0046031D02*
X0061608Y0046442D01*
X0062842Y0046442D01*
X0071675Y0046442D02*
X0072703Y0046442D01*
X0072751Y0046440D01*
X0072800Y0046434D01*
X0072847Y0046425D01*
X0072894Y0046412D01*
X0072939Y0046395D01*
X0072983Y0046375D01*
X0073025Y0046351D01*
X0073066Y0046324D01*
X0073104Y0046294D01*
X0073139Y0046261D01*
X0073172Y0046226D01*
X0073202Y0046188D01*
X0073229Y0046147D01*
X0073253Y0046105D01*
X0073273Y0046061D01*
X0073290Y0046016D01*
X0073303Y0045969D01*
X0073312Y0045922D01*
X0073318Y0045873D01*
X0073320Y0045825D01*
X0073320Y0044592D01*
X0073318Y0044544D01*
X0073312Y0044495D01*
X0073303Y0044448D01*
X0073290Y0044401D01*
X0073273Y0044356D01*
X0073253Y0044312D01*
X0073229Y0044270D01*
X0073202Y0044229D01*
X0073172Y0044191D01*
X0073139Y0044156D01*
X0073104Y0044123D01*
X0073066Y0044093D01*
X0073025Y0044066D01*
X0072983Y0044042D01*
X0072939Y0044022D01*
X0072894Y0044005D01*
X0072847Y0043992D01*
X0072800Y0043983D01*
X0072751Y0043977D01*
X0072703Y0043975D01*
X0071675Y0043975D01*
X0071675Y0047675D01*
X0075172Y0047675D02*
X0075172Y0044592D01*
X0075173Y0044592D02*
X0075171Y0044544D01*
X0075165Y0044495D01*
X0075156Y0044448D01*
X0075143Y0044401D01*
X0075126Y0044356D01*
X0075106Y0044312D01*
X0075082Y0044270D01*
X0075055Y0044229D01*
X0075025Y0044191D01*
X0074992Y0044156D01*
X0074957Y0044123D01*
X0074919Y0044093D01*
X0074878Y0044066D01*
X0074836Y0044042D01*
X0074792Y0044022D01*
X0074747Y0044005D01*
X0074700Y0043992D01*
X0074653Y0043983D01*
X0074604Y0043977D01*
X0074556Y0043975D01*
X0076697Y0043975D02*
X0077725Y0043975D01*
X0077773Y0043977D01*
X0077822Y0043983D01*
X0077869Y0043992D01*
X0077916Y0044005D01*
X0077961Y0044022D01*
X0078005Y0044042D01*
X0078047Y0044066D01*
X0078088Y0044093D01*
X0078126Y0044123D01*
X0078161Y0044156D01*
X0078194Y0044191D01*
X0078224Y0044229D01*
X0078251Y0044270D01*
X0078275Y0044312D01*
X0078295Y0044356D01*
X0078312Y0044401D01*
X0078325Y0044448D01*
X0078334Y0044495D01*
X0078340Y0044544D01*
X0078342Y0044592D01*
X0078342Y0045620D01*
X0078342Y0045209D02*
X0076697Y0045209D01*
X0076697Y0045620D01*
X0076699Y0045676D01*
X0076705Y0045732D01*
X0076714Y0045787D01*
X0076727Y0045842D01*
X0076744Y0045895D01*
X0076765Y0045947D01*
X0076789Y0045998D01*
X0076817Y0046047D01*
X0076847Y0046094D01*
X0076881Y0046139D01*
X0076918Y0046181D01*
X0076958Y0046221D01*
X0077000Y0046258D01*
X0077045Y0046292D01*
X0077092Y0046322D01*
X0077141Y0046350D01*
X0077192Y0046374D01*
X0077244Y0046395D01*
X0077297Y0046412D01*
X0077352Y0046425D01*
X0077407Y0046434D01*
X0077463Y0046440D01*
X0077519Y0046442D01*
X0077575Y0046440D01*
X0077631Y0046434D01*
X0077686Y0046425D01*
X0077741Y0046412D01*
X0077794Y0046395D01*
X0077846Y0046374D01*
X0077897Y0046350D01*
X0077946Y0046322D01*
X0077993Y0046292D01*
X0078038Y0046258D01*
X0078080Y0046221D01*
X0078120Y0046181D01*
X0078157Y0046139D01*
X0078191Y0046094D01*
X0078221Y0046047D01*
X0078249Y0045998D01*
X0078273Y0045947D01*
X0078294Y0045895D01*
X0078311Y0045842D01*
X0078324Y0045787D01*
X0078333Y0045732D01*
X0078339Y0045676D01*
X0078341Y0045620D01*
X0079799Y0046442D02*
X0079799Y0043975D01*
X0081377Y0043975D02*
X0081377Y0045825D01*
X0081379Y0045873D01*
X0081385Y0045922D01*
X0081394Y0045969D01*
X0081407Y0046016D01*
X0081424Y0046061D01*
X0081444Y0046105D01*
X0081468Y0046147D01*
X0081495Y0046188D01*
X0081525Y0046226D01*
X0081558Y0046261D01*
X0081593Y0046294D01*
X0081631Y0046324D01*
X0081672Y0046351D01*
X0081714Y0046375D01*
X0081758Y0046395D01*
X0081803Y0046412D01*
X0081850Y0046425D01*
X0081897Y0046434D01*
X0081946Y0046440D01*
X0081994Y0046442D01*
X0083022Y0046442D01*
X0083022Y0047675D02*
X0083022Y0043975D01*
X0084943Y0045517D02*
X0086073Y0046134D01*
X0085662Y0047676D02*
X0085586Y0047674D01*
X0085510Y0047668D01*
X0085434Y0047659D01*
X0085359Y0047646D01*
X0085284Y0047629D01*
X0085211Y0047608D01*
X0085138Y0047584D01*
X0085067Y0047557D01*
X0084998Y0047525D01*
X0084929Y0047491D01*
X0084863Y0047453D01*
X0084799Y0047412D01*
X0084737Y0047368D01*
X0086073Y0046134D02*
X0086119Y0046163D01*
X0086162Y0046195D01*
X0086204Y0046229D01*
X0086243Y0046267D01*
X0086280Y0046306D01*
X0086314Y0046348D01*
X0086346Y0046393D01*
X0086374Y0046439D01*
X0086399Y0046487D01*
X0086422Y0046536D01*
X0086440Y0046587D01*
X0086456Y0046639D01*
X0086468Y0046691D01*
X0086477Y0046745D01*
X0086482Y0046799D01*
X0086484Y0046853D01*
X0086482Y0046909D01*
X0086476Y0046965D01*
X0086467Y0047020D01*
X0086454Y0047075D01*
X0086437Y0047128D01*
X0086416Y0047180D01*
X0086392Y0047231D01*
X0086364Y0047280D01*
X0086334Y0047327D01*
X0086300Y0047372D01*
X0086263Y0047414D01*
X0086223Y0047454D01*
X0086181Y0047491D01*
X0086136Y0047525D01*
X0086089Y0047555D01*
X0086040Y0047583D01*
X0085989Y0047607D01*
X0085937Y0047628D01*
X0085884Y0047645D01*
X0085829Y0047658D01*
X0085774Y0047667D01*
X0085718Y0047673D01*
X0085662Y0047675D01*
X0086587Y0044489D02*
X0086529Y0044433D01*
X0086469Y0044380D01*
X0086406Y0044329D01*
X0086340Y0044282D01*
X0086273Y0044238D01*
X0086203Y0044197D01*
X0086132Y0044159D01*
X0086059Y0044125D01*
X0085985Y0044094D01*
X0085909Y0044066D01*
X0085832Y0044042D01*
X0085754Y0044022D01*
X0085675Y0044005D01*
X0085595Y0043992D01*
X0085515Y0043982D01*
X0085435Y0043977D01*
X0085354Y0043975D01*
X0085298Y0043977D01*
X0085242Y0043983D01*
X0085187Y0043992D01*
X0085132Y0044005D01*
X0085079Y0044022D01*
X0085027Y0044043D01*
X0084976Y0044067D01*
X0084927Y0044095D01*
X0084880Y0044125D01*
X0084835Y0044159D01*
X0084793Y0044196D01*
X0084753Y0044236D01*
X0084716Y0044278D01*
X0084682Y0044323D01*
X0084652Y0044370D01*
X0084624Y0044419D01*
X0084600Y0044470D01*
X0084579Y0044522D01*
X0084562Y0044575D01*
X0084549Y0044630D01*
X0084540Y0044685D01*
X0084534Y0044741D01*
X0084532Y0044797D01*
X0084534Y0044851D01*
X0084539Y0044905D01*
X0084548Y0044959D01*
X0084560Y0045011D01*
X0084576Y0045063D01*
X0084594Y0045114D01*
X0084617Y0045163D01*
X0084642Y0045211D01*
X0084670Y0045257D01*
X0084702Y0045302D01*
X0084736Y0045344D01*
X0084773Y0045383D01*
X0084812Y0045421D01*
X0084854Y0045455D01*
X0084897Y0045487D01*
X0084943Y0045516D01*
X0079902Y0047470D02*
X0079697Y0047470D01*
X0079697Y0047675D01*
X0079902Y0047675D01*
X0079902Y0047470D01*
X0080475Y0035675D02*
X0080681Y0035675D01*
X0080681Y0035676D02*
X0080729Y0035674D01*
X0080778Y0035668D01*
X0080825Y0035659D01*
X0080872Y0035646D01*
X0080917Y0035629D01*
X0080961Y0035609D01*
X0081003Y0035585D01*
X0081044Y0035558D01*
X0081082Y0035528D01*
X0081117Y0035495D01*
X0081150Y0035460D01*
X0081180Y0035422D01*
X0081207Y0035381D01*
X0081231Y0035339D01*
X0081251Y0035295D01*
X0081268Y0035250D01*
X0081281Y0035203D01*
X0081290Y0035156D01*
X0081296Y0035107D01*
X0081298Y0035059D01*
D11*
X0079400Y0049400D02*
X0079398Y0049487D01*
X0079392Y0049574D01*
X0079383Y0049661D01*
X0079370Y0049747D01*
X0079353Y0049833D01*
X0079332Y0049918D01*
X0079307Y0050001D01*
X0079279Y0050084D01*
X0079248Y0050165D01*
X0079213Y0050245D01*
X0079174Y0050323D01*
X0079132Y0050400D01*
X0079087Y0050475D01*
X0079038Y0050547D01*
X0078987Y0050618D01*
X0078932Y0050686D01*
X0078875Y0050751D01*
X0078814Y0050814D01*
X0078751Y0050875D01*
X0078686Y0050932D01*
X0078618Y0050987D01*
X0078547Y0051038D01*
X0078475Y0051087D01*
X0078400Y0051132D01*
X0078323Y0051174D01*
X0078245Y0051213D01*
X0078165Y0051248D01*
X0078084Y0051279D01*
X0078001Y0051307D01*
X0077918Y0051332D01*
X0077833Y0051353D01*
X0077747Y0051370D01*
X0077661Y0051383D01*
X0077574Y0051392D01*
X0077487Y0051398D01*
X0077400Y0051400D01*
X0041400Y0051400D01*
X0041400Y0057400D01*
X0043722Y0056967D02*
X0045500Y0056967D01*
X0041400Y0057400D02*
X0041402Y0057526D01*
X0041408Y0057651D01*
X0041418Y0057776D01*
X0041432Y0057901D01*
X0041449Y0058026D01*
X0041471Y0058150D01*
X0041496Y0058273D01*
X0041526Y0058395D01*
X0041559Y0058516D01*
X0041596Y0058636D01*
X0041636Y0058755D01*
X0041681Y0058872D01*
X0041729Y0058989D01*
X0041781Y0059103D01*
X0041836Y0059216D01*
X0041895Y0059327D01*
X0041957Y0059436D01*
X0042023Y0059543D01*
X0042092Y0059648D01*
X0042164Y0059751D01*
X0042239Y0059852D01*
X0042318Y0059950D01*
X0042400Y0060045D01*
X0042484Y0060138D01*
X0042572Y0060228D01*
X0042662Y0060316D01*
X0042755Y0060400D01*
X0042850Y0060482D01*
X0042948Y0060561D01*
X0043049Y0060636D01*
X0043152Y0060708D01*
X0043257Y0060777D01*
X0043364Y0060843D01*
X0043473Y0060905D01*
X0043584Y0060964D01*
X0043697Y0061019D01*
X0043811Y0061071D01*
X0043928Y0061119D01*
X0044045Y0061164D01*
X0044164Y0061204D01*
X0044284Y0061241D01*
X0044405Y0061274D01*
X0044527Y0061304D01*
X0044650Y0061329D01*
X0044774Y0061351D01*
X0044899Y0061368D01*
X0045024Y0061382D01*
X0045149Y0061392D01*
X0045274Y0061398D01*
X0045400Y0061400D01*
X0105400Y0061400D01*
X0105400Y0055400D01*
X0105400Y0056400D02*
X0105398Y0056260D01*
X0105392Y0056120D01*
X0105382Y0055980D01*
X0105369Y0055840D01*
X0105351Y0055701D01*
X0105329Y0055562D01*
X0105304Y0055425D01*
X0105275Y0055287D01*
X0105242Y0055151D01*
X0105205Y0055016D01*
X0105164Y0054882D01*
X0105119Y0054749D01*
X0105071Y0054617D01*
X0105019Y0054487D01*
X0104964Y0054358D01*
X0104905Y0054231D01*
X0104842Y0054105D01*
X0104776Y0053981D01*
X0104707Y0053860D01*
X0104634Y0053740D01*
X0104557Y0053622D01*
X0104478Y0053507D01*
X0104395Y0053393D01*
X0104309Y0053283D01*
X0104220Y0053174D01*
X0104128Y0053068D01*
X0104033Y0052965D01*
X0103936Y0052864D01*
X0103835Y0052767D01*
X0103732Y0052672D01*
X0103626Y0052580D01*
X0103517Y0052491D01*
X0103407Y0052405D01*
X0103293Y0052322D01*
X0103178Y0052243D01*
X0103060Y0052166D01*
X0102940Y0052093D01*
X0102819Y0052024D01*
X0102695Y0051958D01*
X0102569Y0051895D01*
X0102442Y0051836D01*
X0102313Y0051781D01*
X0102183Y0051729D01*
X0102051Y0051681D01*
X0101918Y0051636D01*
X0101784Y0051595D01*
X0101649Y0051558D01*
X0101513Y0051525D01*
X0101375Y0051496D01*
X0101238Y0051471D01*
X0101099Y0051449D01*
X0100960Y0051431D01*
X0100820Y0051418D01*
X0100680Y0051408D01*
X0100540Y0051402D01*
X0100400Y0051400D01*
X0084400Y0051400D01*
X0083135Y0050567D02*
X0081713Y0050567D01*
X0081713Y0050566D02*
X0081649Y0050568D01*
X0081584Y0050574D01*
X0081521Y0050583D01*
X0081458Y0050597D01*
X0081396Y0050614D01*
X0081335Y0050635D01*
X0081275Y0050660D01*
X0081217Y0050688D01*
X0081161Y0050720D01*
X0081107Y0050755D01*
X0081055Y0050793D01*
X0081005Y0050834D01*
X0080959Y0050879D01*
X0080914Y0050925D01*
X0080873Y0050975D01*
X0080835Y0051027D01*
X0080800Y0051081D01*
X0080768Y0051137D01*
X0080740Y0051195D01*
X0080715Y0051255D01*
X0080694Y0051316D01*
X0080677Y0051378D01*
X0080663Y0051441D01*
X0080654Y0051504D01*
X0080648Y0051569D01*
X0080646Y0051633D01*
X0080646Y0056967D01*
X0082424Y0056967D01*
X0082488Y0056965D01*
X0082553Y0056959D01*
X0082616Y0056950D01*
X0082679Y0056936D01*
X0082741Y0056919D01*
X0082802Y0056898D01*
X0082862Y0056873D01*
X0082920Y0056845D01*
X0082976Y0056813D01*
X0083030Y0056778D01*
X0083082Y0056740D01*
X0083132Y0056699D01*
X0083178Y0056654D01*
X0083223Y0056608D01*
X0083264Y0056558D01*
X0083302Y0056506D01*
X0083337Y0056452D01*
X0083369Y0056396D01*
X0083397Y0056338D01*
X0083422Y0056278D01*
X0083443Y0056217D01*
X0083460Y0056155D01*
X0083474Y0056092D01*
X0083483Y0056029D01*
X0083489Y0055964D01*
X0083491Y0055900D01*
X0083491Y0053767D01*
X0083489Y0053703D01*
X0083483Y0053638D01*
X0083474Y0053575D01*
X0083460Y0053512D01*
X0083443Y0053450D01*
X0083422Y0053389D01*
X0083397Y0053329D01*
X0083369Y0053271D01*
X0083337Y0053215D01*
X0083302Y0053161D01*
X0083264Y0053109D01*
X0083223Y0053059D01*
X0083178Y0053013D01*
X0083132Y0052968D01*
X0083082Y0052927D01*
X0083030Y0052889D01*
X0082976Y0052854D01*
X0082920Y0052822D01*
X0082862Y0052794D01*
X0082802Y0052769D01*
X0082741Y0052748D01*
X0082679Y0052731D01*
X0082616Y0052717D01*
X0082553Y0052708D01*
X0082488Y0052702D01*
X0082424Y0052700D01*
X0080646Y0052700D01*
X0077652Y0052700D02*
X0077652Y0059100D01*
X0074807Y0059100D01*
X0074807Y0056256D02*
X0077652Y0056256D01*
X0072590Y0055544D02*
X0072590Y0054122D01*
X0072588Y0054048D01*
X0072582Y0053973D01*
X0072572Y0053900D01*
X0072559Y0053826D01*
X0072542Y0053754D01*
X0072520Y0053683D01*
X0072496Y0053612D01*
X0072467Y0053544D01*
X0072435Y0053476D01*
X0072399Y0053411D01*
X0072361Y0053348D01*
X0072318Y0053286D01*
X0072273Y0053227D01*
X0072225Y0053170D01*
X0072174Y0053116D01*
X0072120Y0053065D01*
X0072063Y0053017D01*
X0072004Y0052972D01*
X0071942Y0052929D01*
X0071879Y0052891D01*
X0071814Y0052855D01*
X0071746Y0052823D01*
X0071678Y0052794D01*
X0071607Y0052770D01*
X0071536Y0052748D01*
X0071464Y0052731D01*
X0071390Y0052718D01*
X0071317Y0052708D01*
X0071242Y0052702D01*
X0071168Y0052700D01*
X0071094Y0052702D01*
X0071019Y0052708D01*
X0070946Y0052718D01*
X0070872Y0052731D01*
X0070800Y0052748D01*
X0070729Y0052770D01*
X0070658Y0052794D01*
X0070590Y0052823D01*
X0070522Y0052855D01*
X0070457Y0052891D01*
X0070394Y0052929D01*
X0070332Y0052972D01*
X0070273Y0053017D01*
X0070216Y0053065D01*
X0070162Y0053116D01*
X0070111Y0053170D01*
X0070063Y0053227D01*
X0070018Y0053286D01*
X0069975Y0053348D01*
X0069937Y0053411D01*
X0069901Y0053476D01*
X0069869Y0053544D01*
X0069840Y0053612D01*
X0069816Y0053683D01*
X0069794Y0053754D01*
X0069777Y0053826D01*
X0069764Y0053900D01*
X0069754Y0053973D01*
X0069748Y0054048D01*
X0069746Y0054122D01*
X0069745Y0054122D02*
X0069745Y0055544D01*
X0069746Y0055544D02*
X0069748Y0055618D01*
X0069754Y0055693D01*
X0069764Y0055766D01*
X0069777Y0055840D01*
X0069794Y0055912D01*
X0069816Y0055983D01*
X0069840Y0056054D01*
X0069869Y0056122D01*
X0069901Y0056190D01*
X0069937Y0056255D01*
X0069975Y0056318D01*
X0070018Y0056380D01*
X0070063Y0056439D01*
X0070111Y0056496D01*
X0070162Y0056550D01*
X0070216Y0056601D01*
X0070273Y0056649D01*
X0070332Y0056694D01*
X0070394Y0056737D01*
X0070457Y0056775D01*
X0070522Y0056811D01*
X0070590Y0056843D01*
X0070658Y0056872D01*
X0070729Y0056896D01*
X0070800Y0056918D01*
X0070872Y0056935D01*
X0070946Y0056948D01*
X0071019Y0056958D01*
X0071094Y0056964D01*
X0071168Y0056966D01*
X0071242Y0056964D01*
X0071317Y0056958D01*
X0071390Y0056948D01*
X0071464Y0056935D01*
X0071536Y0056918D01*
X0071607Y0056896D01*
X0071678Y0056872D01*
X0071746Y0056843D01*
X0071814Y0056811D01*
X0071879Y0056775D01*
X0071942Y0056737D01*
X0072004Y0056694D01*
X0072063Y0056649D01*
X0072120Y0056601D01*
X0072174Y0056550D01*
X0072225Y0056496D01*
X0072273Y0056439D01*
X0072318Y0056380D01*
X0072361Y0056318D01*
X0072399Y0056255D01*
X0072435Y0056190D01*
X0072467Y0056122D01*
X0072496Y0056054D01*
X0072520Y0055983D01*
X0072542Y0055912D01*
X0072559Y0055840D01*
X0072572Y0055766D01*
X0072582Y0055693D01*
X0072588Y0055618D01*
X0072590Y0055544D01*
X0067018Y0056967D02*
X0064884Y0056967D01*
X0064884Y0056256D01*
X0063044Y0056967D02*
X0061977Y0052700D01*
X0060911Y0055544D01*
X0059844Y0052700D01*
X0058777Y0056967D01*
X0056057Y0056967D02*
X0054635Y0056967D01*
X0054571Y0056965D01*
X0054506Y0056959D01*
X0054443Y0056950D01*
X0054380Y0056936D01*
X0054318Y0056919D01*
X0054257Y0056898D01*
X0054197Y0056873D01*
X0054139Y0056845D01*
X0054083Y0056813D01*
X0054029Y0056778D01*
X0053977Y0056740D01*
X0053927Y0056699D01*
X0053881Y0056654D01*
X0053836Y0056608D01*
X0053795Y0056558D01*
X0053757Y0056506D01*
X0053722Y0056452D01*
X0053690Y0056396D01*
X0053662Y0056338D01*
X0053637Y0056278D01*
X0053616Y0056217D01*
X0053599Y0056155D01*
X0053585Y0056092D01*
X0053576Y0056029D01*
X0053570Y0055964D01*
X0053568Y0055900D01*
X0053569Y0055900D02*
X0053569Y0052700D01*
X0055169Y0052700D01*
X0055239Y0052702D01*
X0055308Y0052708D01*
X0055377Y0052718D01*
X0055446Y0052731D01*
X0055513Y0052749D01*
X0055580Y0052770D01*
X0055645Y0052795D01*
X0055709Y0052823D01*
X0055771Y0052855D01*
X0055831Y0052891D01*
X0055889Y0052929D01*
X0055945Y0052971D01*
X0055998Y0053016D01*
X0056049Y0053064D01*
X0056097Y0053115D01*
X0056142Y0053168D01*
X0056184Y0053224D01*
X0056222Y0053282D01*
X0056258Y0053342D01*
X0056290Y0053404D01*
X0056318Y0053468D01*
X0056343Y0053533D01*
X0056364Y0053600D01*
X0056382Y0053667D01*
X0056395Y0053736D01*
X0056405Y0053805D01*
X0056411Y0053874D01*
X0056413Y0053944D01*
X0056411Y0054014D01*
X0056405Y0054083D01*
X0056395Y0054152D01*
X0056382Y0054221D01*
X0056364Y0054288D01*
X0056343Y0054355D01*
X0056318Y0054420D01*
X0056290Y0054484D01*
X0056258Y0054546D01*
X0056222Y0054606D01*
X0056184Y0054664D01*
X0056142Y0054720D01*
X0056097Y0054773D01*
X0056049Y0054824D01*
X0055998Y0054872D01*
X0055945Y0054917D01*
X0055889Y0054959D01*
X0055831Y0054997D01*
X0055771Y0055033D01*
X0055709Y0055065D01*
X0055645Y0055093D01*
X0055580Y0055118D01*
X0055513Y0055139D01*
X0055446Y0055157D01*
X0055377Y0055170D01*
X0055308Y0055180D01*
X0055239Y0055186D01*
X0055169Y0055188D01*
X0055169Y0055189D02*
X0053569Y0055189D01*
X0050607Y0056967D02*
X0048474Y0056967D01*
X0048474Y0056256D01*
X0046567Y0055900D02*
X0046567Y0053767D01*
X0046565Y0053703D01*
X0046559Y0053638D01*
X0046550Y0053575D01*
X0046536Y0053512D01*
X0046519Y0053450D01*
X0046498Y0053389D01*
X0046473Y0053329D01*
X0046445Y0053271D01*
X0046413Y0053215D01*
X0046378Y0053161D01*
X0046340Y0053109D01*
X0046299Y0053059D01*
X0046254Y0053013D01*
X0046208Y0052968D01*
X0046158Y0052927D01*
X0046106Y0052889D01*
X0046052Y0052854D01*
X0045996Y0052822D01*
X0045938Y0052794D01*
X0045878Y0052769D01*
X0045817Y0052748D01*
X0045755Y0052731D01*
X0045692Y0052717D01*
X0045629Y0052708D01*
X0045564Y0052702D01*
X0045500Y0052700D01*
X0043722Y0052700D01*
X0043722Y0059100D01*
X0045500Y0056967D02*
X0045564Y0056965D01*
X0045629Y0056959D01*
X0045692Y0056950D01*
X0045755Y0056936D01*
X0045817Y0056919D01*
X0045878Y0056898D01*
X0045938Y0056873D01*
X0045996Y0056845D01*
X0046052Y0056813D01*
X0046106Y0056778D01*
X0046158Y0056740D01*
X0046208Y0056699D01*
X0046254Y0056654D01*
X0046299Y0056608D01*
X0046340Y0056558D01*
X0046378Y0056506D01*
X0046413Y0056452D01*
X0046445Y0056396D01*
X0046473Y0056338D01*
X0046498Y0056278D01*
X0046519Y0056217D01*
X0046536Y0056155D01*
X0046550Y0056092D01*
X0046559Y0056029D01*
X0046565Y0055964D01*
X0046567Y0055900D01*
X0050607Y0056967D02*
X0050607Y0052700D01*
X0067018Y0052700D02*
X0067018Y0056967D01*
X0086156Y0055900D02*
X0086156Y0052700D01*
X0089000Y0052700D02*
X0089000Y0056967D01*
X0087223Y0056967D01*
X0087159Y0056965D01*
X0087094Y0056959D01*
X0087031Y0056950D01*
X0086968Y0056936D01*
X0086906Y0056919D01*
X0086845Y0056898D01*
X0086785Y0056873D01*
X0086727Y0056845D01*
X0086671Y0056813D01*
X0086617Y0056778D01*
X0086565Y0056740D01*
X0086515Y0056699D01*
X0086469Y0056654D01*
X0086424Y0056608D01*
X0086383Y0056558D01*
X0086345Y0056506D01*
X0086310Y0056452D01*
X0086278Y0056396D01*
X0086250Y0056338D01*
X0086225Y0056278D01*
X0086204Y0056217D01*
X0086187Y0056155D01*
X0086173Y0056092D01*
X0086164Y0056029D01*
X0086158Y0055964D01*
X0086156Y0055900D01*
X0091681Y0056967D02*
X0091681Y0052700D01*
X0094361Y0052700D02*
X0094361Y0055900D01*
X0094363Y0055964D01*
X0094369Y0056029D01*
X0094378Y0056092D01*
X0094392Y0056155D01*
X0094409Y0056217D01*
X0094430Y0056278D01*
X0094455Y0056338D01*
X0094483Y0056396D01*
X0094515Y0056452D01*
X0094550Y0056506D01*
X0094588Y0056558D01*
X0094629Y0056608D01*
X0094674Y0056654D01*
X0094720Y0056699D01*
X0094770Y0056740D01*
X0094822Y0056778D01*
X0094876Y0056813D01*
X0094932Y0056845D01*
X0094990Y0056873D01*
X0095050Y0056898D01*
X0095111Y0056919D01*
X0095173Y0056936D01*
X0095236Y0056950D01*
X0095299Y0056959D01*
X0095364Y0056965D01*
X0095428Y0056967D01*
X0097206Y0056967D01*
X0097206Y0059100D02*
X0097206Y0052700D01*
X0101322Y0052700D02*
X0101322Y0059100D01*
X0103100Y0059100D02*
X0099544Y0059100D01*
X0091859Y0059100D02*
X0091503Y0059100D01*
X0091503Y0058744D01*
X0091859Y0058744D01*
X0091859Y0059100D01*
M02*
